<svg width="112" height="208" viewBox="0 0 112 208" xmlns="http://www.w3.org/2000/svg">
    <g fill-rule="nonzero" fill="none">
        <g transform="rotate(16 15.096 225.134)" fill="#FED2BC">
            <path d="M25.433.14c.084.38.47.339.69.384.31.064.565.207.83.311l.36-.397c.265-.018.42-.048.584.018.01.107.023.216.035.326.132.07.296.096.39.26v.414c.233.196.425.446.685.632.845.598 1.217 1.446 1.098 2.462-.04.348-.245.702-.546.944-.39.31-.792.627-1.278.736-.26.059-.374.283-.614.362-.19.06-.291.292-.582.165-.175-.074-.443.01-.643.09-.09.035-.194.086-.29.129-.256.11-.501.265-.795.242-.46-.036-.822.226-1.224.382-.293.002-.582.023-.895-.08-.354-.114-.774-.007-1.161-.032-.281-.02-.562.089-.853-.11-.22-.15-.584.117-.824-.16-.01-.013-.046-.005-.066 0-.546.11-1.05-.242-1.578-.133-.079-.078-.132-.175-.21-.206-.557-.211-.951-.67-1.467-.95-.395-.213-.582-.674-.883-1.005.06-.252-.296-.278-.276-.51a.778.778 0 0 0-.126-.503c-.059-.092-.036-.286.022-.392.056-.102.122-.186.102-.306-.066-.39.086-.74.18-1.148.482-.222.97-.515 1.497-.652.265-.069.371-.382.708-.323.235.04.541-.033.743-.168.281-.186.643.056.873-.23.731-.01 1.422-.333 2.158-.272.278.023.478-.219.771-.155.238.05.496 0 .746-.013.018 0 .033-.074.048-.112h1.791zm-6.622 3.053c-.321.157-.564.275-.698.537.165.198.079.52.326.687.582.092 1.149-.007 1.718-.153l.293-.295v-.351l-.316-.428c-.486.003-.92.003-1.323.003zm6.321-.003v-.82h-1.014c-.162.1-.182.268-.27.408-.198-.018-.416.05-.613-.16v.654l.177.178h.59c.3-.331.718-.25 1.13-.26zm-.546 2.755a.889.889 0 0 0-.218-.81c-.167-.018-.202.122-.296.184.185.206.094.46.12.695.002.03.047.056.075.084.071-.11.175-.14.319-.153zM30.37 94.127c-.164-.153-.138-.303-.075-.412.134-.23.268-.446.245-.734-.015-.214.245-.27.291-.504.089-.47.29-.919.255-1.415-.02-.293.188-.538.15-.846-.036-.28-.008-.56.108-.85.117-.295-.065-.672.157-.975-.078-.484.195-.894.311-1.329.127-.469.21-.97.742-1.48.455-.213 1.376-.442 2.195-.371l.197.199v.282c-.146.074-.298.148-.445.222-.04-.059-.453-.397-.518-.436-.152.02-.208.166-.344.27h-.463c-.825.313-.86.932-.845 1.584-.127.11-.326.122-.415.3v.955c-.05.11-.162.064-.28.137.088.581-.24 1.151-.135 1.767-.21.255-.16.563-.126.843.038.308-.167.553-.15.845.008.138.003.278.003.433-.465.385-.329 1.143-.857 1.515zM27.629 108.008v1.01c-.35.23-.392.67-.534 1.047-.172.46-.329.937-.405 1.42-.038.242-.316.298-.285.505.04.267-.2.336-.291.524.035.209.227.298.354.438.086-.051.06-.125.066-.196.113-.158.354.008.467-.191.102-.176.274-.222.47-.12-.075.145-.1.316-.234.43-.04.29-.05.578.164.83-.22.146-.435.105-.62.077-.207-.033-.29.206-.498.16-.129-.03-.185-.12-.28-.19-.082-.24-.013-.5-.137-.767-.147-.316.028-.7.2-1.003.382-.675.452-1.474.867-2.134-.04-.547.405-.952.433-1.484.012-.092.129-.178.263-.356zM42.38 110.635c-.308-.504-.771-1.757-.761-2.105.3.157.382.49.465.738.32.957.65 1.92.739 2.925l-.21.212h-.407c-.127.081-.053.208-.091.328-.172.178-.448.173-.663.293-.263.147-.536.02-.794.076-.246.054-.473.24-.734.092-.023-.252.165-.387.299-.44.212-.087.422-.217.67-.21.298.01.594.003.89.003.256-.132.19-.585.6-.573-.003-.44-.003-.87-.003-1.339zM20.696 105.05c-.39.01-.731-.052-1.04.195v.866l.243.244v.298c-.04.08-.058.064-.106.018a1.371 1.371 0 0 1-.453-.993c-.013-.272-.187-.54-.081-.848.536-.427 1.171-.57 1.9-.43-.02.32-.327.418-.463.65zM18.86 121.855c-.147-.336.035-.61.143-.787.162-.262-.022-.532.155-.774.141-.193.083-.557.318-.656.31-.128.036-.58.46-.576-.14-.583.17-1.084.12-1.627-.005-.04 0-.096.025-.127.21-.25.278-.555.326-.876.03.336.155.67-.076.97.028.632-.263 1.238-.121 1.841-.066.102-.134.102-.21.1-.129.452-.432.82-.645 1.234-.207.405-.068.934-.496 1.278zM41.864 71.486c-.566-.072-1.072.063-1.58-.138a.708.708 0 0 0-.706.09c-.112.088-.35.015-.57.015-.391-.263-.394-.828-.74-1.161.058-.087.192-.11.214-.046.127.364.463.537.673.81.17-.029.347.068.47-.064.117-.125.259-.043.38-.082.24-.074.392.17.63.153.185-.015.38-.056.58.087.138.099.386.043.576.056.088.05.05.13.073.28zM4.91 169.457h.364c-.19.245-.091.517-.132.761-.27.123-.488.245-.556.594-.068.346-.283.662-.39 1.005-.05.166-.19.077-.275.189v.552c-.152.148-.408-.03-.496.232-.215-.385.093-.662.233-.896.275-.464.564-.902.708-1.436.07-.26.26-.494.43-.713.07-.094.055-.211.114-.288zM30.082 113.476c-.404.16-.81.395-1.29.3-.108-.098-.007-.226-.063-.32.29-.214.617-.242.951-.214l.043-.377c.076-.028.154-.058.26-.096v-.746l.256-.054c.053-.252-.038-.59.301-.827-.157.804-.306 1.565-.458 2.334zM38.854 123.4c-.46.451-.999.393-1.651.372l.505-.39c.236.08.486-.18.792-.185.195-.37-.233-.665-.09-.998l-.272-.273c-.043-.168-.005-1.005.069-1.354.141.328.007.667.17.993.123.252.265.55.288.84.025.336.027.665.19.996zM9.546 157.364v.496c-.374.403-.422.97-.668 1.441-.245.471-.485.942-.802 1.558-.017-.379-.038-.56.091-.786.198-.35.37-.718.54-1.085.194-.425.444-.835.455-1.331 0-.174.118-.283.384-.293zM18.25 124.215h.29c-.042 1.09-.288 2.131-.452 3.178h-.24c.048-.543.215-1.065.242-1.589.03-.54.24-1.044.16-1.589zM26.536 153.759v.501c-.324.15-.29.507-.407.782-.203.479-.352.983-.764 1.352-.099-.138-.109-.265-.005-.413.4-.57.602-1.224.761-1.894.053-.232.167-.356.415-.328zM3.258 70.75c.508-.59 1.227-.718 1.67-1.21h.485c0 .08.023.156-.005.202-.046.076-.119.18-.192.188-.456.056-.762.387-1.131.598-.23.135-.443.296-.827.222zM33.773 113.235c.662.605.857 1.349.718 2.337-.078-.321-.24-.461-.238-.698 0-.354-.111-.675-.341-.967-.13-.166-.319-.387-.14-.672zM8.43 176.904c.68.153 1.187-.4 1.799-.224l.038.196c-.58.132-1.128.407-1.72.334-.119-.064-.07-.143-.116-.306zM10.28 155.284c.141.54-.188.947-.365 1.39-.09-.005-.164.013-.22-.117.273-.354.246-.881.585-1.273zM7.955 68.334c-.321.081-.465.323-.67.494-.144-.008-.301.043-.453-.036-.005-.153.114-.079.187-.104.152-.14-.002-.341.094-.507.28-.168.526.074.842.153zM14.13 173.745c-.12-.573.46-.797.609-1.327.172.486-.147.787-.235 1.13a.298.298 0 0 1-.375.197zM26.536 153.78v-.362c.101-.118.202-.235.42-.242v-.662c.109.005.17.01.235.012.144.331-.253.578-.07.9-.289.002-.378.267-.585.353zM2.686 174.615c-.205.245-.364.324-.602.15.17-.244.208-.567.466-.786.217.219.045.46.136.636zM.847 176.438l.266-.517c.17-.132.296-.112.44-.045l.018.313c-.24.033-.392.262-.6.394-.04-.05-.083-.099-.124-.145zM.187 177.818l.27.32c.077.217-.088.495.08.757.156.244.025.525-.026.797-.101-.578-.2-1.156-.324-1.874zM13.241 174.707c.15.252-.169.308-.083.494-.152.076-.304.15-.44.219-.202-.1-.086-.25-.106-.377.273.023.341-.346.63-.336zM2.78 173.864c.093-.392.47-.578.485-.957.145.211.074.43.089.626-.144.186-.341.234-.574.331zM1.826 179.753v.209h-.94c.404-.252.404-.252.94-.209zM7.55 161.521l.238.041c-.109.252-.197.507-.144.79h-.235c-.18-.34.078-.56.141-.83zM11.777 176.29c-.013-.374.233-.453.352-.603.096-.005.159.003.21.117-.087.206-.24.372-.562.487zM16.211 133.887v-.794h.202c.165.31-.048.545-.202.794zM37.16 99.998c.31.27.387.578.554.822l-.554-.557v-.265zM11.038 176.611c.21-.142.271-.379.529-.376.076.42.076.42-.529.376zM22.676 108.504c.2-.433.536-.176.797-.229-.256.084-.476.3-.797.23z"/>
            <path d="M37.18 100.179c-.215-.303-.554-.4-.382-.828.225.196.341.423.382.828zM7.786 177.327v-.23h.526v.23h-.526zM21.189 162.675c-.076-.367.005-.553.3-.601.105.104.107.196.011.288-.094.091-.185.185-.311.313zM17.326 129.21h.208c.086.235.045.413-.205.527a.835.835 0 0 1-.003-.527zM13.962 173.882v.4h-.344c-.055-.056-.08.043-.035-.036l.197-.364h.182zM2.208 179.852c-.121-.076-.08-.15-.101-.252.24-.046.47-.046.708.046-.243-.008-.427.166-.607.206z"/>
            <circle cx="22.674" cy="160.49" r="1"/>
            <path d="M17.316 130.254c-.086.173-.156.321-.23.469-.157-.163-.015-.344-.076-.487.107-.091.185-.094.306.018zM39.38 70.816v-.267c.132-.082.253-.077.395 0 .028.382-.245.153-.395.267zM24.925 156.56c.088-.044.164-.036.23.043.04.19-.126.234-.207.364-.091-.163-.091-.286-.023-.408zM1.573 175.774v-.45c.112-.08.205-.108.266.045.025.168-.134.211-.266.405zM6.657 178.65c-.078.128-.156.248-.333.225-.079-.067-.086-.143-.043-.232a.365.365 0 0 1 .376.008zM24.343 158.036l-.225.44c-.116-.114-.063-.244-.04-.39l.265-.05zM16.183 169.724c.008-.089.013-.173.02-.264.084-.008.142-.013.195-.016.091.077.076.153.036.26-.081.005-.162.013-.25.02zM.253 177.528a.733.733 0 0 1 0-.634.733.733 0 0 1 0 .634zM7.915 68.26c.126-.173.26-.16.402-.066-.104.198-.286-.015-.402.066zM18.604 123.93c-.109-.145-.109-.285 0-.43.109.145.109.285 0 .43zM15.98 170.274c-.1-.094-.1-.185 0-.28.102.095.102.186 0 .28zM15.569 170.97c-.102-.095-.102-.186 0-.28.098.091.098.185 0 .28zM22.466 160.839c.063.046.063.092 0 .138-.066-.049-.066-.095 0-.138z"/>
            <path d="M16.188 169.72c.013.066-.017.109-.08.122-.01.002-.044-.031-.041-.041.012-.064.055-.094.121-.082zM14.12 173.742c.002.097-.044.143-.14.14-.002-.097.043-.143.14-.14zM3.357 70.773c.002.097-.043.142-.14.14-.002-.097.046-.143.14-.14zM3.217 70.913c.013.066-.017.11-.08.122-.01.003-.044-.03-.041-.04.015-.064.056-.095.121-.082zM22.398 108.588c.045-.064.091-.064.137 0-.046.066-.092.066-.137 0z"/>
        </g>
        <g fill="#FEA194">
            <path d="M71.098 29.225c.39.159.473-.149.611-.402l.496.115.168-.585.383-.194c.031-.108.115-.246.1-.374-.07-.556.13-1.016.492-1.46.719.154 1.394.46 2.066.844.406.235.834.527 1.344.566.36.03.582.36.942.43.334.065.709.093.947.405.601.093 1.138.496 1.786.367.041-.007.094.019.139.037.635.281 1.344.189 1.997.409.405.135.844.036 1.288-.091.275.309.677.462 1.052.458.575-.008 1.168.2 1.745-.064l.55.158c.054.415.35.736.519 1.11-.08.275-.158.548-.235.82-.14.093-.36-.082-.4.057-.19.25-.177.417-.02.621l.691.198c.088.204-.048.342-.062.497-.408.338-.985.323-1.382.68.094.172.343.082.476.221.164.206.078.507.28.688l-.162.564c-.244.275-.476.045-.702.056-.13.119-.11.3-.182.463-.598-.027-.764.454-1.044.902-.163.126-.47.178-.61.458-.09-.026-.183-.045-.272-.08-.108-.046-.97-.216-1.121-.21-.045.003-.097.013-.134-.003-.702-.327-1.443-.165-2.165-.161-.26.002-.5-.006-.746-.077-.488-.143-.968-.324-1.496-.18-.12.034-.273-.037-.409-.073-.673-.19-1.336-.413-2.015-.561-.316-.07-.494-.331-.799-.402a2.211 2.211 0 0 1-.822-.348c-.286-.205-.718-.176-1.001-.457-.037-.035-.14-.038-.196-.018-.427.154-.676-.13-.846-.41-.232-.383-.57-.636-.898-.933.181-.783.54-1.534.471-2.42-.16-.105-.28-.32-.378-.554.07-.158.093-.313-.15-.574-.032-.03-.24-.012-.41-.087.036-.132.075-.269.114-.406zm5.719 2.847c-.52-.288-1.099-.05-1.5-.293-.224.092-.38.152-.492.199l-.146.508c.133.268.234.48.332.678.272.078.541.12.776.234.254.122.56-.119.732.067.216.237.457.01.635.158.254-.33.05-.676.11-.866-.185-.284-.31-.473-.447-.685zm4.828-.329c-.022.144-.135.287-.06.544.573.498 1.29.718 2.104.642.257-.808.242-.862-.436-1.428-.318.169-.639-.028-.985-.108-.203.112-.41.228-.623.35zm-5.868-1.633.19-.663c-.188-.027-.118.19-.236.198l-.468-.134c-.273-.174.026-.42-.092-.602l-.28-.08c-.146.155-.294.315-.398.428-.219.052-.353-.131-.53-.034-.1.187.036.297.122.401l1.692.486zM75.21 15.367c.137-.076.2-.11.294-.16.272.174.66-.01.905.147.285.186.586.27.885.38.105-.06.201-.145.368-.015-.156.36.067.794-.218 1.18.221.17.468.184.687.255.23.074.46.156.693.196a2.14 2.14 0 0 1 1.047.508c.16.14.328.16.5.237l.215.362.824.237.2.356c.488.01.851.386 1.32.534 1.01.323 2.03.309 3.043.177.637-.082 1.256.018 1.882.034 1.064.023 2.018.51 3.05.707.192.411.73.612.645 1.184-.229.559-.074 1.222-.33 1.808-.28.64-.614 1.218-1.152 1.701a18.35 18.35 0 0 1-.97.82c-.313.244-.761.31-1.134.488-.378.182-.808.059-1.12.188-.73.04-1.358-.258-2.036-.217-.182.01-.378-.076-.554-.153-.55-.243-1.172-.09-1.717-.34-.233.112-.451.008-.677-.04-.14-.03-.165-.154-.246-.227-.532.067-1.014-.074-1.453-.359-.079-.053-.153-.11-.24-.124-.733-.114-1.343-.568-2.054-.742-.113-.027-.195-.097-.29-.168-.312-.229-.63-.476-1.026-.494-.218-.188-.4-.372-.647-.509-.72-.398-1.158-1.032-1.213-1.858-.013-.177-.015-.38-.068-.521-.157-.404-.045-.804-.03-1.191.008-.242.04-.495.029-.737-.024-.474-.097-.95.108-1.406-.076-.8.36-1.484.48-2.238z"/>
        </g>
        <g fill="#B5CEFE">
            <path d="M82.185 83.04c-.108.185-.019.276.031.375.039.076.112.148.042.293-.146.109-.302-.06-.447-.064-.342-.338-.293-.83-.544-1.223-.227-.356-.441-.74-.737-1.013-.323-.295-.571-.67-1.004-.883-.367-.182-.71-.49-1.072-.666-.41-.196-.784-.522-1.264-.536-.135-.266-.363-.365-.606-.485-.692-.34-1.418-.625-2.034-1.102-.118-.092-.244-.107-.37-.146a24.79 24.79 0 0 0-1.25-.358c-.284-.071-.556-.16-.76-.371-.197-.204-.446-.276-.703-.339-.347-.083-.605-.305-.888-.512a16.222 16.222 0 0 0-1.775-1.131c-.504-.277-1.088-.412-1.522-.832-.116-.112-.336-.13-.513-.16-.187-.033-.28-.2-.425-.288-.448-.279-.944-.392-1.434-.535-.395-.116-.785-.252-1.188-.333-.413-.084-.782-.29-1.239-.276-.39.012-.784-.256-1.18-.267-.877-.025-1.664-.372-2.482-.601a4.387 4.387 0 0 0-1.108-.139c-.328-.007-.673.12-.988.244-.464.186-.957.22-1.436.305-.268.047-.538.08-.812.141-.429.098-.882.074-1.323.135-.414.057-.781-.1-1.146-.19-.142.078-.106.215-.161.318-.213-.032-.374.098-.55.193l-.657-.189c-.116.207-.326.289-.533.409l-.669-.192c-.548.47-1.361.352-1.88.857-1.519-.093-2.879-.683-4.296-1.037-.235-.059-.46-.176-.676-.025-.124-.122-.18-.247-.36-.3.278-.754.328-1.583.833-2.268.164-.071.319.126.5.054.198-.212-.07-.478.137-.78.06-.028.209-.09.349-.16.458-.23.785-.58 1.115-.98.357-.435.655-.86.798-1.397.06-.23.234-.36.423-.492l.15-.524.321-.16c.053-.186.108-.378.14-.485.251-.268.453-.46.629-.673.176-.213.285-.503.498-.653.213-.15.195-.616.632-.472a6.38 6.38 0 0 1 .448-.612c.177-.218.425-.308.603-.436.052-.125.063-.248.123-.284.494-.29.706-.875 1.221-1.149a.708.708 0 0 0 .368-.526c.524-.277.99-.644 1.457-1.021.44-.36.78-.868 1.427-1.056l-.004.004c2.352-2.385 2.188-2.213 3.12-2.72.222-.018.27.372.49.261.224-.115.428.084.574.015.278-.134.477.076.687.065.162-.083.306-.155.443-.223.107-.492.268-.943.648-1.285-.064-.197.276-.242.162-.493-.075-.167.233-.226.252-.429.033-.336.24-.608.383-.907.132-.279.4-.502.466-.76.186-.74.738-1.208 1.131-1.794.05-.072.053-.174.095-.323l.544-.2.28.08c.033-.032.077-.056.092-.092.298-.691.19-1.473.48-2.167-.124-.35.152-.666.115-.974-.042-.363.091-.656.16-.979.056-.258-.044-.519.07-.78.096-.216.212-.457.075-.71-.015-.027.015-.087.035-.129.258-.563.164-1.194.354-1.774.092-.285.007-.607.12-.91.108-.285.256-.582.129-.906-.006-.017.01-.044.019-.065.305-.83.29-1.73.582-2.57.345-.982.394-2.038.726-3.031.342-1.022.604-2.072.901-3.109.292-1.015.592-2.027.871-3.046.263-.96.774-1.833.955-2.82.335-.475.47-1.066.906-1.518.72-.129 1.379.253 2.051.388l.145.262-.295 1.028c-.376.171-.174.672-.516.898-.132.086-.132.376-.19.572-.11.374-.215.75-.336 1.169.338.091.416.446.351.664-.11.375.033.769-.15 1.117-.154.29.017.608-.106.915-.111.28-.26.579-.134.907.02.05-.043.13-.051.197-.041.325-.235.607-.164.98.053.274-.18.576-.106.908.032.135-.077.305-.137.514.396.05.71.28 1.158.221.332-.044.709.145 1.047.277.304.118.621.151.92.364.32.226.71.427 1.136.518.624.131 1.236.333 1.846.519.678.207 1.364.343 2.077.308.043-.004.088.022.131.035.947.29 1.949.335 2.883.679 1.039.38 2.183.336 3.174.802.235-.109.145-.348.309-.52.328.231.845-.074 1.094.214.338.39.81-.063 1.103.332l-.014.175c.094.164.445.051.448.37-.17.595-.355 1.182-.503 1.78-.055.23-.282.328-.324.566-.032.183-.03.407-.265.522-.07.033-.074.205-.106.315-.493 1.721-1.096 3.422-1.451 5.172-.345 1.703-.986 3.32-1.3 5.015-.177.964-.457 1.888-.702 2.824-.245.934-.513 1.86-.8 2.78-.116.367-.003.75-.16 1.113a5.023 5.023 0 0 0-.303 1.057c-.042.227.06.475-.063.677.038.069.05.123.085.148.377.309.372.307.487.883.128.648.332 1.286.385 1.94.081.994.39 1.96.348 2.97-.01.248.106.5.163.748.027.124.1.263.068.373-.222.766.302 1.246.636 1.81.351.591.889 1.043 1.192 1.662.253.521.519 1.037.748 1.57.153.357.112.785.399 1.088-.288.4.406.644.1 1.02.22.355.401.705.293 1.13.158.185-.089.435.116.631.167.159-.072.427.12.63.09.092.144.31.096.423-.145.361-.013.702.068 1.02.083.333.024.677.172 1.017.097.217.126.526.123.812-.004.26-.007.541.11.825.091.213-.065.54.048.81.06.027.145.015.158.108.024.144-.093.184-.188.233.057.725-.317 1.353-.431 2.016a.58.58 0 0 1-.447.144c-.152.159-.03.497-.366.574-.324-.092-.644-.205-.975-.274-.318-.065-.617-.311-.95-.154l-2.028-1.03.053-.324c-.092-.124-.245-.102-.354-.151.02-.066.001-.113-.055-.145-.009-.006-.05.017-.05.027-.003.066.028.106.105.118zm.425-30.322c.404.148.404.148.683-.02l-.626-.18-.057.2zM63.27 64.45c-.194-.07-.345-.184-.547-.118.105.236.226.37.468.303.017-.04.033-.08.08-.185zm19.532-12.401c.107.11.225.144.374.107l.048-.165a.361.361 0 0 0-.375-.108l-.047.166zm-19.588 13.48c-.199-.08-.36-.358-.65-.186l.65.187zm-.046-4.697c.122.01.183.015.231.021.084-.09.093-.168.036-.253-.063-.008-.122-.064-.204.01-.01.039-.028.097-.063.222zm-1.925-.007c-.125.098-.34.08-.267.366.124-.096.339-.08.267-.366zM92.997 28.495a.293.293 0 0 0-.204.034c-.401.233-.796.478-1.292.404-.148-.021-.118.174-.28.22a12.07 12.07 0 0 1-2.887.448c-.548.022-1.091.04-1.616-.174-.339-.14-.664.11-1.013.06-.496-.068-1.002-.034-1.49-.2-.143-.05-.133-.25-.44-.227-.43.201-.946-.04-1.473-.188-.639-.18-1.266-.402-1.912-.538-.733-.152-1.368-.545-2.07-.775a9.058 9.058 0 0 1-1.659-.755c-.895-.515-1.797-1.045-2.481-1.868a5.383 5.383 0 0 0-.775-.755c-.304-.242-.469-.627-.811-.81-.361-.19-.458-.628-.813-.812l-.797-.228c-.038-.077-.077-.16-.129-.264.116-.422.164-.91.685-1.158.636.182 1.287.382 1.95.554.337.089.616.237.766.562.07.155.22.137.347.203l.015.249c.162.138.454.067.543.332.49.185.8.601 1.056 1.004.236.37.556.604.89.827.125.083.262.17.35.271.437.51 1.017.795 1.62 1.01.22.08.322.29.558.334.206.038.442.043.581.288.05.085.251.082.382.12.923.264 1.842.53 2.766.793.295.085.578.171.908.134.292-.032.575.265.904.101.597.182 1.195-.018 1.782.005.696.028 1.35-.119 2.024-.2.336-.04.61-.225.92-.312.373-.104.71-.319 1.111-.335.136-.006.21-.146.243-.255.211-.024.367.171.551.04.095-.068.172.02.257.015.261-.006.326.423.697.26.182-.079.469.08.698.13.07.544.011 1.025-.462 1.456z"/>
        </g>
        <path d="m64.978 74.38 3.197.917c-.047.127.042.155.133.18.554.16 1.11.316 1.662.48.13.037.315.053.369.143.132.22.354.213.537.247.235.046.31.31.57.325.508.026.87.458 1.37.53.036.005.068.051.1.077.379.264.769.509 1.2.577.188.25.38.402.653.483.291.09.511.354.841.374.529.48 1.2.75 1.767 1.166.207.152.454.13.655.304.286.25.635.442.968.627.748.422 1.465.89 2.153 1.375.059.367.195.684.318 1.01.201.535.31.635.868.633.088-.001.212-.01.256.04.295.343.734.334 1.112.443.318.09.603.257.946.313.26.043.482.329.714.515.099.08.17.2.274.271.138.098-.05.283.168.393.214.109.354.366.529.56l-.19.66c-.58-.02-.58-.02-1.086-.47-.385.239-.672.649-1.152.755-.24.366-.665.45-1.007.656-.336.203-.745.219-1.112.32-.322.09-.643.038-.956.144-.322.11-.653.16-1.014.146-.361-.013-.88-.17-1.02.425-.005.015-.04.024-.058.034-.118-.05-.22-.007-.31.06-.713-.144-1.396-.58-2.087-.21-.344.058-.473-.212-.689-.306-.197.06-.404.017-.577.131-.255-.057-.497-.116-.779-.093-.614.049-1.242.017-1.827-.228-.26-.108-.522-.06-.784-.076-.535-.032-1.077-.09-1.603.033-.182.043-.307-.035-.458-.055-.229-.03-.33-.269-.568-.322-.244-.054-.495.113-.718-.05-.195-.14-.382.071-.585-.013-.255-.108-.54-.134-.792-.243-.261-.112-.548.065-.78-.081-.207-.128-.391.055-.588-.015-.195-.07-.416-.199-.595-.157-.39.087-.722-.062-1.046-.186-.37-.146-.756-.016-1.122-.16-.57-.225-1.216-.103-1.778-.37a.202.202 0 0 0-.13-.01c-.523.148-1.008-.033-1.5-.169-.45-.124-.891-.266-1.379-.279-.425-.01-.838-.248-1.266-.331-.436-.085-.883-.092-1.315-.237a21.812 21.812 0 0 0-1.797-.515c-.791-.19-1.535-.583-2.377-.55a.422.422 0 0 1-.264-.075c-.456-.382-1.05-.396-1.576-.587-.15-.054-.368-.042-.455-.144-.268-.312-.652-.263-.955-.411-.072.101-.123.168-.171.237l-.56-.16c-.316-.706-.874-.998-1.658-.908-.124.015-.259-.066-.405-.108l-.334-.67c-.569-.137-1.006-.419-1.422-.813-.362-.348-.74-.747-1.284-.819-.14-.276-.34-.457-.596-.615-.185-.112-.485-.253-.43-.518.065-.3-.11-.458-.21-.659-.305-.034-.494-.205-.65-.42-.005-.117.167-.256-.046-.344l.53-1.85c.288-.137.355-.443.528-.685.461-.172.795-.606 1.33-.694l.128-.447c.281.006.577-.18.736.144.885-.257 1.79-.344 2.55-.823l1.066.306c.603-.27 2.189-.667 3.134-.847.204-.04.348.029.553.053.335-.267.815-.264 1.143-.522l.418.12.299-.214c.396.177.811.175 1.145.466.172.15.477.211.717.203.489-.019.96.003 1.43.143.103.03.214.03.324.034.63.033 1.27-.014 1.885.173.087.027.21.1.26.07.268-.168.504-.005.714.082.25.104.471-.058.725.036.37.135.75.331 1.174.21.595.228 1.245.144 1.848.375.578.222 1.193.356 1.792.525.093.024.217.118.272-.065z" fill="#FDDA00"/>
        <path d="M13.663 174.156c.082.04.155 0 .16-.067.023-.238.187-.39.368-.59.186.031.355-.13.559-.206.389-.146.757-.3.962-.691.105-.199.372-.217.491-.427.093-.165.29-.075.444-.028.185-.086.088-.295.201-.413.275-.23.614-.35.984-.427l.182-.636c.21-.282.436-.096.616-.152.114-.175-.111-.35.04-.551.51-.345.889-.862 1.295-1.403.106-.043.28.004.433-.139.062-.542.636-.69.965-1.053.328-.363.532-.833.967-1.107.058-.036.053-.17.097-.32.144-.074.325-.166.514-.265.009-.226.301-.313.31-.584.524-.162.772-.661 1.167-.997.048-.15-.075-.28-.028-.45.142-.514.35-1.006.34-1.569-.005-.264.21-.583.417-.784.558-.537.905-1.244 1.464-1.767.785-.734 1.376-1.621 2.08-2.418.27-.304.53-.61.81-.906.236-.25.454-.566.627-.88.135-.247.304-.464.46-.692.147-.213.206-.454.478-.61.195-.112.238-.457.418-.629.199-.19.155-.494.408-.658.21-.137.428-.311.473-.595.368-.202.447-.619.692-.916.245-.293.437-.629.647-.95.21-.32.363-.679.634-.961.057-.06.022-.17.117-.232.484-.319.613-.918 1.035-1.296.1-.09.186-.223.302-.329.289-.259.585-.539.652-.938.059-.346.284-.591.447-.87.187-.317.465-.595.512-.965.044-.332.275-.56.423-.814.148-.255.244-.514.337-.782a7.82 7.82 0 0 1 .927-1.865c.069-.099.09-.2.13-.302.13-.325.193-.665.398-.98.183-.283.324-.597.536-.878.197-.26.24-.596.407-.89.224-.39.506-.749.728-1.142.146-.258.1-.636.439-.784.116-.526.531-.883.765-1.344.213-.417.53-.773.791-1.156.25-.365.533-.73.726-1.132.227-.466.561-.867.764-1.352.263-.627.577-1.228.833-1.859.156-.386.43-.736.641-1.109.038-.065.14-.104.15-.204.074-.615.505-1.093.637-1.683.368-.173.544-.499.67-.852.191-.539.516-.953 1.049-1.207.114-.054.225.014.325-.052.153-.284-.002-.6.102-.909.102-.299.424-.48.388-.81l.342-.187c.019-.047.05-.106.063-.171a5.085 5.085 0 0 1 .984-2.062c.062-.077.077-.157.113-.236.093-.194.066-.425.296-.585.13-.091.138-.333.289-.495.278-.299.365-.723.604-1.062.232-.333.504-.641.622-1.06.071-.25.297-.459.469-.675.28-.35.426-.787.745-1.116.064-.066.133-.112.199-.164.452-.083.917.103 1.359-.067.126-.048.224.027.332.053.272.067.539.152.793.243.235.144.33.407.507.582.287-.078.132-.396.336-.49.046.008.088.017.133.028.16.135-.096.298.038.439.236-.116.039-.546.433-.551.364-.038.698.344 1.127.06l.155.391c-.007.23-.22.415-.361.57-.656.731-1.116 1.606-1.78 2.33.005.309-.329.334-.457.531-.13.197-.24.407-.39.585-.06.07-.157.155-.126.216.205.393-.314.77.118 1.183.217-.049.552.097.884-.015l.214.316c-.399.335-.638.742-.815 1.18-.075.187-.32.26-.302.495-.476.428-.577 1.098-1.018 1.547.022.267-.29.322-.313.57l-.803-.23c.07.26.29.183.425.261.18.544.03.947-.463 1.279-.271.182-.372.553-.656.713.108.2.25.164.344.217.113-.02.094-.141.167-.202.116-.058.212.056.326.047.03-.029.087-.06.087-.088-.014-.388.407-.441.552-.704.405-.005.472-.312.572-.662.11-.036.264-.09.415-.14.1-.111.23.065.4-.073-.187-.355.004-.64.25-.906.262-.284.482-.613.845-.795.04-.02.108-.043.11-.071.029-.302.342-.415.443-.62.145-.29.407-.532.438-.883.015-.175.093-.344.136-.495.544-.275 1.14.117 1.651-.22.077-.22.095-.509.25-.675.37-.396.497-.95.928-1.326.428.072.869.038 1.299.067.44.03.85.315 1.354.2-.14.655-.025 1.298-.222 1.912.174.418-.234.805-.06 1.223-.19.235.175.268.176.487 0 .436-.167.853-.053 1.37l.234.414c-.013.054-.017.124-.043.185-.272.605-.174 1.287-.398 1.901.113.324-.15.638-.085.903.08.336-.136.569-.118.85.04.608-.161 1.197-.111 1.805.007.086-.027.176-.054.26-.153.508-.242 1.022-.157 1.556.007.041-.018.09-.033.132-.3.737-.195 1.569-.519 2.296-.135.305.027.615-.1.915-.114.272-.178.569-.25.856a.575.575 0 0 1-.261.371c.112.521-.056.939-.502 1.265l-.15.52c-.253.048-.35.385-.664.35.002.19.27.33.045.636-.097.06-.287.173-.477.284-.07.348-.333.51-.621.658l-.205.714-.482.198c-.158.533-.696.489-.994.848l-.045.157c-.445.188-.884.36-1.19.69-.155.168-.288.24-.522.244.206.338-.11.486-.247.715-.193-.016-.402-.092-.571.089.075.066.154.133.246.212-.164.219-.324.425-.594.516-.13.278-.085.643-.467.78-.143.07-.301-.133-.485-.033-.1.189.09.29.123.44.021.158-.047.301-.1.439-.161.145-.334.143-.516.06-.092.199-.293.265-.444.353-.182.308-.084.601.01.888-.143.109-.27-.095-.409-.001l.06.232c-.145.235-.461.35-.475.695.054.036.125.086.194.134.001.043.012.088.004.127-.047.171-.173.303-.249.447-.226.416-.44.844-.673 1.258-.148.262-.249.559-.551.7-.096.044-.127.117-.15.207-.075.29-.22.505-.563.525-.024.001-.042.11-.06.162.099.115.15-.055.257.01-.027.382-.282.64-.542.901-.286.289-.72.443-.837.898-.093.016-.196.03-.294.047-.094.197.102.295.126.446.057.35-.297.512-.373.806-.48.154-.57.638-.817.977-.256.35-.544.656-.866.94-.31.27-.642.525-.721.949-.656.356-.766.45-1.047.9-.065-.005-.129-.062-.212.011l-.176.615c-.468.289-.667.817-1.16 1.078l-.244-.07c-.193.153-.123.422-.264.597-.18.004-.38 0-.459.192-.103.249-.242.435-.535.459-.012.322-.367.355-.503.578-.136.224-.289.375-.617.486-.223.075-.084.338-.315.398-.157.042-.302.158-.437.293-.306.301-.698.515-.962.867-.105.141-.305.008-.42.142-.1.114-.176.258-.34.297-.414.092-.369-.52-.789-.465-.164.08-.072.318-.202.447-.102.055-.203.11-.32.17.131.151.314.156.479.188.107-.056.093-.289.296-.183.024.036.063.068.068.106.027.213-.15.325-.275.428-.503.421-.986.892-1.557 1.199-.645.346-1.12.856-1.619 1.336-.339.326-.772.483-1.11.788-.18.162-.404.279-.585.453-.28.272-.599.506-.9.756-.453.375-.953.702-1.365 1.115-.434.432-.794.941-1.283 1.535-.21.116-.499.332-.729.697-.22.347-.669.552-1.026.81-.216.156-.496.212-.651.462-.143.23-.53.077-.657.361-.374.027-.607.302-.899.478-.359.218-.8.318-1.196.246-.593-.11-1.174-.163-1.771-.085-.128.016-.276-.037-.4-.09-.362-.162-.774.027-1.128-.177-.146.119-.357.016-.504.147-.321.29-.645.572-.971.86l-.26-.075c-.115.02-.097.143-.142.18-.818.094-1.628-.075-2.533.052-.494-.281-1.205-.101-1.821-.378-.175-.079-.323.11-.529.006-.275-.14-.62-.14-.852-.486.247-.431.03-1 .289-1.48-.097-.094-.087-.241-.224-.275.057-.123.095-.257.133-.388zm40.97-58.218c.124-.061.15-.149.076-.267-.124.061-.15.151-.076.267z" fill="#F5384B"/>
        <path d="M73.337 123.72c-.133-.048-.24.159-.377.044-.192.175-.306.433-.572.546l-1.43-.41a1.327 1.327 0 0 0-.62.445c-.302-1.173-.207-2.385-.563-3.514a.575.575 0 0 0-.314.297c-.436-.077-.882-.032-1.31-.187-.139-.05-.326.035-.491.06.027.419-.006.807-.039 1.198-.035.406-.075.811.016 1.227.118.552.043 1.117.018 1.681-.023.509-.277.983-.257 1.454.025.538-.226.97-.315 1.455-.042.241.06.479-.047.723-.086.2-.182.415-.06.652.03.06-.045.174-.068.264-.08.303-.17.59-.138.921.028.297-.235.581-.115.923.038.107-.058.266-.106.397-.1.286-.12.566.046.838l-.239.833c-.287-.06-.595.078-.928-.09-.148.105-.318.221-.473.33-.242-.126-.457-.148-.68-.03-.322-.443-.283-.957-.266-1.4.014-.36-.032-.768.143-1.123.113-.23-.05-.476.053-.725.082-.195.23-.417.055-.648-.008-.01.007-.046.018-.065.256-.524.112-1.131.338-1.654.14-.325.011-.664.124-.992.099-.29.199-.575.156-.921-.036-.294.153-.616.24-.917-.435-.236-.58-.491-.447-.91.127-.396.175-.838.015-1.16-.217-.435-.084-.805-.078-1.223.008-.587.276-1.162.096-1.755.196-.489.076-1.006.14-1.505.032-.258-.044-.525.122-.82-.602-.044-1.135-.082-1.678-.123-.262.133-.4.366-.514.648-.13.317-.298.625-.529.89-.414.473-.821.949-1.03 1.565-.107.32-.481.342-.692.556-.31-.164-.571.24-.895.093-.056-.024-.182.116-.25.16l-.8-.228-.606-.69c-.087-.273.306-.28.25-.558-.264-.137-.526.156-.79.049-.174-.026-.177-.19-.249-.296a.446.446 0 0 1 .102-.17c.264-.28.54-.558.762-.871.173-.247.548-.353.517-.74.271-.177.273-.542.515-.742.235-.197.352-.486.519-.738.717-1.07 1.443-2.137 2.163-3.207.035-.051.034-.129.061-.252-.306-.021-.542-.19-.9-.135-.39.061-.716-.27-1.017-.567-.477.016-.83.368-1.173.627-.404.312-.87.533-1.243.888-.141.136-.315.246-.47.356-.469.335-.984.636-1.602.475-.186-.048-.349.042-.504.08-.15.037-.261-.043-.39-.027-.322.18-.645.363-.92.518-.814.122-1.556-.083-2.283-.125-.21-.21.201-.453-.08-.624.076-.27.153-.536.23-.804.794-.232 1.312-.93 2.207-1.255l-.627-.18c.027-.157.046-.267.062-.371-.075-.057-.143-.105-.201-.149l.263-.92c.406-.26.732-.014 1.067.029.243-.344.615-.44.99-.67l.118.694c.333.148.676.234 1.01.012.553-.368 1.188-.557 1.753-.862.05-.175.113-.328.135-.487.02-.146-.104-.297.032-.514.292-.212.708-.333 1.099-.443.323-.091.55-.405.92-.366.046.005.092-.157.16-.186.49-.201.84-.616 1.307-.85.362-.182.674-.43.952-.72.154-.16.332-.295.499-.418.98-.728 1.859-1.57 2.709-2.445.272-.28.424-.682.84-.808.006-.182.227-.191.27-.363.096-.378.348-.645.66-.873.058-.042.162-.122.198-.218l-.054-.098c.434-1.018.86-2.017 1.282-3.012.157-.163.3-.35.532-.427-.18-.254-.046-.472.042-.623.194-.329.454-.622.702-.917.04-.047.162-.026.274-.039l.168-.587c.456.059.901.157 1.316-.09l.663.19c-.034.303.31.356.393.639-.231.283.178.782-.324 1.01.103.154.112.28.058.42-.255.679-.279 1.44-.732 2.05-.086.619-.546 1.098-.637 1.715a.507.507 0 0 1-.09.254c-.385.432-.57.953-.697 1.501-.142.624-.573 1.138-.657 1.781-.006.039-.037.091-.07.106-.306.14-.097.605-.449.712l-.24.836c.31.193.629-.073.911.197.051.143.16.31.193.557.052.421.095.879.275 1.256.221.467.372.95.533 1.434.208.62.45 1.237.563 1.875.108.613.238 1.232.383 1.827.227.921.377 1.858.604 2.78a14.6 14.6 0 0 1 .356 2.094c.061.64.163 1.274.265 1.91.014.086.071.161.026.255-.115.245-.027.478.05.706.079.239-.058.506.112.726-.12.366-.222.721-.325 1.079z" fill="#53FE5E"/>
        <path d="M23.035 192.723c-.488-.09-.899-.342-1.303-.614-.182-.12-.424-.148-.636-.227-.355-.134-.681-.301-.872-.702-.57-.002-.996-.446-1.546-.567l-.18-.326c-.291-.062-.538-.233-.747-.507l-.429-.123c-.444-.492-.894-.861-1.488-1.005-.31-.076-.486-.395-.836-.369.007-.109.013-.173.02-.25-.094-.146-.28-.104-.42-.174-.261-.46-.735-.767-.944-1.27-.264-.037-.374-.298-.572-.405-.32-.173-.496-.488-.768-.68-.283-.2-.437-.478-.664-.707a26.205 26.205 0 0 1-1.19-1.276c-.274-.313-.416-.681-.606-1.031a1.341 1.341 0 0 1-.072-1.203c.09-.223.021-.433.014-.635-.015-.031-.022-.065-.035-.071-.13-.043-.265-.079-.39-.114-.175-.153-.084-.394-.214-.577.221-.33.08-.726.168-1.1.077-.323.013-.68-.002-1.022-.022-.54.02-1.076.04-1.614.026-.697.311-1.368.179-2.074.223-.41.026-.903.238-1.31.128-.245-.06-.473.04-.721.088-.213.258-.455.075-.71-.007-.013.01-.045.016-.064.238-.592.13-1.251.374-1.849.105-.255.28-.535.113-.844-.015-.028.01-.095.037-.13.162-.204.31-.372.218-.694-.058-.202.165-.457.042-.709-.008-.015.01-.044.017-.066.274-.772.25-1.605.529-2.377.292-.809.25-1.702.583-2.504-.099-.493.149-.924.252-1.377.071-.302-.02-.61.105-.918.115-.278.267-.58.135-.909-.015-.033.022-.086.035-.132.151-.564.377-1.112.346-1.712.36-.891.331-1.874.65-2.772-.053-.628.307-1.184.343-1.778.045-.719.312-1.363.465-2.042.032-.15.131-.285.02-.456-.054-.082 0-.23.086-.303.303-.264.252-.667.397-.99-.164-.53.222-.939.246-1.418.126.005.189.004.25.006a12.48 12.48 0 0 0-.175-.211c.132-.461.312-.792.3-1.118-.016-.424.106-.796.219-1.178.087-.294.093-.628.374-.845.058-.047.039-.182.084-.258.132-.219-.18-.501.097-.686.247-.164.186-.448.284-.67.114-.26.368-.446.263-.825-.075-.27.212-.565.112-.913-.05-.17.041-.44.164-.584.25-.292.387-.583.27-.965-.011-.037.016-.088.03-.131.253-.886.492-1.775.77-2.654.069-.22.284-.383.326-.64a.428.428 0 0 0-.07-.308c.451-.533.42-1.24.694-1.828.065-.063.128-.006.194.003.195-.214-.185-.109-.149-.21l.042-.172c.069-.258.344-.208.403-.402.03-.176-.158-.27-.167-.467a.986.986 0 0 0 .316-.533c.146-.58.33-1.15.486-1.73.049-.18.12-.329.267-.427.084-.145-.146-.242-.032-.394.457-.598.53-1.342.714-2.037.14-.53.532-.948.59-1.496.148-1.465.702-2.826 1.076-4.234.376-1.402.798-2.791 1.193-4.188.048-.165.165-.327.036-.52-.035-.052-.002-.214.054-.251.312-.206.283-.555.371-.846.24-.771.443-1.552.68-2.321a.804.804 0 0 0-.009-.515c.122-.15.326-.252.236-.5-.1-.27.011-.471.235-.626.089-.136-.107-.234-.038-.383.202-.447.15-.992.536-1.372a.327.327 0 0 0 .075-.261c-.119-.525.217-.962.267-1.447.026-.256.301-.325.321-.57.025-.305.286-.58.118-.917-.015-.03.01-.097.037-.129.445-.556.451-1.27.68-1.903a.468.468 0 0 1 .238-.278c.008-.227-.18-.45.113-.622.178-.105.16-.3.023-.513.254-.112.286-.362.353-.596l.908-3.168.333-.185a7.223 7.223 0 0 0-.086-.188c.467-.378.077-1.023.56-1.555-.027.008.105-.036.166-.058.147-.198-.116-.303-.007-.406.091-.172.233-.015.317-.113-.008-.11-.13-.092-.23-.198.202-.432.188-.954.53-1.394.184-.235.196-.607.285-.916.158-.554.252-1.137.49-1.655.394-.85.62-1.749.878-2.638.037-.132.162-.144.224-.248-.12-.435.052-.835.252-1.202.057-.108.153-.212.182-.339.596-2.447 1.593-4.774 2.216-7.214.075-.29.165-.576.247-.861.372-.342.372-.342.516-.734.019-.01.044-.035.059-.03.178.048.354.098.534.15.098-.056.197-.115.311-.183l.704.202.235-.22c.737.187 1.399.325 2.104.173.334.41.93.05 1.323.408.142.432-.05.918.088 1.411.5.186 1.028.121 1.541.18.177.038-.019.196.083.273.126.01.101-.114.152-.17.396-.177.583.52 1.006.24-.002.359.27.606.376.898-.026.108-.046.197-.065.271.079.131.211.1.32.153.123-.144.247-.291.373-.437.65.025 1.125.463 1.656.755.144.078.288.18.446.254.571.262 1.142.523 1.648.903.052.039.085.098.153.176.195.109.467.107.672.33.167.182.552.045.695.355.385.055.682.325 1.035.434.552.174 1.061.41 1.549.724.185.119.444.217.712.154.252-.06.494-.004.665.201.086.104.197.13.296.135.633.029 1.248.2 1.886.21.779.016 1.558-.099 2.335.124.287.083.632-.025.95-.057.062-.006.117-.062.19-.028.458.21.998.022 1.442.276.19.11.343-.03.518-.007.79.114 1.586.162 2.362.382.49.14 1.014.13 1.512.288.365.116.637.41 1.031.46.36.045.624.287.879.531.723-.093 1.44-.167 2.175-.12.285.018.586.091.9.015.286-.068.608.042.91.082.644.081 1.287.176 1.943.187.362.006.736.116 1.11.126.181.004.176.195.302.237.478-.143.872.176 1.323.213.477-.175 1.004-.092 1.508-.24.395-.117.85-.103 1.257-.19.688-.145 1.275-.574 1.912-.921l.614.176c.522-.212 1.062-.274 1.547-.127.59.18 1.206.143 1.787.333.19.063.429.023.635-.024.2-.045.343.043.566.112-.199.326-.12.697-.115 1.028.005.313-.175.573-.135.846.043.284-.015.532-.1.782-.06.183-.093.361-.258.53-.216.223-.008.59-.09.885-.014.049.075.109.039.188-.21.436-.169.928-.22 1.38-.072.64-.35 1.223-.401 1.842-.088 1.107-.615 2.099-.76 3.174-.127.932-.418 1.807-.658 2.701a88.04 88.04 0 0 1-.782 2.725c-.104.345.007.704-.143 1.051-.144.336-.213.705-.317 1.068l-.343.176c.002.215-.2.405-.082.682.084.195-.105.312-.268.464.162.218.04.45-.026.681-.525 1.84-1.042 3.68-1.586 5.513-.251.847-.249 1.75-.591 2.576.064.75-.304 1.407-.467 2.107-.072.304-.115.601-.12.916-.022.83.074 1.68-.272 2.472-.077.178-.049.345.001.502-.022.16-.268.126-.237.314-.45.07-.884.003-1.303-.173-.184.117-.168.32-.216.485-1.071 3.718-2.139 7.44-3.205 11.16-.156 1.39-.65 2.696-1.017 4.034-.367 1.334-.782 2.653-1.126 3.99-.12.467-.447.823-.538 1.298-.093.472-.208.954-.41 1.39-.138.3-.24.625-.402.9a3.547 3.547 0 0 0-.365.849c-.098.33-.19.663-.286.997-.089.31-.125.648-.276.924-.51.934-.654 1.98-.98 2.969-.054.16-.203.34-.01.466.008.211-.2.194-.24.349-.049.2.106.376 0 .59-.08.163-.286.225-.288.433-.002.09-.089.191-.065.264.12.356-.042.671-.15.981-.51 1.47-.696 3.018-1.14 4.503-.008.927-.388 1.766-.617 2.64-.228.869-.452 1.742-.75 2.588-.273.777-.2 1.632-.538 2.372-.487 1.064-.74 2.195-1.073 3.3-.33 1.104-.548 2.25-.984 3.311-.356.866-.565 1.768-.877 2.628-.215.226-.497.243-.77.202-.036.143-.06.246.074.256.199.015.26.159.339.319-.15.52-.234 1.08-.472 1.57-.29.595-.45 1.222-.661 1.837-.077.221-.27.388-.328.637-.049.208-.015.468-.265.603-.084.047.036.105.031.16-.022.249-.046.537-.213.696-.153.146-.227.312-.224.469.011.76-.524 1.357-.603 2.083-.031.284-.307.427-.354.704-.045.248-.148.486-.2.732-.055.256-.248.499-.083.778-.16.34-.127.737-.425 1.05-.234.245-.336.61-.45.951-.236.703-.514 1.397-.95 2.01-.037.054-.083.112-.09.173-.088.614-.504 1.099-.65 1.725-.481.152-1.077-.095-1.427.298-.187.128-.115.308-.264.386-.211.111-.496.167-.507.491-.176.005-.283.159-.415.216-.426.187-.692.618-1.188.694-.285.045-.427.374-.701.496-.576.252-1.135.538-1.725.82l-.251-.072c-.549.323-1.112.613-1.775.663-.189.015-.392.273-.542.235-.237-.057-.311.138-.43.151-.145.014-.294.167-.444.055-.162-.123-.295.145-.449.022-.416.247-.886.137-1.326.203-.43.067-.84.126-1.283.076-.207-.023-.44.008-.643-.074-.295-.121-.558-.02-.911.034-.349-.081-.768-.32-1.216-.063-.308-.178-.674.05-.978-.138-.211-.13-.43.056-.653-.034-.2-.084-.42-.181-.645-.048-.46-.208-.98-.07-1.449-.262-.36-.149-.748-.23-1.126-.328-.146-.037-.284-.143-.456-.047-.126.07-.25.003-.358-.094-.32-.29-.746-.352-1.134-.397-.781-.09-.943-.067-1.456-.483-.197-.16-.348-.214-.589-.193-.552.042-.95-.254-1.213-.704-.138-.238-.267-.422-.553-.436-.097.117.138.243-.02.351-.04.007-.09.032-.123.017-.307-.133-.683-.082-.938-.359-.218-.234-.595-.115-.825-.407-.128-.161-.467-.156-.73-.231-.235-.273-.504-.53-.876-.523l-.196-.354c-.865-.212-1.62-.65-2.338-1.143l.068-.237c.06.033.109.015.139-.042.005-.01-.018-.05-.028-.05-.063-.002-.103.028-.11.092zm14.513-50.171-.704-.202c.084.322-.14.47-.335.698.44.148.349.504.424.821-.127.009-.212.013-.296.021-.19.276-.155.586-.117.87-.22.398-.621.518-.904.706-.051.186.227.063.153.247-.134.08-.258-.113-.39-.009-.009.148.2.084.216.284-.32.106-.246.49-.42.721-.134.08-.252-.15-.374.007.017.126.243.054.201.263-.31.17-.248.563-.409.839-.205.11-.384.246-.624.227.11.46-.12.842-.201 1.236l-.355.196c-.014.546-.517.866-.697 1.374-.159.453-.617.765-.856 1.182-.263.458-.541.877-.959 1.211-.077.242-.09.529-.372.656.046.104.11.17.1.222-.037.2-.073.41-.157.594-.101.221.096.426-.025.655-.1.193-.158.395-.312.573-.332.385-.67.782-.916 1.226-.126.228-.49.21-.462.536-.315.297-.478.728-.77 1.014-.83.807-1.47 1.775-2.254 2.616-.365.392-.63.846-.717 1.389.18.255-.031.477-.06.727-.239.04-.346.257-.562.44-.072.555-.56.94-.849 1.444-.433.187-.537.622-.698.99a1.125 1.125 0 0 1-.345.458c-.194.135-.29.321-.43.481-.156.175-.28.369-.476.527-.292.238-.55.541-.852.782-.555.448-.881 1.107-1.447 1.544-.24.187-.39.452-.65.631-.223.153-.365.416-.571.602-.227.204-.485.376-.73.561.004.416-.516.336-.62.652-.585.323-.993.898-1.63 1.155-.267.109-.582.098-.804.356-.358.826-.261 1.757-.434 2.579.058.256.296.274.327.376.645.16 1.296.052 1.865.358-.048.461-.596.634-.55 1.106.096.015.16.014.225.017.29.007.398-.348.657-.334.188.009.309-.09.428-.176.156-.113.345-.043.506-.147.226-.144.458-.28.722-.374.27-.094.52.009.773.008.339-.006.7-.06.93.037.477.02.475-.405.732-.53.29-.138.481-.37.677-.605.479.005.962-.033 1.425.108.281.086.555.114.848.103.409-.017.812-.044 1.233.032.379.068.85.072 1.187-.177.412-.305.893-.455 1.318-.715.397-.245.835-.458 1.162-.778.239-.236.604-.297.757-.626.158.038.319.055.373.245l.349-.18c.167.014.305.15.473.07.019-.066.07-.123.002-.21l-.773-.265c.193-.222.357-.39.5-.577.47-.607.947-1.212 1.513-1.733.146-.135.375-.186.513-.328.998-1.015 2.218-1.758 3.27-2.705.217-.197.535-.322.573-.517l1.233-.686c.133.104.252.323.43.387.16-.026.132-.115.16-.173-.155-.142-.306-.286-.49-.455.634-.565 1.223-1.148 1.944-1.594l.072-.248c.174-.074.381-.007.513-.238.086-.153.241-.298.423-.4.447-.243.715-.736 1.228-.896.09-.37.59-.387.664-.78.013-.063.135-.112.214-.15.319-.154.376-.18.503-.402a.613.613 0 0 1 .163-.2c.313-.237.625-.477.922-.733.23-.195.44-.412.659-.616.22-.203.277-.562.62-.651.049-.421.371-.627.67-.856.056-.042.052-.164.07-.228.476-.235.917-.46 1.034-1.012.236-.099.185-.48.5-.501.216-.37.65-.542.823-.989.095-.247.207-.582.49-.741.376-.209.537-.559.67-.932.124-.12.29-.1.444-.132l.087-.304.477-.2c.261-.608.695-.961 1.118-1.334.3-.267.721-.437.85-.94.152-.063.341-.143.53-.224.864-1.106 2.085-1.872 2.767-3.126.045-.085.194-.116.312-.18.086-.577.503-.983.794-1.464.292-.484.625-.919 1.024-1.399.112-.77.84-1.274 1.157-2.012.025-.061.042-.149.088-.17.151-.067.163-.275.353-.31.011-.583.52-.986.56-1.534.235-.155.41-.316.459-.576.052-.284.142-.44.272-.627.098-.14.237-.238.32-.402.317-.616.836-1.13.956-1.85.01-.061.052-.12.086-.174.256-.396.467-.819.733-1.212.193-.286.312-.62.494-.914.183-.299.43-.56.474-.928.486-.463.643-1.12.968-1.673.528.143 1.047.155 1.379.028.05-.34.192-.652.175-1.035-.014-.336-.08-.698-.01-1.024.128-.591.127-1.204.34-1.784.166-.446.423-.8.769-1.142.093-.198.046-.51.256-.655.21-.146.127-.405.33-.565.165-.13.183-.444.231-.573.137-.222.31-.215.4-.39.252-.497.497-1.018.854-1.436.27-.313.415-.794.937-.887.387.243.872.039 1.288.237.271-.139.693.101.825-.35.213.13.375.063.527-.046.463-1.219.168-2.444.068-3.703l.156-.121c.042-1.15.347-2.24.502-3.332-.376-.327-.878-.065-1.241-.27-.077-.346-.165-.656-.211-.973-.06-.4-.151-.806-.1-1.208a2.302 2.302 0 0 0-.268-1.447c-.154-.28-.19-.622-.458-.839-.253-.92-.509-1.838-.857-2.767.177-.368.024-.792.085-1.187.045-.306-.014-.622.091-.916.106-.297-.052-.617.112-.915.154-.278.094-.604.134-.91.053-.394.287-.76.186-1.18.288-.627.21-1.33.42-1.977.171-.526.344-1.055.449-1.595.109-.565.445-1.028.607-1.565.023-.083.04-.16.11-.238.55-.637.63-1.45.87-2.179-.278-.227-.544.066-.769-.123-.167-.161-.071-.432-.229-.59-.324-.313-.733-.082-1.102-.193-.34-.102-.715.178-1.058-.034-.191.188-.327.358-.477.505-.258.256-.355.595-.552.868-.554.773-.94 1.62-1.26 2.506-.023.064-.017.161-.06.194-.244.178-.206.497-.356.697-.183.243-.262.509-.353.78-.019.059-.074.103-.112.153-.382.487-.635 1.064-1.072 1.514-.188.194-.464.432-.754.552-.452.187-.894.404-1.351.581-.139.053-.11.217-.279.256a5.22 5.22 0 0 0-1.593.683c-.293.183-.6.264-.942.187-.206.302-.479.446-.863.322-.05.179-.094.327-.134.469-.6-.016-.987.527-1.587.513l-.194.678c-.261.155-.525.249-.67.49a.725.725 0 0 1-.345.3c-.269.117-.446.35-.665.526-.305.245-.522.587-.877.776-.528.281-.879.767-1.324 1.162-.24-.048-.498-.059-.738.091l-.639-.183c-.304.114-.633.059-.883.249.115.186-.031.366-.044.539-.015.236-.066.477-.03.714.029.21.09.417.12.552-.034.122-.033.18-.061.207-.338.304-.694.588-1.015.907-.314.317-.626.623-1.046.788-.126.386-.124.39-.399.675-.295.311-.633.589-.905.912-.449.537-.753 1.194-1.306 1.65-.104.087-.07.215-.134.302-.194.253-.3.587-.643.697-.027.151-.055.283-.077.417-.002.015.024.035.037.055.68-.09 1.265.297 1.911.387.097-.054.198-.11.329-.18.437.204.916.178 1.376.09.244.382.34.737.216 1.169-.072.251.017.548.033.84-.048.032-.14.06-.15.105-.052.27-.298.44-.362.691-.063.246-.314.37-.34.636-.027.267-.25.475-.32.711-.143.48-.602.762-.677 1.245l-.492.273c-.065.097-.047.21-.139.309-.463.495-.888 1.02-1.024 1.715-.008.045-.01.105-.04.13-.227.184-.29.448-.34.708-.058.293-.27.509-.398.754-.155.3-.213.64-.392.907-.286.425-.521.861-.655 1.354-.025.088-.022.223-.082.259-.32.19-.222.572-.405.823a6.12 6.12 0 0 0-.503.827c-.166.32-.37.628-.664.853-.078.254-.117.52-.343.709-.233.197-.362.471-.514.734-.372.654-.785 1.285-1.14 1.951-.063.122-.219.215-.234.379-.032.329-.254.563-.443.79-.115.135-.121.284-.193.416-.019.037-.058.063-.065.069l-.485.074c-.466.318-.383.783-.394 1.189-.094.107-.188.03-.254.048l-.606.89a.27.27 0 0 1-.022.445c-.345.213-.42.6-.623.896-.181.265-.398.45-.616.605-.095.163-.028.364-.222.432-.098-.054-.238-.015-.295-.148.075-.076.218-.09.225-.305.06.03.11.013.139-.044.005-.01-.017-.05-.028-.05-.077-.01-.118.024-.147.108zm12.648-42.537c-.059.297-.2.45-.135.637l.475.136.108-.378c-.16-.046-.362-.059-.448-.395zm-18.93 13.868c-.401-.153-.401-.153-.442.274.192.013.35-.022.443-.274zm-19.985 68.43c.141-.107.18-.24.118-.402-.111-.008-.206-.101-.34-.04l-.046.162c.084.103.24.127.268.28zm29.422-17.294c.21.042.321.095.415.071.07-.016.214-.03.212-.168-.209-.155-.381-.089-.627.097zm-11.2 29.9c-.334.046-.528.048-.553.24.018.173.11.141.163.175.097-.101.19-.201.39-.416zm29.922-39.07c.123-.063.148-.15.077-.269-.124.063-.15.153-.077.269zm-31.17 21.794c.074-.015.14.183.232.011-.062-.086-.134-.112-.231-.01z" fill="#FC781D"/>
        <g fill="#C273A5">
            <path d="m87.668 24.763 1.211-4.225c-.218-.118-.399-.212-.646-.092-.281.137-.568-.023-.832-.088-.363.228-.745.02-1.11.104-.201.045-.398-.17-.658-.049-.145.068-.376-.166-.578-.006-.01.008-.043-.01-.064-.018-.66-.267-1.393-.19-2.065-.436-.653-.238-1.366-.328-1.996-.61-.457-.205-.97-.286-1.377-.54-.48-.302-1.108-.32-1.489-.82-.119-.158-.406-.103-.603-.27-.377-.318-.804-.573-1.137-.953-.102-.116-.191-.343-.482-.228l-.445 1.551c.515-.088.967.134 1.437.258.471.128.94.267 1.46.417l.212.479-.365 1.272c-.16.203-.41.076-.542.181-.839-.116-1.658-.21-2.483-.571l-.344-.33c-.275.311-.086.7-.204 1.056l-.735-.211c-.393-.672-1.048-1.234-1.41-2.014-.174-.273-.027-.695-.446-.857.158-.753.651-1.37.751-2.127.366-.412.324-.989.571-1.435.418-.753.531-1.593.82-2.383.14-.386.447-.68.663-1.026.137-.218.346-.397.396-.638.545-.427 1.197-.603 1.792-.886.323-.154.72-.284 1.064-.244.551.065 1.084-.198 1.623-.017.299-.19.582.122.913.015.272-.086.622-.055.914.098.125.065.227-.06.316-.045.521.083 1.075.035 1.57.177.88.25 1.801.283 2.672.586.854.298 1.754.469 2.606.774.547.196 1.046.528 1.533.858.481.327.938.675 1.36 1.085.258.25.458.527.678.8.316.392.66.767.952 1.177.38.533.548 1.16.664 1.924-.008.223-.211.534-.158.923.033.246-.046.597-.296.8a.312.312 0 0 0-.113.236c-.05.424-.293.744-.591 1.006-.191.165-.24.371-.303.581-.366 1.269-.727 2.537-1.104 3.85-.232.106-.458.298-.79.357-.08.218-.346.378-.388.71-.353-.45-.805-.32-1.205-.39-.435-.069-.763.21-1.219.234zm-9.631-13.335c-.189.277-.431.539-.565.848-.197.455-.22.926.002 1.42.171.378.173.863.463 1.159.434.437.789.934 1.211 1.37.09.095.188.227.349.289.352.133.706.29 1.035.461.345.179.699.29 1.05.42.163.315.447.426.76.507.38.1.761.208 1.137.327.43.134.874.117 1.306.066.16-.018.3-.052.455 0 .13.046.279.131.4.108.83-.16 1.68-.015 2.51-.148.107-.017.21-.04.318-.057.64-.09 1.323-.087 1.797-.646.053-.065.164-.08.22-.107l.266-.929c-.05-.205-.075-.38-.135-.54-.33-.88-.814-1.679-1.345-2.452-.205-.297-.565-.249-.83-.4-.174-.301-.478-.465-.752-.607-.264-.137-.387-.413-.67-.508a14.354 14.354 0 0 0-2.801-.633c-.498-.064-1.003-.092-1.505-.159-.477-.062-.96-.084-1.44-.131-.133-.015-.233.102-.386.042-.405-.158-.818-.062-1.227.012-.505.089-1.015.178-1.623.288zM71.242 35.244l-.195-.35c-.21-.061-.43-.132-.657-.186-.536-.133-.908-.507-1.276-.875-.099-.1-.242-.25-.173-.424.073-.183-.013-.309-.096-.444-.184-.307-.153-.638-.085-.958.084-.384.207-.76.323-1.135.047-.156.07-.303-.053-.408.39-.455.479-.966.517-1.48.009-.103-.018-.223.026-.321.289-.655.164-1.399.437-2.055.011-.029-.026-.076-.079-.216-.1.647-.502 1.073-.622 1.633-.122.564-.312 1.114-.456 1.617l-.335.14c.15-.294.062-.701.417-.936.013-.01.015-.044.021-.066l.862-3.004c-.11-.546.195-1.005.289-1.564.462.151.713.538 1.079.736.384.209.674.536 1.05.755.373.218.665.546.944.854 0 .066.008.111-.004.153-.284 1-.57 2-.855 2.99-.2.094-.357-.11-.538-.043-.075.074-.099.205-.02.23.25.075.229.331.384.485-.227.337-.048.744-.182 1.109-.128.345-.209.71-.323 1.109.49.395.852.933 1.505 1.198.548.223 1.092.488 1.618.758.937.48 1.975.588 2.93.968.237.094.434-.064.662.02.178.066.37.214.59.076.043-.028.135-.006.192.018.449.19.91.128 1.374.107.625-.027 1.25-.02 1.824.245.36-.21.706-.145.99-.013.723-.071.97-.587 1.144-1.094.266-.77.692-1.485.82-2.305.458-.603.48-1.364.732-2.042.05-.134.067-.262-.052-.402.5-.191 1.01-.098 1.495-.046.503.054.995-.01 1.549.091-.003-.027.005.066.01.157.011.473-.149.957-.514 1.34-.107.113-.122.239-.16.366-.1.308-.22.616-.261.935-.05.378-.372.61-.44.972-.066.34-.108.725-.299.991-.363.508-.374 1.113-.6 1.652-.06.14.081.29-.104.443-.133.11-.128.382-.188.582-.05.166-.116.33-.024.5-.348.139-.11.424-.142.617-.086.113-.18.044-.264.057.042.41-.087.797-.255 1.141-.334.682-.571 1.38-.582 2.04a14.37 14.37 0 0 0-.203-.016c-.023.023-.078.047-.083.083-.035.215-.176.402-.074.657.047.117-.04.326-.187.477-.184.188-.24.44-.147.743.097.312.086.658-.23.936-.024.07.132.158.04.269-.069.145-.217-.025-.3.07.015.106.158.19-.05.379.01-.008-.07-.018-.16-.11l2.078-7.249c-.341-.294-.76-.204-1.092-.162-.467.06-.924-.015-1.362-.056-.655-.063-1.305.005-1.956-.052-.324-.029-.665.093-.972-.042-.328-.147-.666-.09-.99-.09-.152-.002-.306.018-.453-.027a6.335 6.335 0 0 0-2.111-.319c-.11.003-.222-.07-.336-.091-.975-.179-1.82-.74-2.785-.945-.394-.351-.913-.378-1.38-.539-.11-.036-.185-.119-.273-.173-.307-.19-.574-.446-.924-.461z"/>
            <path d="M78.308 34.52c-.235-.22-.432-.432-.534-.718-.384-.137-.762-.304-1.172-.06-.683-.196-1.372-.391-2.062-.592-.584-.17-.743-.377-.745-.993 0-.34-.079-.67.258-.971.33-.298.64-.445 1.064-.326.625.176 1.246.357 1.767.507.336.22.452.492.615.733.195.294.405.553.856.465.334-.063.656.16.984.222.092.2.29.276.444.448.328-.134.643.012.965.104.866.246 1.733.497 2.62.751l-.37 1.292-.231.127c-.366-.105-.743-.21-1.118-.32-.28-.083-.563-.202-.846-.05-.175.094-.312.004-.458-.035-.69-.196-1.38-.396-2.037-.584zM84.336 22.948c-.077-.138-.153-.282-.235-.43l.46-1.606.63-.315c.784-.05 1.508.337 2.281.498.082.15.159.292.24.437-.149.377 0 .796-.18 1.182-.197.426-.36.854-1.004.866-.673-.196-1.43-.413-2.192-.632zM80.91 21.244l.334.605-.421 1.468c-.142.076-.283.153-.425.231-.348-.05-.663-.232-1.054-.175a.803.803 0 0 1-.676-.257c-.203-.22-.556-.178-.827-.3-.014-.164-.211-.154-.273-.289.086-.301.19-.608.261-.922.14-.628.556-1 1.472-.811.544.108 1.07.296 1.608.45zM80.709 30.803c.217-.107.404-.202.686-.204.295 0 .6.03.9.025.31-.006.628.14.93.254.221.082.366.327.625.306l.248.445-.191.667c-.393.097-.425.644-.892.677-.222-.106-.494.055-.757-.058-.275-.118-.576-.173-.863-.255l-.787-.226-.242-.435.343-1.196zM76.35 28.774l-.361 1.262-.478.202-1.106-.317c-.183.016-.28.196-.46.165-.157-.045-.118-.238-.224-.342l-.56-.161-.135-.243.358-1.25c.11-.059.251-.135.376-.2.945.091 1.888.162 2.59.884zM81.31 24.048c.242-.248.39-.54.399-.861.385-.312.797-.313 1.211-.207.58.148 1.15.324 1.705.483.08.146.147.265.229.408l-.277.966c-.568.19-.956.261-3.267-.789zM79.532 31.113l-2.03-.582c-.032-.065-.114-.152-.105-.23.02-.18.031-.46.136-.51.307-.145.12-.625.59-.658l1.991.571c.228.43-.121.785-.143 1.166-.157.085-.3.163-.439.243zM42.857 71.79c-.867.391-1.737.78-2.668 1.198l-.103.358c-.501.2-.57.727-.896 1.04-.092.636-.515 1.146-.677 1.766-.092.358-.036.71-.13 1.055-.092.342-.265.666-.173 1.05.032.137-.078.307-.118.447.143.55.143.55-.109 1.308-.197-.035-.013-.213-.113-.3-.102-.09-.012-.227.032-.317.078-.15-.079-.254-.043-.387.08-.3.215-.593.119-.915.308-.834.244-1.76.596-2.582.3-.69.528-1.413.884-2.08.133-.248.441-.37.485-.68.191-.073.463-.01.524-.306.04-.193.188-.238.352-.252.294-.025.563-.11.81-.272.38-.243.809-.123 1.228-.13zM37.277 141.978c.094.107.029.252-.049.41-.078.004-.165.011-.249.016-.394.847-.884 1.638-1.335 2.44-.093 0-.16.004-.202-.077 0-.032-.018-.103.001-.114.349-.194.189-.694.54-.882.012-.357.376-.558.406-.905.357-.123.143-.627.502-.747.08-.351.216-.672.423-.974.349-.512.463-1.17 1.059-1.653-.086.299-.098.547-.218.722-.373.54-.548 1.18-.878 1.764zM12.839 179.492c.306-.047.54-.277.85-.3.31.09.615.211.929.256.28.041.578-.03.85.109.292-.24.607.216.902-.03l.872.25c-.152.205-.269.01-.384.04l-.303.168c-.022.002-.047.016-.064.008-.657-.268-1.362.111-2.02-.144-.593.111-1.084-.228-1.632-.357zM86.145 88.733c.124-.293.149-.575.369-.814.235-.254.152-.66.086-.96-.053-.24-.077-.536-.281-.743.027-.178.033-.36.184-.496.136.25.269.493.383.706.093.65.123 1.269-.208 1.876-.507.515-.759 1.329-1.609 1.687.243-.559.637-.904 1.076-1.256zM52.987 118.538c-.395.07-.546.52-.875.53-.434.01-.572.397-.896.535-.318.135-.604.342-.918.493-.294.141-.544.401-.92.396.106-.454.609-.36.796-.662.475-.042.74-.456 1.141-.638.42-.193.813-.443 1.22-.661.115-.062.224-.19.452.007zM62.434 135.401c.322.49.254.858.122 1.205l.197.353c-.223.501-.177 1.037-.043 1.58l-.164.57c-.194-1.196-.223-2.384-.112-3.708zM22.602 119.68c-.147.014-.21.012-.281-.093l.068-.286c-.059-.154-.253-.08-.342-.188l.382-1.333c.247.142.4.32.575.547-.448.357-.394.881-.402 1.354zM73.735 133.494c.237.084.301.24.396.458l-.647.141c.081-.608.295-1.122.44-1.738.154.27-.018.422.005.63.014.083.236.012.191.262-.027.114-.227.107-.385.247zM15.818 155.309l-.434 1.514-.22-.062c.005-.33.228-.625.115-.975-.045-.148.18-.322.539-.477zM23.297 115.292l.317.09c.058-.08.107-.149.156-.22.224.15.075.407.234.558-.285.16-.256-.267-.472-.188-.157.055-.058.264-.213.342l-.324-.093.319-1.113c.107.256-.041.402-.017.624zM83.953 45.8l-.183.637c.085.066.15.117.242.186-.111.294-.318.312-.608.189l.295-1.027c.055-.053.116.012.254.015zM68.8 117.92l.102-.355 1.033.296-.018.191c-.356-.01-.722.087-1.117-.132zM19.616 172.38c.2.046.318.04.425.16-.098.416-.463.613-.757.924-.124-.478.381-.652.332-1.085zM28.478 98.131l.104-.36c.072.008.137.013.22.018.14-.047.066-.238.208-.354.032-.025.09.029.164.042.057.21-.032.407-.117.574-.108.213-.327.203-.579.08zM62.396 133.203c-.118.366.325.742.073 1.102-.213.056-.234-.112-.32-.24l.247-.862zM87.774 76.269c.178.022.178.168.26.247-.02.18-.041.354-.177.493-.258-.053-.247-.315-.376-.458.103-.1.208-.198.293-.282zM27.801 100.075c.336.194-.005.454.209.582l-.287.305-.177-.05c.047-.279.111-.547.255-.837zM82.78 29.694l.096-.335a.89.89 0 0 1 .514.147l-.096.336a.89.89 0 0 1-.514-.148zM65.34 108.733c.04-.275.265-.311.311-.48.146-.01.255.046.397.126-.19.243-.375.389-.708.354zM76.137 131.26c-.187.087-.38-.15-.523.06-.106-.176-.014-.304.35-.48.137.09.225.202.173.42zM53.956 118.026c.022-.142.268-.111.233-.302.165-.03.333-.058.479-.085.078.07.114.141.062.193-.068.07-.634.195-.774.194zM12.19 178.784c-.077.039-.114.057-.186.095-.157-.175-.31-.351-.289-.671.382.07.376.36.476.576zM21.11 176.92c-.336.114-.417-.235-.634-.33.03-.065.013-.15.151-.184.178.12.378.26.483.515zM22.592 120.588l-.066.232c-.202.046-.344-.082-.53-.09l.067-.233c.205-.048.346.08.53.09zM19.589 131.146c-.204-.059-.352-.1-.48-.138-.08-.083-.014-.144-.015-.214.191-.064.345.038.497.093.072.073.012.136-.002.259zM59.149 186.025l.22.063-.145.51-.222-.063.147-.51zM86.093 84.889c-.183-.18-.354-.362-.25-.65.182.18.354.361.25.65zM18.694 132.754l.056-.194c.15-.042.267-.003.387.114-.086.347-.272.115-.443.08zM19.42 139.65c.026.26-.075.408-.338.455-.025-.26.077-.408.337-.455zM61.111 183.652c.126-.078.213-.212.3-.18.177.075.148.16.117.249-.152.12-.282-.038-.417-.07zM84.352 74.28l.356.102c-.181.142-.181.142-.333.18-.112-.056-.071-.142-.023-.282zM42.979 199.138c-.108-.108-.195-.22-.124-.383.088-.057.166-.042.237.026a.371.371 0 0 1-.113.357zM19.168 131.611l.058-.2c.082-.075.143-.018.22-.009.05.197.016.307-.278.21zM36.769 147.36c-.044-.014-.089-.026-.133-.039-.064-.082-.05-.16.007-.229.071-.072.133-.007.196-.005.08.119.052.209-.07.272zM66.985 75.073l-.068.238c-.072-.007-.135-.012-.207-.02-.053-.206-.021-.316.275-.218z"/>
            <path d="M85.844 84.244c-.08-.028-.156-.058-.219-.081-.033-.116-.017-.19.074-.239.086.089.161.18.145.32zM52.308 86.032c-.056-.117-.023-.251.091-.242.145.013-.014.123.006.193 0 .008-.062.032-.097.049z"/>
            <path d="M52.613 85.562c.057.117.025.249-.09.24-.145-.013.014-.123-.006-.193 0-.005.062-.03.096-.047zM42.999 71.53c.057.116.024.247-.09.239-.145-.013.014-.124-.006-.193-.001-.006.062-.03.096-.047zM59.596 185.92c-.135.072-.2.022-.273-.039.104-.142.18-.078.273.039zM23.196 178.635c-.099.102-.17.076-.234-.01.092-.173.16.026.234.01zM53.955 118.028c-.006.068-.047.1-.112.096-.01 0-.034-.042-.028-.051.03-.058.08-.075.14-.045zM86.093 84.889c.067.006.1.047.095.112 0 .01-.041.033-.05.028-.056-.03-.073-.08-.045-.14zM66.366 75.257c.062-.049.106-.036.133.038-.062.048-.106.036-.133-.038zM61.1 183.68c-.006.068-.047.101-.112.096-.01 0-.033-.042-.028-.05.032-.058.08-.076.14-.045zM81.876 12.847c.071.24.272.396.464.541l-.422 1.47c-.114.132-.357.041-.508.15-.505-.048-.943-.393-1.472-.256-.236-.335-.651-.271-.971-.445-.075-.128-.154-.27-.233-.404l.321-1.12c.361-.517.78-.55 1.275-.382.505.169 1.024.296 1.546.446zM84.714 12.94c.17.056.42.096.7.07.252-.023.512-.086.78.178.217.214.645.217.979.313.229.511-.087.954-.166 1.422-.213.17-.346.428-.683.48-.72-.142-1.526-.15-2.332-.557l-.172-.423.373-1.299c.098-.036.25-.09.521-.185zM85.6 16.084c.116.439.116.439-.215 1.445-.15.177-.392.086-.572.215-.398-.18-.89-.142-1.23-.499-.04-.043-.156-.079-.192-.055-.265.182-.48-.05-.712-.058l-.244-.439.276-.96c.448-.174.915-.223 1.4-.079.485.145.975.283 1.489.43z"/>
        </g>
        <path d="M53.839 117.817c.078.025.166.056.243.08.103.4-.226.638-.378.897-.2.341-.386.708-.664 1.021-.186.21-.405.475-.42.81-.005.11-.107.186-.16.277-.413.68-.873 1.328-1.262 2.029-.401.726-.695 1.534-1.297 2.145-.036.322-.378.503-.395.823-.01.214-.2.283-.288.432-.362.608-.815 1.165-1.097 1.82-.453.205-.502.703-.71 1.063-.214.371-.584.669-.65 1.122-.232.116-.265.38-.44.55-.3.288-.354.731-.602 1.07-.38.52-.64 1.117-1 1.652-.239.354-.406.751-.661 1.106-.288.403-.416.917-.706 1.32-.277.385-.419.84-.748 1.202-.16.176-.23.464-.343.699-.162.338-.35.638-.573.938-.179.242-.368.499-.4.827-.015.154-.16.263-.224.385-.157.285-.338.56-.449.882a7.075 7.075 0 0 1-.755 1.517c-.1.153-.19.3-.224.465-.039.19-.237.244-.29.432-.176.59-.555 1.089-.792 1.662-.156.375-.461.728-.638 1.11-.236.515-.692.915-.8 1.488-.04.218-.281.278-.305.501-.018.174-.18.307-.244.447-.285.612-.753 1.109-.997 1.756-.182.484-.492.957-.816 1.381-.304.396-.517.841-.777 1.258-.565.911-1.111 1.834-1.72 2.717-.353.514-.704 1.025-.994 1.578-.148.282-.332.585-.541.79-.4.389-.596.889-.933 1.304-.227.284-.447.574-.663.86-.346.458-.66.951-1.02 1.394-.542.66-.924 1.429-1.57 2.025-.395.364-.65.892-.974 1.343-.151.21-.32.407-.494.59-.255.264-.396.643-.686.837-.345.228-.55.568-.78.858-.23.282-.488.538-.71.825-.287.374-.74.595-.963 1.035-.208.405-.578.684-.86 1.03-.444.546-.886 1.095-1.322 1.632a15.763 15.763 0 0 0-.349-.068c-.36.86-1.063 1.695-1.586 1.914l.077.18a30.2 30.2 0 0 0-2.792 3.031c.152.07.793.127.925.08.333-.12.673-.152 1.027-.161.412-.012.793-.208 1.207-.274.536-.09 1.08-.213 1.578-.416.268-.11.479-.084.72-.018.15-.16.138-.47.452-.44a.3.3 0 0 0 .194-.031c.731-.413 1.514-.709 2.294-1.02 1.093-.44 2.104-1.041 3.144-1.585 1.103-.575 2.081-1.355 3.264-1.853l.213.062c.956-.4 1.78-.997 2.612-1.547.84-.556 1.689-1.101 2.515-1.677.648-.453 1.325-.855 1.972-1.303.59-.406 1.157-.866 1.699-1.34.782-.687 1.58-1.363 2.333-2.076.49-.463.993-.942 1.4-1.498.186-.256.475-.44.722-.653.263-.226.44-.534.682-.76.143-.133.138-.33.3-.42.204-.11.41-.22.618-.335l.153-.534c.674-.308.992-1.05 1.7-1.365l.122-.424c.112-.018.253-.04.287-.047l.955-2.056c.332-.229.458-.686.818-.94.037-.334.438-.414.513-.739.069-.297.328-.444.575-.602.149-.095.091-.317.231-.467.334-.358.619-.762.913-1.152.477-.632 1.017-1.213 1.388-1.924.126-.244.375-.457.557-.696.155-.203.346-.383.476-.602.262-.447.501-.906.967-1.198.085-.054.048-.205.136-.296.24-.245.39-.558.602-.827.206-.26.444-.516.62-.82.33-.57.745-1.092 1.143-1.619.337-.442.6-.936.982-1.343.046-.048.153-.075.157-.116.016-.244.247-.373.309-.571.19-.616.624-1.09.945-1.627.164-.272.296-.574.505-.818.23-.266.386-.567.563-.865.161-.273.38-.51.516-.815.11-.245.31-.457.498-.662.242-.263.447-.536.522-.892.037-.174.096-.345.19-.513.017 1.657.023 3.305.294 4.981-.245.36-.508.752-.777 1.139a69.464 69.464 0 0 0-1.809 2.727c-.59.941-1.182 1.885-1.997 2.656-.178.168-.078.466-.35.541-.138.428-.531.666-.786 1.01-.342.463-.711.906-1.012 1.403-.06.099-.146.275-.326.313-.11.024-.182.1-.228.225-.145.391-.445.677-.739.962-.032.03-.107.038-.116.07-.082.277-.383.444-.384.758-.33.066-.489.374-.583.59-.282.647-.794 1.12-1.162 1.698-.401.632-.909 1.185-1.392 1.754-.174.206-.13.52-.409.658-.248.125-.384.328-.498.594-.063.145-.21.414-.508.376l-.164.57c-.29.266-.534.515-.809.724-.213.16-.19.455-.38.595-.236.176-.27.556-.543.618-.282.064-.423.285-.658.384-.192.08-.37.194-.559.299-.1.48-.505.844-.543 1.353-.007.088-.094.092-.137.138-.54.578-1.011 1.213-1.575 1.772-.187.184-.345.381-.58.523-.22.134-.25.442-.473.602-.057.04-.076.163-.173.183-.46.097-.668.518-.967.794-.284.259-.531.494-.903.509l-.063.217c-.2.351-.566.233-.762.485-.157.2-.415.333-.643.47-.247.151-.412.415-.652.542-.737.385-1.3 1.065-2.17 1.224a.387.387 0 0 0-.276.185c-.169.305-.477.452-.754.586-.08.344-.3.531-.572.646-.467.196-.836.517-1.168.876-.074.082-.132.17-.233.224-1.202.592-2.292 1.366-3.462 2.01-.842.462-1.655.984-2.501 1.44-.269.414-.774.412-1.159.62-.397.214-.797.421-1.227.588-.481.19-.983.357-1.44.621-.287.164-.64.215-.925.405-.257.172-.54.307-.766.525-.048.047-.119.095-.181.098-.504.022-.918.333-1.39.406-.812.124-1.605.414-2.455.257-.211-.04-.453-.067-.65-.007-.491.147-.964-.042-1.444-.045-.37-.003-.743-.08-1.117-.04a.26.26 0 0 1-.13-.014c-.512-.229-1.078-.159-1.615-.292-.431-.107-.9-.102-1.339-.286-.49-1.025-.252-1.587.174-2.554.337-.766 1.013-1.219 1.53-1.812.813-.936 1.685-1.823 2.553-2.748l.293.084c.154-.146.024-.265-.035-.377.76-.713 1.315-1.557 2.003-2.288.165-.175.326-.342.51-.498.177-.15.324-.342.49-.508.2-.202.503-.376.53-.722.004-.054.07-.104.115-.151.527-.535.996-1.113 1.473-1.689.053-.064.115-.157.17-.186.346-.196.516-.5.708-.834.265-.454.646-.846 1.01-1.235.82-.881 1.492-1.868 2.172-2.85.632-.91 1.262-1.825 1.994-2.663.232-.265.451-.543.482-.858.6-.676.958-1.475 1.633-2.115.071-.21.177-.467.324-.717.145-.244.31-.465.454-.701.181-.297.461-.541.575-.844.117-.317.367-.551.443-.888.042-.196.204-.374.335-.543.312-.393.546-.825.765-1.271.286-.577.634-1.124.963-1.682.031-.051.124-.048.136-.137.072-.52.521-.898.553-1.433.02-.29.232-.498.387-.672.42-.482.623-1.078.98-1.59.403-.584.681-1.253.99-1.84.117-.11.22.034.253-.015.14-.168.057-.263 0-.356-.047-.211.228-.175.262-.37.096-.522.392-.965.67-1.415.18-.294.201-.666.423-.971.163-.22.245-.516.352-.77.123-.287.372-.498.424-.82.046-.283.37-.45.36-.77.45-.33.502-.896.799-1.323.29-.42.566-.87.806-1.312.35-.65.733-1.283 1.049-1.953.122-.257.32-.515.463-.764.204-.355.521-.637.641-1.054.112-.39.53-.64.588-1.076.535-.675.893-1.464 1.384-2.165.28-.07.17-.379.344-.545.223-.216.362-.52.561-.776.191-.244.387-.533.51-.812.203-.464.487-.873.725-1.311.153-.279.326-.554.502-.822.366-.555.607-1.18 1.07-1.683.141-.152.14-.432.208-.666.253-.067.431-.296.745-.293.22 0 .365-.24.595-.33.64-.247 1.12-.777 1.759-1.048.049-.02.068-.154.1-.153.349.003.577-.325.872-.343.282-.025.436-.245.693-.269zm-6.837 41.27c.154-.132.303-.24.251-.5-.158.008-.296-.156-.54-.065.098.247.056.499-.027.704.106.152.127.325.323.27.186-.124-.001-.24-.007-.408zm-19.655 16.24c.223-.234.05-.363-.09-.49-.021-.02-.08.006-.143.012-.082.19.014.317.233.478zm9.111-28.737c-.122.062-.15.15-.07.267.064.008.128.066.22-.021.064-.12.04-.216-.15-.246z" fill="#A31019"/>
        <path d="M72.465 130.498c-.73.029-1.508-.313-2.27-.508-.791-.687-.817-1.712-1.271-2.521-.247-.09-.091.362-.321.225-.164.257-.085.57-.338.762-.215.163-.066.554-.387.669-.074.618-.516 1.062-.77 1.597-.216.461-.39.967-.754 1.351-.105.11-.108.247-.146.373-.21.706-.446 1.408-.602 2.127-.155.714-.585 1.32-.738 2.03-.377.428-.424.988-.56 1.504-.068.253-.283.387-.358.63-.036.113-.25.173-.393.265l-.908-.26c-.27.104-.611.03-.73.466-.082-.554-.227-1.024-.197-1.48.033-.501-.173-1.01-.042-1.466.14-.488-.23-.98.107-1.412-.256-.36-.054-.743-.117-1.104-.049-.29.034-.606.082-.912.09-.577.196-1.16.164-1.75-.004-.086-.033-.171-.003-.258.168-.464.183-.941.127-1.428-.011-.106.058-.22.101-.37l-.229-.28c.31-.63.1-1.27.252-1.87-.206-.297.209-.6-.013-.897.22-.505.034-1.037.087-1.555.054-.503-.063-1.023-.044-1.533.032-.818-.083-1.643.11-2.453.046-.19-.166-.314-.037-.48-.238-.09-.34.026-.452.148-.478.518-.955 1.037-1.45 1.537-.692.703-1.333 1.454-2.109 2.08a8.321 8.321 0 0 0-1.005.991c-.468.535-1.005 1.01-1.53 1.467-.506.44-1.035.858-1.523 1.326-.08.077-.201.112-.3.17-.343.211-.715.366-1.018.657-.2.192-.477.34-.788.345l-2.276-.652c-.066-.133-.135-.277-.221-.455.096-.335.225-.704.306-1.086.113-.533.398-.993.711-1.395.672-.859 1.217-1.802 1.85-2.685.357-.498.72-1.015 1.02-1.556.208-.378.454-.736.642-1.118.203-.413.575-.716.69-1.17.296-.123.092-.543.393-.663.171-.551.647-.904.922-1.39.048-.084.138-.16.172-.27.067-.233.103-.479.32-.646.048-.037.096-.16.027-.252-.042-.017-.093-.06-.12-.048-.592.277-1.183.56-1.771.843-.263.126-.485.3-.63.581-.38-.006-.719.143-1.047.34a3.568 3.568 0 0 1-1.048.43c-.383.084-.544.46-.959.49-.356.025-.585.456-.944.614-.357.157-.69.37-1.068.582-.055-.01-.14-.03-.24-.047-1.391.57-2.76 1.246-4.236 1.64l-2.313-.664c-.189-.445-.138-.827.09-1.261.448-.853 1.151-1.483 1.778-2.178.19-.208.343-.439.515-.654.335-.421.813-.697 1.121-1.147.11-.162.36-.262.623-.237.07-.41.248-.756.655-.933.354-.561.99-.828 1.402-1.331.41-.504.989-.824 1.427-1.312.43-.479.964-.868 1.457-1.29.463-.395.94-.771 1.39-1.179.3-.273.68-.41.998-.665.323-.259.662-.537 1.046-.728.138-.066.246-.165.352-.287.196-.222.404-.442.765-.458a.544.544 0 0 0 .462-.348c.282-.128.616.06.886-.161l.102-.357c.72-.541 1.547-.835 2.331-1.176.865-.373 1.768-.677 2.639-1.043.546.066 1.04-.265 1.573-.191a7.89 7.89 0 0 0 .862-1.136c.068-.11.14-.213.191-.336.043-.101.025-.225.128-.307.414-.328.514-.844.751-1.275.055-.098.135-.175.185-.259.18-.297.348-.603.475-.937.159-.417.348-.836.595-1.227.2-.318.236-.741.344-1.117.134-.47.311-.929.162-1.431-.045-.156.007-.366.115-.438.234-.152.189-.4.305-.62.259-.159.525-.368 1.042-.339.206.083.547.062.931-.07.393-.137.84-.12 1.263-.178.063-.008.124-.054.189-.086l2.169.622c.445.273.128.742.445 1.018-.353 2.288-1.199 4.448-1.755 6.68-.062.255-.282.385-.347.633-.06.226-.02.52-.306.65-.069.38-.265.704-.46 1.023-.15.248-.335.47-.326.816.238.332.25.793.301 1.206.068.53.243 1.014.426 1.49.168.436.367.868.566 1.295.21.446.497.875.636 1.337.306 1.016.685 2.005.94 3.037.2.814.358 1.628.458 2.457.129 1.081.22 2.164.225 3.252.002.82 0 1.639-.1 2.458-.034.281-.128.574-.1.841.03.284-.141.552-.07.775.103.337-.101.572-.13.854-.006.067.003.128.009.193.063.636-.032 1.262-.173 1.882-.049.216-.109.416-.05.652.046.182-.188.361-.06.586.074.13-.032.262-.069.39-.21.753-.429 1.504-.644 2.256-.067.243-.103.515-.542.683zm-14.692-10.384c.573-.137.81-.55 1.119-.89 1.101-1.217 2.229-2.413 3.32-3.641.281-.316.566-.37.932-.264l1.713.491c.298.524.205 1.108.296 1.655.086.519.055 1.078-.029 1.601-.048.309-.105.634-.051.908.058.294-.157.565.005.837-.182.637-.07 1.296-.11 1.942-.018.291.022.596.029.894.016.66-.072 1.327.062 2.029.26-.41.57-.754.427-1.26.225-.57.1-1.213.365-1.777.039-.081.087-.184.073-.264-.114-.588.067-1.163.093-1.742.024-.537.029-1.078.072-1.615.055-.672-.118-1.374.265-2.02.162-.067.211-.323.326-.335.471.003.776.323 1.163.178.255.282.648.236.975.414.129.463.568.681.86.995-.009.328.221.576.216.897-.004.273.133.532.05.833-.084.299.138.576.198.871.108.518.308 1.016.577 1.48.043.072.11.068.17.09.077-.023.099-.088.115-.154.063-.257.158-.494.095-.784-.053-.246.26-.494.065-.777.208-.615.14-1.253.088-1.873-.025-.3.058-.562.099-.796-.065-.172-.14-.276-.174-.415-.177-.756-.138-1.572-.622-2.245-.012-.014-.006-.041-.006-.062-.009-.576-.255-1.07-.55-1.543-.036-.058-.098-.12-.096-.18.021-.692-.588-1.182-.591-1.862-.36-.568-.447-1.225-.578-1.862-.056-.275-.136-.55-.318-.723-.274-.26-.39-.6-.596-.89l.09-.31c-.516-.192-.349-.684-.395-1.064-.024-.195-.108-.333-.161-.48.059-.454.34-.848.235-1.328-.03-.135.038-.343.137-.45.34-.373.384-.923.776-1.26.277-.76.66-1.47 1.028-2.192.286-.566.463-1.21.69-1.821.217-.58.32-1.204.534-1.785.213-.578.093-1.21.361-1.767-.11-.087-.095-.239-.239-.262-.2-.092-.379.069-.573.047-.1.368-.144.739-.2 1.111-.127.85-.68 1.573-.816 2.433-.273.186-.202.566-.383.754-.23.239-.238.524-.35.786-.025.061-.04.141-.086.173-.405.278-.484.768-.695 1.154-.258.476-.58.91-.832 1.381-.194.362-.397.756-.681 1.002-.368.318-.296.838-.67 1.106-.1.605-.433 1.12-.663 1.681-.077.039-.157.08-.252.126-.175-.164-.346-.324-.482-.447-.21-.021-.146.188-.286.206l-.256-.074c-.296.148-.57.308-.928.326a2.542 2.542 0 0 0-1.244.415c-.218.141-.508.314-.731.274-.538-.093-.896.222-1.312.414l-.119.283c-.65.417-1.318.748-1.945 1.166-.58.386-1.166.778-1.769 1.142-.46.277-.926.585-1.27 1.02-.174.22-.414.331-.643.466-.552.323-1.032.743-1.505 1.168-.078.07-.085.15-.004.273.284.024.512-.21.779-.284.66-.186 1.32-.414 1.91-.797.386-.25.8-.46 1.21-.671.154-.077.318-.144.485-.202.528-.184 1.065-.4 1.518-.717.294-.206.602-.385.9-.58.533-.346 1.13-.558 1.726-.813.722.236 1.37.63 1.993 1.032.031.381.141.743-.237.994-.059.039-.045.175-.087.255-.248.481-.495.963-.763 1.43-.202.352-.504.66-.637 1.034-.101.277-.345.466-.388.76-.352.106-.137.572-.451.701-.165.527-.676.864-.727 1.41-.14.075-.24.131-.341.187-.205.916-.924 1.564-1.298 2.453z" fill="#029E67"/>
        <path d="m38.25 77.112.654-2.278c.082.04.159-.002.162-.068.022-.557.466-.898.688-1.352.053-.11.517-.366.712-.42l.059-.203c.534-.452 1.24-.392 1.747-.772.292.084.56.16.782.225.618-.123 1.19-.26 1.769-.35.96-.151 1.924-.288 2.89-.396.583-.067 1.168-.04 1.749-.131.677-.106 1.367-.112 2.038.112a.833.833 0 0 1 .572-.109c.55.088 1.128-.1 1.656.172.021.012.048.022.067.02.524-.108 1.047.184 1.57.015.384.156.816.154 1.192.141.437-.016.807.235 1.258.15.34-.064.672.256 1.068.204.348-.048.691.187 1.056.094.86.354 1.808.333 2.685.622.468.153.95.26 1.416.411 1.45.48 2.973.722 4.371 1.38.572.268 1.208.397 1.8.65.519.221.999.568 1.585.628.039.004.08.04.108.07.42.417 1.004.55 1.51.802.575.285 1.123.6 1.665.936.374.23.757.466 1.166.61.262.094.422.34.701.378.114.343.591.126.712.461.532.305 1.079.588 1.59.92.42.275.871.493 1.291.769.543.36 1.088.722 1.62 1.09.57.393 1.172.731 1.719 1.17.641.513 1.34.995 2.166 1.245.251.675.586 1.304.777 2.002.109.398.208.762.088 1.162-.02.069.012.134.1.144l-.192.67c-.13-.048-.167.044-.183.136-.116.636-.55 1.037-1.043 1.394-.081-.082-.096-.226-.261-.212-.5.356-1.154.423-1.632.808-.313-.058-.607-.059-.851.118-.176.126-.381.15-.57.182-.787.136-1.574.262-2.386.251-.352-.005-.752-.154-1.094.094l-1.08-.31c-.6.374-1.182.082-1.751-.063-.12.065-.223.121-.354.196-.327-.196-.74-.207-1.093-.153-.382.06-.666-.126-.998-.165-.16-.34-.527-.229-.762-.374-.102.057-.184.1-.296.162l-.076.267c-.387.02-.746-.082-1.086-.057-.43.032-.734-.122-1.059-.384-.114.08-.226.16-.286.205-.616-.08-1.162-.194-1.72-.172-.318.014-.63-.006-.929-.121-.108-.042-.255-.127-.331-.087-.27.14-.494-.075-.73-.062-.276.015-.539.006-.794-.094-.645-.257-1.366-.156-2.009-.428-.04-.017-.103-.04-.13-.024-.238.16-.462.012-.655-.07-.25-.11-.49.05-.732-.047-.817-.33-1.73-.252-2.548-.588-.043-.018-.096-.047-.134-.036-.33.101-.633-.018-.925-.131-.307-.118-.624-.059-.928-.122-.83-.168-1.617-.482-2.478-.587-.997-.12-1.923-.64-2.956-.676-.451-.017-.764-.385-1.187-.49-.545-.136-1.08-.31-1.622-.458-.393-.107-.726-.34-1.057-.55-.21-.135-.37-.081-.571-.056-.11-.184-.3-.246-.499-.298-.294-.08-.647-.092-.864-.27a3.51 3.51 0 0 0-1.36-.658l-.657-.611c-.457-.088-.827-.5-1.346-.542-.09-.006-.085-.115-.137-.138-.536-.253-.999-.632-1.52-.897-.764-.387-1.349-.955-1.898-1.573-.315-.353-.62-.7-1.12-.752-.09-.752-.132-1.475.121-2.18a3.22 3.22 0 0 0 .115-.4c.015-.08-.015-.144-.104-.15zm6.406 5.46c.293.084.582.207.88.241.34.039.542.317.849.407.207.062.348.253.58.314.413.11.822.211 1.204.458.322.205.748.27 1.139.34.418.074.722.362 1.113.493 1.145.382 2.348.507 3.505.83.702.197 1.378.543 2.141.48.929.372 1.954.341 2.887.687.475.176 1.005.036 1.468.273.333-.14.641.018.924.134.314.13.637.006.934.112.585.213 1.234.108 1.808.369.043.02.106.052.132.035.292-.184.545.121.792.072.319-.064.582.046.865.116.113.027.228.092.336.08.523-.064 1.011.149 1.521.166.197.006.38.071.593.066.367-.01.763.106 1.024.4.236-.063.44-.104.667-.117.401-.026.785.113 1.18.063.222-.027.453-.085.657.046.238.154.488-.082.73.057.285.162.62.154.924.112.332-.044.654.01.98.013.787.006 1.575.128 2.361.08.42-.027.852.096 1.244.03.708-.122 1.432-.104 2.124-.257.747-.164 1.562-.134 2.214-.633.517-.074.895-.391 1.302-.68.418-.295.874-.531 1.172-1.017-.112-.058-.135-.186-.242-.289-.32-.303-.728-.49-1.036-.782-.32-.306-.727-.474-1.038-.785-.306-.307-.729-.458-1.065-.745a2.04 2.04 0 0 0-.556-.352 2.002 2.002 0 0 1-.835-.641c-.155-.104-.415-.04-.548-.211-.318-.416-.892-.47-1.208-.883-.683-.263-1.262-.715-1.912-1.038-.666-.33-1.234-.828-1.944-1.11-.325-.13-.613-.398-.961-.557-.353-.162-.659-.416-1.025-.588-.392-.185-.78-.403-1.17-.606-.405-.213-.81-.41-1.258-.5-.068-.015-.17-.017-.197-.062-.204-.316-.562-.3-.86-.373-.322-.079-.526-.328-.845-.414-1.853-.504-3.697-1.046-5.543-1.576-.112-.032-.245-.118-.334-.087-.341.114-.64-.029-.927-.143-.311-.121-.634.04-.935-.107-.547-.27-1.184-.115-1.737-.356-.328.107-.644-.147-.924-.096-.382.07-.669-.128-1-.167a1.305 1.305 0 0 0-.199-.011c-.352.004-.7.02-1.055-.043a5.133 5.133 0 0 0-.923-.09c-.81.011-1.588-.204-2.433-.258-.404.25-.828-.037-1.25-.11-.178.1-.34.26-.505.266-.563.02-1.12.182-1.684.104a1.025 1.025 0 0 0-.456.03c-.44.13-.899.141-1.347.216-.333.058-.655.099-.974-.016-.314.153-.609.366-.934.444a29.06 29.06 0 0 0-2.028.563c-.688.22-1.357.45-1.992.787-.503.266-.782.69-.978 1.204-.143.375-.06.733-.036 1.107.013.224.042.348.227.5.186.152.363.332.408.642.047.322.327.579.754.69.063.144.148.335.224.501.535.116.865.508 1.221.809.433.368.849.704 1.394.842.23.103.3.33.416.52zm22.163-7.217c.234.164.324.12.308-.019-.092.003-.201.01-.308.019z" fill="#FD5204"/>
        <g fill="#6280FB">
            <path d="M72.119 17.521c.06.605.542.995.779 1.51.246.529.667.92 1.11 1.34l.358.103c.02.038.057.077.063.121.063.413.322.67.61.959.588.587 1.22 1.08 1.975 1.42.152.068.237.267.44.267.193.395.577.47.946.552.208.047.27.281.502.308.184.021.409.028.527.26.037.071.204.08.313.11.177.054.36.086.53.156.846.348 1.776.334 2.646.589.253.072.565.098.841.098.296 0 .568.041.768.098 1.03-.183 2.053-.12 2.785-.712.119-.067.15-.074.157-.09.035-.083.065-.17.12-.326.091-.043.231-.135.383-.168.104-.023.24-.077.31-.06.515.14 1.054-.039 1.565.129.155-.101.112-.288.19-.443.19-.001.369-.082.583-.222.442.344 1.107.339 1.458.89.036.057.065.121.101.18.034.056.071.11.1.15.119.052.255.028.332.264-.001.18.11.453.01.736-.217.62-.163 1.296-.395 1.92-.232.627-.379 1.286-.563 1.93-.185.643-.402 1.282-.545 1.934-.137.628-.577 1.132-.66 1.772-.346.314-.374.77-.472 1.175-.242 1-.805 1.887-.986 2.905-.044.246-.339.355-.331.64.026.91-.315 1.753-.622 2.573-.252.679-.583 1.344-.683 2.051-.224 1.6-.819 3.095-1.215 4.644-.074.286.053.568-.082.855-.127.268-.265.583-.237.861.045.434-.101.805-.225 1.182-.18.542-.112 1.117-.311 1.656-.2.54-.338 1.104-.483 1.664-.064.251.035.523-.08.784-.095.222-.176.458-.076.717.028.069-.043.176-.068.264l-.115.4c-.14.49-.302.973-.413 1.468-.112.502-.327.965-.326 1.516 0 .487-.251.976-.39 1.466-.031.112.052 1.052.127 1.142.224.276.175.63.276.94.098.3.295.587.201.942-.07.273.255.464.189.75.262.324.135.785.384 1.121.033.044-.043.17-.073.273.376.484.458 1.098.672 1.654.327.848.538 1.727.706 2.622.047.251.262.456.297.739.015.123-.029.22-.04.361.372.483.4 1.123.591 1.705a11.3 11.3 0 0 1 .439 2.008c.052.396.096.777.302 1.124-.087.351-.28.711.11 1.008-.195.421.373.719.18 1.14.236.52.211 1.096.334 1.69l-.155.537.26.371c.047.525-.024.92.095 1.34.117.42.094.896.059 1.34-.05.606.002 1.208-.021 1.81-.003.077.048.163.016.257-.203.571-.076 1.185-.219 1.766.141.252-.006.48-.063.715a2.271 2.271 0 0 0-.062.65 5.64 5.64 0 0 1-.117 1.427c-.091.437-.152.862-.103 1.305a.28.28 0 0 1-.01.129c-.232.55-.209 1.15-.357 1.713a4.1 4.1 0 0 0-.122 1.308c.004.07.014.136-.014.194-.27.566-.127 1.216-.373 1.78-.108.247.074.477-.044.724-.1.212-.218.456-.076.714.016.028-.017.088-.034.13-.29.677-.32 1.417-.432 2.121-.152.952-.551 1.84-.663 2.78-.15 1.24-.7 2.37-.884 3.582a18.442 18.442 0 0 1-.968 3.704c-.628 1.677-.961 3.445-1.61 5.104-.504 1.285-.8 2.62-1.233 3.92-.155.468-.457.869-.55 1.369-.09.474-.183.977-.413 1.39-.26.466-.32.988-.546 1.445-.628 1.265-.85 2.652-1.265 3.981-.414 1.324-.772 2.664-1.154 3.997-.21.734-.401 1.473-.635 2.197-.204.628-.159 1.297-.39 1.921-.224.606-.467 1.232-.524 1.865-.093 1.04-.582 1.974-.716 2.981-.19 1.444-.713 2.79-1.079 4.178-.37 1.408-.815 2.797-1.19 4.203-.169.637-.559 1.18-.692 1.835-.126.633-.265 1.284-.546 1.858-.292.599-.432 1.233-.656 1.847-.106.287-.32.522-.383.84-.06.303-.21.573-.356.854-.22.421-.31.917-.419 1.389-.13.576-.512 1.05-.63 1.635-.118.588-.231 1.204-.507 1.723-.405.76-.55 1.587-.788 2.39-.086.29-.29.49-.388.764-.095.267-.04.598-.347.79-.087.055-.089.253-.126.385-.198.69-.428 1.37-.586 2.069-.303 1.342-.943 2.572-1.267 3.906-.033.13-.127.175-.245.245.136.343.058.7-.147.947-.146.176-.194.353-.25.538-.893 3.087-1.765 6.177-2.67 9.26-.111.377.06.775-.199 1.132-.13.034-.313.027-.442.165.056.153.25.082.362.215l-.47 1.641c-.306 1.066-.651 2.124-.905 3.203-.232.982-.75 1.858-.97 2.837-.262.272-.345.627-.416.974-.068.34-.293.6-.433.895-.256.535-.643 1.01-.984 1.502-.072.104-.165.188-.24.302-.41.64-1.012 1.105-1.556 1.624a.338.338 0 0 1-.181.098c-.5.069-.795.373-1.043.797-.295.506-.827.78-1.345.96-.536.187-1.054.42-1.598.59-.517.158-1.032.31-1.561.417-.166.035-.34.093-.501.14-.407.113-.81.403-1.263.167-.228.152-.501.01-.764.165-.276.162-.668.142-.998.169-.347.027-.674.183-1.01.158-.524-.037-1.01.17-1.528.155-.49-.017-.981.06-1.468.074-.577.017-1.155.05-1.736.034-.665-.016-1.33-.085-1.997-.067a4.556 4.556 0 0 1-.904-.082c-.586-.107-1.191-.09-1.758-.22-.57-.133-1.166-.095-1.717-.316-.158-.064-.326-.152-.52-.025-.065.043-.214-.053-.326-.077-.266-.055-.41-.39-.701-.339-.277.048-.528-.006-.781-.089-.234-.075-.528.142-.705-.067-.216-.258-.51-.27-.782-.354-.727-.222-1.46-.424-2.19-.633-.477-.137-.55-.18-1.01-.578-.491.105-.924-.088-1.334-.309-.092-.05-.177-.127-.284-.153-.585-.144-1.107-.412-1.614-.738-.251-.162-.563-.243-.84-.368-.283-.126-.546-.296-.811-.436-.363-.189-.747-.347-1.084-.578a6.376 6.376 0 0 0-1.086-.576c-.157-.07-.237-.195-.355-.28-.764-.544-1.601-.988-2.272-1.654-.246-.243-.56-.383-.803-.636-.211-.219-.425-.468-.758-.593-.259-.098-.493-.321-.694-.556-.207-.242-.465-.438-.712-.644-.359-.301-.778-.548-1.075-.898-.615-.724-1.42-1.265-1.963-2.053-.12-.172-.296-.31-.464-.44-.48-.374-.867-.818-1.06-1.331-.795-.424-1.065-1.23-1.589-1.803-.557-.61-.546-1.449-.834-2.2.089-.19.046-.454.298-.625.104-.07.157-.302.138-.447-.077-.568.127-1.113.086-1.686-.027-.357.104-.748.183-1.107.11-.484.178-.98.212-1.458.04-.579.217-1.105.367-1.645.078-.284-.038-.566.077-.856.1-.258.298-.534.118-.845-.016-.029.017-.088.035-.13.333-.877.273-1.847.636-2.717.31-.742.373-1.547.49-2.321.119-.794.35-1.546.554-2.31.2-.761.436-1.512.643-2.27.057-.209.2-.406.064-.657-.046-.087.09-.26.091-.392.002-.28.286-.378.354-.634.066-.251-.06-.473.03-.725.363-1.007.363-2.109.761-3.111-.01-.885.367-1.682.582-2.515.213-.828.433-1.657.711-2.464.265-.758.246-1.565.503-2.323.259-.765.454-1.554.674-2.324.071-.154.29.075.345-.227.012-.134-.288-.127-.294-.364.001-.003-.01-.048.002-.09.304-1.067.697-2.116.898-3.202.368-1.991 1.045-3.896 1.552-5.845.01-.976.42-1.86.66-2.78.236-.915.515-1.816.776-2.724.241.085.314.366.596.412l-.076-.443-.407-.116-.085-.467c.08-.186.298.036.342-.172.092-.211-.195-.148-.205-.286.023-.21.353-.24.27-.468.101-.13.24.027.31-.102-.067-.127-.204-.09-.358-.177.073-.33.188-.674.285-1.022.099-.355.204-.711.306-1.066l.305-1.066c.102-.355.202-.713.306-1.067.1-.341.176-.685.413-.98.224-.277 0-.654.138-.98.142-.337.214-.706.316-1.063l.306-1.066.306-1.067.305-1.066.31-1.079c.097-.017.201-.032.34-.056-.107-.343-.098-.66.27-.886a78.441 78.441 0 0 1-.35-.45l.564-1.971c.07-.086.164-.011.25-.032.112-.06-.02-.104.009-.262.005-.017.131-.018.207-.08.149-.014.167.126.237.202.08-.022.093-.092.114-.166-.086-.197-.32-.118-.453-.23-.007-.042-.028-.088-.017-.124.787-2.755 1.582-5.51 2.362-8.267.122-.436.43-.78.515-1.237.09-.475.258-.934.392-1.402.127-.445.18-.93.4-1.322.307-.547.456-1.132.601-1.72.07-.28.295-.485.272-.82-.02-.28.144-.575.227-.864.09-.31.178-.621.268-.934l.112-.391c.277.09.338-.176.505-.263-.043-.07-.092-.148-.142-.232-.093.003-.18.131-.293.04-.016-.038-.056-.09-.044-.115.706-1.478.918-3.117 1.495-4.633.224-.589.35-1.23.65-1.77.375-.675.504-1.409.711-2.122.126-.438.449-.774.525-1.234.07-.43.162-.885.371-1.257.204-.362.256-.773.456-1.11.437-.746.562-1.584.797-2.385.11-.373.444-.632.455-1.036.282-.155.286-.456.34-.708.144-.694.616-1.266.718-1.97.6-.635.617-1.583 1.202-2.236.124-.139.138-.389.178-.592.043-.205.231-.301.311-.498.195-.476.468-.922.753-1.357.166-.248.379-.484.428-.811.054-.363.477-.496.58-.85.017-.056.125-.11.15-.206.188-.711.61-1.313 1.023-1.888.474-.66.886-1.363 1.382-2.007.48-.627.924-1.284 1.417-1.9.387-.484.822-.936 1.122-1.478.312-.562.8-.95 1.22-1.402.42-.457.855-.906 1.3-1.34.044-.04.043-.13.073-.233.394-.125.683-.442.927-.77.497-.667 1.16-1.152 1.752-1.715.57-.544 1.21-1.011 1.82-1.506.401-.324.79-.652 1.252-.872.201-.096.131-.312.308-.422.447-.282.876-.601 1.29-.933.462-.373 1-.618 1.486-.947.337-.227.595-.566.911-.824.427-.35.895-.647 1.311-1.006a10.66 10.66 0 0 0 1.456-1.539c.04-.05.113-.073.172-.112.101-.352.181-.716.31-1.063.345-.946.428-1.952.692-2.917.262-.96.651-1.896.79-2.87.169-1.164.666-2.236.828-3.381.116-.82.361-1.59.569-2.378.212-.805.483-1.595.678-2.402.34-1.427 1.03-2.738 1.347-4.172.668-1.246.849-2.65 1.269-3.978.124-.387.413-.686.484-1.1.07-.406.147-.844.355-1.19.24-.399.347-.824.477-1.252.07-.237.322-.36.341-.638.014-.213.164-.396.275-.589.189-.33.259-.738.34-1.122.067-.317.242-.569.39-.839.15-.27.108-.594.361-.862.197-.209.2-.602.283-.894.301-.278.687-.11 1.056-.245.156-.553.561-.937 1.026-1.272.16-.116.296-.069.45-.022.14-.08.281-.158.426-.238l.172-.6c.021.025.068.039.112.051zM30.027 196.785c.11.206.188.464.354.628.128.124.287.405.475.292.248-.146.44.095.641.007.07-.094.03-.169.009-.26-.052-.224-.33-.134-.402-.316.328-.684.328-.684.621-.9.453.112.886.284 1.379.266.412-.014.785.257 1.245.225.401-.028.816.16 1.24.21.478.058.972.09 1.453.216.287.074.635.084.96.079.384-.006.79-.07 1.151.002.694.135 1.39.086 2.073.07a33.307 33.307 0 0 0 4.327-.368c1.402-.218 2.786-.515 4.133-.965.524-.175 1.06-.344 1.447-.792a.707.707 0 0 1 .36-.196 5.179 5.179 0 0 0 1.46-.603c.203.13.472.067.5-.068.075-.373.436-.37.654-.617-.025-.41.27-.685.538-.987.097-.107.232-.182.266-.366.11-.596.552-1.04.78-1.592.193-.458.497-.874.636-1.369 1.053-3.69 2.105-7.38 3.182-11.062.123-.418.104-.839.19-1.256.07-.348.317-.584.422-.904.547-1.698.84-3.475 1.596-5.108.134-.29.183-.62.277-.93.01-.036.058-.062.083-.087.07.004.135.01.24.019-.06-.56.057-1.062.372-1.434l-.035-.834c.091-.217.299-.197.385-.334.178-.288-.001-.61.113-.918.429-1.153.576-2.394 1.144-3.51.236-.464.35-1.006.443-1.527.1-.549.448-.981.587-1.505.09-.334.197-.666.285-1 .079-.304.16-.606.433-.803.213.008.433.206.66-.054a.982.982 0 0 0 .08-.793c.077-.046.163-.07.185-.121.055-.125.081-.263.106-.351.233-.277.562-.23.869-.41-.117-.28.236-.39.311-.662l-.45-.13c-.104.066-.276.173-.434.27l-.367-.105c-.231-.638.183-.998.532-1.388.082-.027.178.051.264-.046-.023-.096.11-.19.026-.32-.066-.038-.173-.04-.188-.208.532-1.407.72-2.973 1.406-4.39.258-.533.335-1.151.515-1.724.176-.556.31-1.118.588-1.653.27-.523.354-1.143.52-1.72.044-.156.048-.343.141-.46.236-.29.364-.589.266-.96.244-.733.224-1.52.492-2.253.228-.628.387-1.284.56-1.93.06-.232.185-.445.085-.722-.05-.145.05-.388.25-.495l-.2-.362c.28-.245.045-.606.153-.927.106-.325.19-.655.276-.953.13-.04.224.037.288-.037-.002-.133-.15-.083-.203-.196l.468-1.631.301-.168.087-.303c-.08-.06-.15-.11-.222-.162.173-.107.244-.235.226-.44-.026-.278-.073-.58.008-.835.285-.913.417-1.86.65-2.783.317-1.254.692-2.494 1.066-3.734.149-.492.173-1.036.55-1.441.125-.721.492-1.357.727-2.04.41-1.184.581-2.44 1.153-3.578.27-.537.344-1.156.627-1.71.25-.485.326-1.055.48-1.589.158-.555.355-1.102.467-1.668.108-.543.456-.973.594-1.503.72-2.779 1.7-5.486 2.237-8.316.169-.891.525-1.729.645-2.644.106-.82.207-1.667.525-2.455.211-.526.075-1.127.33-1.65.012-.02.026-.05.02-.065-.193-.312.124-.573.087-.848-.041-.306.04-.574.113-.852.088-.346.195-.672.171-1.05-.028-.49.11-.971.245-1.451.125-.444.21-.917.199-1.373-.007-.243.166-.468.09-.646-.12-.286.057-.482.072-.71.846-.605 1.394-1.424 1.787-2.381-.206-.191.202-.482-.026-.72-.027-.674-.286-1.278-.585-1.864-.19-.37-.4-.726-.598-1.093a1.347 1.347 0 0 1-.175-.494c-.051-.41-.03-.814-.04-1.222-.012-.535.053-1.094-.076-1.599-.141-.546-.213-1.096-.27-1.647-.015-.153-.028-.291-.066-.445-.15-.605-.355-1.216-.416-1.819-.064-.632-.271-1.216-.384-1.825-.114-.613-.29-1.214-.435-1.819-.039-.167.071-.321-.044-.518-.227-.393-.395-.826-.336-1.309.007-.059-.028-.13-.06-.184a4.643 4.643 0 0 1-.48-1.23c-.082-.331-.295-.654-.328-.998-.036-.362-.205-.675-.326-.988-.262-.676-.28-1.42-.638-2.067-.07-.13-.159-.374 0-.604-.11-.153-.227-.322-.323-.458.085-.21.119-.357-.002-.506a.998.998 0 0 1-.208-.681c.006-.168-.04-.295-.072-.447a18.139 18.139 0 0 0-.635-2.16c.255-.89.52-1.751.747-2.623.224-.854.552-1.679.62-2.58.043-.541.321-1.062.429-1.603.11-.55.164-1.107.33-1.65.117-.38.263-.748.226-1.182-.027-.301.13-.63.253-.928.124-.303-.067-.63.109-.922.035-.056.035-.132.06-.197.297-.783.313-1.663.822-2.374.026-.035.054-.104.037-.13-.197-.323.172-.636.008-.974-.053-.108.047-.318.124-.457.416-.762.408-.764.434-1.514.003-.113.058-.222.093-.333.175-.583.316-1.17.618-1.716.186-.336.23-.746.339-1.126.115-.4.304-.796.323-1.201.017-.39.587-.576.322-1.022.398-.167.153-.605.365-.878.124-.157.245-.43.116-.708-.058-.127.004-.353.128-.429.175-.103.168-.261.219-.403.204-.547.218-1.165.615-1.64.118-.797.626-1.456.787-2.238.042-.202.11-.4.172-.6.01-.036.053-.066.08-.098.066.003.129.003.202.005.003-.176-.073-.341.088-.525.1-.114.045-.371.058-.582-.54-.012-1.037.005-1.53-.039-.586-.054-1.181.056-1.756-.146a.98.98 0 0 0-.324-.045c-1.07.002-1.148-.004-2.074-.497-.096-.052-.211-.063-.316-.093-.049.086-.078.144-.11.198-.403.075-.79-.001-1.17-.134-.065-.024-.148-.074-.197-.051-.28.115-.523-.034-.783-.082-.28-.054-.526-.188-.85-.124-.242.047-.522-.155-.794-.199-.726-.115-1.324-.575-2.03-.73-.62-.136-1.127-.577-1.766-.655a.176.176 0 0 1-.107-.068c-.176-.24-.477-.311-.715-.427-.273-.134-.544-.294-.829-.402-.292-.11-.516-.304-.76-.485-.463-.34-.9-.716-1.392-1.024-.224-.14-.536-.246-.6-.577-.204.042-.169-.363-.421-.23-.598 1.635-.886 3.357-1.57 4.97-.421.993-.612 2.081-.924 3.122-.307 1.024-.528 2.072-1 3.046-.199.409-.255.888-.399 1.326-.124.38-.163.781-.446 1.116-.24.286-.074.699-.169 1.04-.326 1.155-.673 2.308-.989 3.466-.318 1.164-.698 2.307-.886 3.513-.181 1.166-.712 2.252-.847 3.45-.1.871-.522 1.682-.595 2.582-.041.52-.277 1.022-.42 1.534-.038.135-.145.215-.215.32-.3.443-.774.688-1.138 1.057-.398.405-.777.844-1.32 1.08-.08.036-.182.078-.225.145-.411.652-1.214.851-1.658 1.462-.487.2-.845.602-1.307.846-.134.07-.258.161-.38.264-.781.668-1.592 1.299-2.391 1.945-.714.577-1.481 1.066-2.15 1.719-.725.705-1.421 1.442-2.155 2.137-.373.354-.849.615-1.04 1.137-.436.203-.658.619-.938.972-.12.151-.14.389-.38.434-.163.393-.555.585-.803.916-.329.438-.568.97-1.055 1.29-.157.104-.357.25-.395.412-.13.542-.698.787-.826 1.317-.333.243-.51.65-.878.849-.164-.018-.302-.126-.45-.09-.295.152-.566.294-.871.386-.814.246-1.111.547-1.692 1.33-.141.19-.185.4-.302.579a2.586 2.586 0 0 0-.308.576c-.16.465-.146.996-.525 1.382-.048.047-.098.165-.026.254.09.11.02.215-.003.325-.132.568-.31 1.118-.378 1.713-.067.59-.109 1.168-.107 1.759.002.323.117.716-.088.962-.25.304-.27.661-.407.987-.067.16-.09.32-.231.473-.199.216-.321.523-.417.81-.183.548-.224 1.17-.512 1.648-.302.503-.348 1.086-.679 1.579-.244.364-.31.867-.396 1.318-.088.454-.4.794-.526 1.234-.236.824-.32 1.708-.824 2.445-.17.949-.663 1.787-.921 2.706-.132.467-.283.93-.4 1.4-.339 1.376-1.024 2.644-1.295 4.04-.035.189-.265.189-.26.368.14.365-.009.643-.26.896a.697.697 0 0 1 .002.515c-.27.767-.442 1.562-.783 2.316-.347.772-.531 1.624-.723 2.459-.19.827-.644 1.546-.845 2.367a51.784 51.784 0 0 1-.893 3.135c-.32 1.02-.523 2.07-.991 3.05-.304.639-.416 1.37-.611 2.057-.024.083-.087.166-.036.263.143.265.001.548-.123.705-.27.344-.328.74-.438 1.122-.608 2.086-1.197 4.177-1.806 6.263-.08.271-.056.598-.356.782-.054.032-.091.2-.056.252.131.193.014.356-.032.523-.282 1.001-.586 1.997-.852 3-.263.99-.642 1.944-.73 2.98-.04.452-.276.885-.353 1.337-.038.217-.265.247-.283.419.164.375-.133.674-.129 1 .005.36-.554.535-.285.957l-.286 1-.306 1.066-.303 1.057-.283.078c-.177.285-.053.514-.062.728-.016.343-.198.682-.134.976.07.335-.186.592-.104.849.107.335-.071.578-.132.854-.321 1.425-.953 2.773-1.068 4.25-.371.962-.443 1.995-.713 2.982-.116.424-.26.841-.358 1.268-.142.613-.343 1.204-.427 1.845-.093.74-.274 1.517-.777 2.14-.025.033-.096.068-.094.071.212.374-.186.678-.108 1.047.085.395-.178.743-.237 1.123-.017.104.129.193.029.34a.567.567 0 0 0-.203.21c-.147.263 0 .527-.066.79-.183.722-.39 1.434-.515 2.176-.222 1.323-.8 2.566-.964 3.919-.091.76-.48 1.456-.508 2.25-.015.448-.198.904-.37 1.33-.183.454-.123.932-.236 1.39-.153.609-.48 1.185-.393 1.848-.282.747-.201 1.575-.516 2.316-.064.149-.16.33-.122.463.095.34-.031.632-.141.915-.128.326-.023.658-.11.99-.102.381-.185.8-.185 1.178-.003.682-.136 1.345-.203 2.012-.058.568 0 1.128-.059 1.685-.033.316.009.632.093.89.116.356-.185.608-.074.984.416.276.685.736.912 1.22.295.074.477.306.711.453.331.206.505.539.726.832.563.747 1.37 1.224 2.037 1.858.13.124.31.327.6.323l.227.544c.497-.024.643.486 1.107.595l.557 1.01c.235-.142.547-.082.726.076.41.355.874.62 1.328.891.519.308.93.796 1.55.927.25.296.665.304.95.552.157.138.356.235.558.33.448.213.865.486 1.317.7.267.127.461.397.776.458.334.064.604.264.906.395.366.158.739.31 1.108.448.889.329 1.744.756 2.685.947.478.097.964.213 1.35.594l-.115.403c-.115.18-.344.052-.51.233zm45.8-171.435c1.122.354 2.144.922 3.266 1.265 1.144.35 2.329.326 3.462.646.02-.097.028-.14.038-.195-.217-.227-.492-.094-.743-.118-.278-.027-.418-.337-.705-.345-.021-.001-.053-.018-.064-.008-.206.168-.397.016-.583-.035-.755-.206-1.507-.424-2.258-.645-.23-.069-.44-.182-.653-.296-.283-.152-.534-.399-.887-.437a.826.826 0 0 1-.678-.475c-.061.03-.121.064-.182.091-.331-.203-.639-.437-1.006-.59-.353-.146-.586-.565-1.025-.524-.056.113-.064.188-.01.235.344.292.749.498 1.105.764.314.228.742.298.923.667zM88.7 26.98l-.648.303c-.151-.07-.31-.086-.434.043-.158.164-.343-.062-.554.093.652.255 1.196.157 1.711-.214-.029-.082-.04-.123-.075-.225zM75.226 130.642c.118-.175.296.032.416-.082.006-.104.104-.197.031-.358-.159.131-.395.127-.447.44zm9.737-38.554c.18-.073.378.228.452-.15-.114-.11-.232-.15-.378-.109l-.074.26zm-42.32 105.914c-.046.156.018.272.136.375a.355.355 0 0 0 .105-.36c-.073-.065-.15-.08-.24-.015zm41.784-124.08c-.138-.127-.252-.168-.39-.128-.064.074-.078.15-.017.233.101-.114.244-.051.407-.105z"/>
            <path d="m83.836 25.058-2.523-.723c-.142-.16-.19-.338-.01-.585.532.234 1.174.201 1.663.627.063.055.171.065.262.078.127.018.236-.104.383-.038.163.073.347.104.52.154-.07.327-.07.327-.295.487z"/>
        </g>
    </g>
</svg>
