<svg width="179" height="136" viewBox="0 0 179 136" xmlns="http://www.w3.org/2000/svg">
    <g fill-rule="nonzero" fill="none">
        <path d="M59.076 24.173h8.158c.017.08-.041.178.068.264.373.026.767.004 1.17.11.41.107.87.024 1.297.024.094.1.184.192.254.266h.875c.06.078.14.183.225.29.663-.132 1.27.13 1.896.136.012.105-.017.178.089.242.398-.1.772.227 1.182.124.101.115.174.198.239.269.31.01.593.007.887.114.285.103.505.415.86.312.274.359.737.227 1.075.422.024.076-.01.176.109.215.42.08.595.205.933.42.234.148.444.336.753.414.28.07.444.446.721.63.275.182.557.35.832.526.29.183.505.486.753.734l.591.598c.222-.054.432.051.437.205.007.241.328.149.313.402-.01.173.282.137.36.266l.017.266c.477.422.815.978 1.44 1.17v.537c.347.364.75.673.97 1.127.108.227.212.44.366.646.154.205.246.469.364.705.1.2.379.273.391.495.024.41.311.635.548.886v.66l.25.254c0 .122-.048.337.008.371.313.188.202.544.345.795.067.117-.015.352.065.427.198.185.176.422.263.627.11.26.082.5.108.751.005.04.025.078.044.147.063.056.145.126.227.2-.085.68.25 1.324.103 1.987.123.066.15.208.283.2v5.573c-.136-.007-.162.135-.268.193.072.976-.23 1.937-.128 2.92.002.014-.027.031-.041.048-.07.044-.176-.002-.234.127.128.708-.208 1.41-.126 2.13-.11.024-.17.036-.255.053-.012.62.06 1.247-.208 1.827-.062.005-.132-.02-.198.093v.517c-.291.263-.414.558-.388.93.022.306.005.616.005.914-.227.22-.417.444-.388.858-.205.178-.45.393-.652.571-.031.166.039.288-.087.361-.062.005-.132-.017-.18.066v.268c-.14.122-.285.251-.427.378.135.47-.423.646-.37 1.09l-.4.352v.746c-.37-.1-.277.427-.593.424-.02.332-.365.4-.526.625-.13.178-.302.412-.577.48v.234c-.154.15-.297.283-.43.413v.75l-.448.025c-.236.237-.533.42-.649.683-.152.344-.436.407-.702.546-.014.061-.012.137-.05.176-.13.149-.275.285-.415.424-.14.14-.268.369-.425.393-.275.04-.13.373-.357.398-.128.014-.21.046-.241.222-.027.156-.287-.02-.39.141-.073.112-.204.03-.305.056-.133.034-.01.244-.207.276-.21.034-.16.422-.485.397-.246-.017-.362.33-.666.31a.51.51 0 0 0-.415.256c-.046.09-.147.2-.234.21-.458.056-.733.388-1.035.678h-.654l-.238.239c-.33.034-.676.046-.931.285-.259.242-.553.286-.88.269-.035-.003-.073.036-.105.05l-.043.206h-.74c-.056.336-.377.212-.565.344-.22.153-.507-.012-.743.088l-.056.214h-.566c-.225.103-.382.276-.524.398-.958.107-1.882-.056-2.813.129-.653.13-1.355.007-2.033.037-.181.007-.237-.205-.408-.144-.087.107-.198.139-.338.136-.328-.01-.658-.01-.986-.002-.319.007-.598-.178-.934-.147-.456.047-.919.013-1.38.01-.036 0-.072-.034-.108-.051-.015-.061-.027-.122-.046-.212-.883.06-1.744-.234-2.63-.134-.016.002-.038-.015-.055-.022l-.27-.273c-.721.18-1.45-.157-2.26-.098l-.196-.278h-.808l-.21-.212c-.745-.125-1.462-.242-2.173-.173l-.092-.271h-.847l-.202.258h-.444l-.649-.673c-.239.093-.437-.085-.66-.11-.26-.026-.522-.007-.792-.007-.032-.085-.058-.163-.094-.263h-.524c-.113-.069-.074-.142-.087-.203-.291-.144-.644-.12-.902-.37-.253-.247-.692-.166-.878-.505H44.9c-.343-.554-.837-.893-1.233-1.02-.835-.493-1.336-1.07-1.898-1.627h-.558c-.007-.317-.325-.397-.42-.624v-.356c-.477-.622-1.181-.434-1.739-.59-.14-.071-.277-.144-.366-.19v-.862c.101-.09.236-.202.357-.326.036-.037.029-.115.038-.161-.106-.147-.27 0-.369-.108-.02-.295-.236-.544-.142-.866-.196-.175-.374-.336-.54-.483.016-.78-.522-1.234-.934-1.775v-.49c-.056-.093-.128-.056-.19-.066-.11-.08-.044-.2-.063-.303l-.396-.373V59.3a50.09 50.09 0 0 0-.383-.315c-.032-.358.03-.683-.04-.992-.11-.003-.178.012-.23-.076 0-.256-.1-.537-.1-.783 0-.327-.359-.434-.301-.754.058-.314-.345-.414-.4-.7v-.568a34.957 34.957 0 0 1-.273-.095c.113-.856-.07-1.693-.138-2.605l-.236-.175v-.905c0-.3 0-.603-.002-.9h-.261v-7.43c.082-.017.176.042.268-.075v-1.603c.099-.036.176-.063.277-.102-.14-.742.22-1.442.109-2.149.116-.073.222-.03.277-.149-.063-.58.034-1.17.179-1.75.062-.013.12-.028.202-.045v-.96c.147-.15.27-.274.394-.396.036-.102-.044-.222.05-.32.068-.036.171.006.193-.036.085-.36.087-.697.422-.87-.116-.41.533-.476.391-.884.135-.202.343-.32.434-.563.085-.222.44-.31.362-.644.171-.154.28-.415.647-.317l.673-.688c.383.051.774-.027 1.153-.168.014-.061.031-.12.058-.227.513.085.846-.458 1.372-.424.015 0 .032-.03.046-.044.195-.208.427-.337.721-.327.152-.305.473-.244.724-.32.244-.075.437-.282.654-.319.27-.044.511-.168.774-.198.031-.083-.002-.185.181-.253h.485c.005-.071.007-.115.012-.164.275-.168.61-.17.897-.356.263-.17.615-.205.927-.297.026-.074-.008-.176.099-.215.274.027.499-.232.771-.122.191-.197.36-.37.526-.544.164.03.278-.051.415-.12.234-.119.449-.275.705-.363.21-.073.48.054.636-.217.136-.232.485.047.628-.224.202.056.304-.134.448-.183.232-.076.326-.356.582-.346.34.012.627-.25.962-.13.03-.114.044-.175.068-.27.48.056.921-.21 1.401-.147.017-.112-.019-.185.06-.232.24-.087.507.076.748-.09.227-.156.507.01.765-.1l.23-.251h.684l.063-.246c.745.11 1.47-.215 2.224-.13.032.003.07-.041.104-.063-.007-.054-.007-.12-.007-.188zM72.225 54.38c-.287-.075-.176.337-.458.342-.184.002-.2.366-.454.451-.171.059-.217.303-.408.415-.188.112-.378.285-.424.541-.367.051-.584.325-.82.559h-.249c-.222.166-.364.388-.59.532-.25.16-.529.1-.787.134.014.224-.116.302-.251.4h-.772c-.593.348-1.126.414-1.72.383-.065.085-.147.187-.215.275h-1.466c-.085.086-.162.164-.244.244h-.95l-.273-.273-.217.28h-.69l-.263-.265h-.921c-.102-.103-.179-.18-.26-.264-.664.078-1.304-.256-1.952-.11-.102-.102-.17-.229-.259-.25-.535-.13-1.078-.218-1.613-.162-.292-.392-.69-.43-1.081-.407-.024-.11-.039-.17-.056-.254h-.528c-.398-.4-.948-.434-1.317-.775-.371-.342-.85-.498-1.271-.756.05-.313-.35-.252-.398-.479-.027-.124-.116-.09-.181-.129-.237-.139-.463-.283-.656-.492-.432-.469-.89-.915-1.334-1.364-.352.112-.442-.32-.729-.312v-.28c-.231-.154-.482-.237-.774-.188l-.02-.344c-.149-.198-.482-.337-.4-.69-.099-.052-.203-.013-.253-.113v-.351l-.42-.332c.142-.314-.195-.466-.22-.695-.028-.28-.156-.517-.197-.807h-.688l-.25-.256H44.8c-.487.534-1.139.36-1.735.405-.021.202-.166.27-.299.339v1.336c.08.03.155.056.232.083-.02.261.21.456.171.712l.263.096v.558c1.078 1.085 2.132 2.149 3.194 3.22l.371.041.765.773h.328c.111.134.237.283.33.398h.9c.06.078.14.183.196.253.188.037.35-.053.48.074v.773c.207.22.405.424.598.629h.357l.355.393c.178-.003.35.031.533.117.161.073.381-.01.514.197.127.2.38-.01.571.103.056.095.114.188.16.268.542-.11.991.23 1.473.105.041.12.068.198.095.27.612-.036 1.18.23 1.765.135.03.112.044.17.07.275.765-.129 1.508.193 2.258.12.101.1.179.178.26.263h2.36c.096.09.188.18.28.269h.711l.19-.261c.98-.01 1.914.012 2.838-.012.017-.12-.02-.193.089-.254.335 0 .71-.032 1.076.01.376.041.683-.225 1.003-.144.15-.108.198-.254.427-.269.485.108 1.018-.124 1.57-.141.078-.078.155-.156.252-.251.294-.005.634.053.868-.22a.455.455 0 0 1 .456-.175c.099.014.152-.05.224-.098.295-.19.613-.334.888-.563.468-.39 1.071-.61 1.443-1.13.021-.031.067-.046.096-.065l.253-.013c.049-.131.085-.248.186-.339.082-.075.26.005.265-.212.003-.163.242-.105.338-.239.09-.124-.02-.266.07-.38l1.023-1.01c.029-.115-.043-.234.06-.32.217-.178.266-.492.512-.648.137-.09.08-.235.094-.359.202-.202.424-.39.598-.615.152-.197.166-.5.454-.592-.03-.161.108-.293.113-.41.005-.215.096-.27.253-.366.097-.058.024-.263.133-.405.084-.114.024-.33.2-.444.2-.129.007-.378.241-.656-.038.027.051-.034.111-.078.012-.407-.002-.763.118-1.122.066-.192.35-.249.275-.48-.074-.225.155-.344.14-.544-.014-.22-.002-.442-.002-.656l.234-.237c.092-.505.23-1 .154-1.505l.251-.092v-.988l-.195-.18c-.1-.203.014-.367-.109-.51-.347-.032-.719.065-1.051-.14-.358.186-.736.125-1.098.132l-.058-.227c-.099-.07-.205-.026-.28-.026-.14.041-.038.173-.14.236l-.234.027-.376.32v.69l-.248.09c-.044.595.127 1.254-.41 1.754.081.426-.11.822-.186 1.317l-.227.131c.125.454-.135.822-.128 1.217-.087.088-.164.166-.244.244v.442c-.077.06-.18.144-.27.214v.413l-.342.346c-.128.517-.4.907-.644 1.31-.172.28-.468.492-.464.922l-.921.929v.22zm-4.805-9.265h3.466c.046-.095.007-.2.116-.247h.509c.065-.066.116-.153.19-.185.331-.14.558-.405.772-.666.208-.249.353-.53.45-.873.113-.395.04-.764.108-1.14-.225-.111-.244-.358-.418-.538v-.92c-.161-.163-.301-.302-.446-.45-.67 0-1.35.033-2.024-.01-.692-.047-1.36.15-2.048.14-.193-.002-.383 0-.45 0l-1.062 1.072a8.156 8.156 0 0 0 .002 3.207c.147.42.659.295.835.61zm-15.465-5.947H48.31c-.063.078-.143.183-.215.273h-.427c-.152.203-.333.379-.523.44-.275.758-.227 1.468-.008 2.175.203.203.403.407.615.62.008.139.012.287.02.434l.345.329c.074.149-.015.27.106.373.236-.066.383.098.516.264.195.014.405-.061.548.134h2.697c.231-.173.658-.076.682-.52.162-.01.309-.017.459-.024.004-.288.308-.256.431-.473v-.903c.08-.117.26-.012.256-.258-.063-.066-.162-.176-.287-.312v-.681c-.195-.012-.379.005-.5-.244.01-.275-.057-.61.157-.912-.53-.07-.762-.515-1.227-.715z" fill="#FED901"/>
        <g fill="#FFF">
            <path d="M18.782 6.771c-2.47 3.99-4.137 8.488-5.614 12.935-1.372 4.136-2.685 8.294-4.026 12.442-1.353 4.191-2.736 8.376-4.06 12.577-.606 1.92-1.156 3.86-1.481 5.852-.591 3.632-.705 6.69-.092 10.319.953 5.66 4.793 9.858 8.166 14.203l-1.491-1.945c.98 1.286 1.846 2.61 2.509 4.09l-.96-2.298c.41.988.707 1.981.861 3.043l-.34-2.556c.065.645.07 1.268.007 1.913l.34-2.556a7.92 7.92 0 0 1-.516 1.85c-.88 2.14-.14 5.511.96 7.41 1.156 1.994 3.423 3.897 5.696 4.418 2.439.56 5.177.438 7.343-.969l1.927-1.504a9.628 9.628 0 0 0 2.451-4.243c.797-1.933 1.04-4.24.85-6.32-.28-3.066-1.014-5.481-2.328-8.263-1.544-3.27-4.111-5.94-6.292-8.78l1.491 1.944c-.948-1.258-1.807-2.555-2.449-4.001l.96 2.297a13.556 13.556 0 0 1-.868-3.271l.34 2.556c-.154-1.456-.101-2.892.087-4.343l-.34 2.556c.47-3.152 1.503-6.168 2.477-9.189 1.019-3.15 2.034-6.3 3.052-9.447 1.966-6.088 3.686-12.344 6.154-18.25l-.96 2.298c.75-1.75 1.597-3.444 2.598-5.06 2.646-4.272 1.04-10.779-3.418-13.155C27.14.827 21.606 2.212 18.782 6.771z"/>
            <path d="M10.512 83.802c-.21 8.013 5.471 15.437 13.08 17.526l-5.696-14.126-.533.962c-2.878 5.18-.444 12.738 5.696 14.125l29.913 6.758c4.888 1.105 9.78 2.43 14.73 3.208 1.797.282 3.638.562 5.464.65 1.947.09 3.802-.165 5.734-.45 2.625-.385 4.99-1.334 7.4-2.466 4.993-2.342 9.516-6.865 11.938-11.845 1.139-2.342 1.667-4.825.96-7.41-.608-2.23-2.318-4.647-4.378-5.747-2.212-1.178-4.89-1.77-7.344-.969-2.262.74-4.61 2.186-5.695 4.418a18.947 18.947 0 0 1-1.872 3.06c.497-.647.994-1.297 1.49-1.945a19.382 19.382 0 0 1-3.29 3.289l1.928-1.504a19.503 19.503 0 0 1-4.012 2.339l2.277-.969c-1.442.59-2.926.996-4.47 1.205l2.533-.343c-1.9.216-3.79.119-5.681-.134l2.533.343c-3.693-.545-7.334-1.502-10.974-2.322l-11.452-2.588-22.669-5.121c1.899 4.707 3.798 9.415 5.696 14.125.179-.32.355-.64.533-.961 2.992-5.385.328-12.473-5.695-14.126a10.762 10.762 0 0 1-.982-.321l2.277.969a9.22 9.22 0 0 1-1.783-1.025l1.928 1.504a9.718 9.718 0 0 1-1.689-1.723c.497.647.994 1.297 1.49 1.945a10.152 10.152 0 0 1-1.022-1.806l.96 2.297a9.555 9.555 0 0 1-.547-1.996l.34 2.556a9.842 9.842 0 0 1-.06-1.385c.132-5.031-4.478-9.844-9.53-9.615-5.27.241-9.384 4.226-9.526 9.618z"/>
            <path d="M28.88 105.97c4.984 0 9.76-4.423 9.529-9.615-.232-5.21-4.188-9.615-9.53-9.615-4.983 0-9.76 4.423-9.528 9.615.232 5.21 4.188 9.615 9.529 9.615zM119.932 60.105V57.78a7.293 7.293 0 0 0-.82-3.705 7.21 7.21 0 0 0-1.97-3.094 7.168 7.168 0 0 0-3.067-1.989 7.12 7.12 0 0 0-3.671-.827l-2.533.343a9.503 9.503 0 0 0-4.205 2.473c-1.71 1.882-2.791 4.194-2.791 6.799v2.325a7.293 7.293 0 0 0 .82 3.704 7.21 7.21 0 0 0 1.97 3.094 7.168 7.168 0 0 0 3.067 1.99 7.12 7.12 0 0 0 3.672.827c.844-.115 1.688-.23 2.533-.343a9.503 9.503 0 0 0 4.204-2.474c1.71-1.881 2.791-4.194 2.791-6.798z"/>
            <path d="M110.404 66.468c4.984 0 9.76-4.423 9.528-9.616-.231-5.209-4.187-9.615-9.528-9.615-4.984 0-9.76 4.423-9.53 9.615.232 5.21 4.186 9.616 9.53 9.616z"/>
            <path d="M100.523 58.05c-6.27 5.404-11.479 12.41-14.779 20.041-1.064 2.459-1.696 4.71-.96 7.41.608 2.23 2.318 4.647 4.379 5.747 2.212 1.178 4.89 1.77 7.343.969 2.2-.718 4.726-2.181 5.696-4.418a50.994 50.994 0 0 1 6.096-10.467l-1.491 1.944A51.04 51.04 0 0 1 114 71.65c1.771-1.526 2.792-4.528 2.792-6.799 0-2.358-1.038-5.175-2.792-6.798-1.816-1.682-4.2-2.931-6.737-2.817-2.642.117-4.731 1.081-6.74 2.814z"/>
            <path d="M36.262 21.95a174.157 174.157 0 0 1 38.723.843l-2.533-.343c7.09.969 14.561 1.981 21.205 4.795l-2.277-.969c1.889.828 3.671 1.83 5.31 3.094l-1.928-1.504a20.314 20.314 0 0 1 3.377 3.435l-1.49-1.945a22.718 22.718 0 0 1 2.621 4.583l-.96-2.298c1.16 2.8 1.827 5.75 2.227 8.751l-.34-2.556c.48 3.815.552 7.658.55 11.5-.003 5.029 4.386 9.848 9.529 9.615 5.165-.234 9.526-4.226 9.529-9.615.004-6.475-.208-13.162-1.95-19.435-2.13-7.668-6.675-14.252-13.432-18.456-5.939-3.698-12.961-5.205-19.74-6.414-7.816-1.395-15.734-2.357-23.658-2.778a173.68 173.68 0 0 0-24.758.47c-2.574.231-4.857.918-6.738 2.816-1.653 1.668-2.897 4.404-2.791 6.8.11 2.487.919 5.065 2.79 6.798 1.762 1.636 4.247 3.038 6.734 2.814z"/>
            <path d="M99.738 79.595c7.19-8.322 11.401-19.096 11.093-30.216-.297-10.703-4.582-20.78-11.785-28.597-3.58-3.885-8.048-7.23-12.86-9.388-2.417-1.086-4.687-1.707-7.343-.97-2.21.614-4.606 2.34-5.696 4.419-1.168 2.232-1.754 4.934-.96 7.41.716 2.23 2.161 4.751 4.378 5.747a33.832 33.832 0 0 1 6.721 4.021l-1.927-1.504a35.728 35.728 0 0 1 6.281 6.334c-.496-.648-.993-1.298-1.49-1.945a35.71 35.71 0 0 1 4.462 7.743l-.96-2.298a33.862 33.862 0 0 1 2.184 8.13l-.34-2.556a35.32 35.32 0 0 1-.005 8.841l.34-2.556a36.54 36.54 0 0 1-2.386 8.915l.96-2.298a34.978 34.978 0 0 1-4.415 7.636l1.491-1.945c-.395.506-.8.998-1.22 1.485-1.677 1.94-2.792 4.157-2.792 6.798 0 2.36 1.038 5.176 2.792 6.8 1.816 1.681 4.2 2.93 6.737 2.816 2.427-.115 5.088-.908 6.74-2.822z"/>
            <path d="M73.108 5.247c-13.794-.526-28.227-.433-40.518 6.811-5.98 3.525-11.116 8.73-14.325 14.946-3.276 6.349-4.901 13.2-5.316 20.323-.485 8.335 1.03 16.772 2.856 24.87 1.107 4.91 6.976 8.265 11.722 6.717 5.095-1.663 7.842-6.568 6.655-11.828-.8-3.554-1.51-7.127-2-10.74l.34 2.556c-.644-4.99-.844-10.034-.183-15.034L32 46.424c.463-3.271 1.281-6.462 2.528-9.522l-.96 2.298c1.018-2.415 2.287-4.689 3.855-6.782-.497.647-.994 1.297-1.49 1.945a28.6 28.6 0 0 1 4.96-5.005l-1.928 1.504c2.195-1.684 4.58-3.047 7.109-4.155-.76.324-1.517.645-2.277.97 3.77-1.605 7.724-2.59 11.772-3.156l-2.533.344c6.66-.874 13.379-.643 20.073-.387 4.987.19 9.754-4.56 9.53-9.616-.24-5.372-4.186-9.41-9.53-9.615z"/>
            <path d="M35.265 65.012c-.75-1.353-1.498-2.71-2.248-4.063l-16.455 9.705c4.256 7.279 10.19 13.394 17.196 18.001a42.971 42.971 0 0 0 4.448 2.561c2.125 1.06 4.354 2.223 6.663 2.77 5.824 1.38 12.021-1.657 13.529-7.728 1.594-6.417-3.148-13.379-9.997-13.189-4.762.132-8.723 3.559-9.358 8.337-.272 2.05-.014 4.34 1.132 6.132l1.49 1.945a9.503 9.503 0 0 0 4.205 2.473c7.257 3.04 15.591 4.192 23.403 3.396 8.638-.879 17.045-3.418 24.333-8.3 2.07-1.388 3.706-3.28 4.379-5.748.627-2.303.345-5.367-.96-7.41-1.313-2.052-3.264-3.86-5.696-4.418-2.42-.555-5.206-.46-7.343.97a42.956 42.956 0 0 1-6.74 3.682l2.277-.969a44.643 44.643 0 0 1-11.447 3.148l2.533-.344c-3.821.49-7.666.497-11.49.01l2.533.343a42.64 42.64 0 0 1-10.716-2.906l-2.533 18.887a6.46 6.46 0 0 1 .217-.005l-2.533-.343.186.066c-1.401-.826-2.803-1.648-4.205-2.473l.155.124-1.491-1.945c.038.056.08.112.118.17l-.96-2.298c.07.134.113.278.128.431l-.34-2.556c.002.078.002.158.005.236l.34-2.556a1.23 1.23 0 0 1-.116.453l.96-2.298-.125.193c.496-.648.993-1.298 1.49-1.945-.058.05-.115.102-.17.153.64-.501 1.285-1.003 1.927-1.504l-.321.16 2.277-.969-.345.08 2.533-.342a2.439 2.439 0 0 1-.728-.03l2.533.344c-.746-.17-1.44-.468-2.143-.765l2.278.969a44.424 44.424 0 0 1-9.479-5.591l1.928 1.504a45.25 45.25 0 0 1-8.028-8.108l1.49 1.945a45.983 45.983 0 0 1-2.962-4.45c-1.22-2.089-3.375-3.776-5.696-4.418-2.282-.633-5.319-.348-7.343.969-4.407 2.867-6.021 8.454-3.418 13.154.75 1.353 1.498 2.71 2.248 4.063 2.432 4.393 8.771 6.224 13.037 3.449 4.405-2.865 6.016-8.452 3.415-13.152z"/>
        </g>
        <path d="M118.341 130.528c.083-.326-.043-.527-.242-.606-.233-.095-.437-.285-.655-.324-.376-.065-.604-.288-.844-.524l-.665-.658a9.497 9.497 0 0 0-.3-.033c-.425-.42-.84-.846-1.269-1.254-.182-.174-.315-.404-.594-.479a.443.443 0 0 1-.272-.27c-.077-.305-.366-.416-.531-.667-.095-.435-.196-.534-.68-.614.054-.507-.353-.761-.664-1.094v-.271c-.33-.203-.422-.616-.74-.853-.128.128-.036.29-.065.435-.145.336-.5.384-.778.464-.291.084-.638.07-.927-.162v-.947l.248-.244v-.65c.092-.094.181-.189.269-.28 0-.068.026-.155-.005-.196-.636-.82-1.206-1.691-1.972-2.426v-.237c-.194-.26-.463-.44-.616-.739-.1-.196-.22-.391-.335-.585-.08-.137-.102-.319-.257-.422-.405-.273-.502-.754-.75-1.134.074-.321-.2-.517-.346-.703-.352-.452-.492-.985-.747-1.471.102-.198-.073-.348-.146-.462-.33-.5-.269-1.072-.41-1.536.12-.22.275-.244.415-.31v-.297l.388-.309c.102-.722-.254-1.338-.06-2.09l.25-.15c-.23-.567.189-.923.388-1.3.191-.364.623-.604.967-.915h.886c.844.464 1.329 1.338 2.216 1.831.146.007.381-.058.524.203v.78c.265.199.42.537.79.634v.374c.035.046.057.085.086.114.337.323.596.705.858 1.09.226.33.53.613.796.913.383.43.643.942 1.033 1.365.153.164.25.345.478.45.17.076.288.262.427.405.53.55 1.217.863 1.909 1.133.259.102.526.225.797.312.333.104.595.128.893-.024.053-.027.131-.005.196-.005.52-.425.832-.964 1.017-1.612.109-.384.356-.727.526-1.094.262-.558.616-1.06.924-1.592.281-.484.626-.921.934-1.382.269-.402.623-.774 1.07-1.02.133-.073.254-.16.242-.362.344.021.529-.305.822-.385.298-.08.621-.077.868-.352.219.234.486.195.735.171.248-.024.495.02.662.152.228.18.51.186.67.095.529-.305.914.087 1.358.186.779.66 1.77.988 2.564 1.623.604.13 1.052.546 1.574.827.422.227.878.381 1.208.749.024.026.07.04.109.05.975.261 1.83.795 2.733 1.216.723.335 1.46.623 2.207.891.563.2 1.12.387 1.574.846.47.476 1.08.795 1.805.725.87-.085 1.72.253 2.639.106.22-.104.123-.43.29-.614-.053-.577.338-1.082.27-1.664-.022-.187.199-.324.14-.532.427-.406.42-1.008.687-1.49.252-.457.453-.965.555-1.472.085-.428.403-.783.342-1.235.177-.176.35-.345.5-.498.027-.44.436-.765.3-1.128.2-.58.495-1.017.537-1.582.029-.414.257-.839.553-1.136.424-.428.599-1.007 1.013-1.428.003-.29.31-.343.418-.57h.679l.524-.406.181-.02c.29-.284.568-.562.893-.884.296-.017.602-.137.803-.408h.812c.117.348.386.64.667.759.444.186.723.52 1.046.819.225.208.439.432.657.647.41-.046.776.288 1.16.109.48-.123.693-.56 1.088-.78.42-.235.883-.317 1.312-.503.248-.109.42.225.616.15.716.447 1.232 1.068 1.841 1.585.19.162.4.469.805.326-.099-.367.301-.597.29-.971-.003-.056.116-.116.101-.218-.104-.712.211-1.399.121-2.138.206-.09.544-.024.546-.387.536-.173.665-.746 1.055-1.072.276-.232.655-.348.815-.689h1.244c.238.297.619.5.779.901.024.063.104.116.196.153.226.087.415.224.403.536-.153.391-.687.394-.827.768h-.306l-.32.387c-.114.903.388 1.853-.015 2.834l.274.2c.003.358-.014.667.01.97.022.294-.068.589.075.886.134.275.012.6.059.896.055.353-.19.645-.146.998.039.324.075.674-.007.979-.134.485-.163.98-.296 1.546a4.952 4.952 0 0 1-.16.109c-.08.572-.405 1.249-.747 1.722-.138.191-.15.479-.299.66-.228.28-.359.597-.511.93-.141.008-.289.015-.495.024.126.438-.226.805-.112 1.228-.186.183-.356.355-.533.529v.515c-.47.188-.371.734-.665 1.031-.327.329-.415.834-.817 1.11-.073.05-.08.144-.117.212-.254.45-.468.93-.86 1.29-.054.05-.064.147-.098.22-.18.387-.417.727-.744 1.007-.143.124-.3.244-.33.455-.354-.041-.182.275-.257.41-.15.273-.376.462-.597.701-.007.082.022.237-.034.28-.37.285-.412.771-.7 1.095-.282.314-.541.64-.745 1.01-.02.036-.058.065-.092.094-.629.539-1.053 1.266-1.684 1.802-.553.47-1.081.974-1.678 1.378-.371.25-.79.449-1.142.732-.507.403-1.07.727-1.61 1.072-.43.273-.823.612-1.306.824a8.01 8.01 0 0 0-1.545.885c-.34.25-.78.306-1.057.633h-.665l-.376.372c-.599.07-1.164.278-1.748.408-.767.172-1.548.237-2.333.295-.621.046-1.262.005-1.86.128-.631.13-1.26.002-1.866.12-.866.172-1.73.097-2.593.114-.88.017-1.763 0-2.646.007-.143 0-.28-.021-.431.078-.185.12-.41.099-.58-.075-.584.208-1.164.176-1.746.017-.153-.027-.25.2-.405.106-.364-.217-.76-.104-1.138-.123-.351-.017-.708-.034-1.057.005-.44.048-.827-.2-1.271-.15-.412.048-.837.007-1.256.012-.097.002-.158-.077-.226-.092-.306-.065-.6-.164-.92-.195-.404-.04-.821-.155-1.222-.206-.931-.118-1.729-.507-2.52-.952-.601-.338-1.237-.623-1.693-1.162-.164-.034-.351.007-.458-.184-.095-.169-.279-.065-.417-.106-.155-.05-.286-.193-.563-.099z" fill="#FED2BD"/>
        <g fill="#D1D2D4">
            <path d="M145.776 46.797c-.163.024-.333-.047-.547.063l.266.182c.132.698-.23 1.235-.236 1.83-.31.378-.55.822-.994 1.123-.258-.069-.494.103-.768.3v.484c-.129.344-.333.25-.469.307-.188.13-.16.47-.374.495-.285.032-.13.34-.303.392-.021.125.084.154.128.238 0 .242-.186.291-.375.363l-.019.438c-.29.03-.251.495-.596.461-.018.292-.123.532-.398.654-.245.108-.42.27-.394.584-.216.166-.533.245-.512.632.002.05-.056.108-.095.155-.135.156-.315.27-.296.546.01.123-.168.228-.352.243.07.34-.305.463-.35.693-.055.295-.244.478-.35.719-.11.245-.427.348-.485.676h-1.07a26.308 26.308 0 0 0-.234-.245h-.522a2.357 2.357 0 0 1-.175-1.13 25.222 25.222 0 0 0-.249-.26v-1.488c.117-.102.261-.23.373-.326v-.463l.24-.25v-1.09l.447-.322.151-.014c.187-.4.205-.824.173-1.248l.37-.39.03-.301c.086-.076.282-.015.228-.28-.347-.063-.743-.004-1.087-.188l-.538-.566v-.736h.673l.268-.281h.389c.24-.366.365-.76.53-1.133.098-.105.212-.049.35-.073l.277-.356c.38-.09.678.06.95-.12.247-.162.585.098.822-.176.028-.035.124-.013.186-.003.648.093 1.272-.169 1.915-.137.22.01.398-.196.647-.142.191.042.387-.027.587-.1.244-.091.543-.035.817-.018a.611.611 0 0 0 .461-.15c.15.133.326.165.513.145-.003.086-.003.174-.003.263zM129.01 29.998c.23.02.398-.192.614-.148.021-.102.033-.161.047-.237h1.318c.119.078.163.264.34.252.174-.078.06-.23.095-.4-.391.025-.768-.021-1.115-.18.319-.101 1.215-.155 1.472-.025a.747.747 0 0 0 .354.068c.337.008.677-.017 1.013.01.3.025.596-.068.908.108.251.142.615-.098.892.15.023.022.081.007.123.002.836-.098 1.651.226 2.483.127.26-.029.47.106.708.143.237.039.493-.106.72.115.069.066.241.015.37.015h.784c.1.166.019.24-.084.335.147.118.317.027.452.076l.317.334c.014.183-.06.394.126.536-.012.469-.464.726-.552 1.233-.38.275-.603.787-.978 1.17v.252c-.245.255-.482.507-.748.784-.005.057-.01.14-.02.287-.157.152-.322.365-.597.569-.012.149-.189.357-.16.602-.18.31-.513.447-.644.804-.114.312-.498.36-.691.613h-.613c-.16-.169-.31-.323-.465-.49v-.642c-.112-.16-.245-.248-.443-.196l-.347-.397h-.552c-.042-.255-.226-.378-.365-.537h-.245c-.147-.088-.03-.25-.116-.39a2.354 2.354 0 0 1-.839-.845c-.12-.204-.286-.424-.55-.51-.106-.035-.209-.15-.276-.253-.531-.83-1.284-1.44-1.945-2.142-.177-.189-.412-.34-.612-.524-.035-.032-.124-.005-.187-.005.007-.22.007-.444.007-.664zM142.614 69.6h1.611c.017.081.028.143.052.255.486-.105.852.209 1.23.478v.564l-.19.052c-.016.036-.037.073-.046.112-.051.245.09.51-.119.753-.118.137.063.311.117.458-.007.137-.098.128-.21.125-.06.39-.34.757-.056 1.191.07.106.07.353-.002.449-.165.223-.09.458-.119.703-.067.064-.147.137-.237.22v3.623c-.11.116-.2.211-.298.312-.129.076-.278.022-.42.031-.06-.063-.118-.125-.188-.196 0-.235.007-.478-.003-.72-.009-.282-.018-.569.177-.787.145-.162.045-.333.084-.53h-.663c-.247-.482-.66-.762-.992-1.178.083-.294-.166-.544-.154-.848-.089-.005-.13-.01-.22-.015.05-.488-.234-.931-.125-1.417-.107-.03-.165-.044-.223-.061-.014-.04-.04-.076-.04-.115-.002-.51.093-1.047-.026-1.525-.158-.634-.04-1.255-.11-1.843.103-.235.34-.206.467-.365.146-.078.177.145.319.147.135.002.216-.073.316-.125.084.047.047.12.068.252z"/>
        </g>
        <path d="m150.487 21.371.25.248c.684-.097 1.377.129 2.096.153.694.024 1.381.253 2.09.238.265.284.698-.034.937.299l.24-.173c.159.085.357.105.499.27.252 0 .518-.02.78.005.228.022.428.206.68.106l.21.238c.066.022.108.049.145.044.415-.034.785.097 1.159.258.403.172.831.298 1.289.271l.286.27h1.193c.115.09.03.211.098.362l.457.42c.358-.008.666.284 1.052.281l.384.382h.44l.313.386c.607.048 1.108.182 1.517.546.2.18.425.262.687.277l.513.51c.673.002.988.701 1.656.847.682.673.682.673 1.174.748.274.291.565.59.844.896.254.279.513.541.7.888.185.35.525.617.765.945.23.318.464.636.655.993v.575c.372.219.335.704.685.913-.022.216.098.454-.276.622l.41.218c0 .29-.002.505 0 .724.005.209.018.403.115.614.12.258.225.559.147.862-.08.313.179.56.144.872-.034.303-.08.638.01.918.152.468.147.888.003 1.354-.059.192-.088.45.078.687.095.136.108.425.024.566-.254.43.03.935-.244 1.357-.113.175.149.326.134.535-.029.415-.007.835-.007 1.252l-.267.265c0 .714-.024 1.462.008 2.205.039.934-.279 1.847-.108 2.809l-.296.209v.449l-.271.281c-.034.187.25.277.068.586l-.195.123v.746l-.272.196c.059.401-.269.756-.122 1.13.14.359.103.708.125 1.09h-.575c-.184.18-.343.335-.484.47-.032.404-.093.773-.404 1.069v.675l-.416.333c.035.308-.066.553-.242.672-.252.17-.4.398-.545.634-.14.226-.36.403-.416.69-.022.111-.156.2-.252.315v.648c-.29.068-.435.326-.677.517.056.348-.105.624-.34.894a2.64 2.64 0 0 0-.614 1.258c-.203.22-.435.461-.533.847-.098.381-.399.719-.643 1.051-.497.668-.869 1.411-1.324 2.103-.11.168-.247.299-.384.435-.188.191-.264.42-.34.738-.264.255-.53.6-.767.985-.233.377-.595.673-.883 1.025-.262.318-.428.726-.868.906-.164.068-.284.31-.36.5-.112.282-.335.466-.55.626a18.448 18.448 0 0 0-2.331 2.069c-.289.303-.465.704-.89.881-.16.066-.108.326-.34.43h-.38c-.232.435-.232.435-.799.67-.108.085-.022.207-.078.333l-1.529 1.495c-.095.005-.244.015-.398.022-.084.314-.392.413-.58.617-.198.214-.377.461-.592.685a56.08 56.08 0 0 1-.462.022l-.025.327c-.418.049-.383.544-.8.714-.344-.034-.804.1-1.234-.129-.017-.01-.044-.002-.066 0-.856.083-1.69-.223-2.546-.133-.193.02-.367-.07-.548-.117a15.71 15.71 0 0 0-1.482-.308c-.543-.08-1.076-.08-1.673-.11-.034-.053-.095-.142-.176-.264.024-.129.156-.272.14-.483-.086-1.063.158-2.115.151-3.18-.005-.491.281-.977.438-1.462.09-.282.32-.823.34-1.166.124-.1.278-.22.384-.306.034-1.078.396-2.054.252-3.146l-.458-.277h-1.066l-.252.25c-.65 0-1.316-.01-1.979.007a.878.878 0 0 1-.479-.138c-.271-.15-.553-.226-.836-.037-.086.056-.198.064-.247.03-.32-.219-.683-.066-1.015-.132-.597-.116-1.228-.065-1.788-.342a.42.42 0 0 0-.181-.048c-.223-.003-.452-.04-.665.01-.245.055-.384-.163-.614-.151-.428.022-.868.077-1.264-.168-.404-.22-.5-.72-.854-.927-.032-.182.07-.216.132-.304-.07-.498.032-.995.154-1.432.154-.316.43-.124.619-.24.115-.387-.313-.523-.365-.826-.034-.379-.063-.767.311-1.107.152-.073.46.111.612-.311v-.471l.337-.032c.037-.294.48-.422.31-.762.118-.318.424-.379.641-.563.1-.178-.014-.382.074-.615.371-.25.829-.505.905-1.041.242-.127.393.043.555.116.085-.077.149-.138.225-.209v-.798c.151-.112.31-.229.47-.345l-.103-.083c.327-.755.81-1.427 1.244-2.127.438-.701.722-1.503 1.302-2.056.137-.6.57-.937.939-1.319.022-.56.719-.779.706-1.364.6-.558 1.11-1.195 1.605-1.845.13-.17.213-.34.264-.556a7.53 7.53 0 0 1 .52-1.457c-.065-.172-.121-.374-.337-.554-.369 0-.821-.1-1.193.03-.367.126-.78-.035-1.103.23-.04.032-.13.01-.196.003-.59-.054-1.154.223-1.746.133-.792.265-1.612.056-2.411.14-.36.04-.666-.162-1.013-.142-.342.017-.645-.165-.97-.219-.377-.06-.744-.163-1.128-.204-.264-.029-.543-.13-.815-.095-.298.042-.54-.116-.812-.14-.11-.01-.222-.003-.344-.003-.177-.184-.36-.376-.582-.61a1.866 1.866 0 0 1 .188-1.228c.08-.155.049-.294.061-.437.032-.4.03-.799.105-1.206.074-.394.218-.717.435-1.015.49-.663.957-1.343 1.505-1.965.193-.218.445-.337.667-.495.56-.396.996-.913 1.5-1.367h.388c.1-.048.034-.19.1-.22.512-.241.688-.82 1.128-1.108a5.145 5.145 0 0 0 1.061-.95 22.466 22.466 0 0 0 1.504-1.893c.247-.357.225-.823.084-1.231-.154-.442-.203-.942-.604-1.272.02-.527-.416-.768-.727-1.122-.335 0-.69-.024-1.04.005-.946.082-1.87-.197-2.812-.136-.45-.275-.97-.044-1.448-.204-.462-.156-.96-.046-1.442-.056-.26-.005-.465-.194-.746-.148-.22.036-.477.082-.68-.117-.035-.034-.13-.012-.196-.005-.878.102-1.727-.25-2.565-.116l-.203-.2c-.062-.7.034-1.405.222-2.11.066-.244.051-.524.022-.779-.024-.21.098-.361.147-.539.039-.143.24-.186.262-.354.017-.126-.044-.26.075-.413.245-.124.529-.25.856-.245.646.005 1.294.044 1.932-.01.71-.058 1.414-.182 2.106-.374.225-.06.3-.14.38-.352.11-.303.27-.592.4-.89a.606.606 0 0 1 .497-.367c.281-.037.499-.275.824-.267.289.007.604-.064.87-.144.455-.136.9-.065 1.363-.121.02-.444.438-.437.697-.49.325-.069.648-.224 1.007-.163.318.05.605-.228.922-.114.228-.238.507-.229.776-.29.604-.135 1.232-.009 1.807-.145a4.404 4.404 0 0 1 1.746-.078c1.172.192 2.353 0 3.556.114zM136.192 67.61c.054-.37.003-.5-.205-.541-.21-.042-.276.021-.382.405.23-.075.382.112.587.136zm30.057-2.617c-.542.228-.547.24-.403.64.313-.101.318-.395.403-.64z" fill="#FED2BD"/>
        <g fill="#CFD1D3">
            <path d="M145.104 89.196h1.196c.017.081-.042.18.078.272.494-.122.97.184 1.483.13l.056.25c.512-.048.862.452 1.389.43.272.368.73.262 1.088.43.025.068.05.146.076.217h.278c.268.268.533.533.794.798.107.027.224-.045.316.046.037.071-.002.177.098.221.1.027.219-.052.307.052.012.107.024.213.039.367.277-.112.458.18.855.116.065.098.177.26.263.387.129.032.224-.027.294.054.015.223.178.38.337.447.163.068.36.193.52.162.279-.057.196.255.408.301.35.079.748.089 1.04.373.036.037.17.04.243-.059.003-.07-.014-.167.074-.194h1.466c.131.133.258.258.373.373.384.123.71-.169 1.074-.115.1-.09.204-.26.292-.25.336.034.42-.297.64-.39.259-.11.388-.277.517-.513.093-.174.251-.375.526-.311.025.005.061-.05.098-.079v-.243c.37-.252.75-.453 1.171-.503.02-.09.032-.152.047-.223h.952c.146.044.027.184.154.24h.282c.068-.304.068-.304.3-.52.207-.063.334.197.54.133v.8c-.036.014-.1.022-.104.044-.017.078.041.093.105.088v.8c-.207-.064-.337.196-.639.105-.1-.076-.221-.363-.562-.189v.991l-.297.071c.172 1.126-.108 2.245-.1 3.378 0 .103.043.223-.061.3-.068.016-.144-.025-.202.085-.027.547.087 1.138-.134 1.641.134.17.243.304.348.437.263-.116.436.066.611.115.105-.05.13-.164.24-.145.082.015.177-.039.291.11-.175.668-.136 1.416-.355 2.179-.258-.165-.548-.18-.816-.157-.105-.113-.178-.194-.251-.27h-1.191c-.337-.4-.907-.329-1.252-.709-.354.319-.746.35-1.172.297-.027-.071-.054-.15-.102-.285-.636.18-1.248-.144-1.874-.108l-.27-.272c-.784.098-1.52-.027-2.12-.66-.423.091-.815-.132-1.27-.162l-.208-.28c-.404.22-.748-.107-1.14-.085-.419.022-.84.005-1.262.005h-.63l-.256-.258c-.31.265-.687.447-.923.788-.195-.022-.361.01-.48.216.02.387-.083.767-.395 1.057-.036.343.083.701-.149 1.005.161.211.208.422.078.655h-.345l-.665.609c-.176.537-.113 1.081-.12 1.62 0 .067.007.136-.002.2-.008.036-.047.066-.073.1h-.354c.149.294-.065.434-.233.591v1.254l.253.193c.039.194-.056.356.073.486.151.022.31-.042.453.047-.005.488-.436.853-.382 1.38-.18.052-.215.334-.5.302-.104-.206.107-.606-.44-.677-.005.01-.069.089-.079.175-.036.333-.204.642-.185 1.096-.053.024-.175.086-.285.137.13.537-.141.954-.253 1.398-.073.292-.153.606-.385.817-.124.211.185.26.124.447-.18.19-.37.395-.553.588l.142.238c-.193.194-.38.383-.58.582-.341 0-.694 0-1.048-.003-.017 0-.034-.022-.092-.064l-.185-.203H142l-.475-.476c-.711-.228-1.303-.655-1.939-1.008h-.516c-.256-.506-.716-.444-1.099-.533-.385-.367-.72-.804-1.335-.936-.146-.211-.421-.339-.655-.525-.343-.273-.743-.45-1.13-.643-.331-.164-.709-.245-.974-.532-.076-.081-.166-.113-.27-.15-.32-.113-.622-.265-.839-.552-.068-.09-.207-.181-.314-.184-.336-.002-.516-.348-.86-.353-.136-.002-.156-.233-.234-.356a1.14 1.14 0 0 1-.706-.203c-.339-.258-.716-.415-1.08-.611-.348-.189-.696-.35-1.069-.427-.017-.088.02-.162-.104-.238-.473.125-.94-.243-1.435-.12l-.234-.245h-3.26c-.021.086-.038.145-.053.203l-.677.194c-.424.425-.782.785-1.162 1.163v.218c-.582.581-1.179 1.138-1.213 2.014l-.65.652v.538c-.368.174-.663.37-.673.804l-.375.375c.054.44-.224.748-.421 1.126-.13.035-.305-.051-.41.103-.109.16-.262.219-.409.167-.9-.743-1.505-1.712-2.348-2.445v-.278c-.173-.166-.348-.336-.516-.5a12.78 12.78 0 0 0-.04-.336c-.294-.02-.389-.321-.635-.444h-.356c-.156-.157-.297-.3-.46-.461.13-.263-.132-.36-.258-.535v-.584c-.41-.68-.958-1.15-1.46-1.668v-.466c-.111-.095-.262-.22-.374-.314-.047-.15.026-.272-.095-.345-.105-.027-.225.051-.337-.079v-.483c-.436-.317-.81-.623-1.032-1.043-.083-.154-.344-.046-.285-.264.053-.194-.173-.295-.14-.479.013-.061.01-.132-.094-.198h-.522c-.068-.091-.017-.202-.114-.25h-.329v-1.065c1.488-.248 2.977-.167 4.472.022l.249.25h.68l.09.25c.458.044.9-.007 1.352.12.367.106.789.023 1.256.023l.33-.41h.681c.103-.103.2-.196.29-.292.095-.1-.041-.267.127-.383h.701c-.068-.456.222-.762.397-1.172v-.339c.2-.166.346-.382.39-.632.034-.194.154-.26.273-.383.183-.186.468-.373.392-.724-.385-.14-.594-.456-.765-.79v-.743c.468.047.926-.09 1.362.145.26-.248.205-.581.21-.853.102-.17.353-.216.233-.447-.112-.09-.272.04-.365-.098v-.797c.153-.218.253-.36.341-.488h.85v-.38l.331-.408h1.209c.085-.086.163-.164.243-.242h.5l.643.65h.338c.266.353.665.45 1.084.397.056.123.017.226.124.267.454-.064.868.246 1.328.12.037.103.066.18.095.256.2.08.431-.054.616.08.015.076-.02.15.093.211.482-.073.98.07 1.5.172l.203.226c.643-.047 1.244.255 1.795.127.195.06.085.194.204.258h1.742c.31-.336.665-.594 1.099-.704.336-.336.662-.665 1.018-1.02.429.208.382-.403.701-.437.073-.108-.053-.267.1-.358h1.14c.237-.108.3-.368.55-.4.29-.037.442-.206.498-.498.048-.25.226-.383.487-.439.222-.05.424-.18.645-.12.149-.155.27-.282.38-.4.117-.032.237.047.334-.05.249-.252.495-.504.74-.757h.398c.08-.08.158-.16.26-.26h.49c.049-.086.114-.204.13-.226.345-.105.632.079.842-.174.312.079.504-.22.753-.25.316-.04.587-.24.91-.162v-.265z"/>
            <path d="M148.555 104.59c.061-.503.473-.839.582-1.386.305-.206.405-.758.929-.841.116.093.077.167.026.277-.248.557-.64 1.018-.994 1.501-.087.12-.11.273-.221.376-.08.073-.146.166-.322.073z"/>
        </g>
        <g fill="#FEA295">
            <path d="M104.729 117.512c.033-.335-.11-.622-.235-.938-.247-.62-.571-1.237-.545-1.941.005-.092-.06-.157-.079-.23a9.486 9.486 0 0 1-.328-1.642c-.046-.47-.048-.955-.228-1.41-.045-.114-.017-.258-.02-.386-.002-.57 0-1.139-.002-1.708 0-.166.056-.354-.12-.415-.033-.195.154-.226.132-.397-.038-.324.027-.661-.019-.984-.067-.483.16-.92.149-1.392-.012-.434.144-.868.28-1.261.219-.63.442-1.317 1.024-1.732.228-.161.43-.337.64-.53.041-.432-.09-.893.127-1.322l.372-.33c.432 0 .909-.003 1.388.002.178.003.35.012.477-.224-.11-.323.168-.64.134-1.083.072-.058.202-.142.3-.256.271-.308.621-.407 1.01-.41.654-.002 1.306.01 1.96-.004.341-.008.646.226.993.135.35-.092.662.103.988.154.312.048.662.11.93.263.25.14.525.065.765.224.134.092.381.017.57.017.144-.145.283-.285.46-.46-.105-.408.265-.717.332-1.122.072-.432.402-.74.525-1.162.158-.54.448-1.04.587-1.595.043-.17.178-.318.254-.484.211-.458.441-.912.616-1.387.202-.545.554-1 .854-1.48a1.619 1.619 0 0 1 1-.72c.021-.004.055.01.064-.002.437-.535 1.04-.364 1.556-.393.307.152.207.427.233.644h.374v-.441c.06-.032.093-.068.13-.068.805-.002 1.613-.005 2.418-.002.355.002.705-.041 1.029.21.187.144.46.024.705.06.153.292.48.323.745.371.446.08.868.246 1.297.34.621.135 1.178.524 1.844.466.374.434.978.253 1.427.533.172-.092.263-.321.537-.295.093.01.287-.118.42-.233.436-.384 1.037-.543 1.402-1.03.472-.1.721-.495 1.071-.803.46.019.717-.345 1.02-.64.225-.019.433-.103.618-.23.443-.305.885-.611 1.314-.932.108-.08.208-.02.414-.116.046-.055.166-.207.192-.24.564-.24 1.026-.336 1.412-.616.068-.048.101-.15.207-.132.417.072.719-.26 1.12-.314.493-.067 1.006-.164 1.483-.345.453-.17.92-.125 1.386-.128.633-.004 1.263-.019 1.896.008.312.012.63-.104.945.084.247.15.6-.084.844.171.503-.01.983.14 1.458.27.426.116.896.145 1.232.497.666.184 1.187.714 1.89.803a.699.699 0 0 1 .325.152c.482.393 1.043.659 1.558.991.55.355 1.053.784 1.67 1.023.263.101.43.323.599.475.465-.014.702-.347 1.018-.526.293-.166.425-.55.775-.66.323-.104.558-.343.834-.521.446-.29.892-.596 1.36-.83.457-.231.935-.526 1.505-.492l.209-.224c.052-.015.09-.036.132-.036.129-.005.263.01.393-.003.925-.094 1.836.111 2.757.155.477.021.992.14 1.316.6.074.106.182.188.283.29h.506c.276.24.51.487.623.85.075.24.086.488.173.717.177.473.201 1.015.597 1.394-.087.268.172.477.13.73-.034.194.078.37.16.454.31.318.388.719.5 1.114.027.097.075.19.13.273.322.494.53 1.02.525 1.623-.002.217.168.369.25.552.148.335.182.721.242 1.073.077.451.194.907.17 1.387a28.22 28.22 0 0 0-.005 2.626c.041.888-.206 1.751-.155 2.64.012.228-.113.478-.123.734-.01.227.077.456-.072.692-.139.222-.007.511-.055.765-.139.726-.201 1.456-.285 2.187-.055.485-.22.994-.42 1.46-.175.402-.278.81-.343 1.239a1.973 1.973 0 0 1-.208.634c-.259.482-.288 1.07-.683 1.493-.046.048.01.178-.024.25-.113.24-.099.514-.295.739-.168.19-.269.455-.348.704-.144.448-.383.858-.611 1.251-.18.307-.338.618-.425.943-.129.473-.395.856-.67 1.23-.138.184-.315.367-.372.57-.065.224-.394.318-.279.607-.311.335-.434.798-.73 1.138-.322.37-.543.83-.967 1.078v.292c-.415.4-.72.885-1.036 1.35-.256.377-.606.683-.803 1.108-.199.431-.542.762-.89 1.073-.256.231-.373.562-.637.793-.235.205-.506.396-.616.726a.429.429 0 0 1-.226.23c-.316.12-.515.38-.724.614-.505.565-1.086 1.05-1.673 1.512-.432.34-.906.642-1.371.948-.046.03-.127.005-.209.005a3.615 3.615 0 0 1-1.62 1.107c-.444.526-1.104.709-1.679 1.006-.551.284-1.158.482-1.762.631-.633.157-1.17.637-1.86.536-.283.313-.689.29-1.031.374-.233.055-.497.118-.715.188-.23.077-.491.026-.707.185-.202.148-.516-.067-.71.177-.388-.09-.743.156-1.122.127-.407-.031-.774.118-1.158.21-.42.101-.846.077-1.268.015-.053-.008-.074-.111-.151-.09-.151.02-.201.16-.343.263-.173 0-.386.005-.6 0a3.923 3.923 0 0 0-1.469.244c-.115.04-.256.02-.384.02-1.94 0-3.879-.006-5.818.004-.34.002-.64-.193-.993-.145-.343.046-.719.09-1.04-.007-.595-.178-1.192-.048-1.782-.123-.405-.05-.822-.075-1.213-.224-.038-.015-.081-.034-.117-.03-.667.095-1.307-.197-1.973-.14-.38.035-.384.006-.815-.252-.861.05-1.648-.391-2.458-.413l-.702-.364c-.892-.036-1.743-.313-2.587-.653-.787-.316-1.554-.678-2.333-1.004-.403-.168-.808-.364-1.232-.501-.283-.092-.528-.314-.772-.5-.19-.142-.372-.27-.619-.245-.19-.102-.266-.338-.491-.396-.2-.05-.271-.36-.547-.27-.033.012-.1-.065-.146-.109-1.036-1.03-2.259-1.857-3.225-2.968-.263-.304-.554-.584-.793-.914-.218-.304-.417-.625-.65-.912-.51-.632-.966-1.302-1.417-1.978-.216-.323-.393-.67-.609-.993-.072-.106-.04-.205-.065-.343-.323-.265-.54-.636-.647-1.07-.014-.058-.029-.13-.07-.167-.364-.32-.448-.774-.584-1.203-.036-.116-.104-.273-.163-.316-.257-.183-.274-.48-.339-.721-.076-.287-.3-.478-.36-.774-.052-.256-.095-.54-.32-.74zm3.076-10.707c-.14.465-.245.935-.197 1.427.055.594-.067 1.19.113 1.792.112.372.043.789.13 1.192.145.684.17 1.391.392 2.071.101.304.17.634.295.931.14.33.108.685.228 1.02.086.249.21.487.302.73.278.736.49 1.5.87 2.203.156.284.389.533.477.849.223.8.78 1.425 1.137 2.298v.342c.117.285.362.256.48.42.263.374.627.707.783 1.119.149.396.523.593.65.98.134.41.52.614.784.92.13.147.343.258.4.425.101.294.317.485.533.622.388.248.697.572.992.904.405.454.892.806 1.352 1.187.206.169.391.407.638.502.667.25 1.088.827 1.77 1.21h.38c.612.415 1.34.468 1.648.907.678.36 1.297.405 1.862.646.557.239 1.19.275 1.655.661h.731c.367.19.731.347.973.692.569-.132 1.134-.28 1.664-.147.686.174 1.364.06 2.043.111.086.007.175-.005.261.002.082.008.16.015.245.037.402.096.793.398 1.23.099.045-.032.127-.005.194-.005.086 0 .175-.005.261 0 .983.072 1.98-.157 2.954.13.04.012.105.02.127-.002.237-.242.532-.102.798-.126.83-.07 1.671.12 2.498-.123.24-.07.525-.046.78-.002.294.053.52-.193.796-.14.434.087.85-.073 1.249-.16.714-.156 1.436-.303 2.145-.489.336-.087.681-.145.998-.28.326-.14.678-.15 1.011-.234.514-.127.96-.504 1.528-.434.026.003.057-.08.093-.084.374-.05.655-.314 1-.432.436-.15.849-.376 1.28-.542.437-.172.887-.31 1.242-.632.357-.323.837-.48 1.148-.861.104-.126.255.002.346-.08.196-.198.357-.42.57-.562a9.59 9.59 0 0 0 1.825-1.589c.626-.7 1.44-1.206 1.985-1.985.443-.639.978-1.203 1.453-1.82.66-.86 1.362-1.674 1.831-2.66a.138.138 0 0 1 .046-.046c.4-.3.611-.746.877-1.148.104-.157.168-.338.324-.456.209-.157.319-.381.42-.613.194-.446.4-.887.613-1.319.298-.598.665-1.162.974-1.763.381-.74.635-1.534 1.019-2.272.136-.265.295-.528.292-.87-.002-.241.166-.495.295-.721.283-.502.42-1.059.583-1.597.199-.646.292-1.329.398-2.001.028-.189.167-.321.153-.536-.026-.398-.086-.813.118-1.194-.022-.752.22-1.488.136-2.245a.945.945 0 0 1 .034-.444c.196-.545.053-1.111.086-1.666-.242-.212-.077-.492-.125-.736-.052-.265-.196-.513-.134-.8.005-.027-.043-.065-.065-.097h-.129c-.187.393-.211.81-.197 1.235a1.88 1.88 0 0 1-.424 1.25c-.312.043-.611-.049-.882.057.017.487.556.224.63.552.168.666-.127 1.308-.112 1.973l-.187.188c-.585 0-1.175.017-1.763-.005-.582-.021-1.122-.347-1.723-.258-.597-.253-1.25-.233-1.868-.385-.197-.049-.367-.179-.6-.15-.265.034-.53-.026-.8-.096-.211-.053-.417-.208-.66-.16-.304.06-.57-.096-.848-.166-.089-.022-.175-.12-.285-.094a.985.985 0 0 1-.782-.154c-.276-.19-.602.016-.837-.205-.446.019-.827-.225-1.244-.326-.491-.12-.995-.217-1.474-.381-.202-.07-.386-.142-.597-.113-.391.337-.504.86-.851 1.251.107.437-.25.844-.113 1.28-.149.182-.228.358-.28.57-.113.453-.118.929-.365 1.36a1.478 1.478 0 0 0-.166.656c-.011.374-.122.74-.549.95-.172-.301-.45-.108-.685-.17-.52.655-1.22.727-1.945.653l-.184.185v.468c.237.27.47.335.762.232.288-.463.87-.606 1.245-1.008h.39l.314.316c.082.786-.1 1.5-.534 2.192.136.342-.099.66-.147 1.013-.3.137-.191.446-.244.709-.089.058-.18.115-.235.152-.02.45.082.873-.259 1.196-.01.52-.014.516-.321.984a1.595 1.595 0 0 0-.206.439c-.159.574-.518 1.02-.967 1.362-.28.215-.69.417-1.033.282-.283-.11-.54-.082-.805-.1-.305-.02-.645.079-.904-.032a1.154 1.154 0 0 0-.61-.094c-.249.029-.428-.167-.666-.143-.472.046-.863-.236-1.302-.328-.474-.1-.82-.388-1.131-.757-.413.138-.772 0-1.074-.234-.396-.306-.887-.402-1.319-.617-.407-.203-.789-.511-1.263-.579-.382-.432-1.022-.45-1.403-.883-.335-.01-.587-.183-.81-.41-.396.102-.482-.361-.799-.448-.143-.039-.294-.249-.462-.292-.446-.116-.777-.388-1.065-.687-.48-.024-.793-.364-1.177-.54-.83-.381-1.482-1.093-2.393-1.336-.484-.464-1.11-.688-1.702-1.02-.266-.042-.582-.056-.8.173-.324.34-.653.678-.964 1.03-.384.434-.487 1.013-.89 1.415-.278.28-.35.705-.645.982-.043.041-.005.166-.005.306l-.407.33c.045.273-.096.447-.2.616-.344.557-.728 1.08-1.035 1.67-.33.642-.697 1.306-1.352 1.744-.012 0-.062-.014-.098.003-.621.26-1.273.072-1.909.13-.215-.198-.508-.053-.724-.147-.27-.116-.532-.094-.8-.12-.617-.058-1.137-.234-1.487-.847-.194-.338-.379-.774-.849-.892-.055-.015-.11-.08-.136-.135-.202-.415-.53-.688-.914-.931-.203-.13-.34-.36-.482-.577-.333-.501-.563-1.075-1.045-1.476a3.217 3.217 0 0 1-.86-1.085c-.446-.919-1.125-1.68-1.71-2.5-.393-.55-.92-1.018-1.335-1.542-.115.003-.202.003-.29.003zm51.109-11.747c-.053-.172-.254-.085-.415-.073-.774.06-1.525-.234-2.299-.137-.269-.171-.604-.046-.851-.155-.25-.108-.51-.12-.76-.221-.875-.353-1.556-1.047-2.455-1.341-.074-.024-.132-.114-.185-.181-.379-.468-.932-.685-1.426-.987-.398-.246-.885-.344-1.204-.73a.207.207 0 0 0-.103-.063c-.662-.193-1.256-.545-1.894-.798-.33-.133-.645-.3-1.007-.249-.172.024-.259-.127-.314-.132-.733.176-1.35.429-1.983.636-.652.215-1.301.434-2.052.777-.458.53-1.306.762-1.915 1.355h-.38c-.342.35-.68.692-1.013 1.035-.355-.036-.573.212-.823.407h-.633c-.704 1.283-1.38 1.346-2.301 1.693-.326.3-.326.297-.731.447-.056.019-.087.082-.163.082-.61-.005-1.242.094-1.825-.034-.467-.102-.957-.174-1.417-.352-.45-.174-.983-.082-1.405-.4-.055-.042-.17-.01-.256-.005-.322.016-.6-.109-.885-.232-.113-.048-.206-.15-.326-.16-.678-.057-1.297-.342-1.94-.53-.369-.108-.75-.193-1.095-.354a1.628 1.628 0 0 0-.777-.171l-.173-.251h-.493c-.657.402-.907 1.075-1.367 1.57-.072.077-.036.161-.06.238-.08.251-.173.497-.259.746-.093.267-.113.617-.297.783-.25.225-.182.507-.297.743-.262.526-.535 1.042-.626 1.65-.053.345-.302.658-.439.996-.058.142-.115.27-.237.36-.132.096-.008.252-.091.356-.202.2-.4.403-.619.62.06.46-.355.535-.597.704-.59.109-1.199-.157-1.717.294-.438-.067-.92.12-1.361-.137-.6.075-1.168-.253-1.74-.12-.221-.203-.442-.3-.713-.276-.283.027-.542-.036-.726-.238h-1.906v.42c.364.457.597.969 1.026 1.33.192.162.347.355.474.586.286.521.626 1.008 1.094 1.358.036.126-.034.241.105.39.353.24.523.746.918 1.05.197.692.782 1.117 1.173 1.676.177.253.34.533.58.752.468.427.76 1.001 1.158 1.486.412.502.731 1.08 1.206 1.534.026.024.074.026.16.055l.339-.468c.016-.154.07-.434.237-.634.508-.605.825-1.331 1.29-1.96.28-.382.379-.85.671-1.24.333-.446.667-.9.997-1.348.187-.253.303-.593.597-.73.305-.143.477-.416.696-.575.628-.15 1.213-.275 1.827-.301.927-.041 1.831.229 2.757.144.09-.007.16.065.227.075.367.06.71.263 1.039.19.98.476 1.91.917 2.819 1.414.904.494 1.781 1.047 2.757 1.44l.381.475c.194-.16.286.024.413.087.275.14.51.352.772.51.254.158.556.223.817.396.273.181.456.504.822.536.425.4 1.02.525 1.463.9.053.045.165.019.312.028.09.114.21.265.323.405a.751.751 0 0 1 .736.184c.156.142.343.144.497.234.163.094.306.178.491.24.398.136.789.34 1.12.599.199.157.422.089.577.185a.64.64 0 0 0 .458.104c.53-.603.528-1.329.914-1.89.002-.695.439-1.296.412-1.947l.384-.747c.026-.123-.094-.35.043-.497.141-.154.067-.352.192-.523.103-.143.021-.42.021-.623.235-.402.214-.407.266-.699.092-.485.305-.945.3-1.452 0-.014.036-.029.043-.046.314-.79.384-1.669.83-2.414.014-.653.328-1.22.532-1.816.213-.624.48-1.227 1.122-1.565a.778.778 0 0 0 .384-.52c.213.163.326-.131.527-.107.194.022.393-.002.587.007.55.024 1.096.02 1.65.102.638.094 1.285.152 1.913.301.568.135 1.13.318 1.678.526.331.125.643.277 1.007.255a.46.46 0 0 1 .245.037c.585.342 1.254.357 1.891.487.4.082.832.108 1.187.287.206.103.427.02.592.152.216.178.46.038.686.084.165.034.348-.067.501.053.175.135.353.085.54.041V99.38c0-.13-.056-.316.01-.383.167-.171.148-.372.11-.545-.056-.241.165-.379.148-.606-.045-.663.209-1.312.125-1.982a.411.411 0 0 1 .017-.188c.17-.456.256-.924.244-1.408-.002-.13-.05-.297.01-.389.235-.366.062-.745.139-1.153-.16.013-.286-.014-.362.037-.827.535-1.63 1.104-2.292 1.765-.485.13-.796.526-1.374.53zm-47.993 27.36c-.17.082-.292.144-.446.217.055.142-.064.316.07.463h.386c.27-.326.27-.326-.01-.68zM134.836 53.324a.915.915 0 0 1 .091-.644c.108-.21.305-.4.276-.673-.02-.195.216-.07.264-.207.12-.343.295-.673.38-1.023.137-.554.277-1.111.476-1.642.088-.236.052-.36-.144-.538-.477 0-.998-.01-1.516.003-.508.012-1.002-.027-1.47-.244a.44.44 0 0 0-.186-.022c-.592.025-1.144-.127-1.71-.467-.1-.251-.275-.538-.038-.927.115-.19.02-.513.02-.622.234-.781.714-1.254 1.05-1.818.215-.364.553-.632.812-.972.671-.883 1.355-1.765 2.196-2.472-.06-.313.283-.533.062-.849-.258-.152-.63-.154-.935-.417-.532.135-.882-.29-1.359-.545.115-.34-.086-.637-.144-.962-.052-.309-.247-.594-.376-.89-.077-.176.17-.244.127-.422l-.177-.188h-1.05c-.161-.254-.46-.333-.681-.536-.209-.19-.295-.472-.578-.617-.449-.234-.753-.64-1.077-1.037-.453-.557-1.004-1.032-1.51-1.546a1.911 1.911 0 0 1-.338-.449c-.082-.152-.115-.316-.063-.422.09-.18.123-.352.118-.542-.005-.196 0-.39 0-.579l.197-.198c.287.022.597-.084.846.135.137-.014.244-.13.25-.197.035-.587.304-1.132.287-1.734.21-.213.427-.427.647-.652 0-.238-.194-.287-.367-.35-.139-.58.068-1.14.127-1.762.23-.23.44-.577.717-.803.28-.232.55-.512.887-.68h.911c.092-.28.326-.44.513-.64.317-.091.557.087.844.242h.482c.197-.251.01-.47-.079-.692.053-.058.089-.119.14-.152.306-.198 1.85-.774 2.19-.869a39.144 39.144 0 0 0 1.861-.554c.575-.188 1.139-.444 1.76-.51.232-.023.5-.055.707-.17.434-.249.894-.2 1.355-.208.232-.128.45-.258.74-.277.307-.022.607-.152.928-.116.233-.282.64.022.875-.26.01-.01.043-.005.065 0 .58.094 1.134-.157 1.712-.133.661.029 1.306-.227 1.973-.13.755-.26 1.532-.092 2.3-.126.543-.024 1.088-.004 1.615-.004.247.038.149.376.432.412.213.029.187.364.38.494h.322v-.694c.084-.085.146-.147.199-.198.734-.09 1.424.094 2.165.282v.61h.376v-.631c.305.038.597-.145.861.108.386-.065.738.138 1.117.145.3.005.636-.104.887.055.252.16.576-.08.77.205.407-.06.813.07 1.167.186.34.11.736.096 1.036.338.496-.1.849.27 1.278.388.566.157 1.134.299 1.68.528.674.282 1.413.432 1.947.989.302.021.494.277.763.374.57.207 1.019.62 1.489.979.422.323.872.624 1.172 1.07h.27c.444.304.612.842 1.109 1.18.098.034.33-.02.42.198.145.35.383.595.733.737a.272.272 0 0 1 .136.138c.144.383.482.598.748.868.197.198.353.417.485.656.026.048.004.123.064.169.48.371.734.924 1.103 1.382.216.267.355.595.537.89.173.28.358.552.533.83.15.24.3.482.383.759.173.562.393 1.104.645 1.637.209.437.362.9.535 1.337-.053.202-.331.258-.24.602.08.104.201.297.441.34l.45.902c.037.155-.038.403.113.652.123.2-.1.51.14.733.043.04.007.169.007.255-.003.254.014.492.117.74.091.223-.072.514.144.731.012.012.005.044 0 .066-.096.67.158 1.314.137 1.982-.022.656.086 1.331-.031 1.965-.11.603-.09 1.194-.096 1.79-.003.241-.168.417-.154.668.015.239.091.492-.1.745-.12.157.076.468-.147.656.012.781-.395 1.488-.388 2.267 0 .14-.108.215-.146.335-.276.83-.554 1.657-.772 2.503-.223.167-.142.574-.511.64v.429l-.266.159c.007.369-.106.658-.305.945-.165.237-.18.58-.266.895-.136.138-.29.292-.446.446-.045.47-.549.726-.563 1.21-.333.3-.403.777-.695 1.086-.322.338-.499.772-.803 1.095-.382.027-.605-.2-.85-.453v-.705h-.625c-.081.297-.477.157-.662.418-.064.115-.004.27-.03.431l-.221.077c-.101.246-.01.406.215.502.2-.055.267-.202.317-.403.096.008.218-.021.295.027.204.123.208.417.422.543.199.118.405.229.542.422.03.043.004.127.004.238-.446.398-.633 1.02-1.028 1.503-.1.123-.202.265-.312.388-.172.188-.352.374-.352.642 0 .243-.324.289-.29.537-.465.381-.724.912-1.015 1.418-.24.418-.606.714-.925 1.062a.88.88 0 0 1-.283.798c-.76.68-1.335 1.529-2.076 2.228-.722.683-1.285 1.517-2.038 2.173-.223.193-.374.468-.683.564-.075.022-.142.109-.185.181-.261.444-.695.68-1.09.975-.305.226-.542.53-.87.742-.55.357-1.097.726-1.516 1.247-.602.227-.928.808-1.431 1.14-.434.288-.804.654-1.25.924-.163.1-.285.259-.44.403-.418-.154-.696.37-1.156.234l-.305.381c-.187.053-.29-.002-.395.075-.463.34-1.014.523-1.535.711-.51.186-.966.548-1.536.555-.329.246-.741.352-1.067.57-.336.223-.73.262-.969.462-.314.065-.338-.275-.573-.246-.113.106-.105.314-.295.393h-1.024c-.249-.318-.68.049-.947-.255-.047-.056-.213-.024-.316-.005-.412.08-.791-.109-1.187-.145-.13-.012-.24-.147-.405-.125-.417.058-.734-.13-1.002-.458v-1.549c-.372-.448-.866-.714-1.328-1.037-.425-.294-.923-.499-1.264-.92-.335-.416-.798-.717-1.06-1.204-.076-.145-.251-.273-.258-.413-.01-.222-.144-.337-.235-.501-.075-.133-.17-.27-.192-.449a.754.754 0 0 0-.242-.492c.021-.4-.103-.774-.226-1.148-.019-.058-.045-.12-.038-.178.089-.801-.139-1.582-.137-2.376 0-.161-.007-.316-.081-.49a.904.904 0 0 1 .103-.892c-.22-.243-.487-.248-.762-.24-.283.006-.571.026-.85-.003a23 23 0 0 0-1.776-.145c-.369-.012-.738-.203-1.095-.34-.11-.043-.211-.007-.317-.043l-.424-.427c-.166-.524.261-1.023.089-1.51.285-.506.544-.97.8-1.432.02-.034 0-.109.022-.121.352-.186.403-.588.578-.883.283-.477.633-.909.899-1.396.076-.142.177-.29.196-.441.031-.275.202-.447.355-.644.276-.357.494-.75.592-1.206-.628-.53-1.474-.695-2.035-1.269-.578-.59-1.37-.967-1.78-1.804.042-.236-.073-.532.07-.824.13-.263-.014-.57.075-.825.09-.27.074-.564.235-.825.079-.125.014-.34.014-.485.31-.467.321-1.085.846-1.386.096-.065.255.058.336-.111 0-.268-.367-.13-.386-.309zm3.956-10.78c-.108.036-.271-.036-.376.128-.281.432-.583.849-.852 1.288-.057.094-.007.253-.007.369-.407.388-.748.798-.983 1.473.312-.224.427.003.619.044.062-.044.127-.128.196-.133a8.853 8.853 0 0 0 1.257-.118c.537-.1 1.09-.034 1.644-.128.708-.12 1.439-.041 2.168-.133 1.17-.144 2.364.106 3.538-.152.47-.103.911.198 1.384.128.261.215.592.048.856.147.314.118.618.12.932.114.321-.008.59.07.885.243.465.275.714.606.72 1.15.002.283-.094.536-.128.801-.046.343-.012.695-.012 1.013-.316.564-.904.929-.925 1.606-.73.678-1.273 1.52-2.084 2.03v.676c-.139.239-.216.47-.498.562-.15.048-.255.234-.307.453-.065.26-.173.55-.408.77-.156.046-.374.005-.482.239v.506c-.235.263-.563.463-.597.866-.39.308-.56.812-.973 1.097v.54c-.182.184-.36.379-.554.55-.146.13-.285.287-.31.46-.05.358-.292.55-.524.77h-.4c-.034.101-.178.12-.178.275.033.058-.036.147.04.227.159.161.14.373.034.525-.259.372-.34.859-.731 1.144-.05.036-.089.091-.134.142v.357a6.055 6.055 0 0 0-.655 1.013c-.223.439-.357.938-.765 1.222-.079.555-.477.859-.798 1.211.022.379-.314.675-.242 1.153.336-.19.597.091.911.087.326-.008.669-.066.978.012.528.132 1.055.108 1.583.118.04 0 .1-.003.12.021.153.193.371.126.541.097.218-.036.329.169.537.152.662-.056 1.304.217 1.971.125.065-.01.165-.029.19.003.15.195.364.154.536.115.24-.053.377.162.602.152.333-.014.628.114.914.316.316.225.68.389 1.102.336.214-.027.434-.005.648-.005.096.096.187.193.283.282.541.511.712 1.153.712 1.876 0 .176-.187.222-.151.408.11.56-.338 1.032-.274 1.589-.237.25-.088.596-.218.895-.124.284-.242.634-.16.986a.3.3 0 0 1-.08.294c-.22.237-.18.545-.177.825a2.196 2.196 0 0 0-.525 1.705.604.604 0 0 1-.117.412.866.866 0 0 0-.087.842c.175 0 .396.07.513-.012.43-.297.969-.301 1.398-.581.513-.335 1.15-.384 1.664-.719.484.041.772-.35 1.15-.54.542-.273.964-.719 1.456-1.066.17-.12.364-.195.506-.364.508-.608 1.275-.921 1.781-1.536.95-.545 1.635-1.409 2.465-2.098.5-.418.925-.927 1.395-1.382a8.88 8.88 0 0 1 .808-.719c.31-.234.604-.518.815-.892.343-.6.892-1.04 1.37-1.537.13-.137.359-.127.445-.328.31-.718.947-1.176 1.412-1.77.218-.28.484-.552.66-.851.227-.388.486-.733.803-1.04 0-.067-.03-.154.004-.195.468-.598.847-1.266 1.43-1.767.02-.21-.058-.449.181-.584.183-.567.679-.921.947-1.442.221-.43.46-.876.799-1.252a.817.817 0 0 0 .184-.615c.161-.145.34-.301.478-.424.06-.15-.02-.27.088-.355l.449-.448c.038-.83.45-1.496.85-2.166.192-.07.42.058.602-.082.036-.294-.342-.152-.354-.277-.113-.442.141-.736.124-1.069.353-.415.286-.979.509-1.43.139-.282.06-.574.177-.846.278-.649.472-1.324.46-2.043-.002-.217-.076-.492.027-.641.177-.259 0-.536.117-.743.151-.27.127-.538.113-.806-.05-1.075.146-2.163-.127-3.229.079-.562-.218-1.092-.132-1.654.014-.092-.062-.162-.074-.23-.077-.402-.238-.798-.288-1.186-.065-.5-.273-.989-.154-1.48-.09-.092-.172-.143-.208-.218-.089-.183-.14-.395-.216-.566-.093-.205-.292-.36-.235-.628-.199-.115-.072-.356-.199-.508-.29-.352-.364-.81-.58-1.204-.173-.318-.24-.709-.456-.986-.23-.297-.362-.596-.354-.892-.163-.22-.44-.189-.492-.391-.05-.2-.208-.36-.153-.545-.52-.49-.983-.958-.907-1.712-.33-.107-.582-.314-.834-.54-.276-.247-.348-.693-.77-.792-.685-.745-1.56-1.292-2.181-2.093-.027-.323.031-.646-.034-.955-.427-.02-.292.371-.448.555-.33-.111-.484-.418-.76-.581-.707-.418-1.326-.984-2.06-1.358-.292-.147-.44-.55-.846-.483-.232-.226-.54-.026-.793-.14-.115-.086-.187-.202-.36-.24-.432-.1-.88-.18-1.247-.459-.081-.063-.158-.04-.24-.058a16.516 16.516 0 0 1-1.601-.395c-.134-.041-.237-.167-.405-.133-.235.048-.448-.04-.667-.125a1.81 1.81 0 0 0-.86-.135c-.108.01-.264.048-.32-.008-.256-.25-.594-.012-.848-.168-.285-.174-.587-.073-.88-.08-.762-.02-1.525.01-2.287-.01-.75-.019-1.482.24-2.234.135-.648-.089-1.264.203-1.906.133-.022-.002-.05-.01-.065 0-.261.22-.595.044-.856.145-.293.113-.575.118-.868.113a.884.884 0 0 0-.676.268c-.357 0-.702.031-1.06.108-.34.075-.676.123-1.011.254-.47.183-.964.342-1.46.41-.475.065-.91.236-1.367.342-.396.092-.746.33-1.172.335-.583.005-1.055.294-1.552.654-.12 0-.294.012-.465-.003-.196-.017-.321.237-.544.128-.12.126-.228.268-.364.372-.358.272-.813.371-1.17.648-.058.044-.166.015-.245.039-.666.215-1.208.625-1.676 1.11v.404l.19.19h3.857c.154 0 .357-.062.449.013.28.236.585.101.87.109.319.007.592.197.928.154.438-.058.865.21 1.316.12.192.198.443.16.664.121.257-.043.417.178.669.152.374-.041.714.162 1.06.275.112.036.218.135.345.106.288-.07.546.075.789.154.29.1.59.16.882.23.254.06.458.161.654.325.235.195.288.519.52.67v1.988c-.162.077-.208.284-.218.371-.047.393-.263.656-.53.902-.047.043-.107.084-.136.14-.424.788-1.014 1.469-1.549 2.17-.587.77-1.215 1.515-1.817 2.277-.257.326-.559.615-.758.994-.249.477-.748.786-.92 1.326-.017.055-.087.13-.135.135-.254.017-.335.253-.498.379-.367.299-.54.774-.94 1.08zm-7.775-11.25c.412.554 1.019.87 1.47 1.362.642.697 1.222 1.45 1.934 2.082.159.142.173.39.37.501.465.263.855.63 1.328.89.424.234.87.475 1.191.861v.656c.099.07.14.198.322.169.098-.239.443-.22.582-.485.379-.726.822-1.406 1.443-1.941v-.263c.389-.417.875-.748 1.103-1.261.29-.656.897-1.047 1.28-1.792.039-.157-.222-.258-.371-.427-.146-.024-.288.007-.441-.044-.422-.142-.856-.303-1.292-.335-.626-.046-1.24-.169-1.844-.301a4.246 4.246 0 0 0-.866-.106 61.825 61.825 0 0 0-1.891 0c-.614.012-1.225-.03-1.841.108-.434.099-.91.022-1.367.017-.185-.002-.367.029-.544-.116-.077-.06-.29-.072-.441.053-.151.082-.132.24-.125.372zm7.063 25.537c.393.395.729.73 1.098 1.104.165.02.254-.108.345-.306.23-.497.662-.888.78-1.45.011-.055.071-.103.12-.147.27-.243.402-.595.685-.836a.71.71 0 0 0 .235-.64c.448-.294.62-.85 1.04-1.148.024-.14-.014-.238.067-.342.413-.518.926-.967 1.122-1.635.017-.056.096-.09.13-.142.288-.456.688-.813 1.055-1.19v-.262c.302-.304.597-.598.89-.895l.02-.178c.157-.362.488-.449.524-.75-.039-.039-.053-.068-.07-.068-1.462.048-2.932-.125-4.392.113-.173.03-.285.172-.468.15-.17-.02-.345-.005-.477-.005l-.33.302c-.123.586-.331 1.109-.308 1.661-.11.017-.182-.012-.237.087 0 .364-.019.757.007 1.148.017.268-.033.52-.184.711-.223.278-.216.582-.214.861-.227.336-.287.726-.489 1.013-.307.44-.383.946-.537 1.42-.096.293-.204.539-.41.748-.002.263-.002.526-.002.676zm8.156 13.707c-.453.09-.825-.35-1.302-.26-.491.092-.952-.19-1.419-.128-.082.075-.146.135-.206.188 0 .251.029.497-.007.73-.041.271.165.469.146.736-.05.656.108 1.29.247 1.927a4.61 4.61 0 0 0 1.232 2.313c.137.14.269.198.448.106.082-.465.257-.904.348-1.372.096-.5.228-.998.321-1.5.072-.393.194-.75.403-1.146-.093-.395.247-.803.108-1.292-.082-.075-.192-.181-.319-.302zm.8-21.81c-.244.315-.244.315-.014.646h.422c.23-.328.23-.328-.014-.647h-.393z"/>
        </g>
        <g fill="#213359">
            <path d="M49.66 58.352c.139-.147.332-.007.473-.072.082-.12.041-.23.039-.338-.037-.02-.075-.057-.11-.054-.314.022-.626-.048-.943.117-.233.12-.516-.043-.68-.23-.453-.515-1.031-.88-1.494-1.383-.133-.145-.27-.36-.43-.387-.279-.045-.134-.35-.347-.435-.17-.07-.266-.305-.428-.41-.64-.407-1.068-1.042-1.627-1.535a1.121 1.121 0 0 1-.355-.528c-.146-.527-.482-.97-.593-1.515-.027-.13-.11-.27-.11-.425v-1.882c.073-.075.136-.137.204-.21.617.075 1.188-.242 1.798-.26.637-.017 1.273-.005 1.898-.005.256.363.457 1.165.457 1.83.19.137.288.375.397.605.09.19.155.395.32.543.176.154.4.235.561.422.129.145.14.42.402.432.18.52.743.583 1.063.948.339.385.726.725 1.062 1.113.162.19.38.29.569.407.516.327.835.88 1.372 1.17.271.148.53.305.826.41.244.087.522.11.728.34.085.095.274.157.443.197.455.108.864.373 1.339.45.17.028.35.15.474.353.247 0 .506-.003.767 0 .233.002.421.23.67.135.158.282.526-.013.686.265.392-.08.745.132 1.13.16.576.04 1.157.133 1.709.33a.894.894 0 0 0 .305.055c.506.005 1.026.075 1.515-.017.513-.098 1.026-.058 1.532-.13.588-.083 1.164-.266 1.748-.405.135-.223.365-.068.534-.145.673-.303 1.685-.615 2.552-1.38.312-.278.711-.453 1.009-.765.031-.035.14.015.17-.06.212-.56.82-.783 1.064-1.31.08-.173.228-.266.34-.398a8.93 8.93 0 0 0 1.066-1.512c.293-.533.664-1.013.906-1.58.072-.17.157-.335.23-.513.518-1.288.88-2.62 1.159-3.98.29-.355.24-.808.32-1.22.077-.397.188-.787.217-1.2.025-.343.235-.587.586-.678.242-.114.55.108.792-.152.043-.045.208-.05.249-.008.222.24.498.085.743.128.288.053.59-.09.876.127.203.158.368-.227.61-.12.28.19.373.476.363.825a36.483 36.483 0 0 0 0 1.628c.01.44-.123.84-.235 1.255-.118.448-.27.89-.312 1.365a3.38 3.38 0 0 1-.322 1.145c-.24.502-.278 1.055-.438 1.575-.048.157-.085.325-.148.48-.29.718-.682 1.383-1.023 2.072-.17.343-.526.566-.572.978-.564.565-.837 1.35-1.428 1.915-.336.32-.61.74-.956 1.068-.973.92-2.009 1.764-3.212 2.342a10 10 0 0 1-1.962.697c-.465.116-.913.323-1.41.273-.236-.023-.423.153-.648.195-.368.07-.711.232-1.101.215-.687-.027-1.363.223-2.057.13-.538.268-1.109.1-1.663.13-.571.03-1.152.065-1.714-.015-.331-.047-.634-.14-.951.02-.036.017-.1.02-.128 0-.385-.263-.847-.02-1.237-.205-.082-.04-.155-.075-.24-.06-.523.093-1.01-.157-1.53-.155-.404.002-.822-.153-1.2-.283-.586-.2-1.188-.322-1.777-.49-.888-.255-1.771-.505-2.638-.83-.81-.302-1.566-.682-2.168-1.335-.066-.062-.112-.125-.085-.23z"/>
            <path d="M67.8 40.305c.534-.163 1.115-.102 1.652-.313.148-.057.388.02.564.11.458-.15.833-.344 1.346-.162.412.145.91.05 1.368.045.278-.002.551-.002.789.175.099.183.116.41.297.575-.014.395-.017.813.22 1.17.073.11.037.215.04.322.007.363 0 .723.004 1.086a2.685 2.685 0 0 1-.51 1.614 2.38 2.38 0 0 1-1.136.9c-.503.196-1.019.223-1.54.29-.444.058-.89.138-1.333.1-.598-.047-1.2-.09-1.79-.157a1.259 1.259 0 0 1-1.09-.922c-.208-.718-.344-1.45-.25-2.193.09-.71.286-1.403.654-2.025.167-.282.397-.508.714-.615zM47.81 43.98v-.527c-.182-.213-.434-.37-.509-.68.044-.983-.152-1.988.114-2.978.232-.355.602-.413.978-.49 1.273-.263 2.56-.07 3.84-.133.32-.014.601.243.901.13 1 .575 1.114.803 1.416 1.39l-.14.198c.012.205.227.305.264.505v1.552c0 .79-.17 1.2-.734 1.785a.835.835 0 0 0-.36.09c-.39.198-.811.318-1.257.323-.205.002-.435-.088-.614.117-.032.035-.138.038-.187.01-.45-.257-.934-.107-1.399-.122-.344-.01-.65-.14-.978-.203-.585-.11-.958-.537-1.336-.967z"/>
        </g>
        <path d="M8.043 74.99v-.928c-.2-.185-.247-.421-.27-.687a5.052 5.052 0 0 0-.446-1.604c-.083-.182-.027-.431-.262-.56-.177-.098.003-.393-.21-.505.104-.277-.192-.36-.272-.55-.123-.303-.196-.624-.385-.904-.24-.359-.404-.76-.624-1.134-.21-.358-.472-.677-.678-1.04-.155-.27-.21-.585-.42-.826-.205-.237-.471-.434-.53-.773-.471-.46-.634-1.12-1.04-1.625-.143-.178-.289-.363-.281-.615.004-.134-.196-.182-.14-.338-.575-.456-.63-1.202-.962-1.794-.143-.253-.203-.575-.349-.848a1.327 1.327 0 0 1-.13-.768 2.49 2.49 0 0 1-.388-1.335c-.005-.305-.039-.602-.152-.87a1.697 1.697 0 0 1-.121-.746c.017-.65-.204-1.28-.146-1.937.012-.14-.128-.29-.126-.475.015-.885.008-1.77.008-2.654.22-.378.021-.826.17-1.192.161-.395.02-.777.098-1.155.056-.268.063-.573.158-.797.111-.266.007-.531.116-.748.123-.249.107-.495.121-.743.18-.173.213-.393.276-.622.1-.373.33-.738.356-1.101.041-.56.49-.987.424-1.558.254-.255.38-.59.525-.909.535-1.167 1.196-2.261 1.927-3.311.076-.108.037-.207.063-.34.303-.292.548-.657.804-1.02.242-.344.485-.714.811-.994.335-.286.555-.66.824-.995.21-.26.251-.643.455-.933.2-.285.365-.595.496-.921.037-.093.039-.198.13-.28.255-.225.488-.464.577-.822.032-.129.206-.222.315-.331.373-.38.801-.717.988-1.438.007-.239.014-.668.402-1.019-.037-.412.068-.826.252-1.238.128-.285.181-.609.142-.935-.038-.347.19-.649.14-1.01a3.49 3.49 0 0 1 .003-.991c.054-.341-.179-.612-.147-.943.029-.307.007-.62.004-.929 0-.129-.186-.19-.13-.343.08-.23-.17-.38-.138-.61.029-.217.048-.453-.003-.66-.181-.75-.116-1.513-.118-2.271 0-.2-.216-.322-.14-.544.282-.828.048-1.691.144-2.532.054-.47.192-.933.325-1.389.031-.102.065-.202.058-.305-.044-.582.206-1.113.327-1.662.048-.216.022-.424.082-.64.25-.232.349-.522.405-.883.058-.394.118-.828.423-1.145.068-.07.07-.144.09-.232.118-.584.54-1.077.523-1.705.271-.154.25-.473.39-.702.385-.617.753-1.24 1.176-1.835.477-.666 1.121-1.155 1.627-1.772l.323-.034c.384-.414.85-.687 1.324-.965.429-.251.92-.351 1.324-.639.257-.182.603-.095.862-.321a.852.852 0 0 1 .809-.166l.29-.292c.39.131.758-.156 1.172-.125.09-.085.185-.175.279-.268.557.032 1.075-.107 1.612-.382.228-.013.565.063.773-.066.259-.164.576.075.787-.205.04-.054.21-.01.32-.01.307 0 .648.083.915-.024.251-.102.559-.007.757-.241.453.056.87-.195 1.335-.144.375.041.755.032 1.138-.105.35-.124.774.105 1.128-.146.014-.01.043-.005.065 0 .695.102 1.363-.195 2.058-.134.933.08 1.848-.185 2.785-.141.944.043 1.905.112 2.835-.015C39.68.383 40.868.495 42.062.44c.189-.01.392-.046.547.144a.952.952 0 0 1 .908-.1c.15.063.284.08.429.083C45.178.573 46.42.66 47.64.543c1.021-.097 2.048.02 3.046-.131.847-.13 1.695.01 2.52-.122.843-.134 1.697.002 2.518-.141.937-.164 1.862-.088 2.79-.095.927-.008 1.85.187 2.784.119.695.258 1.421.044 2.123.144.613.088 1.255.053 1.836.348.106.054.252.037.38.037.397.005.794-.02 1.189.007.358.025.721-.09 1.082.093.298.15.651.002.998.141.322.13.738.03 1.111.027.69-.007 1.363.222 2.058.134.332.302.816-.049 1.145.266.397 0 .794.029 1.187-.01.254-.025.416.197.675.153.22-.036.477-.082.671.122.48-.088.918.21 1.4.142.176-.025.399-.093.542.114.632.024 1.22.346 1.852.268l.274.276c.339-.083.678.078 1.029.126.327.047.636.146.954.244.247.078.532.11.799.136.46.05.89.2 1.329.317.36.095.707.246 1.092.23.194-.01.36.068.542.121.552.166 1.117.297 1.683.402.237.044.448.093.62.273h.533l.23.256h.682c.26.307.73.183.923.544.269 0 .533.007.797-.003.278-.01.564-.022.799.139.278.19.624.037.898.23.155.109.38-.055.54.138.101.122.269.193.416.29.165 0 .342.007.516-.002.278-.015.54.031.806.126.349.122.712.207 1.073.293.409.097.796.302 1.203.438a.942.942 0 0 0 .366.069c.305-.022.579.087.842.202.768.326.766.334 1.514.334.155.102.254.248.482.285.31.051.59.27.898.373.467.156.942.292 1.421.397.283.063.545.178.816.263.722.227 1.404.548 2.114.8.114.04.256.004.358.004l.274.276c.407-.098.79.039 1.12.265.243.166.495.086.727.137.085.049.051.122.058.185.332.246.814.202 1.09.563.02.027.077.039.114.037.5-.044.76.329 1.094.653.085.078.237.01.383.097.692.427 1.43.773 2.012 1.37.23.236.588.302.828.56.23.249.421.556.777.67.075.025.126.12.189.183.312.312.627.622.932.94.288.3.596.58.891.873.637.636 1.128 1.365 1.615 2.118.339.524.584 1.094.918 1.61.419.65.743 1.327.915 2.077.339.239.15.756.54.994-.145.48.16.89.278 1.324.134.487.201 1.011.487 1.452-.092.653.407 1.221.274 1.874-.054.258.19.42.15.678-.037.219.02.446.094.682.107.329-.014.724.158 1.065-.1.765.075 1.518.157 2.266.09.826 0 1.662.136 2.467.118.699.09 1.384.087 2.073-.003.334.186.61.155.941-.032.33-.085.69.01.99.164.516.04 1.035.12 1.542.252 1.55.085 3.107.119 4.66.032 1.547.002 3.097.01 4.647.002.563-.196 1.099-.146 1.672.049.548.102 1.126-.014 1.652-.128.587-.015 1.175-.124 1.74-.118.626-.075 1.25-.135 1.872-.024.24-.1.487-.121.743-.02.229.05.45-.073.7-.106.211.012.528-.063.77-.14.445-.077.896-.13 1.34-.056.472-.146.953-.313 1.394-.085.224-.024.426-.087.645l-.22.222c-.01.04-.037.083-.03.12.07.353-.043.694-.176.989-.116.256-.024.553-.22.773.113.516-.206.93-.318 1.393-.09.368-.203.72-.477 1.01.012.29.041.609-.184.838-.176.178-.007.404-.167.604-.225.283-.334.65-.489.985-.128.282-.23.597-.508.782-.187.124-.078.346-.22.514-.645.756-1.16 1.61-1.817 2.366-.547.634-1.138 1.243-1.632 1.909-1.307 1.757-2.89 3.243-4.406 4.798-.158.163-.376.278-.368.582.005.144-.19.288-.347.359-.251.112-.443.25-.428.563-.429.519-.683 1.167-1.189 1.627-.056.052-.148.066-.264.113.034.333-.043.675-.339.882-.21.148-.155.382-.266.56-.303.48-.576.977-.966 1.37-.034.424-.1.819-.443 1.094-.26.207-.349.524-.485.797-.43.865-.917 1.698-1.363 2.551-.27.522-.574 1.05-.738 1.614-.114.39-.41.665-.511 1.052-.039.144-.17.269-.191.456a.628.628 0 0 1-.167.322c-.507.456-.686 1.072-.877 1.696-.114.37-.307.714-.518 1.045-.143.225-.327.449-.385.7-.114.47-.33.855-.656 1.143-.063.533-.417.855-.678 1.226.022.533-.49.762-.664 1.184-.174.422-.573.714-.716 1.243-.327.314-.63.748-.928 1.192-.189.28-.4.55-.634.806-.293.32-.523.704-.748 1.08a1.333 1.333 0 0 1-.199.246c-.578.577-1.13 1.177-1.588 1.862-.119.178-.36.202-.509.373-.305.346-.66.65-.97.994-.567.626-1.26 1.114-1.92 1.616-.538.407-1.139.76-1.686 1.162-.423.314-.944.429-1.336.777-.046.042-.119.056-.153.105-.28.373-.753.444-1.092.712-.525.414-1.21.543-1.707 1.009-.085.08-.254.202-.453.175-.336-.044-.566.22-.837.358-.148.076-.206.264-.405.305-.5.105-.93.492-1.491.38-.124.215-.322.249-.535.31-.34.097-.664.243-1.024.231-.344-.012-.62.217-.947.268-.337.051-.67-.024-1.022.076-.353.1-.726.2-1.114.195-1.254-.012-2.508 0-3.762-.01-.184-.002-.393.085-.552-.105-.03-.034-.14-.046-.182-.017-.3.195-.576.103-.889.01-.273-.083-.588.036-.871-.137-.097-.058-.26-.02-.39-.007-.666.059-1.3-.151-1.923-.317-.341-.09-.694-.046-1.038-.195-.388-.165-.819-.24-1.216-.411-.4-.174-.81-.368-1.242-.256-.707-.549-1.608-.59-2.402-1.08h-.295c-.07-.16-.281-.093-.368-.234-.034-.056-.092-.095-.162-.166h-.565a7.804 7.804 0 0 1-.04-.207c-1.187-.41-2.332-.95-3.54-1.304l-.04-.185c-.382-.063-.764-.08-1.048-.377-.59-.04-1.04-.512-1.61-.563-.315-.03-.54-.205-.809-.298-.448-.153-.958-.073-1.358-.385-.351.022-.598-.253-.927-.324-.286-.06-.632-.049-.86-.307-.448.017-.842-.2-1.264-.297-.261-.061-.571-.047-.777-.188-.254-.175-.586.085-.777-.21-.499.09-.959-.229-1.436-.126l-.271-.273c-.114 0-.245.01-.373-.003-.385-.034-.782.093-1.155-.078-.334-.153-.734.08-1.046-.185-.542.083-1.053-.222-1.596-.134-.564.093-1.104-.139-1.66-.134-.572.005-1.16.083-1.715-.014-1.28-.23-2.571.014-3.84-.137-.976-.114-1.947-.097-2.92-.11-.99-.012-1.983.04-2.97-.022-.4-.024-.836-.024-1.216-.238-.085-.047-.216 0-.327-.008-.303-.02-.64.1-.896-.06-.254-.159-.569.065-.787-.198-.046-.054-.213-.027-.32-.005-.416.083-.823-.046-1.19-.166-.284-.09-.546-.06-.86-.121-.04-.052-.104-.137-.184-.247-.393.071-.72-.255-1.08-.117-.516-.448-1.172-.494-1.693-.818-.331-.208-.71-.31-1.048-.51a4.124 4.124 0 0 1-.843-.67c-.25.027-.455-.1-.624-.241-.279-.234-.574-.458-.824-.712-.537-.543-1.196-.948-1.685-1.535-.368-.441-.77-.853-1.082-1.34-.09-.142-.257-.237-.354-.32 0-.131.03-.221-.004-.26-.247-.285-.407-.636-.63-.931-.269-.356-.535-.68-.608-1.15-.04-.273-.223-.524-.344-.783L12 95.9c.007-.21.024-.512-.182-.763-.2-.246.039-.6-.206-.848-.05-.051-.072-.185-.111-.28-.269-.65-.542-1.3-.567-2.025-.007-.195-.123-.388-.188-.583-.107-.32-.267-.629-.197-.98.054-.27-.21-.472-.135-.743-.235-.222-.041-.548-.187-.784-.152-.251-.04-.512-.075-.766-.017-.124-.058-.24-.09-.358-.152-.543-.345-1.09-.3-1.664.022-.27-.154-.478-.15-.744.005-.224.112-.482-.118-.68-.032-.026-.015-.129-.003-.192.092-.524-.104-1.028-.162-1.535-.073-.627-.276-1.24-.235-1.884-.189-.293-.104-.624-.138-.94a5.605 5.605 0 0 0-.15-.873c-.13-.475-.104-.943-.097-1.411.003-.19-.13-.3-.152-.475-.078-.607-.271-1.197-.252-1.816.014-.251-.201-.366-.262-.565zM20.017 6.946c-.327.268-.545.56-.877.751-.191.11-.383.263-.554.417a1.826 1.826 0 0 0-.465.6c-.206.472-.695.794-.712 1.364-.33.227-.332.685-.651.926-.194.146-.22.383-.274.614-.196.84-.482 1.652-.915 2.498-.003.229-.005.529-.196.824-.136.21-.235.487-.206.777.012.122.039.249-.041.378-.197.317-.243.67-.218 1.038a.6.6 0 0 1-.022.256c-.213.477-.257.977-.242 1.494.012.44.002.884.002 1.328 0 .11-.046.265.007.324.235.253.003.597.14.804.204.302.112.6.103.885-.017.502.244.967.147 1.472-.002.02 0 .048.015.058.225.195.026.48.128.675.128.249.119.493.121.748.003 1.019 0 2.035 0 3.054 0 .132.039.28-.007.395-.24.626-.242 1.306-.465 2.01-.034.025-.126.083-.208.137.111.538-.23.994-.11 1.462-.079.08-.135.122-.171.175-.322.458-.446 1.04-.886 1.424-.01.01-.003.043 0 .065.026.317-.368.434-.363.707.007.32-.23.492-.356.717-.121.214-.238.436-.366.645-.327.532-.45 1.197-1.024 1.548v.268c-.114.197-.303.307-.41.507-.37.69-.808 1.343-1.162 2.042-.225.443-.554.658-1.05.775-.436.439-.635.743-.717 1.143-.339.21-.588.563-.736.921-.114.278-.213.539-.424.753.1.368-.227.568-.332.858-.109.31-.314.563-.35.923-.035.332-.289.637-.359.97-.044.203-.167.29-.271.422.01.553-.184 1.072-.3 1.604-.03.129-.126.272-.102.416.06.334-.114.622-.167.931-.012.068-.107.12-.104.222.007.331-.012.665.007.994.02.349-.138.658-.153 1.007-.043.943.192 1.864.148 2.8-.012.28-.005.56.138.806.153.259.116.537.13.81.01.165.015.321.08.494.078.2.228.412.182.656.27.158-.007.533.267.685.266.146-.003.482.232.636-.053.324.155.558.3.801.1.164.26.293.39.434a.84.84 0 0 0 .092.363c.19.363.492.668.574 1.087.586.734.961 1.61 1.557 2.332.165.198.121.43.298.62.465.501.784 1.12 1.026 1.754.102.27.267.507.368.777.126.337.494.575.453 1.01-.005.043.073.111.129.138.154.078.167.256.217.378.172.414.17.892.441 1.277-.143.334.23.475.274.75.09.595.438 1.134.387 1.762-.007.078.051.112.08.168.082.164.16.368.167.522.027.602.266 1.187.133 1.774.18.154.281.356.269.517-.041.548.247 1.062.143 1.606-.066.336.097.628.157.938.024.127.126.26.11.414-.08.697.224 1.37.132 2.07-.004.043-.014.092.003.13.259.652.261 1.331.271 2.016.005.332.077.67.167.99.114.407.257.801.223 1.235-.01.11-.037.241.01.327.184.321.164.687.24 1.028.077.349.215.697.144 1.072-.01.059.008.13.03.186.157.419.28.84.23 1.274.387.548.438 1.153.397 1.772.23.112.24.368.404.519-.046.426.09.811.242 1.216.143.38.06.843.397 1.158.07.204-.063.426.097.628.334.424.458.96.712 1.428.109.2.288.37.356.583.111.348.252.67.528.904.14.12.184.285.264.426.188.332.372.668.665.914.526.439.874 1.048 1.427 1.465.106.08.176.236.326.312.167.083.293.234.448.34.693.486 1.342 1.034 2.003 1.558.545.085.944.5 1.443.668.523.175 1.048.368 1.612.441l.233.234c.17 0 .397-.07.508.012.434.33.964.239 1.436.358.506.127 1.056.066 1.593.14.83.114 1.688-.084 2.518.153 1.632.044 3.267-.085 4.899.12.63.08 1.276.002 1.912.016.623.012 1.252-.09 1.86.13.934-.09 1.855.138 2.784.126.65-.007 1.274.239 1.928.14.021-.003.053-.01.065 0 .22.201.496.155.739.118.297-.043.513.188.806.152.489-.059.966.017 1.375.277.097-.073.133-.17.295-.143.076.139.289.131.417.243.232.015.467-.024.66.051.337.132.66.269 1.03.227.324.28.714.056 1.085.151.206.298.59.215.89.346.354.156.749.259 1.134.283.373.024.634.188.886.424h.886c.083.054.131.095.187.122.339.15.712.2 1.055.324.613.222 1.204.504 1.843.663.119.029.298.014.351.085.16.21.49.183.581.334.189.312.487.12.702.26.516.335 1.192.313 1.68.727.352-.022.589.27.926.329.314.056.653.153.871.45.024.035.129 0 .187.02.508.164 1.024.307 1.438.658.21.042.411.034.625.095.263.076.491.242.738.293.588.122 1.065.536 1.676.6a.5.5 0 0 1 .387.245c.336-.136.66.013.983.105.453.13.862.405 1.356.393.283.3.729-.027 1.012.265.494-.01.961.193 1.465.141.457-.046.932.05 1.382-.026.427-.071.86-.159 1.284-.225.455-.07.898-.17 1.339-.294.53-.151 1.063-.327 1.52-.624.206-.134.383-.161.61-.17.148-.31.52-.227.741-.403.555-.441 1.213-.71 1.787-1.111.153-.107.325-.278.47-.295.298-.034.455-.217.634-.397.107-.11.201-.232.264-.305.157-.01.264.015.327-.027.705-.482 1.433-.928 2.119-1.44.353-.263.63-.634 1.048-.812.24-.102.421-.282.6-.467.308-.317.623-.627.933-.941.232-.234.513-.439.687-.712.165-.26.351-.492.579-.682.237-.2.33-.497.552-.707.569-.536.99-1.213 1.59-1.725a.445.445 0 0 0 .144-.205c.184-.512.525-.914.91-1.245.01-.12-.017-.249.03-.283.263-.202.408-.5.592-.758.373-.524.836-1.004 1.068-1.608.13-.336.337-.58.487-.734.305-.909.7-1.63 1.27-2.23-.074-.333.219-.587.127-.899.353-.287.375-.823.792-1.048 0-.15-.054-.321.01-.409.314-.446.394-.994.66-1.452.133-.232.356-.403.395-.702.039-.29.293-.483.41-.758.23-.544.597-1.021.788-1.599.08-.236.347-.4.388-.702.039-.287.278-.497.409-.755.269-.529.438-1.116.782-1.599.315-.443.433-.984.78-1.406.293-.356.411-.836.794-1.128-.027-.276.426-.354.28-.68.192-.198.323-.42.446-.675.218-.449.608-.807.903-1.221.226-.317.574-.568.722-.895.199-.438.537-.711.82-1.052.17-.203.451-.276.592-.476.288-.409.552-.826.983-1.103.273-.697.852-1.168 1.324-1.7.92-1.037 1.976-1.954 2.79-3.094.527-.738 1.254-1.316 1.643-2.171.204-.446.538-.826.741-1.285.208-.468.53-.877.695-1.37.068-.2.199-.367.358-.501v-.424c.255-.502.465-.89.528-1.365.06-.47.344-.904.247-1.374l.26-.261c.036-.19-.07-.407.14-.549-.087-.416.147-.796.135-1.206-.012-.404.117-.797.17-1.194.058-.431.227-.848.223-1.296 0-.088-.037-.227.004-.259.289-.22-.04-.624.26-.826v-.928c0-.11-.044-.251.007-.327.215-.322.126-.677.114-1.011-.012-.351.16-.653.16-1.007 0-.821-.042-1.64.087-2.47.13-.849.094-1.731.133-2.599.085-1.876.026-3.76.026-5.641 0-.11.046-.259-.007-.327-.223-.278-.123-.592-.111-.88.012-.311-.18-.558-.158-.874.044-.595.012-1.195.012-1.792 0-.131.051-.3-.01-.392-.174-.26-.142-.546-.11-.814.036-.295-.141-.531-.148-.809-.015-.602.002-1.199-.104-1.808-.126-.717.002-1.462-.136-2.2-.1-.534.097-1.139-.05-1.648-.153-.524-.025-1.048-.207-1.57-.145-.419-.181-.896-.264-1.345-.048-.265-.203-.512-.164-.804.043-.339-.14-.646-.21-.97-.071-.326-.258-.631-.175-.955-.216-.244-.31-.531-.458-.778-.148-.243-.16-.6-.235-.896a2.62 2.62 0 0 0-.235-.632c-.162-.294-.435-.567-.406-.96.007-.087-.073-.187-.126-.275-.247-.407-.499-.812-.75-1.214-.056-.087-.178-.124-.175-.26.002-.361-.254-.57-.477-.797-.14-.142-.327-.259-.412-.427-.215-.426-.547-.75-.837-1.116-.298-.373-.625-.712-.942-1.065-.233-.26-.56-.387-.797-.646-.312-.34-.598-.73-1.094-.862-.129-.035-.233-.2-.327-.32a1.435 1.435 0 0 0-.61-.446 1.664 1.664 0 0 1-.565-.37c-.2-.2-.474-.144-.673-.339-.162-.158-.406-.278-.61-.41a6.62 6.62 0 0 0-.695-.404c-.218-.11-.426-.246-.651-.343-.242-.105-.508-.276-.743-.247-.325.04-.443-.231-.678-.311-.3-.105-.707.002-.906-.366-.232-.017-.438-.022-.646-.217-.155-.144-.441-.183-.666-.283-.158-.07-.344-.173-.52-.165-.608.022-1.12-.268-1.667-.454-.387-.129-.716-.438-1.133-.35-.109-.113-.186-.19-.261-.269-.349.022-.64-.18-.954-.243-.388-.078-.773-.151-1.138-.293-.361-.139-.727-.297-1.097-.377-.724-.159-1.395-.512-2.153-.568-.198-.015-.467-.042-.644-.17-.164-.12-.331-.157-.506-.225-.382-.146-.76-.097-1.14-.115-.063-.002-.126-.01-.189-.014l-.378-.397c-.73.121-1.4-.266-2.007-.266-.523-.21-.925-.434-1.411-.39-.146.015-.293.032-.446-.037-.569-.25-1.189-.316-1.775-.5-.433-.136-.881-.192-1.317-.318-.373-.108-.719-.293-1.116-.354-.513-.08-1.012-.273-1.545-.243-.128.007-.21-.127-.273-.122-.158.014-.204-.159-.344-.149-.472.03-.91-.248-1.485-.09-.043-.1-.099-.224-.14-.314-.617.053-1.138-.137-1.663-.273-.204-.054-.397-.117-.61-.117-.126 0-.243-.054-.359-.086-.605-.168-1.232-.285-1.855-.292-.564-.007-1.099-.224-1.66-.151-.022.002-.054.01-.066 0-.261-.244-.583-.078-.872-.132-.288-.056-.561-.158-.871-.139a3.685 3.685 0 0 1-1.206-.102c-.174-.049-.332-.18-.533-.156-.89.102-1.765-.154-2.65-.134a2.585 2.585 0 0 1-.812-.102c-.225-.069-.465-.18-.729-.166-.416.022-.835.007-1.254.005a5.012 5.012 0 0 1-1.138-.115c-.385-.09-.811.03-1.196-.15-.848.1-1.676-.157-2.52-.138-.792.02-1.587-.01-2.378.008-.775.017-1.548.024-2.325.102-1.491.149-3-.065-4.5.147-.853.121-1.72-.027-2.59.117-.549.092-1.159.156-1.726-.098-.111-.049-.293-.058-.387.002-.303.198-.627.117-.942.12-1.496.01-2.993-.02-4.489.01-1.48.031-2.956-.103-4.438.11-.937.133-1.896-.02-2.852.121-.693.103-1.402.26-2.121.163-.058-.007-.146.005-.177.044-.133.166-.351.078-.52.198-.15.102-.427.02-.647.022-.126.002-.254.073-.356.085-.54.063-1.034.341-1.593.322-.238-.008-.49.082-.717.17-.59.23-1.2.334-1.719.363-.506.178-.82.573-1.245.595-.368.017-.6.268-.927.346-.303.073-.566.331-.835.526-.204.144-.388.276-.64.251z" fill="#D1D3D4"/>
        <path d="M75.997 24.545c.64-.08 1.267.249 1.921.422.527.14.984.5 1.561.518.067.003.226.085.317.17.433.392 1.044.452 1.506.816.168.133.44.19.663.282.57.23 1.04.613 1.482 1 .586.517 1.187 1.001 1.84 1.43.141.095.3.222.362.372.125.291.373.46.568.682.257.294.56.557.805.844.512.598 1.097 1.147 1.455 1.88.161.333.46.598.7.892.055.068.16.116.178.188.182.74.772 1.249 1.077 1.914.356.774.613 1.582.911 2.377.171.456.296.928.426 1.398.216.786.507 1.546.654 2.358.106.579.11 1.193.368 1.743.007.017.002.043 0 .065-.08 1.037.262 2.064.115 3.09-.1.707-.033 1.418-.14 2.11a10.702 10.702 0 0 0-.1 1.589c-.003.197-.185.318-.15.537.03.171.087.386-.105.545-.043.036-.003.166-.015.25-.036.251.087.517-.081.753-.152.212.089.528-.178.713.06.62-.289 1.17-.284 1.794.002.485-.248.96-.24 1.466-.294.188-.041.518-.205.771-.118.181-.12.492-.209.694-.243.54-.3 1.134-.582 1.664a6.541 6.541 0 0 0-.488 1.239c-.204.702-.62 1.316-.923 1.977-.128.28-.238.58-.505.776-.183.133-.106.374-.262.554-.303.352-.597.733-.76 1.187-.008.019.007.057-.003.062-.48.316-.67.868-.993 1.302-.332.446-.82.767-1.022 1.34-.106.297-.478.495-.714.753-.303.33-.659.6-.897 1.002a1.492 1.492 0 0 1-.721.61c-.229.094-.443.244-.693.169-.125.104-.05.222-.074.325-.248.321-.601.512-.93.738-.275.19-.544.39-.809.598a3.777 3.777 0 0 1-1.06.598c-.568.2-1.111.496-1.626.817-.401.25-.85.381-1.26.605-.017.01-.048-.007-.065.003-.603.366-1.298.455-1.957.658-.365.113-.673.373-1.063.443-.053.01-.086.094-.163.077-.498-.1-.957.21-1.438.128-.25.13-.484.253-.748.393-.755-.034-1.534.241-2.33.13-.176-.024-.257.118-.402.157-.464.12-.925.11-1.392.113-.678.003-1.359.034-2.032-.012-.478-.033-.918.183-1.39.143-.788-.068-1.575-.189-2.37-.13-.647-.251-1.32-.119-1.98-.116-.307.002-.557-.172-.863-.16-.286.013-.596.111-.87-.11-.065-.053-.212-.01-.322-.008-.465.01-.907-.089-1.345-.238-.096-.034-.211-.024-.317-.022-.652.007-1.27-.174-1.885-.36a.744.744 0 0 0-.248-.03c-.529.012-1.024-.155-1.536-.237-.368-.058-.741-.202-1.12-.152-.215.03-.354-.147-.537-.132-.281.021-.508-.212-.8-.142-.275.067-.515-.128-.797-.147-.418-.03-.83-.193-1.24-.316-.056-.017-.109-.068-.174-.056a1.446 1.446 0 0 1-.858-.144c-.265-.13-.553-.119-.82-.24-.517-.23-1.094-.337-1.537-.717-.163-.14-.336-.025-.49-.09-.318-.132-.642-.253-.936-.426-.127-.075-.233-.08-.394-.09-.086-.091-.202-.195-.29-.318a1.752 1.752 0 0 0-1.148-.701c-.336-.05-.433-.328-.683-.425-.252-.096-.435-.253-.42-.566.002-.06-.1-.176-.164-.183-.623-.07-.868-.55-1.135-1.013-.01-.02-.031-.031-.07-.07h-.399c-.288-.323-.63-.559-.808-.94a.396.396 0 0 0-.183-.183c-.606-.246-.716-.87-1.036-1.333.031-.314-.202-.412-.411-.572-.438-.335-.753-.769-.791-1.376-.334-.335-.582-.762-.82-1.203-.104-.188-.012-.374-.12-.542-.169-.26-.289-.54-.505-.78a3.826 3.826 0 0 1-.77-1.315 1.774 1.774 0 0 0-.252-.487 2.609 2.609 0 0 1-.39-.69c-.137-.402-.26-.812-.375-1.22-.118-.412-.339-.805-.38-1.217-.053-.564-.351-1.08-.296-1.651.02-.21-.127-.343-.151-.536-.072-.554-.18-1.108-.274-1.658-.065-.381-.123-.755-.092-1.13.022-.254-.18-.42-.156-.67.022-.22.096-.464-.108-.678-.065-.068-.012-.253-.012-.384 0-1.53.014-3.061-.012-4.59-.005-.33.2-.597.151-.93-.043-.3-.093-.644.012-.909.12-.297.008-.632.212-.897.034-.043.034-.123.026-.183-.086-.583.128-1.14.14-1.716.007-.29.082-.591.156-.854.067-.231.075-.45.096-.677.072-.7.109-1.406.467-2.037.115-.203-.015-.473.19-.644-.012-.497.267-.892.45-1.321.225-.53.53-.996 1-1.367-.092-.545.07-1.024.375-1.475.04-.058.04-.16.11-.215.496-.39.772-.979 1.277-1.398l.265-.012c.106-.125.23-.275.312-.376.517-.041.904-.246 1.272-.446.234-.125.424-.301.705-.369.226-.055.418-.248.628-.378.865-.54 1.841-.844 2.777-1.206 1.075-.414 2.07-1.03 3.205-1.287.556-.383 1.21-.574 1.772-.955.33-.222.746-.308 1.102-.496.26-.138.497-.309.812-.256.097.017.152-.043.226-.092.868-.552 1.854-.797 2.821-1.106.623-.2 1.265-.316 1.888-.501.41-.123.841-.19 1.267-.268.404-.075.813-.215 1.204-.234.491-.024.96-.239 1.453-.159.308.05.555-.227.863-.135.445-.231.923-.118 1.388-.125.706-.012 1.397-.234 2.108-.135.183.024.387-.075.549.115.036.044.173.039.25.012.735-.25 1.495-.086 2.243-.123.546-.026 1.094.02 1.64-.012.604-.036 1.173.2 1.784.15.587-.05 1.178-.012 1.77-.01.252 0 .462.169.733.145.24-.022.496-.077.748.082.202.128.486-.015.726.152.118.082.34.019.515.014.423-.012.846-.021 1.22.22.107.07.208.029.31.043.675.09 1.35.183 2 .398.192.055.351.152.572.255zm-14.1 49.466a.4.4 0 0 1 .267-.147c.457-.068.873.161 1.325.147a35.4 35.4 0 0 1 2.426 0c.796.029 1.575-.249 2.37-.13.378.055.698-.172 1.061-.138.382-.306.854-.374 1.308-.482.517-.123.976-.436 1.48-.535.62-.123 1.15-.386 1.7-.66.102-.054.201-.162.326-.155.303.012.56-.116.825-.229.267-.113.505-.277.724-.465.07-.058.158-.065.218-.104.71-.446 1.513-.716 2.167-1.285.534-.465 1.166-.822 1.666-1.34.205-.212.38-.453.68-.572a.719.719 0 0 0 .366-.364c.147-.361.476-.544.707-.82.113-.132.282-.228.363-.375.402-.714.926-1.338 1.458-1.948.606-.697.985-1.521 1.447-2.295.512-.86.914-1.784 1.544-2.575.086-.108.204-.263.178-.448-.077-.543.175-1.01.344-1.497.312-.912.538-1.842.716-2.787.058-.311.056-.634.137-.926a6.71 6.71 0 0 0 .24-1.142c.04-.398.21-.78.138-1.191a.583.583 0 0 1 .021-.316c.21-.473.26-.967.239-1.475-.008-.196-.08-.451.014-.58.197-.27.125-.549.1-.807-.028-.294.174-.518.15-.8-.067-.788.099-1.586-.125-2.375-.154-.537-.156-1.108-.26-1.66-.031-.167-.166-.278-.151-.468.045-.675-.395-1.259-.397-1.929-.394-.735-.65-1.53-.863-2.329-.09-.337-.318-.566-.445-.867-.418-.982-1.003-1.869-1.594-2.753-.21-.314-.55-.516-.676-.897-.062-.193-.2-.36-.358-.509-.46-.436-.933-.865-1.34-1.347-.394-.473-.904-.818-1.3-1.283a1.688 1.688 0 0 0-.28-.277c-.507-.364-.978-.781-1.51-1.107-.54-.332-1.036-.73-1.606-1.024-.849-.434-1.71-.837-2.62-1.112-.585-.176-1.136-.496-1.708-.465-.221-.101-.382-.214-.555-.243-.51-.087-.986-.374-1.53-.27-.021.004-.057.01-.062 0-.159-.266-.47-.063-.698-.239-.185-.142-.512.01-.79-.133-.21-.106-.52.015-.775-.029-.375-.062-.74-.166-1.128-.122-.238-.266-.591-.102-.887-.234-.291-.13-.688-.012-1.036-.034-.246-.017-.525.12-.734-.125l-1.438.007c-.26.255-.618.173-.858.094-.3-.099-.582-.07-.873-.104-.863-.099-1.707.147-2.568.152-.298.002-.654.031-.916.142-.265.111-.53.005-.738.116-.248.13-.491.106-.741.118-.125.005-.245.06-.356.084-.76.162-1.505.381-2.26.567-.633.157-1.248.362-1.864.569-.536.18-1.053.407-1.58.617-.562.224-1.142.415-1.683.685-.635.316-1.25.665-1.89.976-.582.282-1.185.518-1.767.803a8.04 8.04 0 0 1-1.291.51c-.472.136-.9.37-1.366.517-.505.159-1.013.402-1.494.66a33.3 33.3 0 0 1-1.9.955c-.136.063-.266.161-.463.161-.411 0-.772.283-.99.57-.491.65-.912 1.36-1.309 2.075-.315.569-.558 1.174-.962 1.745.092.292-.038.603-.147.878-.139.357-.204.704-.266 1.075-.044.263-.041.552-.133.793-.19.506-.206 1.044-.353 1.555-.094.333-.029.702-.13 1.06-.094.336-.04.702-.13 1.062-.091.37-.055.785-.012 1.174.046.417-.147.788-.144 1.193.01 1.181.002 2.36.005 3.541 0 .13-.048.314.019.379.175.173.118.37.1.55-.02.226.16.378.148.602-.036.663.22 1.309.125 1.98-.012.086.053.16.067.23.062.302.236.589.188.905-.03.192.16.289.141.472-.019.171-.04.362.012.518.263.765.56 1.517.823 2.281.158.463.416.902.336 1.405.344.217.35.584.498.873.373.726.642 1.51 1.21 2.122-.053.25.336.286.264.547-.058.202.137.301.183.448.082.25.313.376.4.625.139.397.391.74.725.995.094.533-.488.526-.663.827l.19.42h.55c.08-.082.217-.217.383-.384.185.193.43.386.685.564.264.186.385.528.668.646.068.179-.024.335.072.478.111.253.477.053.585.32.5.222.755.798 1.32.928.353.396.772.683 1.265.902.267.118.45.427.779.494.33.068.543.352.856.463.341.123.675.275.988.463.091.055.166.104.277.13.375.092.733.256 1.108.32.69.119 1.308.55 2.042.459.1-.012.156.091.218.099.517.053 1.013.255 1.52.272.409.015.791.137 1.188.183.236.027.541.003.721.126.287.197.652-.03.89.238.327-.08.61.12.928.15.308.029.611.142.93.11.19.292.523.032.77.208.226.161.549.048.825.05.426.005.822.232 1.258.138.016-.005.04.005.06.014.401.198.83.29 1.274.24.166-.035.219.11.414.132z" fill="#FD781D"/>
    </g>
</svg>
