<?xml version="1.0" encoding="utf-8"?>
<!-- Generator: Adobe Illustrator 25.0.1, SVG Export Plug-In . SVG Version: 6.00 Build 0)  -->
<svg version="1.1" id="Layer_1" xmlns="http://www.w3.org/2000/svg" xmlns:xlink="http://www.w3.org/1999/xlink" x="0px" y="0px"
	 viewBox="0 0 492.6 412.3" style="enable-background:new 0 0 492.6 412.3;" xml:space="preserve">
<style type="text/css">
	.st0{fill:#FFFFFF;}
	.st1{display:none;opacity:0.51;}
	.st2{display:none;fill:#5D7CFC;}
	.st3{clip-path:url(#SVGID_2_);fill:#FFFFFF;}
	.st4{clip-path:url(#SVGID_2_);}
	.st5{clip-path:url(#SVGID_2_);fill:#FEDA04;}
	.st6{fill:#FEDB00;}
	.st7{fill:#28B4D6;}
	.st8{fill:#50FF5C;}
	.st9{fill:#FB111F;}
	.st10{fill:#617FFB;}
	.st11{fill:#151D52;}
	.st12{fill:#181F54;}
	.st13{fill:#171F53;}
	.st14{fill:#0D6F87;}
	.st15{fill:#29B4D6;}
	.st16{fill:#141C51;}
	.st17{display:none;clip-path:url(#SVGID_2_);}
	.st18{display:inline;}
	.st19{fill:#009D66;}
	.st20{fill:#FDD2BC;}
	.st21{fill:#969383;}
	.st22{fill:#47463D;}
	.st23{fill:#FEDA05;}
	.st24{fill:#FE5000;}
	.st25{fill:#10184E;}
	.st26{fill:#FD781C;}
	.st27{fill:#AE970F;}
	.st28{fill:#D5C459;}
	.st29{fill:#A09D8B;}
	.st30{fill:#696655;}
	.st31{opacity:0.51;}
	.st32{fill:#5D7CFC;}
	.st33{clip-path:url(#SVGID_4_);fill:#FFFFFF;}
	.st34{clip-path:url(#SVGID_4_);}
	.st35{clip-path:url(#SVGID_4_);fill:#FEDA04;}
	.st36{fill:#FED2BD;}
	.st37{fill:#FD771D;}
	.st38{fill:#5D7CFB;}
	.st39{fill:#A44AAE;}
	.st40{fill:#853390;}
</style>
<g class="st1">
	
		<image style="display:inline;overflow:visible;" width="2880" height="6632" xlink:href="97A88CD43112E64C.png"  transform="matrix(0.6944 0 0 0.6944 -1507.6533 -103.303)">
	</image>
</g>
<rect x="-1507.7" y="2.7" class="st2" width="2000" height="642"/>
<g>
	<defs>
		<rect id="SVGID_1_" x="-1507.7" y="2.7" width="2000" height="642"/>
	</defs>
	<clipPath id="SVGID_2_">
		<use xlink:href="#SVGID_1_"  style="overflow:visible;"/>
	</clipPath>
	<path class="st3" d="M461.2,27.7c0.3-0.3,0.6-0.6,1-0.9c0.5,0.5,0.9,1.3,2,0.7c0.1-0.4,0.3-0.9,0.6-1.6c8.2,0,16.5-0.5,24.7,0.2
		c4.7,0.4,9.7,0.5,14.3,2.4c1.9,0.8,4.2,0.5,6.4,0.9c2.9,0.5,5.9,1.2,8.7,2.1c3.1,1,6.3,1.5,9.3,2.5c1.1,0.3,2.1,0.7,3.2,1
		c2,0.4,3.8,1.5,5.8,0.9c1,1.2,2.3,1.5,3.5,1.8c1.7,0.6,3.9,0.6,5.2,1.6c1.7,1.3,3.8,1.1,5.4,2.4c1.4,1.2,3.4,1.4,4.7,2.9
		c0.7,0.8,2,0.2,3,0.4c1.3,1.3,2.8,2.4,3.7,3.9c0.6,0.9,1.4,1.8,1.2,3.1c1.6,0.2,2.7,1.1,3.2,2.2c0.6,1.4,1.4,2.8,1.3,4.4
		c-0.1,3.2,0,6.3,0,9.3c-1.9,2.3-2,5.1-2.7,7.6c-0.5,1.8-0.5,3.7-1.3,5.3c-0.7,1.5-1.1,3.2-1.9,4.6c-2,3.4-4.1,6.7-8.1,8.4
		c-0.9,0.4-2.8,0.5-2.5,2.7c-1.7-0.4-3.1,0.4-4.6,0.8c-1.6,0.3-3.3,0.1-4.7,0.1c-0.7,0.7-1.2,1.2-1.9,1.9c-4.5-1-8.8,1.8-13.6,0.6
		c-0.9-0.5-2-1.1-2.9-1.6c-2.1-0.1-3.2,1.6-5.3,1.8c-1.4-0.9-3.2-1-5.2-1c-1.3,0-2.6,0.4-3.8-0.8c-0.5-0.4-2.1-0.5-2.9,0.3
		c-0.7,0.6-1.3,0.6-2,0.5c-3.4-0.3-6.9-0.6-10.2-1.6c-0.3-0.1-0.6-0.2-0.8-0.1c-3.7,0.7-7.2-1.5-10.9-0.9c-1.8,0.3-2.9-1.2-4.6-1
		c-1.5,0.2-3.2,0.7-4.7-0.7c-0.5-0.5-1.8-0.2-2.6,0c-0.9,0.1-1.3-0.5-2-1.1c-1.5,1.3-3.4,1.2-4.7,1c-3.4,1.7-6.2,3.5-9.5,3.6
		c-0.4,0-0.8,0-1.2,0.3c-3.3,2.5-7.5,2.8-11.1,4.7c-1.6,0.8-3.6,1.3-5.3,1.2c-7.8-0.5-15.4,1.6-23.1,0.9c-5.6-0.4-11.3-1.1-16.9-1.9
		c-0.9-0.1-1.7-1-2.8-0.8c-0.8-1.7-2.2-3.1-0.7-6c-2.4,2.2-2.4,2.2-2.8,4.9c-0.9-0.1-0.5-0.8-0.7-1.5c-2.4-0.2-4.8-0.9-7.2-1.7
		c-0.3-0.1-0.5-0.3-0.8-0.3c-4,0.5-7.8-1.1-11.8-1.1c-3.7,0.1-7.4-0.7-11-1.6c-1.4-0.3-1.9-1.2-2.9-1.9c-1.8,0-3.6,0-5.4,0
		c-3.5-2.7-7.7-3.5-11.7-4.5c-7.7-1.9-15.4-3.3-23.1-5.3c-4-1-7.9-3-12-1.8c-0.8-0.5-0.7-1-0.7-1.7c-5-0.6-9.5-3.7-14.8-2.9
		c-1.4-1-1.8-2.9-3.5-3.5c-1.5-0.5-1.2-2.8-3.1-3.2c-1.8-0.3-0.6-2.4-2.1-3.9c-0.5-0.6-1.9-0.9-3.6-1.5c0-2.4-0.1-4.9,0-7.4
		c0.1-2.3,1.4-4.4,1.6-6.5c0.3-3.3,1.6-6.4,2-9.6c0.1-0.6,0.2-1.1,0.5-1.6c2.8-4,5.8-7.8,9.9-10.7c1.7,0.7,2.9-1.6,4.6-0.8
		c0.9,0.6-0.1,1.7,0.6,2.4c1.3-0.3,0.4-1.4,0.7-2.1c1-1.2,2.9,0.4,4-1.2c0.3-0.4,1.6-0.4,2.1-0.1c2.5,1.4,5.2,0.8,7.8,0.8
		c1.8,0,3.2,1.1,5.1,1c1.8-0.1,3.8-0.6,5.6,0.5c1.5,0.9,3.4-0.2,5,1.1c0.7,0.6,2.3,0.1,3.4,0.1c1,1.3,3,1,3.4,2.7
		c2.9-0.1,5.7,0,8.1,1.5c1.2,0.7,2.6,0,3.9,0.3c1.3,1.3,2.9,1.8,4.7,1.8c2.3,0.1,4.5,0.8,6.1,2.7c1.8,0,3.6,0,5.4,0
		c0.5,1.3,2.4,0.4,2.6,1.9c4-1.9,8-0.3,11.8-1.2c2-0.5,4.3-0.2,6.2-1.4c0.7-0.4,1.7-0.2,2.6-0.3c3.5,0,7-0.3,10.4,0.1
		c4.3,0.4,8.4-1.1,12.7-1c1.2,0,2.4-0.6,3.6-1.1c0.5-0.2,0.9-0.7,1.5-0.7c5.7,0.1,10.8-2.3,16.1-3.7c3.2-0.9,6.5-1.8,9.8-2.6
		c3.8-0.9,7.5-2.1,11.4-1.8c2.5-2,5.8,0.1,8.3-1.8C459.2,26,460,27.9,461.2,27.7z"/>
	<g class="st4">
		<path class="st0" d="M12.7,152.9c0-0.2,0.1-0.3-0.1-0.4c0,0.2-0.1,0.4-0.1,0.6C12.5,153.1,12.6,153,12.7,152.9z"/>
		<path class="st0" d="M355.9,179c-0.1-4.9-6.2-9.3-10.2-11.3c-7.3-3.6-15.3-3.7-23.3-3.4c-18.4,0.9-36.7,1-55.1,0
			c0-0.1,0-0.3,0-0.4c-2.2,0.3-4.2-0.5-6.1-1.3c-0.6-0.2-1-0.8-1.7-0.7c-2,0.1-3.9-0.6-5.8-1.3c-1.8-0.7-3.7-1.2-5.6-2
			c-1-0.4-1.9-1-3.1-0.7c-0.5,0.1-1.1,0.1-1.6-0.1c-1.7-0.6-3.4-1.4-5.2-1.2c-2,0.2-3.8-0.9-5.8-0.8c-2.6,0.2-5.1,0-7.7,0.1
			c-2.5,0.1-4.9,1.4-7.5,1.3c-1.3,1.3-3,0.7-4.5,1.1c-2,0.6-4.4,0.8-6.4-0.2c-2.4-1.1-4.6-2.3-7.3-3.6c-1.3,0.1-3,0.1-4.3-1.3
			c-0.9,0.4-1.3-0.6-2-0.8c-2.8-0.5-5.5-1.1-8.1-2.1c-2-0.8-3.8-1.3-6.1-1.1c-0.3-0.4-0.8-1-1.1-1.5c-1,0-2,0.3-2.8,0
			c-4-1.5-8.2-1.2-12.3-1.9c-3.9-0.7-7.8,0.9-11.8,0.6c-1.9-0.1-3.6,0.2-5.2,1.6c-0.7-1-1.6-1.4-2.6-0.6c-0.8,0.6-1.8,0.4-2.6,0.9
			c-1,0.6-2.6-0.5-3.7,0.7c-1.5-0.4-2.7,1-4.1,0.7c-1.4-0.4-2.5,0.9-3.7,0.7c-1.1-0.2-1.7,0.8-2.7,0.8c-3,0-6.1-0.6-9.1,0.6
			c-4.2-0.5-8.3,0.7-12.4,0.7c-1.7,0-3.2,0.9-5.1,1.3c-0.2-0.3-0.6-0.8-0.8-1c-3.7-0.9-6.8,0.7-10.2,0.5c-1.5-0.1-3-0.4-4.4,0.6
			c-0.7,0.5-1.3-0.4-2-0.6c-0.7,0.1-1.2,0.8-2.1,0.7c-1.9-0.1-3.8,0.1-5.7-0.1c-1.7-0.1-3.4,0.4-5.2-0.4c-1.7-0.8-3.7-0.1-5.6-0.3
			c-0.1,0-0.3,0-0.3,0c-0.9-0.9-2-0.8-3.1-0.6c-1.3,0.2-2.3-0.7-3.4-0.7c-3,0.1-6,0-8.8-1.4c-3.6,0.3-7-1-10.5-1.3
			c-1.2-0.1-2.1-0.8-3.4-0.8c-5.3,0.2-10.7,0.1-15.7,0.1c-1.3,0.6-2.2,1.1-3.3,1.7c0.3,0.9-1,1.3-1,2.4c-0.3,0-0.6,0-1,0.4
			c0,0.2-0.1,0.4,0,0.5c0,0-0.2,0.2-0.2-0.3c-0.6,0.2-0.6-0.5-0.1-0.6c0.1,0,0.2,0,0.2,0c0.2-1.1-0.4-1.6-0.9-2c-1.1-0.1-2,0-3,0.8
			c-2.7,1.9-5.4,4-8.8,4.7c0.3,0.8-0.4,1.1-0.5,1.5c-0.1,0.6-0.3,1-0.8,1.4c-2.7,0.8-3.4,1.1-4,2.2c-0.5,1-0.7,2.2-2,2.5
			c-1.8,3-3.7,5.9-5.9,8.6c-0.3,0.4-0.6,1-0.7,1.4c-0.5,2.3-1.8,4.2-2.8,6.2c-0.9,1.9-1.9,3.9-3.7,4.7c-2.9,1.4-5.4,3.1-8.1,4.8
			c-0.8,0.5-1.4,0.8-1.7,1.6c-0.2,0.5-0.7,0.9-1.1,1.2c-0.6,0.5,0.2,1.3-0.5,1.9c-0.7,0-1.4,0.1-2.1,0.1c-1,2.1-2.2,3.9-4.2,4.9
			c-0.1,2.7,0.3,5.4-1,7.9c-0.8-0.4-1,0.5-1.7,0.9c0,1,0.4,2.4-0.1,3.2c-1,1.7-0.2,3.5-0.6,5.1c-0.4,1.7-0.6,3.4-0.7,5.1
			c-0.1,1.1,0.8,1.7,0.8,2.7c-0.1,1.1,0,2.2,0,3.2c1.5,2.1,1.9,4.5,3,6.6c1.2,2.2,3.5,3.8,3.8,6.3c2.1,2.8,5.4,4.3,7.6,7
			c0.2,0.3,0.5,0.6,0.7,0.6c2.6,0.7,4,2.9,5.8,4.6c1.7,1.6,3.6,2.9,5.8,3.8c5.1,2.2,10.1,4.6,15.2,7c3.4,1.6,7,2.5,10.4,3.9
			c4.2,1.7,8.7,2.5,13.1,4c2.6,0.9,5.3,1.9,8.2,2.2c1.2,0.1,2.7,0.1,3.7,0.7c1.6,0.9,3.4,0.9,5.1,1.6c1.8,0.8,3.8,0.7,5.6,1.2
			c1.4,0.4,2.9,0,4.1,0.6c1.2,0.6,2.6,0.1,3.4,0.7c1.3,0.9,2.6,0.3,3.8,0.6c0.4,0.1,0.8,0,1.3,0.2c3,1.4,6.4,1.5,9.6,1.7
			c2.7,0.2,5.5,0.3,8.1-0.6c9.3,0.4,18.6-1.1,27.9-0.7c2.4,0.1,4.6-0.7,6.6-1.5c0.4-0.6-0.4-1.4,0.5-1.7c0.6,0.2,0,0.9,0.6,1.1
			c1.8-0.1,2.6,1.6,4.2,2c3.6,0.5,7.1-1.1,10.7-0.6c0.5,0.1,0.8-0.5,1.1-0.5c1.5,0,2.9-1.8,4.4-0.2c2.6-0.4,5.2,0.4,7.8-0.5
			c2.2-0.8,4.7-1.5,7-0.7c1.8,0.7,3.4,0.3,4.6,0.5c2.6,1.1,4.8,2.1,7.1,2.8c3.1,1,6.5,1,9.5,2c1.7,0.6,3.4,0.6,5.1,0.6
			c0.7,0,1.5-0.2,2,0c2.3,1.2,4.6,0.8,6.8-0.1c1.3-0.5,2.7-0.7,4.1-0.7c2.3,0.1,4.3-0.9,6.3-1.5c0.1-0.5-0.1-0.9,0.3-1.1
			c0.9-0.1,2.1,0.2,2.8-0.3c2-1.2,4.3-1.3,6.3-2.7c2-1.4,4.5-2,6.6-3.4c1.9-1.3,3.6,0.1,5.4,0.6c0.2,1.8,2.1,1.7,3.1,2.2
			c1.1,0.5,2.5,1.2,4,0.9c0.6-0.2,1.4-0.2,2,0c2.9,1.4,6,2.2,9.1,3c3.4,0.9,6.6,2.7,10.2,2.9c1,1.2,2.5,0.5,3.7,0.8
			c2.7,0.8,5.4,1.6,8.3,2c1.8,0.2,3.7,0.3,5.4,0.6c1,0.2,1.9,0.8,3,0.4c0-0.1,0.1-0.2,0.1-0.3c4.1,1.4,8.2,2.7,12.5,3.4
			c13.2,2.4,26.9,1.9,39.9-1.5c6.6-1.8,13.1-4.3,19.2-7.5c2.7-1.4,5.3-3,7.8-4.7c2.5-1.7,6.5-3.8,8-6.5c1.5-2.6,0.9-7.3,1-10.1
			c0.8-15.4,1.6-30.8,2.4-46.2c0.4-7.5,0.8-15,1.2-22.5C355.5,186.7,356,182.8,355.9,179z"/>
	</g>
	<g class="st4">
		<g>
			<path class="st6" d="M270.8,293.3c-0.6,0.1-1,1.2-1.9,0.4c-0.5-0.9,0.3-2-0.6-2.9c-2-1.2-4-2.5-5.1-4.9c-0.5-1.2-1.9-1.7-3.4-1.9
				c-2.8-0.3-2.9-0.8-6-2.9c-2.2-1.4-3.5-3.5-5.5-4.9c-2.2-1.5-4-3.3-5.9-5.1c-1.9-1.8-3.1-3.8-2.6-6.2c1.7-3.5,3.7-6.3,6.2-8.8
				c0.8-0.8,1.1-1.8,1.4-2.8c0.1-0.2,0.3-0.3,0.6-0.5c0.4,0,0.9,0,1.5,0c0.7-3.1,2.9-5.4,4.3-8.1c1.1-2.1,3.3-3.6,6.2-3.3
				c0.5,0.1,1,0,1.6,0c1.2-2.3,3.7-3.4,5.2-5.4c1.7-2.2,4.3-3.3,6.1-5.3c0.3,0,0.7,0.1,0.8,0c3.4-2.6,7.3-4.5,11-6.9
				c3.6,1.6,7.6,1.1,11.3,0.7c2.8-0.3,5.7-0.9,8.5-1.2c3.5-0.4,7-0.8,10-2.5c1.1-0.6,2.1-0.6,3.2-0.7c0.7-0.7,1.4-1.4,2.2-2.2
				c0.4,0,0.9,0,1.6,0c0.7-0.8,1.4-1.7,1.8-2.2c1.1-0.3,1.7-0.2,2.3-0.4c2-0.8,2.7-2.7,4-4c1.1-1,1.1-2.4,1.9-3.5
				c0.9-1.2,1.4-2.4,1.9-3.8c0.9-2.3,0.6-4.7,1.3-7.1c0.3-1,1-1.8,0.9-3.1c-0.2-3.9-0.1-7.8-0.1-11.1c-0.9-2.4-2.8-1.1-3.9-2.1
				c0.5-1.7,2-2.4,3-3.3c1.4-1.2,1.8,0.4,2.5,0.7c2.4,0.9,5,1.9,6.9,3.6c4,3.6,8.7,6.4,12.6,10.1c1,0.9,2.1,1.6,3.9,1.4
				c0.6,0.7,1.3,1.6,2,2.5c2-0.7,3.5,0.6,5.2,0.6c1.8,0,3.5,0.9,5.2,1.2c3.8,0.7,6.9,3,10.4,4.3c3.5,1.3,6.4,3.8,9.2,6.2
				c1.4,1.2,3.3,1.8,4.3,3.6c1.1,0,2.2,0,3.3,0c0.5,0.5,0.9,1,1.3,1.5c0.6,0,1.1,0,1.7,0c0.2,0.4,0.3,0.9,0.5,1.3
				c1,0.6,2.3,0.7,3.2,1.6c3.9-0.1,7.1,2,10,4.1c1.4,1,3.1,1.3,4.5,2.1c1.5,0.8,1.7,2.8,3.5,3.5c-0.1,1.1-1,1.8-0.9,3.1
				c0.3,2.1-0.8,3.9-1.3,5.9c-0.5,1.7-0.9,3.5-1.1,5.3c-0.2,2.7-1,5.3-2.7,7.6c-1,1.4-2.3,2.6-2.6,4.6c-0.3,1.6-1.6,3.1-2.3,4.7
				c-0.4,0.8-1.1,1.4-1.5,1.8c-1.2,0-1.9,0-2.6,0c-0.5,0.3-0.3,0.7-0.4,1.1c-2.2,0.6-3.2,1.4-5,3.4c-0.5,0.6-1,1.4-1.7,1.5
				c-2.8,0.5-4.4,2.4-6.4,4.3c0.7,2.2-0.8,4.2-0.7,6.4c0,0.2,0.2,0.4,0.3,0.6c0.3,0.1,0.7,0.2,1,0.3c0.3,0.7,0.4,1.4-0.1,2.1
				c-1.1,0.3-1.6-1-2.6-0.9c-0.5-0.7,0.3-1.6-1.1-2.4c-0.8,1.1-2,2.2-3.8,1.9c0,1.7,0,3,0,4.4c-0.4,0.1-0.6,0.1-0.9,0.1
				c-0.6-0.7-0.7-1.8-1.7-2.3c-3,0-5.8,1.1-8.4,2.5c-2.7,1.5-6,1.5-8.4,3.6c-0.2,0.2-0.7,0-1.1,0c-3.3,0.4-6.6,0.7-10,0.9
				c-1.9,0.1-4,0.4-5.9,1.3c-1.5,0.7-3.2,1.1-5,0.9c-1.7-0.2-3.2,1.2-5,0.8c-0.3-0.1-0.8,0.7-1.2,0.7c-2.2-0.1-3.8,2.3-5.9,1.6
				c-1,0.6-1,1.6-1.5,2.2c-0.9,0.1-1.7-0.3-2.5,0.2c-0.2,0.4,0,1-0.6,1.3c-0.4,0-0.7,0-1.4,0c-0.9,1.4-2.9,1.9-3.8,3.8
				c-0.5,0-1,0-1.7,0c-1,2-3.3,2.5-5.1,3.7c-1.9,2.9-2.1,6.6-4,8.7c-2.3,1.6-2.7-0.7-3.8-0.9c-1.7,1.7-3.3,3.3-4.9,4.9
				c-2,0.2-3.4-1.2-4.9-1.2c-2.9-2.7-6.7-3.5-10.2-4.8c-1.9-0.7-3.5-2-5.8-2.1c-0.8-1-2.2-1.8-2.7-3.2c0.4-0.4,0.6-0.7,0.9-1
				c-2.5,0-3.8-2.5-6.1-2.7c0.2-1.1-0.5-1.5-1.1-2c-0.6-0.5-1.5,0.3-2-0.6c-0.3-1.7-0.3-1.7-2.3-3.4c-0.5,0-1,0-1.4,0
				C270.9,294.3,271.4,293.7,270.8,293.3z M394.1,273.4c-0.4,0.2-0.4,0.5,0,0.7C394.5,273.9,394.5,273.7,394.1,273.4z"/>
			<path class="st7" d="M312.7,214.1c2-0.5,3.8-1.8,6.1-1.6c0.6-0.9,1.9-1.3,1.9-2.8c-1.5-0.7-3.5,0.5-4.8-1.5
				c-0.7,2.3-2.5,3.3-3.6,4.8C312.2,213.4,312.3,213.8,312.7,214.1z"/>
			<path class="st7" d="M399.3,274c1.9,0.8,3.2-0.8,4.8-0.6c0.5-0.9,0.3-1.9,0.2-2.7c-0.8-1.1-2.1-1.3-3.2-1.9c-0.5,1-0.9,2-1.9,2.6
				C399.1,272.3,398.8,273.3,399.3,274z"/>
			<path class="st7" d="M271.1,294.7c-0.4-0.1-0.6,0.1-0.7,0.5c0,0.1,0.2,0.2,0.2,0.2C271,295.3,271.2,295.1,271.1,294.7z"/>
		</g>
		<g>
			<path class="st8" d="M235.6,107.4c3.1,2.5,6.3,4.4,8.8,7.1c1.3,1.4,2.1,3,3.4,4.3c1.4,1.3,3,2.4,4.2,3.9c0.9,1,2.3,2,3.4,1.3
				c1.4-0.9,2.6-0.4,3.8-0.6c0.8,0.7,1.4,1.4,2.4,1.7c2,0.7,3.8,1.9,5.6,3.1c2,1.4,4.6,1.9,6.5,3.5c1.4-0.4,2.1,0.5,2.8,1.4
				c0.9,1.1,2.1,1.7,3.7,2.5c0.9,0,2.3,0,3.6,0c1.2,0.6,0.8,1.6,0.9,2.7c0.7,0.6,1.6,1.3,2.3,2c0,1,0,1.8,0,2.5
				c2.5,2.3,4.1,4.9,3.8,8c1.8,3.1,3.1,6,3,9.4c-5.7,5.8-7,7.9-11.4,16.6c-0.9,1.8-1.5,3.8-2.8,5.3c-2.7,3-3.6,7.1-7.1,9.8
				c-0.4,0-1.3,0.1-2.1,0c-2.2-0.5-4.3,0.6-5.7,1.7c-1.2,0.9-2.6,1.7-3.8,1.9c-2.7,0.5-5.1,2-7.7,2.7c-1.6,0.4-3.5,1.1-4.5,2.9
				c-0.9,0-1.7,0-2.6,0c-0.5,0.5-0.9,1-1.4,1.5c-1.9-0.7-3.9,0-5.3,0.9c-2.3,1.4-4.9,1.9-7.1,3.2c-1.2,0.7-2.3,0.1-3.5,0.9
				c-1.8,1.3-4.2,1.3-6.1,2.8c-3.8-2-7.5-3.6-11.7-3.3c-4.1,0.3-8.3-0.7-12.1,1.4c-0.4-0.5-0.1-1.1-1-1.6
				c-8.4,1.4-17.1,2.6-25.5,5.5c-1.7-1.7-3.3-3.3-4.9-4.9c-1.7-1.7-3.3-3.5-5.1-5.1c-1.7-1.4-3-3.1-4.5-4.6c-1.7-1.7-3.1-4-5.2-5
				c-2.3-1.1-2.5-3.5-4.4-4.8c-2-1.3-3.5-3.3-5.1-5.1c-1.5-1.7-4-2.3-5-4.3c-1.1-2.2-3.1-3.5-4.5-5.2c-1.3-0.2-2.4,0.2-3.4-0.3
				c-0.1-0.5-0.2-0.8-0.3-1.3c-1.2,0-2.3,0-3,0c-1.7-1-2.1-2.4-3-3.8c0-1.1,0-2.4,0-3.7c-1.3-0.3-3.2,0.5-3.7-1.6
				c0.3-1.8,2.1-1.2,3.2-2c0-2.4,0-4.8,0-7c1.3-0.6,2.6,0.2,3.8-0.6c1-0.7,2.4-0.9,3.6-1.4c-0.2-1.8,1.8-1.2,2.4-2.3
				c0.7-1.2,1.9-2,3-3.1c0-1,0-2.1,0-3.1c0.8-0.5,1.7,0.2,2.2-0.6c0.5-0.7,1.6-0.2,1.9-1.2c1.1,0,2.2,0,3.1,0
				c2.1-1.9,6.9-2.9,7.9-1.9c0.1,0.4,0.2,0.7,0.3,1.3c4.1-0.4,8.2,0.7,12.3-1c0.5,0.7,0.9,1.3,1.1,1.6c1.8,0,3.1,0,4.4,0
				c0.5-1.3-0.2-2.6,0.5-3.7c1.6,0,3.1,0,4.9,0c0.4-0.5,0.8-1,1.2-1.6c2.1,0.4,3.7-0.9,5.6-0.8c2.4,0.1,4.8,0,7.3-0.5
				c3.4-0.7,6.8-1.4,10.1-2.4c3.1-1,6.2-1.9,8.2-4.5c0.7-0.2,1.4,0.2,1.9-0.4c1-1.3,2.6-1.9,3.8-2.9c1.4-1.1,2.6-2.2,3.9-3.3
				c1.2-0.9,2.2-2,3.2-3.2c0.6-0.8,1.3-1.8,2.2-2.1c1.6-0.5,2.2-1.8,3-3.6c0-0.5,0-1.6,0-2.9C228.8,108.3,232.2,107.1,235.6,107.4z
				 M144,145.9c-0.4-1.3-0.8-2.6-2-3.5c-1.1,1.6,0.6,2.5,0.8,4C143.4,146.1,143.6,146.1,144,145.9z"/>
		</g>
		<g>
			<path class="st0" d="M482.1,264.4c-1-0.8-35.8,37.8-37,38c-1.4,1.4-2.7,2.7-4,4c-2.2,2.3-5,3.9-7.4,6c-2.5,2.2-5.6,3.9-7.5,6.7
				c-0.6,0-1.1,0-1.6,0c-1.2,1.1-2.1,2.5-3.8,2.9c-2.3,1-4.4-1.4-7.4-0.1c-3.1,2.7-5.2,6.9-7.8,10.8c-3.4,5.2-5.1,11.1-7.3,16.8
				c-0.5,1.2-0.6,2.5-1.6,3.5c0,0.7,0,1.5,0,2.3c3.4,2.7,6.8,5.5,10.6,8c0.4,0,1,0,1.6,0c2.1-0.8,2.1-3.6,4.2-4.4
				c0.1,1.1,1.7,1.8,0.9,3.3c1,0.9,1.8,2.3,2.8,2.5c1.5,0.3,1.3,1.6,2,2.3c1.5,1.3,3.4,1.7,4.9,3.1c1.3,1.3,3.2,2,4.9,2.7
				c1.3,0.6,2.5,1.4,3.1,2.5c1.3,2.2,3.4,3.6,4.9,5.6c1.7,2.3,19.8,15.8,22.5,15.2c30.7-6.7,113.6-97.4,114.4-97.2
				C531.8,287,506.2,274.1,482.1,264.4z"/>
		</g>
		<g>
			<path class="st9" d="M35,0c0,0.1,0,0.3,0,0.4C29.4,2.9,24.9,7,20.5,11.1c-0.8,0.7-1.5,1.6-1.9,2.6c-1.2,3.1-3.7,5.5-4.9,10.4
				c0,2.9,0.1,7.6,0,12.3c0,1.3,0.4,2.4,0.9,3.5c1.8,3.7,3.5,7.5,5.6,11c2.4,4,5.1,7.8,7.8,11.6c2.4,3.5,5.3,6.8,7.2,10.7
				c1.5,3.2,3.1,6.3,5.1,9.3c1.2,1.8,1.7,4.1,2.5,6.2c1,2.8,2.6,5.3,4.6,7.6c0.8,0.9,2,1,2.7,1.8c2.2,0,4.3-0.1,6.5,0
				c2,0.1,3.7-1.4,5.4-0.8c3.6-1.5,6.2-4.2,9.9-4.5c3.2-2.7,7.6-1.9,11-3.8c0.2-0.1,0.5,0,0.8,0c3.3,0.5,6.3-1.1,9.6-0.8
				c1.4,0.1,2.7-1,4.3-0.8c1.7,0.3,3.2,1.1,5,0.9c1.7-0.2,3.5-0.5,5,0.7c0.2,0.2,0.7,0,1.1,0c1.5,0.2,3-0.5,4.4,0.5
				c1.2,0.9,3.1-0.5,4.1,1.1c0,0.1,0.2,0,0.4,0c2.8-0.6,5.3,1,8,0.8c1.1,1.1,2.5,1.2,3.9,1.7c8.2,2.7,12.1,3.4,19.4,2.8
				c1.6-0.1,3-0.9,4.6-0.8c1.6,0.1,3.4-0.3,4.9-0.9c1.5-0.5,3.2-0.7,4.3-1.5c2-1.3,4.4-1.8,6.2-3.6c1.4-1.4,3.2-2,4.8-3
				c3.7-2.3,5.1-5.7,5.5-9.6c0.3-3.8,0.1-7.6,0.1-11c-1.7-3.2-4.2-5.3-6.4-7.6c-2.1-2.3-4.8-3.7-7.3-5.3c-1.2-0.8-2.6-1.3-3.5-2.5
				c-0.8-1.1-2.2-0.7-3.2-1.5c-4.2-3.3-8.5-6.4-12.7-9.7c-2.9-2.3-5.4-4.8-7.9-7.4c-1-1-2.5-1.3-3.1-2.8c-0.6-1.4-2.2-1.8-3.3-2.8
				c-1.8-1.6-3.3-3.3-4.6-5.3c-1.2-1.9-3.2-3-4.4-5c-1-1.9-2.8-3.4-4.3-5c-2.7-2.8-4.9-6-7.7-8.7c0-0.6,0-1.3,0-1.9
				C85.3,0,60.2,0,35,0z"/>
		</g>
		<g>
			<path class="st10" d="M533.5,238.5c-1.8,0.1-88.2-40.8-89.4-41.7c-3.1-2.4-6.7-3.5-9.9-5.6c-4.3-2.8-9-4.8-13.3-7.4
				c-4-2.5-8.5-4.1-12.6-6.4c-6.3-3.5-12.8-6.5-19.1-9.9c-4.9-2.6-9.8-5.1-14.7-7.7c-4.3-2.3-8.6-4.5-12.7-7
				c-3.6-2.1-7.6-3.8-11.2-5.9c-4.4-2.5-9.2-4.4-13.3-7.4c-1.2-0.9-2.9-1.1-4.1-2c-5.9-3.8-12.5-6.2-18.2-10.3
				c-2.1-1.5-4.9-2.3-7.1-3.9c-1.1-0.8-2.3-0.8-3.4-0.7c-0.7-0.8-0.8-1.8-2-2.4c-2-1-4.3-1.4-6-2.9c-1.9-1.8-4.3-2.6-6.4-3.9
				c-2.1-1.3-4.3-2.5-6.4-3.8c-5-3.2-10.5-5.7-15.2-9.3c-0.7-0.5-1.4-1-2.1-1.3c-3.7-1.4-6.8-3.8-10.2-5.8c-1.9-1.2-3.8-2.4-5.8-3.5
				c-2.7-1.4-5-3.4-7.4-5.1c-2.7-1.8-5.3-3.7-8-5.5c-0.2-0.1-0.6-0.1-0.7-0.2c-1-1.4-2.5-1.9-3.7-3c-4.1-3.6-8.7-6.6-12.9-10.1
				c-2.9-2.4-6.1-4.6-9-7c-3.2-2.7-6.5-5.4-10.1-7.8c-0.6-0.4-1.3-0.7-1.7-1.2c-1.5-1.9-3.5-3.2-5.4-4.4c-2.3-1.5-4.1-3.5-6.2-5.1
				c-2.5-2-4.9-4.2-7.4-6.2c-3.1-2.5-5.7-5.6-8.8-8.1c-2.6-2-4.6-4.5-7.2-6.5c-3.2-2.4-5.7-5.7-8.9-8.1c-4.1-3.1-7.4-7.1-11.2-10.6
				c-0.3-0.2-0.7-0.4-0.5-0.9c-7.6,0-15.2,0-22.8,0c0,0.6,0,1.3,0,1.9c2.3,2.3,4.7,4.6,7,7c1.6,1.7,3.9,2.6,5.3,4.6
				c1.9,2.7,4.7,4.5,7,6.9c2.3,2.5,4.6,5.1,7.3,7.2c6.1,4.8,11.5,10.3,17.2,15.6c3.5,3.3,7.1,6.6,11,9.3c4.3,3.1,7.9,7,12.1,10.1
				c3.4,2.5,7.1,4.7,10.1,7.8c0.5,0.5,1.3,1,1.5,1.7c0.7,2.9,3.1,4.2,5.2,5.8c3.6,2.6,7.2,5.2,10.9,7.8c3.7,2.6,7.4,5.2,11.4,7.3
				c2.2,1.1,4.2,2.7,6.2,4.3c1.5,1.2,3.1,2.3,4.7,3.3c2.5,1.6,4.9,3.4,6.7,5.9c0.5,0,1,0.1,1.5,0.1c5.4,3.7,10.2,8.2,15.7,11.7
				c2.9,1.9,5.5,4.3,8.5,6.1c6.1,3.7,11.7,8,17.4,12.2c4,2.9,8.3,5.2,12.4,8c1.8,1.3,3.1,3.1,5.1,4.1c1.2,0.6,2.3,1.2,3.9,1.6
				c2,1.8,4.5,3.5,7,5.2c2.5,1.6,5.2,2.9,7.6,4.5c2.5,1.7,4.8,3.7,7.3,5.3c1.4,0.8,2.4,2.6,4.4,2.3c2.9,2.8,6.4,4.7,9.7,6.8
				c2.7,1.7,5.3,3.5,8.2,5.1c2.7,1.5,5.4,3.2,7.8,5.1c1.8,1.4,3.9,2.4,5.5,4.3c1.9-0.4,2.9,1.3,4.3,2.1c2.3,1.4,4.7,2.8,7.1,4.1
				c2.3,1.2,4.5,2.7,6.6,4.2c4.2,2.8,8.7,5.3,13,8c3.4,2.1,6.8,4.3,10.5,6c1.2,0.6,1.8,1.7,2.8,2.3c0.6,0.1,1.3-0.2,1.8,0.4
				c2.2,2.1,5.1,3.1,7.6,4.6c4.8,3,10.1,5.1,14.8,8.5c2.2,1.6,4.7,3.2,7.4,4.1c1.2,0.4,2.2,1.5,3.3,2c1.1,0.5,2.3,0.7,3,1.7
				c1,0,85.6,42.1,86.4,42.1C532.3,266.3,533.5,251.2,533.5,238.5z"/>
		</g>
		<g>
			<path class="st11" d="M64,0c0.1,0.5-0.2,0.7-0.6,0.7c-1.6,0-3.3,0-4.9,0c-2.1,0-4.1,0-6.2,0.6c-1.4,0.4-2.9,1.3-4.6,0.9
				C46,1.9,44.6,2.9,43,3.2c-3.3,0.5-6.3,2-8.9,4.2c-4.3,3.6-7.3,8.3-10.4,12.8c-0.5,0.7-0.9,1.4-1.4,2c-0.5,0.6-1.1,1.1-1.6,1.6
				c-2.7,2.8-2.9,3.7-1.3,7.3c0.7,1.6,1.8,3.1,2.4,4.7c1.9,5.1,5.2,9.5,7.2,14.5c0.4,1,0.7,2.1,1.7,2.7c0.4,0.3,0.4,1,0.6,1.3
				c1.3,1.5,0.8,3.8,2.1,5.2c1.3,1.4,1.5,3.6,3.2,4.8c0.2,2.7,1.8,4.8,3.1,7.1c2.8,4.9,5,10.2,8.2,14.9c1.1,1.5,1.6,3.4,2.4,5.1
				c0.3,0.5,0.7,1,1,1.4c1.5,0.5,2.7-0.3,3.4-1c2.4-2.7,5.9-3.7,8.6-5.8c4-3.1,8.8-4,13.2-5.9c1.6-0.7,3.5-0.2,5.4-0.8
				c1.9-0.6,4.1,0,6.1-0.8c1.3-0.5,2.8,0.2,4.2,0.6c1.9,0.4,4,0.2,6.1,0.1c2.9-0.2,5.6,0.5,8.9,1.1c0,0,0.3,0.6,0.8,1.3
				c2.8-0.8,4.7,1.6,7.4,1.6c2.4,0.1,4.6,1.5,7,2.3c2.2,0.7,4.4,1.7,6.7,2.4c2.3,0.6,4.9,0.9,6.5,2.5c5.7,1.6,11.2,1,16.9,1.1
				c4.2-2,8.5-4,12.9-6.1c1.3-0.6,2.6-1.3,3.6-2.5c1.3-1.4,2.6-2.8,4-4c1.8-1.7,3.3-3.6,4.7-5.9c-1.3-0.9-2.1-2.1-3.6-3
				c-1.7-1-3.5-2.3-4.9-3.9c-2.4-2.7-5.3-4.7-8.1-6.9c-2.4-1.9-5-3.7-7.1-6.1c-0.5-0.6-1.1-1-0.9-1.7c-2.9-1.2-5.1-3-7.2-5
				c-3-2.8-6.1-5.3-9.3-7.9c-2-1.6-4-3.3-5.9-5c-2-1.9-3.9-4-6-5.9c-1.8-1.6-3.7-3.2-5.5-4.9c-1.2-1.1-2.5-2.1-3.3-3.5
				c-0.7-1.2-2.6-1.3-2.6-3.1c-2-1-3.7-2.6-5-4.3c-2.5-3.2-5.9-5.6-7.8-9.2c-0.4-0.7-1.1-1.4-2.1-1.1c0-0.7,0-1.1,0-1.5
				c7.1,0,14.2,0,21.3,0c1.1,1.9,2.2,3.6,4.2,4.7c1.2,0.6,2,1.9,3,2.9c2.8,2.7,5.5,5.4,8.5,7.9c2.7,2.3,5,5.2,8,7.2
				c0.9,0.6,1.6,1.5,2.4,2.3c4,4,8.8,7.3,12.9,11.2c3.6,3.4,7.4,6.6,11.2,9.6c4,3.1,7.7,6.6,12,9.4c2.2,1.4,4,3.4,5.8,5.1
				c2.7,2.5,5.8,4.4,8.1,7.2c0.4,0.4,0.9,0.8,1.4,1.1c1.9,1.1,3.7,2.4,5.2,4c1.5,1.5,3.1,2.9,4.8,4c3.1,2.1,5.8,4.5,8.5,7
				c2.4,2.2,5,4.4,7.8,6.1c1.1,0.7,2,1.5,2.8,2.3c2.7,2.7,6,4.6,8.9,7c2.5,1.9,5,3.8,7.5,5.7c4.6,3.5,9,7.4,14,10.4
				c1.4,0.9,2.8,1.9,4,3.1c2.2,2.2,4.8,3.8,7.2,5.6c2.2,1.6,4.4,3.1,6.4,4.8c1.1,1,2.6,1.6,3.9,2.5c3.6,2.4,7.1,4.9,10.6,7.5
				c1.8,1.4,3.8,2.5,5.7,3.9c1.8,1.4,3.8,2.8,5.9,3.9c2,1.1,4.1,2.1,5.7,3.7c2.9,2.9,6.7,4.4,9.8,6.9c2.1,1.7,4.6,3,6.9,4.4
				c3.3,2.1,6.9,3.9,9.9,6.4c0.6,0.5,1.4,1,2.2,1.2c2.2,0.6,4.3,1.8,5.8,3.2c2.9,2.5,6.4,3.7,9.4,5.9c2.2,1.6,5,2.3,6.6,4.6
				c0.6,0,1,0,1.5,0c1.5,1.5,3.1,2.6,5.4,3.3c2.4,0.7,4.4,2.7,6.6,4.1c0.8,0.5,1.5,1.3,2.4,1.6c1.5,0.5,2.9,1.2,3.9,2.5
				c0.5,0.7,1.3,0.7,1.9,1c4.2,2.2,8.3,4.6,12.4,6.9c2,1.1,4.2,2.1,6.2,3.4c2,1.3,4.2,2.4,6.2,3.5c2,1.1,4.1,2.3,6.2,3.4
				c2.1,1.2,4.1,2.5,6,3.8c0.5,0.3,1,0.6,1.6,0.8c1,0.3,2.3,0.3,2.6,1.8c0.1,0.6,1.2,0.8,1.8,1c6.2,2.6,11.9,6.3,17.8,9.3
				c3.2,1.6,6,3.8,9.2,5.3c0,4.1,0,8.1,0,12.2c-1.8-1.3-4.3-1.3-6-3c-2.4,0.1-3.6-1.7-5.1-3.1c-2,0.3-3.2-1.8-5.2-1.5
				c-2.6-2.4-6.7-4.3-9.6-4.4c0,1.1,0,2.2,0,3.1c-0.4,0.6-0.8,0.5-1.1,0.5c-1.3,1.4-1,3.1-1.3,4.8c-0.4,2.3-0.3,5-2.7,6.1
				c-1,1.3,0.4,1.9,0.5,3.1c-1.3,0.3-0.6,1.5-1,2.6c-0.9,0.8-1.9,1.8-2.5,2.3c-1.2,4-4.5,6-5.9,9.2c-0.6,1.4-2.4,2.3-3.7,3.5
				c-0.2,0.4,0.3,1.1-0.5,1.9c-0.9,1.4-2.8,2.3-4.1,3.9c-1.2,1.4-2.8,2.7-4.4,3.8c-2.1,1.4-3.8,3.5-6.3,4c-1.6,0.3-2.9,1.3-4.1,2.1
				c-1.1,0.8-2.3,1.3-3.5,1.8c-2.7,1.1-5.7,1.4-8.4,2.6c-4.4-0.4-8.6,1.1-13,0.8c-3.9-0.3-7.9,0-11.8-0.1c-3.1,0-6,0.8-8.9,1.6
				c-1.4,0.4-3.4,0.8-3.9,2.3c-0.6,1.8-2.1,2.4-3.3,3.1c-3.4,2-6.1,4.6-8.8,7.3c-1,1-1.9,2.2-3.4,2.8c-0.7,0.3-1.3,1-1.7,1.9
				c-0.5,1.2-1.4,2.3-2,3.4c-0.7,1.5-2.6,1.3-2.9,3c-2-0.7-3.5,0.6-5.2,0.6c-3.4,0-6.9-0.1-10.3,0c-1.3,0-2.2-0.8-3.3-1.2
				c0.2-1.5-1.6-0.8-1.9-1.8c-2.5-0.4-3.9-2.7-6.3-3.3c-0.9-0.2-0.8-1.4-1.4-2.1c-0.7-0.1-1.4,0-2.1-0.5c-3-1.8-6.5-2.9-8.4-6.2
				c-0.4-0.7-1.2-1.3-1.9-1.7c-1.9-0.8-3.4-2.2-5.1-3.3c-1.7-1.1-3.1-2.8-4.9-3.9c-1.9-1.1-2.4-3.3-4.5-4.3c-0.5,0-1.3,0-2.1,0
				c-0.9-1.5-3.5-1.5-3.7-3.7c-2.1-0.6-3.1-2.4-4.5-3.8c-2.5-2.5-5.5-4.2-8.8-5.7c0.1-1.2-1.3-1.7-1.6-2.4c0-2.6,0-4.8,0-7.4
				c2.9,0.9,3-1.5,3.6-3.1c0.8-1.8,1.1-3.9,2.4-5.8c-0.4-2.1,0.6-4.2,1.5-6.3c1.3-2.8,2.5-5.6,4.1-8.2c1.8-3,4.6-5.3,6.2-8.5
				c0.2-0.3,0.5-0.7,0.8-0.8c2.4-0.8,3.7-3.3,6.3-4.2c1.5-0.5,2.6-2.3,4.5-2.9c1.8-0.5,3.2-2,5.2-2.2c0.5,0,0.9-1.1,1.2-1.5
				c3.4,0.2,6.2-0.8,8.9-1.8c2.1-0.8,4.1-1.3,6.3-1.2c2.2,0.1,4.4-0.6,6.5-1c2.6-0.4,5.1-1.1,7.6-1.4c3.2-2.1,6.5-4,9.4-6.3
				c3-2.4,5.2-5.7,8.6-7.8c0-0.7,0-1.5,0-2c2.1-2.7,3.3-5.7,4.6-8.6c1.4-3.1,1.4-6.5,2.4-9.7c-0.6-0.6-1-1.3-1.7-1.6
				c-4.1-2.4-8.1-4.8-12.2-7.2c-2-1.1-4.1-2-5.7-3.8c-0.6-0.7-1.5-1.1-2.4-1.5c-1.1-0.5-2.1-1-3.1-1.7c-1.5-1.1-3.5-1.8-4.8-3
				c-1.5-1.4-3.5-1.6-5.3-3.9c0.4,2.7-1.1,3.9-1.5,5.5c-1.1,4.6-3.4,8.7-5.1,13.1c-1.5,3.9-3.9,7.3-6.3,10.7
				c-2.8,4.1-5.7,8.4-9.8,11.5c-2.2,1.7-3.6,4.4-6.6,5.1c-0.4,0.1-0.9,0.6-1.1,1.1c-1.2,2.5-3.5,3.3-5.8,4.2
				c-3.1,1.2-6.5,1.2-9.7,2.2c-1.5,0.5-3.3,0.3-4.9,0c-1.7-0.2-3,0.9-4.6,0.9c-1.4,0-2.5-0.9-3.9-0.9c-2,0.1-4.1,0.1-6.1,0
				c-1.8-0.1-3.6,0-5.4-0.6c-1.8-0.6-3.8-0.6-5.7-0.8c-3.8-0.4-7.7,0-11.5-0.8c-4.1-0.9-8.1,1-12.2,0.7c-0.2,0-0.5,0.1-0.7,0.2
				c-2.8,0.9-5.6,1.5-8.6,1.4c-0.2,0-0.4,0.2-0.7,0.2c-0.6,0.5-1,1.1-1.1,1.8c-2.4,0.7-4.2,2.9-6.8,2.5c-1-0.4-1.2-1.5-2.5-1.6
				c-0.9-0.8-1.3,1.3-2.5,0.8c-3.5-1.6-6.8-3.9-11-4c-0.3-1.7-1.8-2.1-2.8-3.1c-0.8-0.8-1.9-1-2.7-1.9c-1.3-1.6-3.1-2.6-5-3.5
				c-2.5-1.2-4.2-3.2-5.5-5.7c-0.1-0.3-0.1-0.7-0.4-1c-0.5,0-1,0-1.5,0c-1.2-1-1.5-2.4-2.2-3.7c-1.8,0.1-2.1-2.5-3.9-2.4
				c-0.2-1.7-2.2-2.3-2.7-3.8c-1.1-3.4-3.7-5.7-6.3-8c-1.8-1.7-3.2-3.7-4.2-5.9c-0.3-0.7-0.6-1.3-1.1-1.8c-4.2-0.8-7.2-3.5-10.5-5.8
				c0-1.1,0-2.1,0-2.7c0.9-1.9,1.6-3.4,2.3-4.9c1.1-2.5,3.5-4.1,4.7-6.4c0.6-1.1,1.6-0.9,2.6-1.1c0.3-0.1,0.7-0.5,0.8-0.8
				c1.4-3.2,4.3-5,7.1-6.6c0.9-0.5,0.2-1.9,1.5-1.6c1.8,0.3,2.1-1.3,2.7-2.3c0.7-0.1,1.4,0.3,1.8-0.4c0.9-1.5,2.6-1.5,3.8-1.7
				c1.5-0.3,2.9-1.2,4.6-1c1.4,0.2,2.7-1.1,4.3-0.7c1.6,0.4,3.1-0.6,4.6-0.7c2.8-0.1,5.6-1.4,8.4-0.8c0.9,0.2,1.1-1.1,2-0.8
				c1.8,0.9,2.6,1,4.1,0.5c2.3-0.7,4.6-1.4,7.1-1.3c1,0,2.1-0.1,3.2-0.4c2-0.5,3.9-1.4,6.1-1.1c1.5,0.2,2.9-0.3,4-1.5
				c2.3,0.2,4.7,0.2,6.4-1.8c0.2-0.2,0.4-0.4,0.6-0.4c3.1-0.4,5.2-2.8,7.8-4.1c1.3-0.6,2.1-1.8,3.2-2.4c1.2-0.6,1.9-1.8,3.1-2.5
				c1.1-0.6,1.7-2,2.8-2.6c1.2-0.7,2-1.7,2.5-2.7c0.8-1.4,2-2.5,3-3.7c-0.5-1.8,1.3-2.8,1.4-4.4c-1.7-2.4-4.2-3.9-6.4-5.6
				c-3-2.2-5.9-4.6-8.9-6.9c-3.1-2.4-6.3-4.7-9.1-7.4c-0.8-0.8-2-1.4-3.1-1.2c-1.8,2.4-3.3,4.8-5.3,6.8c-0.8,0.8-0.7,2.2-2.3,2.5
				c-1,0.2-1.9,1.6-2.8,2.4c-1.4,1.2-2.7,2.4-4.2,3.6c-1.5,1.2-3.6,1.4-4.8,3.1c-1.9-0.3-3.1,1.8-5.1,1.5c-1.8,1.5-4,0.1-5.7,0.9
				c-1.8,0.7-3.7,1-5.4,0.6c-2.7-0.7-5.4-0.3-8.1-0.8c-2.1-0.4-4.5-0.6-6.1-2.1c-1.2-0.1-2.4,0.2-3.1-0.3c-2.4-1.6-5.3-1.9-7.9-3.1
				c-2.4-1.1-5.1-1.9-7.6-2.8c-6-2.2-12.2-3.7-18.6-3.7c-1,0-1.4-1.2-2.3-0.8c-0.2,0.2-0.3,0.5-0.6,0.5c-3.1,0.6-6.3,0.1-9.4,0.3
				c-0.5-0.5-0.9-1-2.2-0.6c-1.5,0.8-3.4,2.2-5.5,2.8c-2.1,0.5-3.9,1.8-5.9,2.3c-3.5,0.8-5.2,4.6-8.9,5.1c-0.1,0-0.2,0.2-0.3,0.3
				c-0.7,0.5-0.5,1.6-1.3,2.1c-0.8,0.6-2.1-0.2-2.7,1c-0.1,0.2-0.8,0-1.1,0.6c-1.1,1.8-3,2.4-4.8,3.5c-1.7-1.4-3.7-0.9-5.1-1
				c-3.1-1.8-5.5-3.6-8.2-4.7c-3-1.4-4.1-4.7-6.9-6.4c0-0.7-0.1-1.5-0.1-2.4c-0.2-1.3-1.7-0.6-2.4-1.6c1.3-1.8-0.6-2.8-1.4-4.1
				c-2.5-3.8-3.9-8.2-6.7-11.7c-0.3-0.4-0.1-1.2-0.2-1.9c-1.2,0-1.8-0.6-2.2-1.6c-1.3-3.1-3-6.1-4.5-9.2c-0.8-1.5-1.6-3-1.5-4.7
				c0.1-1.1-0.7-1.8-1-2.6c-1.3-3-2.9-5.9-4.3-8.9c-0.3-0.6-0.6-1.3-1-1.9c-2.7-3.3-2.8-3.3-2.9-6.9c-2-0.8-1.4-3.7-3.7-4.4
				C4.9,34,3.9,32,2.6,30.5c-1.4-1.6-1.6-3.7-2.6-5.4c3.2-4.9,5.6-10.4,10.5-13.7c0.2-1.7,0.3-3.5,1.7-4c2.7-1.1,3-3.5,4-5.6
				c1-0.3,1.8-0.6,2.1-1.7C33.5,0,48.7,0,64,0z M265.9,277.2c0.7,0,1.2,0,1.8,0c1.3,2.5,4.8,2.9,5.9,5.9c2.1,0.9,4,2.2,6,3.6
				c2.4,1.6,3.9,4.5,7,5c1.8,2.8,5.1,3.8,7.5,5.8c2.6,2.2,5.3,4.4,8.1,5.6c1.6,0,2.3-0.9,2.5-1.5c0.9-2.2,3.2-3.3,4.2-5.5
				c0.6-1.2,2-2.1,3.3-2.8c1.6-0.8,2.1-2.8,3.7-3.7c3-1.7,5.7-3.9,9-5c4.1-1.3,8-3.3,12.5-2.8c3.9,0.4,7.6-1.1,11.5-0.8
				c3.9,0.3,7.9,0,11.8,0.1c1.2,0,1.9-1,3.1-0.8c1.1,0.2,2.3,0,3.5,0c0.5-1.3,1.9-1.9,2.9-2.1c3.4-0.8,6.2-2.9,9.3-4.2
				c1.1-0.4,2.6-0.8,2.7-2.6c0.1-1.1,1.6-0.9,2.3-1.6c3.8-3.8,7.8-7.5,11-11.8c1.7-2.4,3.4-4.9,4.5-7.6c0.8-2,2.4-3.5,2.9-5.7
				c0.4-1.9,1.5-3.7,2.4-5.5c0.8-1.5,0.3-3.3,1-4.9c1.1-2.3,1.1-5,0.8-7.8c-2.2-1.2-4.5-2.8-7-3.8c-2.3-0.9-4.2-2.5-6.6-3.4
				c-2.2-0.8-4.1-2.3-6.2-3.4c-2.2-1.2-4.3-2.4-6.6-3.3c-0.8-0.3-1.1-1.1-1.8-1.2c-1.3-0.2-1.3-2.1-3-2c-1.2,0.1-2.3-1.1-3.5-1.5
				c-2.2-0.8-4.4-1.8-6.2-3.3c-1.3-1.2-2.8-2-4.3-2.5c-3.8-1.3-6.8-4.2-10.7-5.5c-1.1-1.6-2.9-2.2-4.3-3.4c-1-0.8-2.8-0.2-3.3-3
				c-1.1,4-1.8,7-2.8,9.9c-1,2.9-2.5,5.6-4,8.2c-2.1,2.4-4,5.2-6,7.8c-1.6,2-3.8,3.4-5.9,4.9c-4.4,3.2-9.8,4.6-14.7,6.7
				c-0.2,0.1-0.5,0.2-0.7,0.1c-3.1-0.4-6.1,1-9.2,0.9c-3.3-0.1-6.5,1.3-9.6,2.5c-3.6,1.3-13.2,5.8-15.6,8.2
				c-2.9,2.8-5.9,5.5-8.2,9.1c-2.6,4-4.2,8.6-7.2,12.3c-0.5,2.7-2.2,4.9-3.3,7.4c-0.2,0.5,0,1.3,0,2
				C259.4,272.9,264,273.4,265.9,277.2z M237.6,201.9c1.6-1.3,3.6-2.1,4.9-3.9c3.6,0.4,5.8-2.9,9.3-3.1c1.2-1.8,3.3-2.7,5-4.1
				c0.9-0.8,1.2-2.1,2.3-2.4c1.3-0.4,1.9-1.2,2.4-2.4c0.5-1.2,2.2-1.1,2.9-2.5c0.7-1.3,1.7-2.6,2.6-3.8c2.3-2.8,3.9-6,5.5-9.2
				c1.6-3.3,3.6-6.6,4.1-10.5c0.1-1,0.4-2.3,1.2-3.3c0.6-0.8,0.8-2,1-3c0.2-1.1,0-2.2,0-3.2c-2.2-1.4-4.2-2.6-6.2-4
				c-3.1-2.2-6-4.5-9-6.7c-4.8-3.4-9.6-7-14.3-10.4c-5.2-3.8-10.3-7.7-15.4-11.6c-0.9-0.7-1.9-1.5-3.5-1.2
				c-2.6,6.3-7.1,11.3-12.2,16c-4.4,4.1-9.7,6.8-15.2,9.2c-4.4,1.9-9,2.8-13.4,4.3c-0.3,0.1-0.7,0.3-1,0.2c-2.8-0.5-5.3,1.2-8.1,0.8
				c-0.4,0-0.8,0.5-1.2,0.8c-1-0.4-2-1.3-3-0.7c-1.8,0.9-3.7,0.3-5.4,0.8c-1.7,0.6-3.5,0.2-5,0.7c-2.4,0.8-4.9,0.5-7.3,0.7
				c-1.7,0.2-3.3,1.1-5,0.7c-1.7-0.4-3,1.1-4.6,0.8c-3.7,2-8.5,2.1-11.2,6c-0.5,0.7-1.2,1.5-2.3,1.7c-0.8,0.2-1.3,1.5-2.4,1.5
				c-0.3,1.4-1.9,2.1-2.3,3.2c-0.5,1.4-1.8,2-2.5,3.3c-0.3,1.3,2.1,1.4,1.5,2.9c1.2,0.8,2.8-0.4,3.5,1.1c0.6,1.2,2,0.4,2.9,1.3
				c0.8,0.8,2.1,1,3.4,1.6c-0.3,2.2,1.3,3.6,2.5,4.9c2.7,3,5,6.4,7.6,9.5c3.5,4.3,7.5,8.1,11.5,11.9c1.7,1.7,3.7,3.2,5.5,4.9
				c0.2,0.2,0.7,0.1,1.4,0.1c3.4-3.8,8.6-4.3,13.2-6.1c2.9-1.1,6-1.7,9.2-1.6c1.1,0,2.3,0.1,3.4,0c5.4-0.5,10.7,0.4,16,0.9
				c4.9,0.4,9.7,1.6,14.6,1.4c3.2,1.5,6.6,0.4,10,0.9C235.1,201.2,236.1,201.7,237.6,201.9z"/>
			<path class="st11" d="M125.6,0c2.6,2.2,5.1,4.4,7.7,6.6c3.3,2.7,6.7,5.3,10.1,7.8c3,2.2,6.2,4.3,9,6.7c1.3,1.1,3,1.7,3.8,3.1
				c1.4,0.8,2.1-0.8,3.3-0.6c0.8,0.8,0,1.7,0.6,2.6c6.9,6,14.6,11.2,22.1,16.9c0.5,0.6,1.1,0.2,1.8,0.4c4.1,4.8,9.7,7.7,14.7,11.4
				c3.2,2.4,6.4,4.7,9.7,6.9c4.7,3,8.8,6.7,13.5,9.7c1.7,1.1,3.2,2.4,5.1,3.2c1.7,0.8,2.7,2.9,4.8,3c1.3,2.4,4.1,3.1,5.9,5
				c2,2.1,4.6,3.4,7.1,4.9c2.5,1.6,5.3,3,7.4,5.1c2.7,2.6,6.1,3.9,8.9,6.2c1,0.9,2.1,2,3.6,2.4c1,0,2,0,3.1,0
				c0.4,0.9,0.9,1.9,1.3,2.9c1.5,0.3,2.6,1.6,3.8,2.5c3.6,2.6,7.1,5.3,11.1,7.1c1.7,0.8,2.9,2.2,4.4,3.2c1.3,0.8,2.4,1.1,3.6,1.1
				c1.4,0.7,1.1,2.6,2.7,3.1c1.2,0.4,2.3,1.2,3.4,2c5.6,4,11.6,7.6,17.4,11.2c5.2,3.2,10.5,6.5,15.7,9.7c4,2.4,8.5,3.9,11.8,7.4
				c3.5,1.1,6.1,3.6,9.2,5.4c5,3,10.1,5.6,15,8.8c3.2,2.1,6.7,4,10.3,5.6c1.7,0.7,3,1.9,4.6,2.7c0.7,0.3,1.4,0.5,2.1,0.5
				c2.5,2.7,5.9,4,9.2,5.3c1.2,0.5,2.5,0.6,2.9,2.3c1.3,0,2.7,0,3.9,0c0.8,0.6,0.2,1.3,0.6,2.1c2.4,1,4.9,2.4,7.1,4.1
				c0.4,0.3,0.8,0.5,1.2,0.7c3.2,1.7,6.8,2.7,9.8,4.9c3.1,0.3,4.9,3.3,8.1,3.5c1.5,1.7,3.6,2.2,5.5,3.2c3.6,1.8,7.1,3.6,10.6,5.7
				c1.6,1,3.4,2.2,5.5,2.4c0-5.1,0-10.2,0-15.2c-4.6-1.7-8.5-4.6-12.7-6.9c-1.9-1-4.1-1.4-5.7-2.8c-1.7-1.5-3.7-2.1-5.6-3.1
				c-4.7-2.7-9.7-5-14.2-8.1c-1-0.7-2.3-1.3-3.4-1.8c-3.3-1.4-6.1-3.7-9.4-5c-4.6-1.8-8.9-4.4-13.2-6.7c-3.4-1.8-7.4-3.2-9.7-6.3
				c-0.8-0.7-1.7-0.2-2.5-0.9c-3.7-3.3-8-5.7-12.1-8.4c-4.8-3.2-10.2-5.2-14.5-9.1c-5.3-2.1-9.3-6-14.3-8.7
				c-4.7-2.5-9.1-5.6-13.6-8.6c-5.7-3.7-11.5-7.3-17-11.2c-2.2-1.5-4.5-2.9-6.5-4.6c-2-1.7-4.4-2.8-6.6-4.3
				c-5.3-3.7-10.9-7-16.1-10.8c-2-1.5-4.2-2.7-6.9-3.2c-0.4-1.4-1.5-2.7-2.8-3.4c-3.8-2.1-7.2-4.8-10.6-7.3c-5-3.6-10.2-6.9-15-10.8
				c-4.8-3.8-9.9-7.1-15.1-10.3c-1.2-0.8-1.8-2.5-3.6-2.4c-3-3.3-7-5.3-10.4-8c-2.7-2.2-5.6-4.2-8.4-6.2c-1.7,0.4-2.3-1.2-3.3-1.9
				c-1.2-1-2.4-2.1-3.8-2.8c-1.2-0.6-2-1.7-3.1-2.5c-2.2-1.5-4.3-3.1-6.5-4.5c-2.4-1.6-4.7-3.4-7-5.2c-2.1-1.7-4.6-2.7-6.6-4.5
				c-0.7-0.6-1.5-1.2-2.2-1.9c-0.6-0.6-1.5-0.6-2.2-1.3c-2-2.3-4.7-3.9-7.2-5.6C155,3,153.5,1.8,152.3,0C143.4,0,134.5,0,125.6,0z"
				/>
			<path class="st11" d="M448.6,287.9c-1-0.3-1.8,0.3-2.2,1.1c-2.1,4-5.3,6.7-9,9.1c-1.4,0.9-2.7,2-4.1,2.9c-3,2-6.5,2.8-9.6,4.5
				c-1.9,1-3.9,1.6-5.7,2.7c-1.8,1.1-3.7,2-5.5,3.3c-3.6,2.5-6.6,5.8-9.6,8.8c-0.7,0.7-1.4,1.4-2.2,2.2c0.4,1.4-1.3,2.4-0.8,3.9
				c-1.5,1-3.5,1.2-4.3,3.4c-0.4,1.1-1.7,1.8-2.6,2.7c0,0.5,0.2,1.3,0,1.5c-2,1.7-3,4-4,6.3c-0.2,0.4-0.7,0.7-1.1,1.1
				c-0.9,3.9-1.3,7.8-0.9,11.6c1.7,1.1,3.3,2,4.8,3.3c1.7,1.6,3.3,3.5,5.4,4.5c2.2,1,3,3.7,5.5,4.2c0.5,0.1,0.9,0.8,1.4,1.3
				c2.9,3,6.2,5.6,9.6,8.1c1.8,1.4,3.4,3.1,4.8,4.8c1.5,1.7,3.7,2.5,5.1,4.3c0.4,0.5,0.9,0.3,1.4,0.4c0.9,0.3,1.9,0.6,2.5,1.2
				c2.8,3,6.6,4.5,9.6,7.1c1.2,1,2.4,2,3.8,3.1c1.2,0,2.6,0.1,4,0c1.4-0.1,2.5,1.2,3.9,0.8c0-3.8,0-7.6,0-11.4
				c-4.7-2.4-8.2-6.4-12.5-9.2c-1.5-0.9-2.7-2.3-3.7-3.8c-1-1.4-3-1.3-3.5-3c-0.5-1.9-2.7-1.9-3.8-3.3c-1.9-2.4-4.6-4.1-7-5.9
				c-0.8-0.6-0.6-1.9-1.7-2.2c-2.9-0.7-4.4-3-6.3-4.9c-1.6-1.5-3.9-2.1-4.8-4.6c0.7-2.9,2.9-5,4.5-7.5c0.9-1.3,1.9-2.5,2.8-3.8
				c0.9-1.5,2.6-2.5,3.2-4c0.6-1.5,2.8-1.4,2.8-3.4c0-0.3,0.7-0.8,1.1-0.9c1-0.2,1.4-0.8,1.7-1.6c0.4-1,1.3-1.7,2.3-2.2
				c1.3-0.7,2.3-1.7,3.6-2.4c3.3-1.7,6.4-4.1,10-5.1c1.2-0.3,2.3-0.7,3.2-1.4c1.2-1,2.3-1.5,3.9-1.8c1.5-0.2,2.4-1.9,4-2.2
				c0.1,0,0.3,0,0.4,0C448.6,303.6,448.6,295.8,448.6,287.9z"/>
		</g>
		<g>
			<path class="st12" d="M414.2,187c0.1,1.5-0.3,3.4,0.4,4.6c0.9,1.5-0.5,3.4,1.2,4.5c-0.3,4.8,2.8,8.9,3,13.6
				c1.3,1.9,1.7,4.1,2.4,6.2c0.6,1.7,0.7,3.5,1.4,5.1c0.7,1.7,1.3,3.3,1.6,5.1c0.2,1.3,1.1,2.5,1.8,3.9c1.7,0,3.6,0.3,5.3-0.1
				c1.6-0.4,3.2-0.5,4.8-1.3c1-0.5,2.5-0.1,3.4-0.5c0.5-0.3,1.1-0.6,1.4-0.8c0.2-0.9-0.4-1.1-0.8-1.6c0.5-3.2-0.8-6.1-1.6-9.1
				c-0.9-3.5-2.1-7-2.9-10.6c-0.6-2.8-1.5-5.5-2.3-8.2c-1-3.6-2.1-7.3-3-10.9c-0.2-0.9-0.8-1.2-1.1-1.7
				C424.2,184.6,419.4,185.5,414.2,187z"/>
			<path class="st12" d="M242.5,114.2c1.8,0,3.7,0.4,5.3-0.1c1.6-0.5,3.3-0.3,4.8-1.3c0.7-0.5,1.9-0.1,2.9-0.1
				c0.4-0.4,0.6-0.6,1.1-1.1c-0.2-1.3,0.5-2.8-0.5-4.4c-0.9-1.4,0.1-3-0.7-4.7c-0.8-1.5-0.9-3.5-1-5.3c-0.3-4.3-1.6-8.5-2.7-12.6
				c-0.6-2.3-1-4.6-1.8-6.8c-0.5-1.6-1.5-2.9-1.9-4.7c-2.2,0-4.8-0.6-6.7,0.2c-2,0.9-4.2-0.2-6,1.3c-0.6,0.5-1.9,0.1-3.1,0.1
				c0.2,2.5,1.6,4.7,0.7,6.8c1.4,2,1.9,4.1,2.5,6.1c0.5,1.7,0.8,3.4,1.4,5.1c0.9,2.2,1,4.6,1.6,6.9c1.1,4.3,1.8,8.6,3,12.8
				C241.6,113.3,242.1,113.7,242.5,114.2z"/>
			<path class="st12" d="M351.2,187.1c5.4-0.5,10.1-1.2,15.2-2.4c-0.4-2.2,0.3-4.7-0.7-7.3c-0.6-1.7-0.6-3.8-0.8-5.7
				c-0.2-1.7-0.7-3.3-1-5c-0.4-2.3-1-4.6-1.4-7c-0.6-3-1.5-6-2.3-8.9c-0.3-1-1.3-1.5-1.9-2.2c-4.7-0.2-9.2,1.3-14,1.6
				c0,1.9-0.6,4.1,0.2,5.5c0.9,1.7,0,3.6,1.2,5.2c0.5,0.7,1.3,2.1,0.9,3.4c-0.4,1.3,0.6,2.3,0.7,3.5c0.4,3.1,1.5,6.1,1.7,9.2
				c0.1,1.5,0.8,3,0.6,4.6c-0.2,1.5,1.1,2.7,0.8,4.3C350.3,186.4,351,186.9,351.2,187.1z"/>
			<path class="st12" d="M305.7,159.9c3.4,0.1,6.8,0.2,10-1.4c1-0.5,2.5-0.1,3.8-0.1c0.3-0.4,0.7-0.7,1.1-1.3
				c0.2-2.9-0.6-5.8-1.5-8.7c-0.8-3-1.5-6-2.2-9c-0.7-2.9-1.4-5.7-2.4-8.6c-1-2.8-1.4-5.7-3.3-8.3c-4.8-0.3-9.4,1.3-14.2,1.6
				c-0.3,3.7-0.1,7.3,1.2,10.9c0.8,2.2,1.5,4.5,2.1,6.7c0.7,2.3,1.3,4.6,2,6.8c0.8,2.6,1.2,5.3,2.1,7.9
				C304.9,157.6,305.3,158.7,305.7,159.9z"/>
			<path class="st12" d="M203.8,43.5c-4.2-0.2-8.1,0.1-11.8,1.4c-0.9,0.3-2,0-3.2,0c0.7,3.7,0.6,7.3,2.4,10.6
				c1.2,2.3,2.1,4.7,2.4,7.4c0.2,1.8,1.1,3.6,1.6,5.4c0.8,3,1,6.1,1.7,9.4c2.6-0.2,5.3,0.3,7.9-0.8c2.4-1,5.3-0.4,7.7-1.8
				c0.3-3.4-0.2-6.7-1.3-9.9c-0.3-0.9-0.2-2-0.1-3c0.1-1.1-0.7-1.7-0.9-2.7c-0.5-2.9-1.1-5.8-2.5-8.4c-0.8-1.5-0.6-3.2-1.5-4.7
				C205.4,45.3,204.7,44.4,203.8,43.5z"/>
			<path class="st12" d="M169.1,42.5c0-2.3,0-4.3,0-6.3c-1.9-1.4,0.3-4-1.5-5.5c-0.2-0.2-0.1-0.7,0-1.1c0.6-2.3-1-4.3-0.8-6.5
				c0.2-2.1-1-4-0.8-6.2c0.1-1-0.7-2.3-1.8-3.2c-2,0-4.4-0.6-6.2,0.2c-1.9,0.9-4.1-0.5-5.6,1.3c-1.7-0.3-2.2,1.2-3.2,1.9
				c0.6,3.9,1.3,7.6,1.6,11.4c0.5,4.6,1.3,9.3,2.3,13.8c0.1,0.5,0.8,0.9,0.6,1.6C159,44.9,163.8,42.8,169.1,42.5z"/>
		</g>
		<g>
			<g>
				<path class="st13" d="M440.8,203.3c31.7,19.1,66.1,33.6,101.8,43.1c8.2,2.2,11.7-10.5,3.5-12.7c-34.7-9.3-67.9-23.3-98.7-41.8
					C440.2,187.6,433.6,199,440.8,203.3L440.8,203.3z"/>
			</g>
		</g>
		<g>
			<g>
				<path class="st13" d="M441.2,244.2c36.2,22.6,75.5,40.2,116.4,52.4c8.1,2.4,11.6-10.3,3.5-12.7c-39.9-11.9-77.9-29-113.2-51
					C440.7,228.4,434.1,239.7,441.2,244.2L441.2,244.2z"/>
			</g>
		</g>
		<g>
			<g>
				<path class="st12" d="M442.9,314.4c22.5-9,34.9-29.9,39.3-52.9c2.1-10.8-14.5-15.4-16.6-4.6c-3.1,16.4-10.7,34.3-27.3,40.9
					c-4.3,1.7-7.3,5.7-6,10.6C433.5,312.5,438.6,316.2,442.9,314.4L442.9,314.4z"/>
			</g>
		</g>
		<g>
			<g>
				<path class="st12" d="M529.4,336.1c-6,15.8-24.6,22.6-38.1,30.3c-14,8-27.8,19.5-30.7,36.3c3.7-1.5,7.4-3,11.1-4.5
					c-10.5-6.7-21-13.4-31.5-20.1c-8.2-5.3-15.9,7.8-7.7,13.1c10.5,6.7,21,13.4,31.5,20.1c3.8,2.4,10.3,0.2,11.1-4.5
					c2.9-16.9,19.2-24.9,32.9-32.2c15.2-8.1,29.6-17.6,35.9-34.4C547.4,331,532.8,327,529.4,336.1L529.4,336.1z"/>
			</g>
		</g>
	</g>
	<g class="st17">
		<g class="st18">
			<path class="st29" d="M216.7,382.7c3.9-1.7,7.6-2.4,10.8-2.6c3.1,1,5.2,2.3,6.9,4.5c-0.1,1.1,1,2,1.1,3.3
				c0.1,0.8,0.7,1.6,0.8,2.5c0,0.9,0.4,1.8,0.6,2.6c0.7,3.1,1.3,6.3,2.1,9.4c0.9,3.4,1.8,6.9,2.9,10.3c0.5,1.7,1.4,3.2,1.4,5
				c1,1,1.2,2.3,1.6,3.6c1.3,4.4,3.3,8.5,5.1,12.6c0.8,1.8,1.5,3.8,2.2,5.6c0.2,0.5,0.3,1,0.6,1.4c0.9,1.3,1.2,2.8,1.8,4.2
				c0.6,1.4,1.3,2.7,1.9,4.1c0.7,1.9,2.1,3.6,3,5.5c0.9,1.8,1.5,3.8,1.5,6c-1.3-0.2-2.6,0.3-3.7-0.5c-0.1-0.1-0.3,0-0.5,0
				c-2.5,0.2-5-0.8-7.5-0.5c-1.5,0.2-2.6-0.5-3.1-1.9c-1-2.5-2.2-4.9-3-7.4c-0.7-2.2-1.7-4.3-2.4-6.5c-1.4-4.5-3-8.9-4.5-13.3
				c-0.7-2-1.4-3.9-2.3-5.8c-0.9-1.9-1.9-3.8-2.4-5.8c-0.2-0.8-1-1.2-1.5-2c-1.6-2.6-3.8-4.8-6.4-6.4c-0.8-0.5-1.1-1.5-2.2-1.5
				c-1.2-1.8-3.6-2.3-4.5-4.4c-1.1,0-1.1-1.3-2-1.7c-1.8-0.8-2.7-2.5-3.1-4c-0.5-2-1.5-3.8-1.4-6c-1.3-2,0-3.9,0.5-5.7
				c0.4-1.4,1.5-2.4,2.9-2.9C215.3,383.9,216.3,383.3,216.7,382.7z"/>
		</g>
		<g class="st18">
			<path class="st30" d="M212.1,394.2c2.3,3.8,6,5.9,9.5,9.2c0.9,0.1,1.9,1.3,3,2.2c1.9,1.6,3.9,3,5.5,4.9c0.7,0.9,1.2,1.9,1.6,2.9
				c1.7,4.6,4.2,8.9,6.2,13.3c0.1,0.2,0.4,0.4,0.4,0.5c0,1.3,0.9,2.3,1.4,3.4c1.2,2.5,2.2,5,3.3,7.5c0.8,2,1.5,4,2.3,6.1
				c1.5,3.8,3.4,7.4,4.5,11.2c0.3,1.1,0.9,2.2,0.6,3.5c-1.6,0.4-3.2,1-5,0.6c-0.2-0.2-0.4-0.5-0.7-0.7c-1.7-0.3-3.3-0.9-4.8-0.6
				c-1.5-1.5-1.8-3.5-2.6-5.2c-0.9-1.9-1.7-3.8-2.3-5.8c-1.3-4-3.4-7.8-4.9-11.8c-0.7-1.9-1.8-3.6-2.3-5.6c-1-0.8-1.3-2-1.8-3
				c-1-1.8-1.7-3.8-2.6-5.7c-1.5-2.9-3.4-5.2-6.1-7c-1.1-0.7-1.9-1.7-2.9-2.5c-1.4-1.2-3.2-1.7-4.3-3.2c-1.1-1.4-2.5-2.6-3.8-3.8
				c-1.4-1.4-2.3-3.2-3.6-4.6c-0.7-0.8-0.2-2.1-1-2.9c0-2-0.8-3.9-0.5-5.9c0.2-1.2,1.4-4.4,2.2-5.6c1.9-2.9,4.5-4.9,7.6-6.5
				c2.2-1.1,4.6-1.7,6.8-2.7c0.8-0.3,1.8-0.3,2.6-0.4c1-0.2,2.1-0.3,3-0.7c2.1-0.7,4.3-0.4,6.4-0.3c1.2,0,2.4,0.4,3.6,0.9
				c2.2,0.9,4.6,1.6,6.3,3.6c1.2,1.4,2.1,2.9,2.8,4.7c0.6,1.6,1.1,3.1,1.6,4.7c0.3,0.9-0.3,2.1,0.7,2.7c0,2.4,0.7,4.8,0.5,7.3
				c-0.1,0.6-0.5,1-0.6,1.7c-0.3,1.8,0.5,3.3,1.3,4.6c0.6,1.1,0.9,2.5,1.8,3.5c0.7,0.8,0.8,2.3,1.2,3.4c0.8,2.1,1.6,4.2,2.5,6.2
				c0.5,1.3,0.9,2.8,1.8,3.9c0.9,1.2,1.2,2.7,1.9,3.9c0.7,1.3,1.3,2.6,1.9,3.9c0.4,0.9,0.9,1.8,1.3,2.7c1.4,3,2.9,6,4,9.1
				c0.6,1.6,1.4,3,1.9,4.6c0.5,1.5,1.1,3,1.9,4.4c0.6,1.2,0.7,2.7,1.2,3.9c0.8,2,1.5,4.1,2.2,6.1c0.1,0.3,0,0.6,0,1.1
				c-0.9-0.3-1.8,0.3-2.5-0.4c-2.1,0.1-4.1-0.5-6.1-1c-0.7-0.2-1.6,0-2.5,0c-0.8-2.6-2.1-5-3-7.6c-0.5-1.3-1.2-2.5-1.7-3.8
				c-0.6-1.4-1.4-2.7-1.8-4.2c-0.4-1.5-1.2-2.8-1.8-4.2c-0.9-2-1.8-4.1-2.9-6c-0.7-1.2-0.9-2.6-1.7-3.7c-0.8-1.1-1.2-2.6-1.8-3.9
				c-0.6-1.2-1.2-2.5-1.6-3.8c-0.4-1.2-1.3-2.3-1.2-3.7c0-0.8-0.6-1.7-1-2.6c-1.4-3-2.9-6-4.3-9c-0.3-0.8-0.6-1.6-0.8-2.5
				c-0.8-4-0.3-8-0.4-12c-0.1-1.5-0.4-2.7-1.3-3.9c-1.2-1.8-2.5-3.4-4-4.9c-1.4-0.3-2.7-0.7-3.9-1.5c-1.1-0.1-2.3,0-3.5-0.4
				c-0.8-0.3-2,0.3-2.9,0.8c-0.8,0.4-1.5,1.2-2.4,1.5C214.5,388,211.5,390.3,212.1,394.2z"/>
			<path class="st30" d="M216.7,391.1c0.4-0.4,0.7-0.7,1.2-1.2c2.7-0.6,5.6-1.3,8.4-2c2.1,1.7,3.2,4.2,5.5,5.7
				c-0.2,1.9,1.1,3.5,0.9,5.4c-3.2,0.7-6.3,1.8-9.7,2c-1.3-2.4-3.5-3.9-5.3-5.9C217.7,393.9,217.2,392.6,216.7,391.1z"/>
		</g>
	</g>
</g>
</svg>
