<?xml version="1.0" encoding="UTF-8"?>
<svg width="265px" height="265px" viewBox="0 0 265 265" version="1.1" xmlns="http://www.w3.org/2000/svg" xmlns:xlink="http://www.w3.org/1999/xlink">
    <title>Stroke 1</title>
    <g id="Onboarding" stroke="none" stroke-width="1" fill="none" fill-rule="evenodd">
        <polygon id="Stroke-1" stroke="#FFDA00" stroke-width="3" fill="#FFFFFF" transform="translate(132.216833, 132.216833) rotate(-15.000000) translate(-132.216833, -132.216833) " points="132.216833 2.21683328 149.451454 23.4063414 172.388707 8.57968841 182.233251 34.0544527 208.628767 27.0446406 210.119455 54.3135433 237.388707 55.8042122 230.38214 82.1993896 255.853897 92.0471418 241.030388 114.980766 262.216833 132.215166 241.030388 149.449566 255.853897 172.386525 230.38214 182.230942 237.388707 208.629454 210.119455 210.116788 208.628767 237.389026 182.233251 230.379214 172.388707 255.853978 149.451454 241.027325 132.216833 262.216833 114.982212 241.027325 92.0449591 255.853978 82.2004154 230.379214 55.8048996 237.389026 54.3142116 210.116788 27.0449591 208.629454 34.0515262 182.230942 8.57977002 172.386525 23.4032783 149.449566 2.21683328 132.215166 23.4032783 114.980766 8.57977002 92.0471418 34.0515262 82.1993896 27.0449591 55.8042122 54.3142116 54.3135433 55.8048996 27.0446406 82.2004154 34.0544527 92.0449591 8.57968841 114.982212 23.4063414"></polygon>
    </g>
</svg>