<svg xmlns="http://www.w3.org/2000/svg" width="79.409" height="79.409" viewBox="0 0 79.409 79.409" class="decoration__element image--contain"><g><rect width="70" height="70" x="4.705" y="4.705" fill="none"></rect><path fill="none" stroke="rgb(254,119,28)" stroke-linecap="butt" stroke-linejoin="miter" stroke-width="2" d="M39.7046301 4.7046301l4.6400903 5.70486758 6.1754143-3.99179119 2.65045406 6.8585904 7.10648504-1.88725711.40133908 7.34162765 7.34172182.40133394-1.88638346 7.1063939 6.85778052 2.65131789-3.99094454 6.17443725 5.70404289 4.64003078-5.7040429 4.64003078 3.99094455 6.17533509-6.85778052 2.65042006 1.88638346 7.10729173-7.34172182.4004361-.40133908 7.34252549-7.10648504-1.8872571-2.65045406 6.85859039-6.1754143-3.99179119-4.6400903 5.70486757-4.64009029-5.70486757-6.1754143 3.99179119-2.65045405-6.8585904-7.10648504 1.8872571-.40133908-7.34252548-7.34172182-.4004361 1.88638346-7.10729173-6.85778052-2.65042006 3.99094454-6.17533509-5.7040429-4.64003078 5.7040429-4.64003078-3.99094454-6.17443725 6.85778052-2.6513179-1.88638346-7.1063939 7.34172182-.40133393.40133908-7.34162765 7.10648504 1.8872571 2.65045406-6.85859039 6.1754143 3.99179119L39.7046301 4.7046301z"></path></g></svg>