<?xml version="1.0" encoding="utf-8"?>
<!-- Generator: Adobe Illustrator 25.0.1, SVG Export Plug-In . SVG Version: 6.00 Build 0)  -->
<svg version="1.1" id="Layer_1" xmlns="http://www.w3.org/2000/svg" xmlns:xlink="http://www.w3.org/1999/xlink" x="0px" y="0px"
	 viewBox="0 0 358 159.5" style="enable-background:new 0 0 358 159.5;" xml:space="preserve">
<style type="text/css">
	.st0{fill:#FFFFFF;}
	.st1{display:none;opacity:0.51;}
	.st2{display:none;fill:#5D7CFC;}
	.st3{clip-path:url(#SVGID_2_);fill:#FFFFFF;}
	.st4{clip-path:url(#SVGID_2_);}
	.st5{clip-path:url(#SVGID_2_);fill:#FEDA04;}
	.st6{fill:#FEDB00;}
	.st7{fill:#28B4D6;}
	.st8{fill:#50FF5C;}
	.st9{fill:#FB111F;}
	.st10{fill:#617FFB;}
	.st11{fill:#151D52;}
	.st12{fill:#181F54;}
	.st13{fill:#171F53;}
	.st14{fill:#0D6F87;}
	.st15{fill:#29B4D6;}
	.st16{fill:#141C51;}
	.st17{fill:#009D66;}
	.st18{fill:#FDD2BC;}
	.st19{fill:#969383;}
	.st20{fill:#47463D;}
	.st21{fill:#FEDA05;}
	.st22{fill:#FE5000;}
	.st23{fill:#10184E;}
	.st24{fill:#FD781C;}
	.st25{fill:#AE970F;}
	.st26{fill:#D5C459;}
	.st27{fill:#A09D8B;}
	.st28{fill:#696655;}
	.st29{opacity:0.51;}
	.st30{fill:#5D7CFC;}
	.st31{clip-path:url(#SVGID_4_);fill:#FFFFFF;}
	.st32{clip-path:url(#SVGID_4_);}
	.st33{clip-path:url(#SVGID_4_);fill:#FEDA04;}
	.st34{fill:#FED2BD;}
	.st35{fill:#FD771D;}
	.st36{fill:#5D7CFB;}
	.st37{fill:#A44AAE;}
	.st38{fill:#853390;}
</style>
<g class="st1">
	
		<image style="display:inline;overflow:visible;" width="2880" height="6632" xlink:href="A95D3F7FF43BE2A5.png"  transform="matrix(0.6944 0 0 0.6944 0.1035 -105.8582)">
	</image>
</g>
<rect x="0.1" y="0.1" class="st2" width="2000" height="642"/>
<g>
	<defs>
		<rect id="SVGID_1_" x="0.1" y="0.1" width="2000" height="642"/>
	</defs>
	<clipPath id="SVGID_2_">
		<use xlink:href="#SVGID_1_"  style="overflow:visible;"/>
	</clipPath>
	<path class="st3" d="M349.1,84.7c-1.1-1.4-2.2-2.2-2.8-3.8c-1.9-4.9-2.3-10.1-3.4-15.1c-0.9-4.1-1.1-6.6-4-9.7
		c-1.8-1.9-2.5-4.9-5.2-5.9c-5.3-2-10-5.9-16.4-4.9c-0.8,0.1-2,0.3-2.4-0.1c-2.1-2-4.7-0.6-7-1c-2.5-0.4-4.8-1.4-7.5-1.2
		c-4.7,0.3-9.8,1-14.2-0.2c-4.5-1.2-9.1,0.2-13.4-1.9c-1.5-0.7-3.7-0.3-5.5-0.1c-2,0.3-3.2-1.1-5.1-1.3c-3.8-0.5-7.6-1.3-11.1-2.8
		c-4-1.7-8.1-2.3-12.3-3.1c-0.1-0.9-0.2-1.8-0.3-2.7c-3.3-0.4-6.2-2.1-8.8-3.7c-2.5-1.6-6.9-0.8-7.8-4.7c-5.6,0.5-11-0.2-16.3-2.1
		c-6.5-2.3-13.2-4.3-20.2-4.6c-2-1.7-5-0.3-6.8-1.4c-2.4-1.5-5,0-7-1c-2.3-1.2-4.6-1-7-1c-6.8,0-13.6,0-20.5,0
		c-2.9,0-5.6,0.2-7.9,2.5c-4.7-1.2-9.3,1.1-14.1,1c0,8,0,15.9,0,23.9c-10.8,1.1-21.6,2.1-32.5,3.2c-12.9,1.3-25.8,2.6-38.7,3.8
		c-6,0.6-16,0.1-19.6,5.1c-3.9,5.5-6.5,12.4-9.7,18.3C15.5,81.7,9.4,93.2,3.3,104.8c-5.4,10.3-10.9,20.7-16.3,31
		c-1.4,2.6-2.8,5.2-4.1,7.8c-3.2,6.4,1.1,11.8,4.4,17.6c6,10.6,13.3,20.7,23.7,28.1c10.3,7.3,22.7,11.3,35.5,12.9
		c29.3,3.5,56.9-7,82.8-18.4c0.6-0.1,1.1-0.2,1.7-0.4c7,2,14.5,1.8,21.4,3.7c3,0.8,6.6-0.1,9.9,0.2c3.3,0.3,6.6,1,10,1.2
		c10,0.5,19.8-2,29.7-1.2c1.3-1.4,3.3-1.8,4.1-3.5c4,0.3,6-2.5,8.4-4.6c1.7,0,3.3,0,3.9,0c6.7-2.9,11.6-7,17.1-9.8
		c5.9-3.1,10.9-6.9,16.6-10.6c5.7-0.3,16.5-6.5,19.2-11.2c0.6-0.2,1.2-0.3,1.7-0.5c3.2-0.9,4.7-4,7.5-5.3c4.5-2.1,8.3-4.9,10.6-9.1
		c0.7-1.3,2-1.9,2.9-2.8c2.1-2.1,5.2-2.9,7.2-5.3c5.1,1,10.1-1,15.2-1.2c0.4-0.8,0-1.7,1-2c6,0.4,10.8-2.6,16-4.5
		c0.9-0.4,1.8-0.9,2.7-1.4c-0.4-2.2-1.2-3.9-0.3-5.5c0.7,0.5,1.1,0.9,1.7,1.3c2.1-0.9,4.1-1.8,6.1-2.7c0.9-4,4.9-7,4.1-11.5
		C350.5,93,347.9,88.6,349.1,84.7z"/>
	<path class="st5" d="M351.1,29.3c-0.3-0.1-0.6-0.2-0.9-0.3c-6.4-1.5-12.3-5.5-18.2-8.4c-6.7-3.3-13.5-6.5-20.1-9.9
		c-6.5-3.4-13.1-6.7-19.7-9.8c-5.7-2.7-12-5.5-17.4-9c-1.1-1.8-2.8-3-5.1-3c-47.6,0-95.1,0-142.7,0c0.1-0.9,0.2-1.8,0.3-2.8
		c0.3-3.3-3.1-6.1-6.1-6.1C87-20,52.9-20,18.9-20c-4.8,0-9.6,0-14.5,0c-3.5,0-5.9,2.8-6.1,6.1C-5.3,35.1-8.9,84-12.5,133
		c-0.5,6.8-1,13.6-1.5,20.4c-0.3,4.7,5.5,7.6,9.2,5.3c5.7-3.4,9.8-9.1,13.6-14.4c5.1-7.2,9.5-14.9,13.9-22.6
		c4.5-7.9,8.9-15.9,13.7-23.6c1.7-2.7,3.4-5.6,5.4-8.3c8.3,16,18.8,30.8,26.2,47.3c1.6,3.6,7.2,3.9,9.6,1.2
		c9.6-10.5,16.5-22.8,24.7-34.3c1.9-2.7,3.8-5.3,6-7.7c0.4-0.5,0.9-1,1.5-1.5c0.2,0.3,0.4,0.6,0.5,0.9c3.6,5.6,6.6,11.5,10,17.2
		c3.8,6.2,7.4,12.4,11.3,18.6c2,3.1,3.7,6.3,5.9,9.3c2,2.6,4.4,4.8,6.2,7.5c1.9,2.8,5.4,3.9,8.4,2.2c3.7-2,7.3-4.4,10.5-7.2
		c2.8-2.6,3.5-6.1,4.7-9.6c2.8-7.9,3.5-16.8,4.7-25c0.2-1.3,0-3.5,0.1-4.3c0.2-2,1.1-4,1.1-6.2c0.1-3.8,0.8-7.5,0.9-11.4
		c0.1-6.5,0.2-13.1,0.8-19.6c2.2,1.6,4.4,3.4,6.3,4.6c4.6,2.9,9.3,5.7,13.9,8.7c4.7,3,9.4,5.9,14.3,8.7c4.3,2.5,8.4,5.8,13.1,7.4
		c4.2,1.5,7.8,4.2,11.9,6c4.8,2.1,9.4,5.1,14.2,7.4c9.3,4.5,18.2,11.5,28.5,13.4c2.5,0.5,5.7-0.3,6.9-2.8c1.7-3.5,4.9-5.9,6.6-9.4
		c1.9-4,0.1-6.8-1.6-9.4c-4.6-7.1-11-16.5-17.1-23.5c-6-6.8-11.4-14.2-17.1-21.3c-3.2-4-6.4-7.9-9.7-11.9c0,0,0,0,0,0
		c5.4,0.8,10.8,1.7,16.2,2.4c5.4,0.7,10.9,1.1,16.3,1.7c2.9,0.3,6.2-0.2,9.1,0.2c1.5,0.2,3.2,1,5,1c4.2,0.1,8.8,0.5,13,1.2
		c1.7,0.3,4.4,0.2,5.5,0.4c2.4,0.4,4.4,1.2,7,1.3c4.3,0.1,8.9,0.9,13,1.6c2.7,0.4,5.6,0,8.3,0.2c3.1,0.3,6.2,0.7,9.3,0.9
		c2.2,0.1,4.2-1.3,5.3-3c2.6-4.3,4.5-9.7,4.9-14.7C358.3,33.8,354.9,30.6,351.1,29.3z"/>
</g>
<g>
	<defs>
		<rect id="SVGID_3_" x="-2293.9" y="0.1" width="2000" height="642"/>
	</defs>
	<clipPath id="SVGID_4_">
		<use xlink:href="#SVGID_3_"  style="overflow:visible;"/>
	</clipPath>
</g>
</svg>
