<?xml version="1.0" encoding="utf-8"?>
<!-- Generator: Adobe Illustrator 25.0.1, SVG Export Plug-In . SVG Version: 6.00 Build 0)  -->
<svg version="1.1" id="Layer_1" xmlns="http://www.w3.org/2000/svg" xmlns:xlink="http://www.w3.org/1999/xlink" x="0px" y="0px"
	 viewBox="0 0 219.1 269.8" style="enable-background:new 0 0 219.1 269.8;" xml:space="preserve">
<style type="text/css">
	.st0{fill:#FFFFFF;}
	.st1{display:none;opacity:0.51;}
	.st2{display:none;fill:#5D7CFC;}
	.st3{clip-path:url(#SVGID_2_);fill:#FFFFFF;}
	.st4{clip-path:url(#SVGID_2_);}
	.st5{clip-path:url(#SVGID_2_);fill:#FEDA04;}
	.st6{fill:#FEDB00;}
	.st7{fill:#28B4D6;}
	.st8{fill:#50FF5C;}
	.st9{fill:#FB111F;}
	.st10{fill:#617FFB;}
	.st11{fill:#151D52;}
	.st12{fill:#181F54;}
	.st13{fill:#171F53;}
	.st14{fill:#0D6F87;}
	.st15{fill:#29B4D6;}
	.st16{fill:#141C51;}
	.st17{display:none;clip-path:url(#SVGID_2_);}
	.st18{display:inline;}
	.st19{fill:#009D66;}
	.st20{fill:#FDD2BC;}
	.st21{fill:#969383;}
	.st22{fill:#47463D;}
	.st23{fill:#FEDA05;}
	.st24{fill:#FE5000;}
	.st25{fill:#10184E;}
	.st26{fill:#FD781C;}
	.st27{fill:#AE970F;}
	.st28{fill:#D5C459;}
	.st29{fill:#A09D8B;}
	.st30{fill:#696655;}
	.st31{opacity:0.51;}
	.st32{fill:#5D7CFC;}
	.st33{clip-path:url(#SVGID_4_);fill:#FFFFFF;}
	.st34{clip-path:url(#SVGID_4_);}
	.st35{clip-path:url(#SVGID_4_);fill:#FEDA04;}
	.st36{fill:#FED2BD;}
	.st37{fill:#FD771D;}
	.st38{fill:#5D7CFB;}
	.st39{fill:#A44AAE;}
	.st40{fill:#853390;}
</style>
<g class="st1">
	
		<image style="display:inline;overflow:visible;" width="2880" height="6632" xlink:href="827F60B03728296D.png"  transform="matrix(0.6944 0 0 0.6944 -1657 -478.1595)">
	</image>
</g>
<rect x="-1657" y="-372.2" class="st2" width="2000" height="642"/>
<g>
	<defs>
		<rect id="SVGID_1_" x="-1657" y="-372.2" width="2000" height="642"/>
	</defs>
	<clipPath id="SVGID_2_">
		<use xlink:href="#SVGID_1_"  style="overflow:visible;"/>
	</clipPath>
	<g class="st4">
		<g>
		</g>
	</g>
	<g class="st17">
		<g class="st18">
			<path class="st19" d="M768.3,656.1c0.8,0,1.8-0.1,2.8-0.1c0.7-0.3,0-1.2,0.8-1.5c1.4,2.1,1.6,4.5,1.7,6.9c0.1,3,0.6,5.9,0.5,8.9
				c0,1.4,1.5,2.3,1.2,3.7c-0.2,1.2,0.1,2.5,0.1,3.1c2.2,3.4,4.9,6,5.7,9.5c0.2,0.8,0.3,1.4,1.1,1.8c0.9,0.4,0.9,1.2,0.9,1.9
				c0,0.4,0,0.8,0.2,1c3.3,2.9,4.6,6.9,6.9,10.4c3.1,4.7,6.5,9.4,8.3,14.7c0.4,1.4,1.7,2.1,2.5,3.1c2.3,3,3.2,4.1,4.2,7.7
				c0.2,0.7,0.7,1,1,1.5c1.1,1.6,1.5,3.2-0.1,5.1c2-0.1,2.5,1.2,3.1,2c0.7,1-0.3,2.4,0.9,3.4c0.9,0.8,0.2,2.1,0.6,3.3
				c2,0.5,2.3,2.4,2.5,3.6c0.2,1.7,1.4,3.1,1.4,4.8c2,1,0,3.5,2,4.5c-0.2,3.1,1.7,5.7,2.4,8.5c0.7,2.7,2,5.3,2.1,8.3
				c0.5,0.3,1.1,0.7,1.6,1.1c1.5,7,3.5,15.4,5.9,22.1c-300.8,19.5-606.5,39.4-907.3,59c-12.4-191-24.9-383.7-37.3-574.7
				c3.2-2.4,12.2-4,15-6.8c1.8-0.2,3.3-0.9,4.7-1.9c1.7-1.2,3.6-2.2,5.4-3.1c1.9-0.9,2.1-2.9,4.1-3.6c1-0.4,1.7-1.5,2.8-2
				c0.9-0.4,1.5-1.2,2.8-1.3c1.5-0.2,1.5-1.9,2.8-2.7c2.3-1.5,4.2-3.4,6.5-4.9c2.5-1.6,4.8-3.6,7.2-5.3c0.3-0.2,0.6-0.6,0.9-0.7
				c3.9-1.3,6.6-4,10-5.8c1.5-0.8,2.3-2.2,4-3.2c0.6,0,1.5-0.1,2.4-0.2c0.6-0.8,0.5-2,1.5-2.2c2.8-0.9,4.6-2.9,6.8-4.5
				c1.8-1.3,4.1-1.7,5.9-3.1c1.9-1.4,4.1-2.7,6-4.1c1.2-0.9,3.1-0.6,3.8-2c0.7-1.4,2.4-1.7,3.7-2c1.5-0.4,2.2-1.4,3.2-2.2
				c1.8-1.3,4.4-1.6,5.6-3.5c3.7-1.5,6.7-3.9,10.1-5.7c0.3-0.2,0.8-0.1,1.3-0.1c0.7-0.5,0.2-1.4,1.1-1.9c2.6-1.4,5.1-3,7.7-4.4
				c1.4-0.7,3.4-0.2,4.2-1.9c3-0.4,4.7-2.7,7-4c1.1-0.7,2.6-0.8,3.5-1.7c0.9-1,2.2-0.9,3.2-1.4c1.5-0.7,3.4-1.2,4.4-2.3
				c1.5-1.7,3.6-2.7,5.6-3.6c1.9-0.8,3.5-2,5.6-2.7c2.6-0.8,4.7-2.5,7.4-3.4c1.4-0.5,2.7-0.5,4-0.8c2.2-1.9,2.4-2.1,8.2-4.2
				c1.2-1.5,3.3-1.5,4.9-2.3c1-0.5,1.9-0.2,2.9-0.5c0.5-0.5,1.1-1,1.7-1.6c1.4-0.1,2.8-0.2,4.2-0.3c0.4-0.3,0.4-0.6,0.3-1.3
				c2.1-0.5,4.3-0.9,6.2-2c1.8-0.9,4-1.1,6-1.9c1.6-0.7,3.7-0.6,5.6-1.1c2.4-0.5,4-1.8,7.1-2.9c2-0.2,5.1,0.1,7.9-1.2
				c0.5-0.2,1.1-0.1,1.6-0.3c4.2-2.1,4.6-2.5,8.3-2.5c2.7,0,4.9-1.7,7.6-1.2c0.2-0.6,0.4-1.1,0.6-1.5c3.1-0.2,6.2-0.4,9.6-0.6
				c0.4-0.4,0.8-0.9,1.1-1.3c0.3-1-1.5-1.3-0.6-2.6c3.6,0.4,7-1.6,10.8-1.4c0.7,0,1.2-0.4,1.8-0.7c1.3-0.6,2.7-0.5,3.8,0.3
				c1,0.2,1.2-0.9,2.2-0.9c5.3-0.2,10.6-1.1,15.8-0.8c4.4,0.3,8.7-0.5,12.9-0.1c3.4,0.3,6.7-0.2,9.9,0.1c5.1,0.4,10.1,0.9,15.2,0.4
				c1.4-0.1,2.7,0.4,3.9,0.6c2.3,0.5,4.4,0.4,6.6,0.1c2.9-0.3,5.7,0.2,8.5,0.7c2.2,0.4,4.6,0.3,6.9,0.5c4.4,0.5,8.6,1.8,13.2,1.4
				c3.1,1.5,6.6,1.5,9.9,2.3c4.2,1,8.6,1.3,12.8,2.3c6.9,1.5,13.8,2.9,20.5,5c6.7,2.1,13.4,4,20,6c8.5,2.6,17,5.3,25.2,8.6
				c6,2.4,12.2,4.4,17.9,7.4c3.2,1.6,6.6,2.8,9.9,4.2c1.7,0.7,3.5,1.4,4.4,2.6c1,0.1,1.7-0.3,2.3,0.3c2.2,2,5.3,2.8,7.8,4.3
				c4.3,2.6,9.3,4.4,13.2,7.5c0.9,0.7,2.1,1.1,3.1,1.7c4.9,2.9,9.7,6.2,14.7,9c3.1,1.7,5.5,4.1,8.5,5.8c2.1,1.2,4,2.5,5.9,3.9
				c1.6,1.2,2.9,2.6,4.7,3.7c1.8,1,3.2,2.4,4.8,3.6c1.7,1.3,3.5,2.5,5.1,3.9c2.2,1.8,4.2,3.7,6.4,5.5c2.4,1.9,5.2,3.5,7.2,5.7
				c2.4,2.6,5.4,4.5,8.1,6.8c4.7,4.1,9.4,8.1,14.1,12.2c5.3,4.7,10.3,9.6,14.9,14.9c2.9,3.4,6.3,6.3,9.3,9.7c0.9,1,2.1,1.7,3.2,2.4
				c4.7,3.2,8.2,7.4,12.5,11c0.3,0.2,0.2,0.9,0.4,0.9c2.5,0.5,3.6,2.6,5.6,3.6c2.4,1.2,4.9,2.1,6.6,4.3c1.3,1.6,6.4,3.7,9,4.5
				c1.1,0.3,2.3,0.6,3.2,1.4c2.1,1.7,4.3,3.3,6.9,4.6c1.4,0.7,2.9,1.1,4.3,1.8c4.8,2.2,8.4,5.7,11.4,9.5c0.9,1.1,2.1,1.8,3,2.9
				c-0.2,1.5,1.5,2.4,1.2,3.8c0.7,0.1,1.1,0.1,1.6,0.2c-0.1,2.5,1.4,4.3,3.1,5.9c1.3,1.2,2,2.5,1.9,4.4c-0.8,0.7-1.7,1.6-2.6,2.6
				c1.7,2.6,1.5,6.3,6.4,6.6c1,1.2,1.9,2.6,3.1,3.9c1,1,3.2,1.4,2.8,3.4c2.9,1.5,3.9,4.6,6.4,6.6c1,0.8,1.1,2.4,2.6,2.9
				c1.4,0.5,1.7,2,3.1,2.5c0.4,0.1,0.8,0.2,1.3,0.3c0.7,0.6,0.2,1.6,0.4,2.4c1.1,0.8,2.3,1.6,2.8,2c1.1,1.2,0.5,2.1,1.3,2.6
				c1.4,1,2.9,2,4,3.2c1.1,1.1,1.5,2.6,3.3,3.1c0.7,0.2,0.3,0.9,0.5,1.3c0.9,1.7,1.9,3.4,4.4,3.7c0.1,0.4,0,0.8,0.2,1.1
				c0.8,1.6,2.7,2.4,3.5,3.7c0.9,1.6,2,3,3.5,4.2c0.1,0.1,0.5,0,0.9,0c0.9,2.2,1.8,4.4,4,5.9c0.3,0.2,0.8,0.4,0.9,0.7
				c1,2.4,3.1,4,4.9,5.8c1.8,1.9,3.5,3.8,4.9,5.9c1,1.4,1.8,2.8,3.3,4c0.4,0.3,1.1,1,1.1,1.7c0.3,3.4,3,5.4,5.6,7.5
				c0.1,1.6,0.2,3,2.2,4c0.9,0.5,1.4,1.9,1.6,3c0.3,1.7,1.5,2.8,2.9,3.7c1.5,1,2.7,2.4,3.9,3.7c0.2,0.3,0.6,0.5,0.7,0.8
				c1.8,4.1,2.9,5.9,5.7,8.2c0.8,0.7,0.6,1.6,1.1,2.2c2.7,3.2,4.1,7.2,7,10.3c0.4,0.4,0.4,0.8,0.6,1.3c0.6,1.5,0.3,3.5,2.7,4.2
				c0.3,0.1,0.8,0.9,1,1.4c0.7,1.9,2.1,3.4,3.1,5.1c0.9,1.7,2.2,3.1,3.3,4.7c0.6,0.8,1.1,1.8,1.5,2.8c1,3,3.4,5.4,5.3,8
				c2.5,3.4,5.6,6.3,7.1,10.3c0.4,1.2,1.4,2.3,2.3,3.2c1.1,1.1,1.7,2.2,2.4,3.6c0.7,1.5,2.1,2.9,3.1,4.4c1,1.4,1.8,3,2.6,4.6
				c0.5,0.8,1.6,1.3,2.4,1.9c0.2,0.9,0,1.9,0.6,2.5c2.2,2.3,4.1,4.8,5.4,7.6c0.2,0.5,0.7,1.2,1,1.4c1.2,1,2,1.9,1.9,3.4
				c0,0.7,0.9,1.3,1.4,2c0.4,0,0.9-0.2,1.2,0.3c0,0.4,0.1,0.9,0.1,1.6c0.9,0.5,1.9,1.2,2.7,1.6c0.2,2.4,2,3.9,2.7,5.8
				c1,2.8,3,5.4,4,8.2c0.7,2,1.9,3.5,3.1,5.1c0.9,5.5,3.5,10.4,6.3,16c0,0.8,0.5,2.2,1.1,3.7c1.5,3.5,2.6,7.2,4.2,10.8
				c1.7,3.8,3.2,7.7,5.1,11.5c1.3,2.6,2.4,5.3,3.6,8c1.2,2.7,2.4,5.3,3.6,8c0.7,1.6,1.5,3.4,2.7,4.9c1.3,1.5,1.4,3.4,2.4,5.1
				c2.3,3.8,4.4,7.7,6.9,11.5c0.7,1,1.5,2.2,1.5,3.8c-0.5,0.8-2,1.4-1.8,2.7c-0.9,0.3-1.7-0.1-2.2,0.5
				C765.8,655.6,767.8,655,768.3,656.1c-0.8,0.2-1.6-0.2-1.8,0.6C767.1,657.2,767.7,657.1,768.3,656.1z M97,172.8
				c-0.1-1,0.3-2-0.4-2.8c-1.1,0.1-2,0.1-3.8,0.2C94.9,171,94.4,173.1,97,172.8z"/>
		</g>
		<g class="st18">
			<path class="st13" d="M821.5,795.4c-1.2-2.4-2.4-4.8-3.2-7.4c-1-3-3.4-5.7-4.4-8.7c-1.2-3.4-2.7-6.7-4.4-10
				c-1.2-2.4-1.9-5-3.6-7.2c-0.7-1,0.2-2.3-1-3c-0.2-2.7-3.2-4.7-2.5-7.6c-1.9-1-2.1-2.8-2.9-4.2c-1.8-3.3-2.2-7.1-4.8-10.1
				c-0.3-2.6-1.9-4.8-3.1-7.1c-1.2-2.3-2.1-4.7-3.1-7.1c-0.2-0.6-0.1-1.2-0.2-2.1c-0.6-0.3-1.3-0.7-2-1.1c1.1-2.8-1.4-4.6-2.2-6.8
				c-1-2.9-2.4-5.8-4.4-8.4c0.1-2.4-1.9-4-2.5-6.2c-0.7-2.3-2.2-4.4-3.2-6.6c-1.2-2.9-2.8-5.7-3.6-8.7c-0.2-0.7-0.8-0.9-1.1-1.5
				c-0.6-1.5-1.9-2.7-2.1-4.5c-0.2-1.4-1.7-2.5-2-4.1c-0.2-1.5-1.6-2.8-2.2-4.4c-1.8-5-5-9.6-7.1-14.5c-0.5-1.1,0.3-2.7-1.6-3.5
				c-1.7-0.7-0.7-2.6-1.7-3.8c-0.8-1-1.4-2.2-2-3.3c-0.6-1.2-0.1-2.7-2.1-3.3c0.1-1.7-0.4-3.3-1.3-4.8c-1-1.7-1.9-3.5-3-5.2
				c-1.1-1.6-1.7-3.6-2.6-5.4c-1.1-2.1-2.8-3.9-3.4-6.2c-1.1-4.4-4.4-8.1-6-12.3c-0.5-1.3-0.6-2.4,0.1-3.6c-2.2-0.1-2.6-1.8-3.5-3
				c-0.3-0.4,0.1-0.9-0.4-1.4c-2.5-2.2-2.8-5.4-4.4-8c-1.7-2.8-3.4-5.7-4.7-8.7c-1.5-3.5-3.3-7-5.4-10.2c-3.7-5.7-5.9-12-9.7-17.6
				c-0.4-0.5-0.6-1-0.9-1.5c-0.8-1.4-1.3-2.9-2.7-4.2c-1.8-1.8-2.7-4.4-3.9-6.7c-0.9-1.7-2.1-3.2-2.9-4.8c-0.8-1.7-1-3.6-2.9-4.9
				c-1.9-5.1-6.3-9.3-7.9-14.5c-2.6-2.2-3.5-5.4-5.5-8c-1.9-2.5-3.5-5.3-4.9-8.1c-1-1.9-2.2-3.6-3.6-5.4c-1-1.3-1.6-2.8-2.7-4.2
				c-0.9-1.2-1.6-2.6-2.3-4c-0.9-1.8-2.8-3-3.4-5c-0.5-1.7-2.3-3-2.6-5c-4.4-4.6-6.8-10.3-10.8-15.2c-3.1-3.8-5-8.1-8.6-11.6
				c-1.1-3.4-4-5.9-6.1-8.8c-3.2-4.5-6.2-9.1-9.9-13.3c-2.5-2.9-4.5-6.2-6.8-9.3c-3-4.1-6.4-7.9-9.2-12.1c-2.3-3.4-5.4-6.2-7.5-9.7
				c-1.6-2.6-3.8-5-5.9-7.4c-2.8-3.4-5.3-7-8.7-9.9c-3.1-2.6-4.2-6.3-7.3-8.8c-0.3-0.2-0.1-0.9-0.1-1.4c-0.2-0.1-0.3-0.3-0.4-0.3
				c-0.8,0.1-1.4-0.2-1.8-0.7c-3.1-4.3-7.6-7.8-10.5-12.3c-0.3-0.5-0.3-1.1-0.4-1.7c-1.4-0.1-2.4-0.8-3-1.7
				c-2.5-3.5-6.3-6.1-8.8-9.6c-1.6-2.2-4.5-3.1-5.6-5.6c-3.9-2.5-6.5-6.1-9.9-9c-4.1-3.5-8.3-7.1-12.1-10.8
				c-3.8-3.6-8.1-6.8-11.4-10.7c-2.4-2.7-6.5-4.1-7.6-7.7c-0.1-0.2-0.4-0.3-0.6-0.5c-3.2-2.1-5.3-5.3-8.7-7.3
				c-1.5-0.9-2.7-2.1-3.4-3.5c-0.4-0.8-0.9-1.2-1.5-1.6c-2.3-1.6-4.2-3.4-5.8-5.5c-0.3-0.4-0.6-0.6-1.1-0.8c-2.5-1-3.7-3-4.8-5.3
				c-1.3-0.9-3.4-1.2-4.7-2.9c-1.2-1.5-3.3-2.3-4.7-3.7c-3.2-3.5-6.8-6.6-10.7-9.5c-1.5-1.1-2.8-2.2-4-3.6c-0.6-0.7-0.9-1.9-1.9-2.1
				c-1.3-0.2-1.9-1-2.7-1.6c-5.3-3.9-10.6-7.8-15.7-11.9c-3.8-3.1-8.1-5.6-12.2-8.3c-4.6-3.1-9.3-6-14.5-8.5c-2-0.9-3.8-2.4-5.6-3.6
				c-4.8-3.1-9.8-6.2-14.9-8.9c-3.4-1.8-6.6-3.9-10.3-5.4c-2.6-1.1-5.1-2.6-7.6-4.1c-2.5-1.5-5.1-3-8-3.9c-1.8-0.6-2.8-1.8-4.4-2.5
				c-5.4-2.5-10.8-5-16.3-7.4c-2.8-1.2-5.9-2.4-9.2-3.1c-1.5-0.3-3.2-1.1-4.7-1.9c-1.9-1-4.2-1.3-6.2-2.1c-4.5-1.7-9-3.1-13.9-3.9
				c-0.7-0.1-1.2-0.5-1.8-0.7c-6.6-2.3-13.5-3.8-20.4-5.3c-2.7-0.6-5.1-1.9-7.9-2.3c-5.5-0.8-10.4-3.1-15.8-4.2
				c-5-1-9.8-2.6-14.9-3.5c-3.5-0.7-7-1.1-10.6-1.7c-1.5-0.3-3.4-0.3-4.6-0.9c-1.7-0.8-3.3,0.5-4.8-0.6c-1.3-0.9-3.1,0.4-4.8-0.6
				c-0.9-0.5-2.7,0.1-4,0.2c-1.4-0.9-2.7-1.4-4.3-1.2c-8.2,1.1-16.4,0-24.5,0.8c-5.3,0.6-10.6,0.7-15.8,1.1
				c-5.7,0.4-11.4,1.9-17.2,1.8c-2.4,1.2-5.2,0.7-7.7,1.3c-4.2,1-8.5,1.5-12.6,2.7c-2.4,0.7-4.9,1.6-7.6,1.5c-1.8,0-3.5,0.1-5.2,1
				c-1.3,0.7-2.7,1.1-4.3,1.1c-1.3,0-2.5,0.7-3.9,1c-4.3,1-8.4,2.4-12.7,3.4c-3.1,0.7-6,2.1-9.3,2.5c-3,0.4-5.6,2.3-8.6,2.7
				c-1.2,1.5-3.3,0.8-4.9,1.7c-1.2,0.7-2.9,1.1-4.6,1.3c-1.8,0.2-3.4,1.2-5.1,1.9c-1.8,0.8-3.6,1.7-5.7,1.7c-0.9,0.8-1.8,1.3-3,1.8
				c-4.3,1.8-9.1,2.8-12.9,5.4c-1.4,0.9-2.9,0.3-4.2,1.4c-1.7,1.6-4.4,2.2-6.5,3.4c-2,1.1-4.2,2-6.3,3.1c-1.3,0.6-2.4,1.7-4,1.5
				c-0.3,0-0.7,0-0.8,0.1c-1.3,1.3-2.7,2.4-4.8,2.5c-0.9,1.6-3.1,1.4-4.3,2.6c-1.3,1.3-3.3,1.4-4.9,2.4c-3.7,2.3-7.7,4.3-11.4,6.5
				c-3.2,1.9-6.5,3.7-9.8,5.5c-2.9,1.6-5.7,3.6-8.7,5c-2.5,1.2-4.4,3.2-7.6,3.6c-1.5,2.2-4.4,3.3-6.9,4.7c-4.4,2.5-8.9,5-12.8,7.9
				c-6.1,4.5-12.3,8.8-18.5,13.1c-7.4,5.1-14,11-21.9,15.6c-1.7,1-2.7,2.8-4.6,3.7c-0.4,0.2-0.8,0.2-0.8,0.3
				c-2.8,3.8-6.9,5.9-11,8.5c-1,2.2-3.7,3.6-5.8,5.5c-2.1,1.9-4.8,3.1-6.2,5.4c-0.5,0-0.9,0.1-1.4,0.1c-0.5-6.9-0.9-13.9-1.4-20.8
				c2.9-1,4.6-3.4,6.9-5c3.2-2.3,6-5.2,9.3-7.3c5.2-3.2,8.8-7.9,14.4-10.6c3.4-3.4,8.1-5.5,11.4-8.9c1-1,2.7-1.3,3.5-2.5
				c4.1-1.2,6.5-4.3,9.6-6.6c3.1-2.3,6.6-4.3,9.6-6.7c4.1-3.3,9-5.7,13.4-8.6c3-2,6.5-3.6,9.7-5.5c1.9-1.1,3.6-2.6,5.7-3.3
				c4.3-1.5,7.7-4.3,11.5-6.3c1.8-1,3.5-2.3,5.4-3c1.9-0.7,2.8-2.8,5.2-2.6c2.4-2.4,5.7-3.5,8.7-5c3.7-1.8,7-4.4,11.2-5.3
				c4.7-3.7,10.8-5,16-7.9c2.5-1.3,5.3-2.3,7.6-3.8c1.2-0.7,2.4-0.4,3.5-0.9c3.9-1.7,7.8-3.5,11.8-5.1c2.2-0.9,4.5-1.4,6.7-2.3
				c4.3-1.7,8.8-2.8,13.2-4.3c3.9-1.3,7.8-2.5,11.7-3.7c1.1-1.7,3.3-0.5,5-1.5c1.2-0.8,3.1-1.7,5-1.4c0.6,0.1,1-0.3,1.5-0.5
				c1.9-0.7,3.7-1.6,5.8-1.5c1.7,0.1,3.1-0.8,4.7-1.2c2.7-0.7,5.4-1.7,8.3-1.9c1-0.1,1.8-0.5,2.7-0.7c3.2-1,6.5-1.7,9.8-2.2
				c3.7-0.6,7.4-1.2,11.1-1.7c3.3-0.5,6.7-0.5,9.9-1.3c4-1,8-1.1,12-1.4c0.8-0.1,1-0.8,2.3-1c0.2,0,0.5,0.5,1.1,0.9
				c1.1-0.9,2.5-1.1,4.1-1.2c4.9-0.3,9.7-0.5,14.6-1c2.5-0.2,4.8,0.8,7.4,0.4c2.4-0.4,4.9-0.8,7.2-0.4c2.4,0.4,4.8-0.1,7,0.3
				c2.2,0.4,4.4,0.1,6.6,0.3c3.2,0.2,6.4,1.1,9.7,0.8c1.1,1.2,2.8,0.1,3.9,0.6c1.4,0.5,2.7,0.3,4,0.5c2.4,0.3,4.6,1,7,1.2
				c3.9,0.4,7.7,1.6,11.7,2.2c2.5,0.4,5,1.2,7.6,1.9c2.2,0.5,4.5,0.3,6.6,1.3c1.9,0.9,4.2,1.3,6.3,1.9c2.1,0.5,4.5,0.7,6.5,1.4
				c5.4,1.8,11.2,2.7,16.6,4.4c3.3,1,6.8,1.9,10.2,2.6c3.7,0.8,7.3,1.9,10.9,2.9c4.6,1.3,9.4,2.5,13.7,4.2
				c5.1,2.1,10.9,2.9,15.6,5.9c1.2,0.8,3,0.8,4.4,1.4c5.3,2.1,10.6,4.3,15.6,7c2.4,1.3,5.5,1.5,7.4,3.4c4.6,1.4,8.2,4.3,12.6,6
				c1.8,0.7,3.1,1.9,4.7,2.9c2.3,1.4,4.7,2.7,7.3,3.7c1.8,0.7,2.5,2.7,4.7,2.7c2.9,2.9,7.2,3.9,10.4,6.3c2.9,2.2,6.5,3.5,9.4,5.7
				c0.6,0.4,1.7,0.7,2.3,1.3c2,1.9,4.6,3.1,7,4.5c2,1.1,3.7,2.5,5.6,3.7c6.1,3.8,11.6,8.1,17.1,12.4c1.5,1.2,3.1,2.4,4.5,3.7
				c1.4,1.3,3.8,2.1,5,3.6c1.2,1.6,2.9,2.6,4.3,3.8c1.5,1.3,3.3,2.3,4.8,3.7c4.5,4.1,9.3,8,13.8,12c4.6,4.1,9.6,8,13.4,12.9
				c0.6,0.7,1.8,1.1,2.2,1.4c0.1,1.2,0.2,1.6,0.3,2.2c2.5-0.3,3.6,1.1,4.8,2.6c1.1,1.3,2.6,2.5,3.9,3.6c3,2.6,5.8,5.4,8.7,8.1
				c5.3,4.9,10.5,9.8,16,14.5c3.1,2.6,6.2,5.3,8.6,8.5c0.6,0.8,1.7,1.3,2.5,2c5.6,4.8,11,9.8,15.8,15.3c1.2,1.3,2.8,2.4,4.4,3.7
				c0,0.3,0.1,0.7,0.1,1c1.6,1.2,3.1,2.3,4.6,3.5c0.5,0.8-0.3,1.6,0.4,2.3c3.1,2.6,6.1,5.3,8,8.7c0.7,1.2,2,1.9,2.9,2.9
				c3.1,3.1,5.4,6.7,8.3,9.8c1.9,2,3.1,4.5,5.7,6c0.9,0.5,0.6,1.3,0.7,2c2.9,1.9,5,4.5,6.9,7.3c1.7,2.6,3.9,4.9,5.9,7.4
				c2.9,3.5,5.8,6.9,8.6,10.4c1.1,1.4,1.5,3.1,3.2,4.4c1.5,1.1,2.2,3.1,3.5,4.5c1.2,1.4,1.7,3.3,3.6,4.2c1,2.9,3.8,4.9,5,7.8
				c0.6,1.3,1.9,2.5,2.9,3.7c1.1,1.3,2.3,2.6,3.1,4c0.7,1.4,2.8,2,2.5,3.9c3.3,2.4,4.6,5.9,6.8,8.9c2.2,3,4.8,5.8,6.6,9
				c3,5.3,7.2,10.1,10.3,15.4c2.1,1.3,2.2,3.6,3.7,5.3c1.3,1.5,2.5,3.2,3.3,5.1c0.8,1.9,2.3,3.6,3.5,5.3c1.1,1.7,2.6,3.2,3.4,5
				c1.1,2.3,2.5,4.3,4.2,6.2c2,2.4,3,5.3,4.7,7.9c0.7,1.1,1.4,2.5,2.1,3.7c2.5,4.1,5.2,8.2,7.6,12.4c3.3,5.7,6.5,11.5,9.9,17.1
				c1.5,2.5,2.3,5.4,4.6,7.6c2,5.3,5.8,9.7,8.1,14.9c0.8,1.8,1.4,4.1,3.6,5.3c0.2,3.2,3.2,5.3,3.9,8.2c0.4,1.7,1.5,3,2.3,4.4
				c1.4,2.5,2.1,5.2,3.7,7.6c1.6,2.4,2.7,4.9,4,7.4c1.6,3,3.4,5.9,4.8,9c1,2.4,2.3,4.7,3.4,6.9c1.5,3,3.3,6,4.5,9.1
				c0.5,1.2,1.6,2.1,1.8,3c0.3,1.7,2.2,2.8,2.2,4.4c-0.1,1.9,2.1,2.7,2.1,4.5c0,0.2,0,0.5,0.2,0.7c2.7,2.6,3.2,6,4.6,9.1
				c1.1,2.2,3.1,4.1,3.1,6.7c3.3,3.9,4.5,8.8,6.7,13.1c2.3,4.6,4.7,9.2,6.6,14c1.6,4,4,7.7,5.5,11.7c0.6,1.7,1.8,3,2.4,4.7
				c0.6,1.6,0.6,3.5,2.3,4.7c0.4,3.1,2.8,5.4,3.6,8.4c0.6,2.3,2.3,4.3,3.2,6.6c1.6,3.9,3.9,7.5,5.4,11.4c1.2,3.2,3.3,6.1,3.5,9.6
				c3.4,4.6,5,9.8,7.2,14.8c0.8,1.8,2.3,3.3,2.7,5.4c0.4,1.7,1.1,3.6,2.7,4.9c0.4,4,3.4,7.2,4.4,11.1c0.4,1.6,1.4,3.2,2.5,4.6
				c1.6,2.2,2.2,4.7,3.3,7c1.6,3.3,3.1,6.5,4.6,9.8c1.4,3,2.7,6,3.6,9.2c0.5,1.8,2.1,3.3,2,5.2C832.9,794.7,827.2,795.1,821.5,795.4
				z"/>
		</g>
	</g>
	<g class="st4">
		<g>
			<path class="st20" d="M4.2,288.8c0.1-1.2-0.4-2.6,0.2-3.6c0.6-1.1-0.3-2.4,0.7-3.2c-0.3-1.6,0.6-3.1,0.4-4.7
				c-0.2-1.8,0.4-3.5,0.5-5.2c0.1-0.6,0.7-1.2,0.8-1.7c0.6-2,1-4.1,1.5-6.2c0.2-0.9,0.3-1.9,0.6-2.8c0.1-0.3,0.4-0.4,0.3-0.8
				c-0.3-2.8,1.4-5.1,1.8-7.7c0.1-0.6,0.6-1,1-1.2c0.9-0.4,1.7-1,1.7-2.2c1.8,0.1,3.4-0.3,5,0.7c0.8-1,1.9-1.5,2.3-2.8
				c1-0.3,1.4-1.1,2-1.9c1-1.4,2.3-2.6,3.4-4c1-1.2,2.3-2.1,3.3-3.3c1.2-1.4,2.8-2.3,4.2-3.6c0.2-0.2,0.5-0.3,0.7-0.6
				c0.6-1.1,1.6-1.7,3.1-1.7c0.6-0.6,1.2-1.2,1.8-1.9c0.5-0.6,1.8-0.4,1.5-1.8c1.7,0.1,2.7-1.2,3.9-1.9c1.3-0.8,2.7-1.5,3.9-2.4
				c1.2-0.8,2.8-1,3.6-2.3c1,0.3,1.3-0.4,1.9-0.9c1.1,0.1,2.2-0.1,3.3-0.9c0.4-0.3,0.9-0.8,1.6-0.5c0.6,0.3,1.1-0.3,1.4-0.5
				c1.4-1,3-1.4,4.5-2c0.7-0.3,1.3-0.2,2-0.2c1.1,0,2.1,0,3-0.5c1.4,0.6,2.6,1,2.7,2.7c0,0.3,0.6,0.7,1,1.1c2.7-0.4,5.1,1.7,7.9,1.4
				c0.4-0.3,0.8-0.7,0.8-1.3c0.1-0.1,0.2,0,0.4,0.1c0.6,0.4,0.5,1,0.5,1.6c0.8,0.1,1.4,0.3,1.6-0.3c0.6-0.1,0.7,0.3,1,0.5
				c4.7-0.3,9.5,0.8,14.3,0.4c0.5,0,0.9,0,1.4,0c0.9,0.1,1.7,0,2.7,0.4c0.8,0.3,2,0.3,2.9-0.1c0.3-0.2,0.5-0.3,0.8-0.2
				c2.4,0.3,4.7-0.9,7.1-0.4c0.8,0.1,1.2-0.8,1.8-0.5c0.8,0.1,0.9,0.7,1.4,1c0.8,0,1.6-0.1,2.3,0c2.4,0.3,4.7-0.5,7.1-0.6
				c1.4-0.1,3-0.6,4.3-1.5c0.1-0.1,0.1-0.4,0.2-0.8c1.7,0.3,3.3-0.1,5.1,0.4c1.6,0.5,3.5-0.1,5.2,0.7c0.8,0.3,1.2,1.3,2.2,1.5
				c0.4,1.1,1.4,1.7,2,2.7c0.6,1.1,1.6,2,2.5,2.6c0.7,0.5,1.3,1,1.9,1.6c1.4,1.3,2.8,2.7,4.1,4.1c1.1,1.1,2.5,1.9,3.7,2.9
				c1.7,1.5,3.8,2.6,5.6,4c0.9,0.7,1.2,1.9,2.1,2.6c0.5,0.4,1.4,0.3,1.5,1.2c0.1,0.9,1.1,0.5,1.5,1.2c0.3,0.6,1,1,1.5,1.6
				c0.3,0,0.6,0.1,1,0.1c0.1,0.7,0.6,1.4,1.2,1.6c1.2,0.4,1.4,1.4,1.9,2.3c0.4,0.9,0.7,1.7,1,2.6c0.7,2.7,0.6,5.4,0.3,8
				c-0.3,2.7-0.1,5.4-0.5,8c-0.3,1.9-0.1,3.8-0.5,5.7c-0.3,1.6-0.1,3.2-0.5,4.7c-0.6,2.1-0.3,4.1-0.4,6.1c0,1.1-0.8,2-0.5,3.1
				C117.8,288.8,61,288.8,4.2,288.8z"/>
		</g>
		<g>
			<path class="st21" d="M139.2,174.7c2.5,1,3,3.1,3.1,5.4c0.1,1.9-0.1,3.9,0.1,5.8c0.1,1-0.5,1.9-0.5,2.8c-0.1,1,0.4,2-0.4,2.9
				c-0.2,0.2,0,0.7-0.1,1.1c0,0.5,0.1,1,0,1.4c-0.6,1.5-0.4,3.2-1.2,4.7c-0.4,0.8-0.2,1.6-0.4,2.4c-0.3,1.8-1.2,3.5-1.3,5.3
				c-0.1,1.3-1.1,2.4-0.9,3.8c-1.3,3.4-2.3,6.8-3.3,10.3c-0.1,0.2-0.3,0.3-0.5,0.5c-1.6,0.4-3.3,0.5-4.9,0.7
				c-1.3,0.2-2.6,0.1-3.8,0.4c-1.3,0.4-2.6,0.2-3.8,0.4c-3.5,0.8-7.1,0.3-10.6,0.4c-3.5,0.1-7,0-10.5,0c-0.3,0-0.6,0-1,0
				c0.5-1.4-1.4-1.8-0.9-3.1c-1.7-0.5-3.5-0.4-5.1-1.1c-0.5-0.2-1.1,0-1.6,0c-1-0.1-2.1,0.2-3.1-0.4c-0.4-0.3-1.3-0.2-1.8,0.1
				c-1,0.6-2.1,0.4-3.1,0.3c-1.7-0.2-1.9-0.3-2.9,0.1c-0.3,0.6-0.5,1.2-0.8,1.8c-0.5-0.2-0.8-0.5-0.8-1.3c-2-0.4-3.9,0.9-5.9,0.3
				c-0.9-0.4-0.8-1.5-1.1-2.3c-0.3-0.9,0.1-2.1-0.5-3.1c0.3-2.7-0.3-5.3-0.6-8c-0.3-3.4,0-6.8-0.5-10.1c-0.4-2.7-0.5-5.4-0.3-8
				c0.2-2.6,0.3-5.2,0.9-7.8c0.2-1,0.9-1.7,1.7-2.4c0.6,0,1.4,0.3,1.8,0c1.2-1.1,3.1-0.6,4.2-1.8c0.8-0.2,1.7,0.1,2.6-0.5
				c0.7-0.4,1.8,0.3,2.6-0.4c0.4-0.3,1.2,0,1.8-0.1c0.7,0,1.3,0.2,2-0.4c0.3-0.3,1-0.1,1.5,0.6c0.6-0.7,1.5-0.7,2.3-0.6
				c2.7,0.3,5.3-0.7,8-0.5c1.4-0.8,2.8-0.5,4.2-0.4c1.1,0.1,2-0.7,3.1-0.6c0.9,0.1,2,0.5,2.8-0.4c1.4,0.2,2.8-0.4,4.1,0.3
				c0.3,0.2,0.6,0.1,0.9,0.1c0.9,0.1,1.7-1,2.8-0.3c0.9,0.6,2,0.1,2.9,0.3c2,0.3,3.9-0.8,5.9-0.5c2.7,0.5,5.5,0.4,8.2,0.5
				c0.8,0,1.5,0.6,2.4,0.4C137.5,175,138.5,174.4,139.2,174.7z"/>
		</g>
		<g>
			<path class="st22" d="M103.7,200.4c-0.4-0.4-0.7-0.8-1.2-1.2c0-2,0.1-4,0-6c-0.1-1.4,0.7-2.6,0.5-4c-0.2-1.3-0.1-2.6,0-4
				c0-0.8,0.6-1.3,1-2.1c1.3,0.3,2.5-0.6,3.9-0.5c0.8,0.1,1.7-0.4,2.4,0.4c0.1,0.1,0.5,0.1,0.7,0c1.6-0.9,3.3-0.2,4.9-0.5
				c0.4,0.4,0.2,1,0.7,1.2c0,4-0.1,7.9,0,11.9c0,1.5-1.1,2.9-0.2,4.8c-0.2-0.2-0.2-0.2-0.1-0.1c0.1,0,0.1,0.1,0.2,0.1
				c2.6,0,5.3,0,7.9,0c1,3.1,0.5,6.3,0.7,9.4c0.1,0.9-0.6,1.5-0.5,2.4c0,0.3-0.4,0.6-0.7,0.9c-0.9-0.2-1.7-1-2.7-0.2
				c-0.3,0.2-0.9,0.1-1.3,0.1c-2,0-4,0-6.3,0c-0.3-0.4-0.7-0.8-1.1-1.3c-0.3-3.5,0.5-7.1-0.6-10.8c0.9,0,1.6,0,2.9,0
				c-0.8-0.3-0.3-0.1-0.5-0.3c0-0.1-0.1-0.2-0.2-0.2C110.5,200.4,107.1,200.4,103.7,200.4z"/>
			<path class="st22" d="M130.9,197.1c-1.5-0.2-3.3,0.7-5.2,0.5c-1.9-0.2-3.7,0-5.6,0c-0.3-0.3-0.5-0.6-1.1-0.5
				c0.2-0.8-0.5-1.3-0.5-2.1c0-3.3-0.1-6.6,0.1-9.8c0-0.7,0.2-1.8,1.2-2.6c0.3-0.2,1.3,0.5,1.8-0.5c0.7,0.3,1.3,0.6,2.1,0.6
				c2.7-0.1,5.4,0,8.2,0c0.3,1.2,0.8,2.3,0.7,3.5c-0.1,1.3,0,2.7,0,4c0,1.2,0.4,2.6-0.2,3.7C131.7,194.8,132.7,196.3,130.9,197.1z"
				/>
			<path class="st22" d="M100.6,216.8c-1.2-0.9-2.5-0.4-3.8-0.5c-1.3-0.1-2.6,0-4,0c-0.2-0.3-0.3-0.7-0.5-1c0-0.1-0.1-0.1-0.2-0.2
				c0-3.4,0-6.8,0-10.2c0-0.9,0.3-1.7,0.6-2.5c3.9-1,7.9-0.5,11.8-0.6c1.6,1.3-0.1,3.3,1.2,4.5c0,1.7,0,3.4,0,5.1
				c0,1.6,0.2,3.2-0.8,4.8C103.8,216.7,102.1,215.7,100.6,216.8z"/>
		</g>
		<g>
			<path class="st23" d="M176.9,200.4c-2.1-1.4-3.4-3.3-4.3-5.5c-0.4-1-0.5-2.1-1-3.1c-0.5-0.8-0.7-1.9-0.7-3
				c-0.1-1.2-0.8-2.3-1.1-3.5c-0.4-1.1-0.8-2.2-0.7-3.5c0.1-0.9,0-1.9,0-2.7c0.7-1.2,2.2-1.4,2.9-2.6c1.6,0.1,2.9-0.8,4.4-1.1
				c0.3-0.1,0.7-0.3,1-0.3c0.9-0.1,1.8,1.2,2.7,0c0.9,0,1.9,0,2.8,0c0.9,0.9,1.7,1.8,2.7,2.7c0.9,0.8,1.6,1.8,2,2.9
				c1,2.8,2.7,5.3,3.1,8.3c0.7,0.5,0.4,1.3,0.4,1.9c0.1,1,0,2,0,3c-1.1,1.8-3.2,3.4-5.7,4.1c-1.7,0.5-3.4,0.9-5,1.9
				C179.3,200.1,178,199.5,176.9,200.4z"/>
			<path class="st24" d="M59.3,234.9c0.5-1.7-0.4-3.2-0.4-4.9c1.3-0.9,2.7-1.6,4.3-1.5c1.9,0.1,3.7-1,6-0.3c1.5,1.2,3.3,2.6,5.8,3.5
				c0.7,0,1.7-0.1,2.6,0.6c0.2,0.1,0.3,0.3,0.6,0.3c1.9-0.1,3.7,0.8,5.7,0.5c3.8,0.9,7.7,0.1,11.5,0.6c2.3,0.3,4.6,0.2,6.8,0.4
				c0.9,0.1,1.8,0.7,2.8,0.3c0.4,0.5,0.8,0.9,1.3,1.4c-0.4,1.5,0.7,2.9,0.4,4.6c-0.2,0.2-0.4,0.4-0.7,0.6c-2.4,0.1-4.8,0.8-7.3,0.5
				c-1.6,0.9-3.4,0.7-4.9,0.4c-4.2-0.7-8.5-0.2-12.7-0.4c-1.1,0-2-0.7-3.1-0.5c-1,0.1-2.2,0.4-3.1-0.4c0,0-0.2,0-0.2,0
				c-2,0.2-3.9-0.1-5.7-0.9c-0.9,0.3-1.5-0.8-2.4-0.5c-0.3-0.6-1-0.6-1.5-0.9C63.4,237.1,61.5,236.1,59.3,234.9z"/>
			<path class="st24" d="M58.3,248.1c-0.6-0.6-1.1-1.1-1.5-1.5c-0.3-1.7-0.9-3.4-0.5-5.2c1.4-0.9,3-1.3,4.7-1.2c0.6,0,1.3,0,2-0.3
				c0.9-0.4,2.1-0.3,3,0.3c0.5,0.3,1,0.6,1.5,0.8c2,1,4.1,1.4,6.2,2c1.5,0.5,3.2,0.3,4.6,1.2c0.4,0.3,1.2,0.2,1.8,0.1
				c0.7-0.1,1.1,0.4,1.7,0.6c1.5,0.4,3,0.2,4.5,0.5c2.3,0.5,4.7,0.3,6.9,1.3c0.3,0.1,0.5,0.4,0.8,0.6c0.3,1-0.1,2.1,0.5,3.2
				c0.4,0.6,0,1.5-1,2.3c-0.1,0-1.1-0.3-1.4,0.1c-0.6,0.5-1.3,0.3-1.9,0.7c-0.8,0.5-1.8,0.1-2.7,0.2c-0.6,0-1.2-0.1-1.7,0.5
				c-0.5,0.2-0.7-0.5-1-0.4c-1.8,0.3-3.4-0.7-5.2-0.5c-0.9,0.1-1.5-0.6-2.4-0.5c-0.7,0.1-1.4,0-2.2-0.3c-0.9-0.4-2.2-0.2-3.3-0.5
				c-1.4-0.3-2.8-0.5-4-1.1c-1.1-0.5-2.2-0.4-3.2-0.7c-1.9-0.5-3.7-1.2-5.4-2.1C58.9,248,58.7,248.1,58.3,248.1z"/>
			<path class="st24" d="M45.9,250.7c0.9-0.9,2.1-0.6,3.1-1.1c0.9-0.5,2,0.2,3.1-0.4c1-0.5,2.3-0.1,3.4-0.2c0.9,1.2,2.5,1,3.5,1.9
				c1.4-0.2,2.4,1,3.7,1.1c0.2,0,0.3,0.3,0.6,0.3c2.2-0.1,4.3,0.5,6.4,0.9c0.7,0.1,1.5,0,2.2,0c1,0.9,1.3,1.9,1.2,3.1
				c0,0.9-0.2,1.8,0.6,2.5c-0.3,0.3-0.5,0.6-0.8,0.9c-0.6,0-1.3,0-1.9,0c-0.4,0.4-0.6,0.6-1,1c-1,0-2.1,0-3.2,0
				c-0.7,0-1.4-0.3-2,0.4c-0.2,0.2-0.8,0.2-1.1,0c-1.1-0.7-2.4-0.4-3.6-0.4c-0.5,0-1-0.2-1.5-0.4c-1.2-0.6-2.7-0.6-4-0.9
				c-2.8-0.7-5.4-1.6-7.7-3.3c-0.1-0.1-0.3-0.1-0.5-0.1c0-0.9-0.7-1.6-0.6-2.5C45.9,252.5,45.9,251.6,45.9,250.7z"/>
			<path class="st24" d="M144.7,253.2c-0.3,1-1.2,1.3-1.8,1.4c-2.1,0.3-3.9,1.5-6,2c-2.8,0.8-5.7,1.7-8.3,3.1
				c-0.5,0.2-0.9,0.1-1.4,0.1c-2.4,0-4.8,0-7.3,0c-0.4-1.2,0.3-2.6-0.6-3.7c0.3-0.6,0.8-1.1,0.5-1.8c1.8-1.2,3.7-1.7,5.5-2.4
				c1.6-0.6,3.3-1.3,4.9-1.7c2.1-0.5,4-1.8,6.2-2.1c0.3,0,0.4-0.5,0.7-0.5c0.5,0,1.1,0,1.7,0C140.5,249.7,143.1,250.9,144.7,253.2z"
				/>
		</g>
		<g>
			<path class="st11" d="M144.2,205.1c0.9,0.2,1.2-0.6,1.7-0.9c1.9-1.2,3.8-2.5,5.7-3.8c1.4-0.9,2.9-1.7,4.3-2.6
				c1.7-1.1,3.5-1.9,4.9-3.4c0.5,0,0.9,0,1.4,0c0.2-0.9,0.9-1.4,1.5-1.9c0.5-0.6,1.3-0.7,2-1c-0.3-1.7-0.8-3.4-0.9-5.2
				c-0.1-2,0.8-3.8,1.7-5.4c1.6-2.8,4-4.8,6.9-6.2c1-0.5,2-0.8,3.1-1.1c1.9-0.5,3.7-1.3,5.8-1.3c2.7,0,4.8,1,6.6,2.8
				c0.3,0.3,0.6,0.7,1,1c1.3,0.9,1.7,2.4,2,3.8c0.2,0.9,0.4,1.9,0.8,2.7c0.5,0.8,0,1.7,0.5,2.6c0.5,0.9,0.1,2.2,0.5,3.3
				c0.2,0.6-0.6,1.5-0.4,2.4c0.2,0.8-0.2,1.4-0.4,2.2c-0.1,0.6-0.4,1-0.8,1.3c-0.4,0.3-0.2,0.7-0.2,1c-0.9,0.9-1.8,1.8-2.8,2.8
				c-0.2,0-0.6-0.1-1.1,0.3c-1,0.8-2.1,1.5-3.6,1.6c-0.5,0-1,0.5-1.6,0.7c-2.3,0.8-4.8,1.3-7.1,2c-1.4,0.4-3-0.3-4.1-1.3
				c-0.6-0.5-1.2-0.5-1.9-0.6c-1.4,0.9-2.6,2.2-4.2,2.8c-0.7,0.3-1.1,1-1.7,1.4c-1.4,1-3,1.6-4.4,2.5c-1.5,1-2.8,2.4-4.5,3.3
				c-2.8,1.5-5.2,3.6-8,4.9c-0.8,0.4-1.1,0.8-0.9,1.7c1.6,1.6,3.3,3.5,5.2,5.1c1.6,1.5,3.5,2.7,5.4,3.9c2.1,1.4,4.2,2.7,6.2,4.3
				c1.7,1.4,3.5,2.9,5.3,4.3c1.9,1.5,3.4,3.3,5.3,4.8c2.2,1.7,4.3,3.7,6.8,4.6c1.1,1.2,0.9,2.8,1.9,3.8c0.2,1.2-0.3,2.4,0.2,3.4
				c0.6,1-0.3,2.3,0.7,3.3c0.2,0.2,0,0.9,0,1.4c0.1,5,0.7,10,0.5,15c0.8,2.8,0.3,5.6,0.5,8.5c0.1,1,0.6,2,0.5,3.1
				c-0.1,1-0.1,2,0.4,3.1c0.3,0.8,0.1,1.8,0.1,2.8c-3.7,0-7.5,0-11.2,0c-0.2-3.9,0.5-7.9-0.5-11.7c-0.1-5.9,0.4-11.7-0.5-17.6
				c-0.1-0.5,0.2-1.1-0.2-1.6c-0.3,0.1-0.8-0.2-1.1,0.2c-0.8,1.1-2.1,1-3.1,1.6c-0.4,0.3-0.9-0.1-1.3,0.3c-2.1,1.9-4.9,2.5-7.4,3.5
				c-1.1,0.5-2.3,0.6-3.1,1.4c-1.2,1.1-2.7,1.7-4.2,2.3c-0.9,0.4-1.9,0.6-2.8,1c-0.9,0.4-1.7,0.8-2.7,0.8c-0.5,1.2-1.8,0.8-2.8,1.3
				c-1.4,0.7-2.8,1.4-4.4,1.8c-1.9,0.4-3.8,1.1-5.5,1.8c-1.8,0.8-4,0.3-5.6,1.7c-0.2,0.2-0.8,0-1.1,0c-0.4,0-0.8-0.1-1.1,0.1
				c-1.8,0.8-3.8,0.6-5.5,1.3c-2.5-0.3-4.8,0.9-7.3,0.4c-1.4-0.2-2.8,0.2-4,0.6c-1.9,0.6-3.8,0.2-5.7,0.3c-0.7-0.8-1.3-0.2-2,0
				c-1,0.3-2.1,1-3,0.4c-0.9-0.5-1.8-0.4-2.7-0.4c-2.3-0.1-4.7,0-7,0c-2.4-0.1-4.7,0.1-7.1-0.4c-1.8-0.4-3.8-0.2-5.7-0.4
				c-1.8-0.2-3.6-0.9-5.4-0.6c-0.1,0-0.3,0-0.4-0.1c-2.1-0.9-4.3-0.8-6.5-1.3c-1.2-0.3-2.5-0.7-3.8-0.5c-0.7-1-1.8-0.1-2.7-0.8
				c-0.7-0.5-1.8-0.4-2.8-0.7c-2.1-0.7-4.3-1.2-6.4-2c-2.3-0.9-4.6-1.7-6.9-2.6c-2.1-0.8-4.3-1.5-6.2-2.6c-2.7-1.6-5.6-2.9-8.5-3.9
				c-3.6-1.3-6.7-3.3-10.2-4.6c-0.2,0.9-0.6,1.8-0.7,2.9c-0.1,0.9-0.2,2-0.5,2.8c-0.5,1.3-0.6,2.7-0.9,4.1c-0.3,1.4-0.6,2.9-0.9,4.3
				c-0.4,1.7-1.1,3.4-0.9,5.2c0,0.1-0.1,0.1-0.2,0.2c-0.2,1.1-0.6,2.2-0.8,3.4c-0.1,1-0.3,2-0.6,3c-0.4,1.6-0.9,3.2-0.8,4.8
				c-3.4,0-6.9,0-10.3,0c-0.1-1.7,0.3-3.2,0.8-4.8c0.3-0.9,0.2-1.9,0.5-2.8c0.2-1.1,0.8-2.1,0.6-3.3c1-0.7-0.1-2.2,0.9-2.9
				c-0.3-2,0.8-3.8,1-5.7c0.1-1.3,0.4-2.7,0.9-4.1c0.4-1.3,0.3-2.6,0.9-3.9c0.3-0.8,0.4-1.7,0.5-2.6c0.3-2.8,1.2-5.4,1.9-8.1
				c0-0.1,0-0.3,0-0.4c1.3-2,3.6-2.7,5.4-4c2-1.5,4.2-2.7,6.1-4.3c0.3-0.3,0.7-0.3,1-0.5c1.3-0.8,2.7-1.5,3.6-2.7c0.5,0,0.8,0,1-0.1
				c0.2-0.5,0.2-1,0.7-1.2c2.2-1.2,4.3-2.6,6.2-4.3c2.2-0.4,3.3-2.6,5.6-3c0.8-0.1,1.3-1.1,2.1-1.6c2.1-1.1,4.1-2.5,6.2-3.8
				c1.2-0.8,2.5-1.2,3.7-1.8c1.8-1,3.5-2.1,5.2-3.3c2.1-1.6,4.5-2.8,6.6-4.4c1.7-1.3,3.7-2.2,5.2-4.1c-0.5-1.8,0.5-3.6,0.4-5.5
				c0-1.9-0.3-4,0.1-5.8c0.4-2.1,0.3-4.1,0.4-6.1c0-0.9,0.6-1.6,0.5-2.6c-0.1-0.8,0.1-1.6,0.3-2.4c0.4-1.1-0.1-2.4,0.6-3.5
				c-0.4-2,0.6-3.9,0.4-5.9c-0.1-1.1,0.7-2,0.5-3.1c-0.1-1,0-2,0.3-3.1c0.3-0.9,0.9-1.2,1.2-1.8c1.6,0.5,3,1.3,4.4,1.9
				c1.4,0.5,2.6,1.7,4.3,1.8c-0.3,1.3,0.4,2.5-0.5,3.6c-0.1,0.1,0,0.3,0,0.5c0.3,2-0.4,3.9-0.6,5.9c-0.1,1.4-0.1,2.9-0.4,4.2
				c-0.4,1.4-0.1,2.9-0.5,4.3c-0.7,2.6,0,5.2-0.5,7.8c-0.3,1.9-0.4,3.8-0.4,5.7c0,1.9,0,3.9,0,5.8c0.3,0.7,1.2,0.6,1.6,1.2
				c2.1-0.1,4.1,0.6,6.1,1.1c1.7,0.4,3.4,0.9,5.1,1.2c1.7,0.3,3.2,1,4.9,1.3c0.5,0.1,1,0.2,1.5,0.2c4.1,0,8.3,0.3,12.4-0.1
				c2.9-0.3,5.9-0.2,8.8-1.2c1.1-0.4,2.5-0.2,3.7-0.6c1.3-0.5,2.5-0.4,3.8-0.4c0.6-0.5,1.3-0.7,2-1c1.2-0.5,2.7-0.3,3.7-1.3
				c1.3,0.3,1.6-0.9,2.1-1.8c-0.2-2.2,0.8-4.5,0.5-6.9c0.7-1.3,0.1-2.8,0.6-4c0.5-1.3,0.1-2.6,0.4-3.8c0.6-1.9,0.1-3.8,0.5-5.7
				c0.4-1.8,0.1-3.7,0.5-5.4c0.5-2.1,0.1-4.3,0.5-6.4c0.2-1.3,0.3-2.5,0.4-3.8c-0.3-0.5-0.9-0.1-1.2-0.3c-0.3-0.3,0.1-0.5,0.2-0.5
				c1.1-0.5,2.2-1,3.3-1.5c2.2-1.1,4.4-2.2,6.6-3.3c0.5-0.3,0.8-0.2,1.4-0.1c0,3.2,0.2,6.5-0.1,9.7c-0.2,1.7,0,3.4-0.5,4.9
				c-0.5,1.8-0.4,3.5-0.3,5.2c0,1.1-0.6,2-0.6,3.1c0.1,0.9,0.5,2-0.4,2.9c-0.1,0.1,0,0.3,0,0.4C144.9,199,143.9,202,144.2,205.1
				c-0.2,0-0.4,0.1-0.4,0.3c0,0,0.1,0.1,0.1,0.1C144.1,205.4,144.2,205.3,144.2,205.1z M169.1,248.6c-0.8-1.1-1.8-1.8-2.9-2.5
				c-1.7-1.1-3.1-2.6-4.7-3.9c-1-0.8-2.2-1.4-3-2.4c-0.3-0.4-0.3-1-0.8-1.3c-0.4-0.3-1-0.3-1.1-0.5c-0.5-0.7,0-1.3-0.5-1.6
				c-0.3-0.2-0.7,0-1.1-0.2c-1-0.3-1.5-1.3-2.3-1.7c-3.1-1.8-6.1-3.7-8.7-6.1c-0.2-0.2-0.3-0.4-0.5-0.5c-1.8-0.4-2.7-1.9-3.9-3
				c-0.9-0.8-1.3-2.2-2.6-2.6c-0.2-0.1-0.3-0.6-0.5-0.8c-1.5-0.4-2.9,0.3-4.3,0.6c-1.8,0.4-3.7,0.6-5.6,1.2
				c-0.9,0.3-1.9,0.3-2.8,0.4c-1,0.2-2.1,0.2-3.1,0.6c-1.6,0.6-3.3,0.4-5,0.4c-0.8,0-1.6,0-2.3,0c-1,0.1-1.9-0.1-2.9,0.4
				c-0.9,0.4-2.3,0.4-3.1-0.1c-1-0.6-1.5,0.1-2.2,0.2c-0.4-0.1-0.4-0.5-0.8-0.5c-2.6-0.1-5.2-0.1-7.8-0.3c-2.2-0.2-4.4-0.9-6.6-1.2
				c-2.1-0.3-4.1-0.9-6.4-1.5c-0.1-0.2-0.3-0.5-0.6-0.8c-1.4,0.5-2.6-0.4-3.8-0.4c-1.4,0-2.6-0.8-4-0.5c-2-1.3-3.5,0.1-5,1.2
				c-1.7,1.2-3.4,2.3-5.1,3.5c-1.7,1.2-3.6,2-5.1,3.4c-0.4,0.3-0.8,0.6-1.3,0.8c-0.5,0.2-1-0.3-1.6-0.3c0.1,1-0.2,1.4-1.1,1.8
				c-1.8,0.8-3.5,1.7-5.1,2.8c-1.5,1-2.9,1.9-4.5,2.8c-1.3,0.7-2.7,1.2-3.8,2.1c-1.2,0.9-2.4,1.8-3.7,2.5c-1.3,0.7-2.4,1.6-3.6,2.5
				c-2,1.5-4.3,2.6-6.2,4.3c-0.9,0.8-1.9,1.2-2.8,1.3c-0.6,1.7-2,2-3.4,2.4c0,0.3,0,0.6,0,1c0.4,0.4,0.9,0.9,1.5,1.3
				c0.5,0.4,1.2,0.7,1.6,1.1c1,1,2.4,1.2,3.6,1.7c1.2,0.5,2.3,1.3,3.5,1.6c1.2,0.3,2.4,0.9,3.6,1.6c1.2,0.7,2.5,1.2,3.8,1.5
				c0.2,0.1,0.4,0,0.6,0.2c1.9,1.9,4.9,1.8,6.9,3.6c1.8-0.3,3.2,1,4.7,1.6c1.3,0.5,2.7,1.1,4.1,1.5c1.4,0.5,2.8,1.4,4.5,1.1
				c0.5-0.1,0.7,0.5,1.2,0.5c0.3,0,0.6,0.4,1,0.4c2.2-0.1,4.3,0.3,6.4,0.9c0.8,0.2,1.8-0.2,2.5,0.2c0.8,0.4,1.5,0.3,2.2,0.3
				c0.9,0,1.6,0.5,2.4,0.5c3.2-0.2,6.4,0.7,9.6,0.6c1.6-0.1,3.2-0.4,4.7,0.4c0.2,0.1,0.7,0.1,0.9,0c1.7-0.7,3.3-0.7,5,0
				c0.2,0.1,0.5,0.1,0.7,0c1.2-0.9,2.5-0.3,3.8-0.4c0.6-0.1,1.4,0.2,1.8-0.1c0.7-0.6,1.5-0.4,2.2-0.4c0.8,0,1.5-0.7,2.4-0.5
				c0.8,0.3,1.4-0.6,2.1-0.5c1.7,0.3,3.3-0.8,5-0.5c0.2,0,0.5,0,0.7-0.1c1.8-0.8,3.7-0.8,5.6-1.2c0.9-0.2,1.8-0.7,2.8-0.6
				c0.7-1,1.9,0,2.7-0.8c0.5-0.5,1.4-0.1,2.1-0.5c3-1.7,6.4-2.2,9.5-3.7c1.9-0.9,4.1-1.4,6-2.4c0.7-0.4,1.4-0.6,2.2-0.4
				c0.4-0.8,1.3-1.1,2-1.4c1.9-0.7,3.8-1.5,5.6-2.4c1.5-0.7,2.9-1.8,4.5-2.1c1.8-0.4,2.9-2.2,4.8-2.1
				C165.1,250.8,167.3,250.1,169.1,248.6z M173.7,185.2c0,1,0,1.8,0,2.7c0.1,2.2,1,4.1,2.7,5.6c0.9,0.8,2,0.9,3.2,0.8
				c0.3-0.8,1.1-0.4,1.6-0.6c2.7-1.1,2.7-1,4-3.6c0.1-0.1,0.2-0.2,0.3-0.4c-0.2-2.1,0.4-4.4-0.5-6.5c-0.4-1-0.7-2.1-1.6-2.8
				c-3.4-0.4-6.2,0.9-8.7,2.9c0,0.4,0,0.7,0,1C174.3,184.5,174,184.8,173.7,185.2z"/>
			<path class="st11" d="M201.7,65.6c-0.2,0-0.4-0.1-0.4-0.3c0,0,0.1-0.1,0.1-0.1C201.7,65.2,201.8,65.3,201.7,65.6z"/>
			<path class="st11" d="M201.8,65.6c0.2,0,0.4,0.1,0.4,0.3c0,0-0.1,0.1-0.1,0.1C201.8,65.9,201.7,65.8,201.8,65.6z"/>
		</g>
		<g>
			<path class="st25" d="M83.5,167.3c1.3,2.2,3.2,3.6,4.5,5.6c0,0.7,0,1.5,0,2.5c1.5-1.1,2.8-1.9,3.9-3.1c0.8,0,1.5,0,2.3,0
				c1.2,1.1,2.3,1.8,4.2,1.1c1.5-0.6,3.2-0.2,4.8-0.1c0.5,0.7,1.3,0.4,1.9,0.4c2.1,0,4.2,0,6.3,0c0.7,0,1.4-0.3,2,0.4
				c0.2,0.2,0.8,0.2,1.1,0.1c1.5-0.8,3.2-0.3,4.7-0.4c1.5-0.1,3,0,4.4,0c1.3,0,2.5-0.7,3.7-0.4c0.3-0.3,0.5-0.7,0.9-0.5
				c1.6,0.3,2.4,1.5,3.4,2.4c0.5,0,0.9,0,1.4,0c2.2-1.7,4.4-3.3,7.6-2.7c2.5,1.1,3.5,3.7,5.3,5.7c0,1.6,0,3.3,0,5.1
				c-1,2.1-2.9,3.7-5,4.9c-1.2,0.7-2.2,1.6-3.2,2.4c-1-0.1-1.7,0.3-1.6,1.5c1.2,1.7,2.8,3.2,3.9,5.2c-1.8,1.6-3.2,3.6-5.3,4.7
				c0,0.9,0.8,1.5,1.2,1.6c1.9,0.3,2.7,1.9,3.5,3.2c0.8,1.3,2.2,2.1,2.7,3.5c0,0.1,0.1,0.3,0.1,0.4c-0.9,1.6-2.9,2-3.7,3.5
				c-0.1,1,0.4,1.7,1.1,2.4c1.9,1.8,3.6,3.8,5.2,6c0.5,0.8,1.5,1.2,2.2,2.1c0.6,0.9,1.4,1.8,2.5,2.3c1,0.4,1.6,1.3,2.4,2
				c2.1,1.7,4.4,3.1,6.4,4.9c2,1.7,4.3,3.1,6.5,4.6c2.8,2,5.6,4,8.6,5.8c2,1.2,3.9,2.6,5.9,3.8c2.2,1.4,4.4,2.9,5.6,5.7
				c-1.5,1.4-2.7,3.2-3.5,5.1c1.3,1.3,2.6,2.5,3.7,3.7c0.2,0.6,0.3,1.1-0.3,1.5c-0.9,0.6-1.3,1.7-1.9,2.5c-0.4,0.6-0.8,1.2-1.3,1.5
				c-1.7,1.2-2.8,3-4.1,4.6c-2.2,0.2-4.2-0.2-6-1.6c-0.6-0.4-1.5-0.6-2.2-0.9c-1.9-0.7-3.6-1.9-5.5-2.6c-0.4-0.1-0.7-0.3-0.9-0.6
				c-0.5-0.5-1.1-0.7-1.7-0.9c-1.3-0.5-2.5-1.3-3.5-2.4c-0.6-0.8-1.4-1.4-2.3-1.7c-0.7-0.3-1.2-0.8-1.6-1.3
				c-0.4-0.6-1.1-0.7-1.7-1.1c-1.6-1.2-2.9-2.8-4.4-4c-3.4-2.6-6.3-5.8-9.2-8.8c-2.4-2.6-4.8-5.2-6.9-8.1c-1.1-1.6-2.4-3-3.6-4.6
				c-0.6-0.9-1.7-1.2-2.5-2c-0.9-0.8-1.4-1.8-2.4-2.5c-0.9-0.7-1.9-1.2-2.7-2.1c-0.8-1-1.7-1.8-2.6-2.7c-0.9-0.9-1.8-1.8-2.6-2.6
				c-0.8-0.8-1.7-1.7-2.5-2.5c-0.9-0.9-1.8-1.8-2.6-2.6c-0.9-0.9-1.8-1.8-2.6-2.6c-0.8-0.8-1.7-1.7-2.5-2.5
				c-0.9-0.9-1.9-1.7-2.6-2.7c-2-2.6-4.5-4.6-6.6-7.1c-1.4-1.7-3-3.1-4.3-4.7c-0.8-1-2-1.7-3-2.4c-0.4-0.3-0.8-0.6-1.2-0.9
				c-0.7-0.6-1.1-1.4-1.9-2c-0.9-0.6-1.6-1.5-2.3-2.3c-0.7-0.7-1.4-1.4-2.2-2.1c-1.6-1.6-2.9-3.5-4.4-5.2c-1.3-1.5-2.4-3-3.6-4.6
				c-0.4-0.6-0.3-1.1-0.4-1.8C75.6,172.8,79.6,170.3,83.5,167.3z"/>
		</g>
		<g>
			<path class="st26" d="M40.8,87.7c-0.9-0.9-1.7-1.7-2.4-2.4c0-0.8,0-1.4,0-2.2c1-0.6,1-2.4,2.6-2.7c0.4-1.3,1.7-2,2.5-2.9
				c0.8-0.9,1.8-1.3,2.9-1.2c2.1-1.6,4-3.4,6.3-4.7c1.9-1.1,3.8-2,5.8-3c0.6-0.3,1.2-0.8,2.1-0.7c0.6,0.1,1.1-0.5,1.6-0.7
				c2.3-1,4.6-1.7,7.1-2.1c3-0.6,6-0.6,9-1c3.2-0.4,6.4-0.2,9.7-0.3c3.3-0.1,6.6-0.2,9.8,0.1c1.6,0.1,3.3,0.4,5,0.4
				c0.2-0.3,0.5-0.5,0.8-1c0.7,0.2,1.6-0.4,2.3,0.4c0.1,0.1,0.3,0.1,0.4,0.1c1.9-0.3,3.8,0.5,5.7,0.5c2.5-0.1,4.9,0.2,7.3,0.9
				c0.8,0.2,1.8,0.3,2.6,0.4c0.9,0.1,1.7,0.6,2.6,0.6c0.9,0,1.7,0.4,2.6,0.5c1.3,0.1,2.5,0.7,3.8,1c3.4,0.8,6.5,2.3,9.7,3.6
				c1.1,0.5,2.5,0.4,3.4,1.4c1-0.1,1.6,0.6,2.4,0.9c1.9,0.8,3.7,1.6,5.5,2.5c2.9,1.4,5.6,3.2,8.2,5c2.5,1.7,4.7,3.9,7.3,5.4
				c0.9,1.7,2.9,2.2,4.1,3.5c1.3,1.3,2.9,2.3,4,3.7c1.7,2.2,4.1,3.9,5.5,6.3c0.2,0.4,1,0.4,1.3,0.9c0,0.5,0,1.2,0,1.9
				c-0.6,0.6-1.2,1.4-2,2c-0.8,0.6-0.7,1.8-1.9,2.1c-0.9,0.2-1.1,1.6-1.9,2.3c-2.7-1.4-5.4-2.8-7.8-4.7c-2.2-1.8-4.6-3.1-6.9-4.7
				c-1-0.7-2-1.5-3-1.8c-1.2-0.3-1.8-1.7-3.1-1.5c-0.7-1.2-2.2-0.7-3.2-1.4c-0.9-0.7-2.1-0.5-3.1-0.9c-2.3-1-4.9-1.4-7.1-2.6
				c-0.8-0.4-1.7-0.1-2.7-0.3c-0.8-1-2.3-0.6-3.4-1.3c-2.2,0.1-4.2-1-6.4-1c-0.7,0-1.5-0.4-2.3-0.5c-0.8-0.1-1.5-0.7-2.2-0.8
				c-1.7-0.1-3.2-0.7-5-0.6c-1,0.1-2.1,0.3-3.1-0.4c-0.8-0.5-1.8,0-2.9-0.4c-1.1-0.4-2.5,0-3.8-0.5c-0.8-0.3-1.7,0.3-2.5-0.3
				c-0.8-0.5-2,0.2-2.6-0.4c-0.7-0.6-1.8,0.2-2.3-0.8c0-0.1-0.3,0-0.5,0c-2,0.3-3.9-0.4-5.9-0.6c-1.7-0.2-3.5,0-5.2-0.4
				c-2.8-0.7-5.5-0.2-8.2-0.4c-0.6,0-1.1,0.1-1.7-0.4c-0.4-0.3-1.4-0.3-1.8-0.1c-0.9,0.6-1.8,0.5-2.6,0.4c-1.6-0.2-3,0.5-4.5,0.5
				c-1.6,0-3.2-0.3-4.7,0.1c-1.4,0.3-2.9,0.1-4.3,0.5c-1.4,0.4-2.7,0.3-4,0.4c-0.9,0.1-1.7,0.6-2.6,0.5c-0.8-0.1-1.6-0.1-2.4,0.4
				c-0.4,0.2-1.1,0-1.6,0c-1.6,0-3.1,0.4-4.3,1.5c-0.6,0.6-1.7,0.1-2.1,1.3c0.3,0.6,0.6,1.3,1,2c-0.6,0.6-1.3,1.1-2,1.8
				c0.4,1.2-0.6,2.2-0.4,3.3c0.2,1,0.7,2,0.5,2.8c0.5-0.5,1.1-1.1,1.7-1.7c1.9,0,2.8,1.5,4.1,1.7c2.7,2.6,6.2,3.8,9.3,5.9
				c1.9,1.3,4,2.3,6.2,3c0.9,0.3,1.5,1.1,2.5,1.4c1.8,0.7,3.6,1.6,5.4,2.3c2,0.8,3.4,2.5,4.9,4c0.1,0.1,0.1,0.4,0.1,0.7
				c2.7-0.1,5.3,1,8.1,0.3c0.4-0.5,1-1.1,1.4-1.5c1.8-0.5,3.2,0.3,4.7,0.4c1.7,0.2,1.7,0.4,3.6-0.1c0.4-0.1,0.9,0,1.4-0.1
				c1.2-0.1,2.4,0.3,3.6-0.4c0.2-0.1,0.7-0.1,0.9,0c1.3,0.8,2.7,0.5,4,0.4c2-0.2,3.9,0.7,5.9,0.5c1.5,0.9,3.1,1.4,4.8,0.5
				c0.4-0.2,1.1-0.1,1.6-0.1c3.4,0.3,6.7-0.7,10.1-0.5c1.6-0.8,3.3-0.4,5-0.4c0.6,0,1-0.2,1.3-0.6c0.4,0.3,0.6,0.4,1,0.7
				c1.1-1.2,2.7,0,4-0.9c0.3-0.3,1.1-0.1,1.6-0.1c0.8,0,1.6,0.1,2.3,0c0.7-0.1,1.3-0.5,2-0.8c0.1-0.1,0.3-0.2,0.4-0.1
				c2.1,0.3,4.1-0.5,6.1-0.5c1.6,0,3.2-0.5,4.8-0.8c1.3-0.2,2.6-0.7,4-0.6c0.7,0,1.5,0.2,2.2-0.4c0.4-0.3,1.4-0.3,1.8,0
				c0.8,0.7,1.6,0.2,2.5,0.5c3.9,3.9,4.1,4.2,4.6,7.4c1.1-1.1,2.2-2.2,3.2-3.2c0.6,0,1.1,0,1.5,0c1,1,2,2,3,3c0.1,1.2,0,2.3-1.4,2.9
				c-0.3,0.1-0.4,0.6-0.5,0.9c-0.4,1.3-3.9,5.4-5.1,6.1c-0.1,0.1,0,0.6,0,0.9c-1.6,1.4-2.6,3.3-3.9,4.9c-1.3,1.6-2.2,3.6-3.6,5.2
				c-1.3,1.6-1.9,3.7-3.7,4.8c0,0.4,0,0.7,0,1c-1,1.1-1.9,2.2-3.3,2.7c0,0.5,0,0.8,0,1c-1.7,2.3-4.2,3.7-6.1,5.7
				c0.1,0.7-0.4,1.6,0.8,2.1c-1.1,1-1.9,2-3.2,2.4c-1.8,0.6-3.3,1.7-5,2.5c-1.7,0.8-3.3,1.9-4.9,2.9c-1.1,0.7-2.5,1.2-3.6,2
				c-0.8,0.6-1.7,0.4-2.4,0.4c-2.4,1.8-5,2.3-7.7,2.4c-1.2,1.1-2.9,1.4-4.4,1.7c-1.9,0.4-3.6,1-5.4,1.6c-1.6,0.5-3.2,0.9-4.8,1.2
				c-0.9,0.2-1.4,0.7-2.5,1c-3.5,0-7.3,0-11.1,0c-2.2,0-4.4,0.2-6.8-0.6c-0.2,0.4-0.5,0.8-0.6,1c-1,0.3-1.9-0.1-2.4,0.6
				c-0.6,0.2-0.7-0.6-1.3-0.5c-1.1,0.1-2.2,0-3.3,0.1c-3,0.3-5.7-0.7-8.5-1.6c-1.7-0.5-3.4-1.2-4.9-2.4c-0.7-0.6-1.6-0.7-2.4-1
				c-2.3-0.8-4-2.6-6.3-3.5c-0.7-1.4-2.2-1.8-3.2-3c-0.9-1.2-1.7-2.5-2.9-3.5c-0.8-0.7-0.9-1.9-0.7-3c1.2-1.4,2.2-3.1,4.2-3.7
				c0-0.4,0-0.7,0-1c-2-2-3.8-4.1-5.4-6.4c-0.3-0.5-0.8-1-1.4-1c-0.3-0.9-0.9-1.5-1.5-2.2c-1.3-1.4-2.2-3.2-3.4-4.7
				c-1.6-2-2.7-4.3-3.7-6.6c0.3-1.1-1.4-1.3-0.9-2.4c-1.2-1.8-1.6-3.9-2.4-5.8c-0.5-1.1-0.8-2.3-1.2-3.5c-0.5-1.1-0.9-2.3-1.1-3.5
				c-0.2-1.6-0.9-3.1-1.4-4.5c-0.3-0.9-0.1-2-0.8-2.7c0.3-1.9-0.9-3.4-1-5.2c-0.2-2.1-1-4.2-0.8-6.4c0.1-1.7,0.6-3.2,1.5-4.8
				C38.1,90.5,39.5,89.2,40.8,87.7z"/>
		</g>
		<g>
			<path class="st27" d="M178.5,107.3c-1.3,1.7-3.1,2.3-3.9,3.5c-2,0.9-3.9,1.3-5.8,1.4c-2,0.2-3.8,1.3-5.9,1.1
				c-0.7-0.1-1,0.5-1.7,0.5c-0.6,0-1.2-0.2-1.8,0.3c-0.3,0.2-0.9,0.1-1.3,0.2c-0.9,0.1-1.8-0.2-2.7,0.4c-0.5,0.3-1.4,0.2-1.9-0.5
				c-0.6,0.5-1.3,0.6-2.1,0.5c-3-0.3-5.9,0.8-8.9,0.5c-2.1,0.9-4.2,0.3-6.4,0.5c-1.2,0.1-2.5,0.4-3.7,0.7c-0.4,0.1-0.7,0.2-1.1,0.2
				c-3,0-6.1,0-9.1,0c-1,0-1.8-0.6-2.9-0.5c-0.9,0.1-2,0.3-2.8-0.4c0,0-0.2,0-0.2,0c-2.2,0.4-4.2-0.5-6.4-0.5
				c-1.4,0-2.9-0.2-4.3-0.8c-0.2-0.1-0.4-0.1-0.7-0.1c-2,0.1-3.9-0.8-5.9-0.5c-0.6,0.1-0.8-0.4-1.2-0.5c-0.5,0-0.9,0.8-1.4,0.5
				c-1.1-0.7-2.2-0.4-3.3-0.4c-0.8,0-1.6-0.4-2.4-0.6c-0.9-0.3-1.7-0.4-2.6-0.4c-2.2-0.1-4.4-0.6-6.6-1.1c-0.9-0.2-1.8-0.4-2.7-0.7
				c-0.9-0.2-1.9-0.5-2.8-0.6c-2.4-0.4-4.8-1.2-7.1-2c-1.2-0.4-2.5-0.5-3.7-1.2c-1.1-0.6-2.1-1.3-3.4-1.5c-0.8-0.1-1.2-1.3-2.2-0.9
				c-1.2-1.1-2.8-1.6-4.2-2.3c-1.4-0.7-2.6-1.8-4.2-2.3c-0.2-0.1-0.3-0.3-0.5-0.5c-1.1-1.1-2.2-2.4-4.1-3.2c-0.1,0-0.7,0-1.5,0
				c-0.3,0.2-0.6,0.6-1.2,1.1c-1.2-1.2-2.2-2.4-3.5-3.4c-1.2-1.1-1.8-2.6-3.2-3.7c1.3-1.5,2.5-3.1,4.3-3.8c1.6-0.6,3.4-0.8,5.2-1.1
				c0.2-0.2,0.5-0.5,0.8-0.8c1.6,0.1,3-0.4,4.5-0.8c0.1,0,0.3-0.1,0.4-0.1c2.1,0,4.1-0.4,6.2-0.9c0.6-0.1,1.2,0,1.9,0
				c1,0,1.9,0,2.9-0.4c0.9-0.4,2,0.4,2.8-0.5c0,0,0.2,0,0.2,0c2,0.2,3.9-0.7,5.9-0.5c1.9,0.1,4-0.3,5.8,0.1c2.4,0.5,4.7,0.3,7.1,0.4
				c0.5,0,0.9,0,1.1,0.8c0.8-1,1.9-1.1,2.6-0.7c1,0.5,2,0.4,2.9,0.3c1.2-0.1,2.2,0.5,3.3,0.5c1.1,0.1,2.3-0.5,3.3,0.4
				c0.1,0.1,0.3,0,0.5,0c2.2-0.3,4.4,0.8,6.6,0.5c0.8-0.1,1.3,0.6,2.2,0.5c0.6,0,1.4-0.3,2,0.3c0.2,0.2,0.7,0,1.1,0.1
				c1,0.1,2-0.3,2.9,0.3c0.8,0.5,1.9-0.3,2.5,0.6c2-0.3,3.8,0.7,5.7,0.9c2.5,0.4,5,0.8,7.6,1c1.3,0.1,2.6,0.9,4.1,0.9
				c0.8,1,2.3-0.1,3.1,0.9c1.9,0.1,3.7,0.7,5.5,1.4c1.6,0.6,3.5,0.4,5,1.4c2.6,0.2,4.9,1.4,7.3,2.2c3.8,1.3,7.7,2.5,11.5,3.9
				c1.8,0.6,3.6,1.5,5.4,2.2c0.1,0.1,0.3,0,0.4,0.1C174.2,102.5,176.8,104.4,178.5,107.3z"/>
		</g>
		<g>
			<path class="st24" d="M28.9,88.7c-1.9-0.4-3.7-0.8-5.4-1.2c-2.8-0.7-5.2-2.2-7.6-3.7c-1.3-0.8-2.6-1.7-3.8-2.6
				c-1.3-1-2.3-2.3-3.4-3.4c-0.6-1.5-1.2-2.9-1.6-4.4c-0.5-1.6,0.7-3.1,0.4-4.7c1.3-1.3,1.9-3,3.2-4.3c0.9-0.9,2.3-2.3,3.4-2.5
				c0.9-0.2,1.8-1.1,2.6,0c4.5,0.1,7.7,2.8,11.2,5.2c1,0.7,1.5,1.6,2.5,2.2c0.9,0.6,1.6,1.6,2.2,2.5c0.6,0.8,1.2,1.9,2.5,1.8
				c0.1-0.1,0.3-0.2,0.4-0.3c1.8-2.1,4.2-3.6,6.6-4.9c3.4-1.9,7-3.4,10.7-4.7c2.3-0.8,4.6-1.8,6.9-2.4c2.8-0.7,5.5-2.2,8.4-2.2
				c0.7-0.8,1.7-0.3,2.5-0.8c0.8-0.5,2,0.2,2.7-0.2c1.5-0.9,3.3-0.5,4.9-1.3c0.2-0.1,0.5-0.1,0.7-0.1c2.4,0.3,4.7-0.6,7.1-0.5
				c0.6,0,0.9-0.4,1.4-0.5c0.5,0.1,0.9,0.8,1.4,0.4c1.1-0.7,2.2-0.4,3.3-0.4c2.9,0,5.8,0.1,8.7-0.1c2.2-0.1,4.4,0.8,6.6,0.5
				c1,0.6,2,0.5,3.1,0.4c1-0.1,1.9,0.4,2.8,0.6c1.2,0.2,2.4,0.2,3.5,0.5c1.1,0.3,2.1,0.5,3.2,0.8c1.1,0.3,2.3,0.7,3.4,0.9
				c1.8,0.4,3.5,0.8,5.3,1.5c2.2,0.8,4.5,1.6,6.7,2.4c0.3,0.1,0.6,0.4,1,0.4c1,0,1.8,0.4,2.7,0.8c1.9,0.9,3.9,1.6,5.7,2.6
				c2.1,1.1,4.4,2,6.4,3.1c2,1.2,4,2.4,6.1,3.3c0.7,0.3,1,1.3,2,1.4c1.9,2,4.6,2.7,6.5,4.6c1.4,0.3,1.9,2,3.2,2.3
				c3.1,3,6.5,5.7,9.4,8.9c0.7,0.8,1.3,1.7,2.2,2.3c0.8,0.6,1.1,1.7,1.6,2.6c0.6,0.9,1.4,1.7,1.6,2.8c0,0.3,0.4,0.5,0.6,0.8
				c1.6-0.8,2.8-1.8,4.2-2.6c1.7-0.9,3.5-1.3,5.4-1.8c3.3-1,6.7-0.3,10.1-0.5c2,0.8,4.2,0.7,5.8,2.4c0.6,0.7,1.6,1.1,2.4,1.5
				c1.7,0.9,3.4,1.7,4.4,3.4c0.2,0.3,0.6,0.5,0.7,0.6c0.1,1.8,1.3,2.9,1.4,4.6c-1.2,2.7-3.4,5-4.6,7.7c-0.6,0.4-1.1,0.2-1.8,0.3
				c-1.1,1.5-3.1,1.7-4.9,2.3c-1.5,0.5-3.2,0.7-4.8,1c-0.7,0.1-1.5-0.2-2.1,0.5c0,0-0.2,0-0.2,0c-0.9,0.2-1.7-0.4-2.6-0.5
				c-0.9-0.1-1.8,0.1-2.6-0.1c-0.8-0.2-1.7-0.5-2.5-0.8c-2.2-1-4.5-1.5-6.5-2.8c-0.2-0.1-0.6,0-1,0c0,1.2-0.8,2.1-1.2,3.2
				c-0.5,1.1-1.4,2.1-1.3,3.5c0,0.2-0.3,0.5-0.4,0.7c-1,1.3-1.2,2.9-2.3,4.2c-0.8,0.9-0.8,2.3-1.4,3.4c-0.6,1-1,2.1-1.8,3
				c-1.2,1.5-1.8,3.3-2.9,4.9c-0.7,1.1-1.6,2.2-2.1,3.3c-0.8,1.8-1.8,3.3-2.8,4.9c-1.2,2.1-2.6,4.1-4.1,6.1c-1,1.2-1.8,2.5-2.8,3.8
				c-0.9,1.2-1.8,2.4-2.8,3.5c-1.9,2.2-4,4.4-6.3,6.3c-1.8,1.5-3.8,2.9-6.2,3.6c-1.8,0.5-3.3,1.7-5,2.6c-2.8,1.3-5.5,2.8-8.6,3.6
				c-1.3,0.3-2.7,0.6-3.9,1.3c-1.1,0.7-2.6,0.7-3.8,0.8c-1.4,0.1-2.9,0.4-4.2,0.7c-2.6,0.5-5.4,0.3-7.9,1.3c-0.1,0-0.2,0-0.2,0
				c-2.8-0.3-5.5,0.7-8.2,0.5c-2.8-0.2-5.6,0.2-8.4-0.1c-1.8-0.2-3.7-0.1-5.4-0.5c-1.8-0.3-3.6-0.7-5.2-1.4c-2.3-1-4.6-1.8-6.8-2.7
				c-1.5-0.6-2.9-1.2-4.4-1.9c-1.6-0.8-3.4-1.4-5.1-1.8c-0.6-0.2-1.2-0.4-1.6-0.7c-3-2.2-5.6-4.8-8.1-7.6c-1.7-1.9-3.5-3.8-5-5.9
				c-1.4-1.9-3.1-3.5-4.4-5.5c-1.6-2.5-3.8-4.5-4.8-7.4c-0.3-0.9-0.9-1.7-1.5-2.4c-1.5-1.8-2.3-4.1-3.5-6c-0.4-0.7-0.7-1.4-1.2-2.1
				c-0.4-0.5-0.5-1.3-1-1.9c-1-1.4-1.5-3.2-1.9-4.8c-0.4-1.5-1.3-2.9-1.6-4.5c-0.2-1.5-0.9-3.1-1.6-4.5c-0.5-1,0.2-2.2-0.7-3
				c0.3-1.2-0.7-2.2-0.5-3.3c-1-0.7,0.1-2.2-0.9-2.9c0.3-1.3-0.6-2.5-0.5-3.8c0.1-1.6-0.3-3.1-0.8-4.6c-0.1-0.2-0.1-0.4-0.1-0.7
				c0-2.8-0.8-5.6-0.5-8.5C30.1,90.4,29.8,89.5,28.9,88.7z M159.2,142.8c-0.2,0-0.3-0.1-0.5,0c-2.6,1.2-5.1,2.5-7.4,4
				c-0.9,0.6-1.8,1.1-2.7,1.5c-1.1,0.6-2.4,0.8-3.2,1.9c-0.2,0.2-0.6,0.4-0.9,0.5c-2.7,0.9-4.9,2.8-7.5,3.9
				c-0.4,0.1-0.5,0.7-0.6,0.8c-1,0.1-1.8-0.1-2.2,0.2c-1.8,1.3-4.1,1.3-6.1,2.3c-0.2-1-1.2-1.2-1.5-2c-0.3-0.8-0.8-1.6-1-2.4
				c-0.2-0.9,0-1.9-0.1-2.8c-0.2-0.9,0.9-1.6,0.3-2.6c-0.3,0-0.7,0-1.1,0c-0.1,0.9-0.9,1.3-1.6,1.6c-0.8,0.4-0.8,1.6-1.5,1.9
				c-0.9,0.3-1,1.1-1.4,1.6c-0.5,0.6-1.3,0.8-1.8,1.5c-0.4,0.7-1.1,1.2-1.7,1.9c-0.6,0.6-1.1,1.3-1.6,1.8c-0.5,0-0.8,0-1.1,0
				c-0.3,0.5-0.3,1.2-1,1.4c-1,0.4-2,1-3,1.2c-1.6,0.3-3.1,1.5-5,1c0-0.5,0-1,0-1.6c-0.8-0.3-1.2-1.2-1.3-1.8
				c-0.2-1-1.1-1.1-1.6-1.7c-1.3-1.7-2.7-3.4-4-5.1c-0.5-0.6-0.6-1.3-0.9-2c-0.8,0.2-1.5-0.1-1.6-0.7c-0.2-0.6-0.5-0.9-0.9-1.3
				c-1.2-1.2-2.1-2.5-3-3.9c-0.5-0.7-1.3-1.2-1.5-1.9c-0.9-0.4-1.3,0.1-1.6,0.5c-0.6,3.2-1.3,6.1-3.2,8.5c-1.2,1.3-2.7,1.3-4.2,1.2
				c-3.9,2.3-3.9,2.3-5.8,2.2c-0.8-1.1-2.1-1.7-2.6-3.1c-0.6,0-1.2-0.4-1.6-0.7c-2-1.9-3.9-4-6.1-5.6c-0.5-1.4-1.9-1.8-2.8-2.8
				c-0.4-0.4-0.9-0.4-1.3-0.8c-2.6-3-6-5.3-8.7-8.3c-0.3-0.3-0.6-0.7-1-1c-0.6-0.5-1.3-1-2.2-1c0-0.2-0.1-0.4-0.3-0.4
				c0,0-0.1,0.1-0.1,0.1c0,0.2,0.2,0.3,0.4,0.3c0,0.2-0.1,0.3,0,0.5c1.3,3,2.8,5.9,4.7,8.6c0.7,1,1.1,1.9,0.9,3.1
				c0.9,0,1.2,0.3,1.5,1c0.3,0.7,0.9,1.4,1.3,2c1.2,2.1,2.5,4.1,4.3,5.7c0,0,0,0.2,0,0.2c0.7,1.7,1.9,2.9,2.9,4.4c1,1.4,1.8,3,3.4,4
				c1.4,0.9,2.1,2.6,3.4,3.8c2.6-0.5,5.2,0.5,7.9,0.4c0.5,0.5,1.3,0.5,1.6,1.2c0.6,1-0.8,1.8-0.4,2.8c0.8,0.6,1.8,0.8,2.8,0.6
				c1.7-0.2,3.3,0.7,4.9,0.5c0.8,0.9,1.9,0.1,2.6,0.5c0.9,0.5,1.8,0.4,2.6,0.4c1,0,2,0,3,0c1.9,0.1,3.8-0.4,5.7,0.4
				c0.3,0.1,0.7,0.1,0.9,0c1.7-0.9,3.7-0.7,5.5-1.3c1.2-0.4,2.5,0,3.8-0.4c1.2-0.4,2.7-0.3,4-0.4c1.7-0.1,3.2-0.9,4.9-0.6
				c0.2,0,0.5,0,0.6-0.1c0.7-0.7,1.8-0.1,2.5-0.8c0.7-0.7,1.8-0.2,2.6-0.5c2.3-1,4.9-1.5,7.1-2.5c1.5-0.7,2.7-1,4-0.2
				c0.6-0.4,0-1,0.5-1.4c0.3-0.5,1-0.4,1.3-0.8c0.4-0.6,1.2-0.4,1.6-0.7c2.4-1.9,5.1-3.3,7.3-5.4c3.2-3,6.1-6.1,8.4-9.8
				C158,145.1,158.9,144.1,159.2,142.8c0.2,0,0.4-0.1,0.4-0.3c0,0-0.1-0.1-0.1-0.1C159.2,142.4,159.1,142.6,159.2,142.8z
				 M73.2,106.7c0.6,0.2,1.1-0.1,1.6,0.2c1.1,0.8,2.6,0.5,3.7,1.3c2.9-0.1,5.6,1.5,8.5,1.4c0.9,0.7,2.2,0.1,3,0.6
				c1.1,0.6,2.1,0.2,3.1,0.4c0.2,0,0.6-0.1,0.7,0.1c0.8,0.8,1.9,0,2.6,0.5c0.9,0.5,1.8,0.4,2.6,0.4c0.4,0,0.9-0.2,1.1,0
				c0.7,0.6,1.6,0.5,2.4,0.4c1-0.1,1.7,0.5,2.6,0.5c1.6,0,3.1,0.1,4.7,0c1.6-0.2,3,0.5,4.5,0.5c2.7,0,5.5,0.1,8.2,0
				c2.7-0.1,5.3,0.2,8-0.4c1.9-0.4,4,0.3,5.9-0.5c3.2,0.3,6.4-0.6,9.6-0.5c1,0,2.1-0.1,3.1-0.3c1-0.2,2-0.6,3.1-0.6
				c0.8,0,1.8,0.3,2.5-0.2c0.8-0.5,1.5-0.3,2.2-0.2c0.9,0.1,1.6-0.4,2.4-0.6c1.1-0.3,2.2-0.3,3.3-0.4c0.3,0,0.7,0.1,0.9-0.1
				c0.7-0.8,1.6-0.4,2.4-0.4c0.9,0,1.5-0.6,2.4-0.5c2.5,0.3,4.8-0.6,7.1-1.5c0.2-1.2,0.1-2.2-0.4-4.3c0-0.1,0-0.3,0-0.5
				c-0.1-1-0.4-2-1-2.9c-0.6-0.8-0.7-1.9-1.3-2.8c-1-1.6-2.4-2.9-3.6-4.3c-2.7-3.1-5.7-6-9.1-8.4c-1.9-1.3-3.8-2.6-5.7-3.9
				c-1.9-1.4-3.8-2.7-6-3.5c-1.4-0.5-2.7-1.4-4.2-1.8c-1.2-0.4-2.7-0.4-3.5-1.6c0,0-0.1-0.1-0.2,0c-1.5,0.3-2.5-1.3-4.1-1
				c-1.6-1.1-3.6-1.4-5.4-2.1c-2.3-1-4.9-1.5-7.3-2.1c-1.6-0.4-3.4-0.3-4.9-1.3c-0.2-0.1-0.4-0.2-0.6-0.1c-2.2,0.3-4.3-0.8-7-0.4
				c-0.3-0.3-0.8-0.8-1.2-1.2c0,0.1-0.1,0.4-0.2,0.5c-3.6,0.5-7.1-0.7-10.6-0.4c-1.4,0.1-2.9-0.3-4.3,0.4c-0.6,0.3-1.3-0.2-1.9-0.5
				c-0.5,0.3-0.9,0.6-1.5,0.5c-2.4-0.3-4.7,0.8-7.1,0.5c-0.2,0-0.4-0.1-0.5,0c-0.7,0.7-1.8,0.1-2.3,0.5c-0.9,0.7-1.8,0.3-2.7,0.4
				c-0.4,0.1-0.7,0.2-1,0.3c-1.4,0.4-2.8,0.8-4.2,1c-1.2,0.2-2.5,0.4-3.6,0.9c-1.2,0.5-2.4,0.7-3.6,1c-1.6,0.5-3.2,0.9-4.8,1.5
				c-2.7,1.1-5.6,1.6-8.1,3.1c-0.2,0.1-0.4,0.1-0.6,0.2c-0.8,0.3-1.7,0.4-2.4,0.9c-0.7,0.5-1.7,0.3-2.3,1.3
				c-0.4,0.6-1.5,0.7-2.3,1.1c-0.1,0.1-0.2,0.2-0.3,0.3c-1.7,1.2-3.1,2.7-4.6,4.1c0,0.5,0,0.9,0,1.4c0.3,0.5,0.7,1,1,1.5
				c0.9,1.4,2,2.8,3.1,4.1c1.1,1.3,2.1,2.7,3.2,4.1c0.8,1,1.8,1.7,2.7,2.6c1.6,1.7,3.6,2.8,5.6,3.9c3.2,1.8,6.8,2.7,10,4.7
				c2,0,3.4,1.8,5.5,1.4c0.1,0,0.1,0.1,0.2,0.1C72.6,106.1,72.9,106.4,73.2,106.7z M44,109.1c0.4,1.5,1.6,2.3,2.5,3.3
				c1.1,1.2,2.3,2.3,3.5,3.5c1.2,1.2,2.3,2.7,3.7,3.5c1.4,0.8,2.1,2.2,3.3,3.1c2.1,1.6,3.9,3.7,5.9,5.5c3.4,3,6.9,6,10,9.4
				c0.6,0.6,1.1,1.4,2,1.5c0,0.5,0.1,0.8,0.1,1.1c1.2,0.3,1.2,0.3,2.7,1.5c0.3-0.1,0.6,0.1,0.9-0.2c0-1.7,1.1-3.1,1.8-4.5
				c0.8-1.6,1.9-2.9,2.6-4.6c0.3-0.2,0.8,0.1,1.2-0.3c0.7-0.8,1.6-0.9,2.5-1.2c1.3-0.6,2.8-0.7,4-1.6c0.6-0.4,1.2-0.3,1.9,0
				c0.7,0.3,1.2,0.9,1.8,1.4c0.5,0.5,0.6,1.3,1.4,1.5c0.1,1,1.1,1.2,1.5,2c0.6,1.3,1.9,2,2.6,3.1c0.5,0.8,1,1.4,1.5,2.1
				c0.6,0.9,1.5,1.6,2.2,2.4c0.5,0.6,1.2,1,1.6,1.7c1.2,2,2.5,3.9,4.2,5.5c0.3,0.3,0.6,0.5,0.5,1c0,0.1,0.2,0.1,0.4,0.2
				c0.2,0,0.5,0,0.7,0c1.4-0.8,1.9-2.4,3-3.4c0.7-0.6,1.4-1.3,2-2c0.5-0.6,1.3-1,1.5-1.9c0.2-0.9,1.7-0.7,1.8-1.8
				c0.8,0,0.8-0.9,1.3-1.3c0.9-0.7,1.1-2.2,2.2-2.6c1.5-0.6,2.9-1.6,4.5-2.1c1.2-0.4,2.7-0.3,3.5-1.3c0.9,0,1.7,0,2.5,0
				c2.1,4.1,3.1,8.4,2.9,13.1c0.6-0.1,0.9,0,1.3-0.2c1.3-0.7,2.6-1.3,3.8-2c1.3-0.8,2.9-1.1,3.9-2.5c2.8-0.8,4.6-3.3,7.5-3.8
				c1.4-1.5,3.4-2.2,5.2-3.3c2.2-1.3,4.4-2.9,6.9-3.6c0.8-0.2,1.5-0.5,2.2-0.9c0-0.3-0.1-0.6,0-0.7c1.7-2.3,2.6-5,4-7.5
				c0.8-1.3,0.9-3,2-4.1c0.2-0.1,0.2-0.8-0.3-1.1c-0.5,0-0.9,0.6-1.6,0.5c-2-0.1-4,0-5.9,0.9c-2.6,0-5.2,0.9-7.8,0.9
				c-0.3,0-0.8-0.1-0.9,0c-0.8,0.9-1.8,0.4-2.6,0.4c-1,0-1.8,0.6-2.9,0.5c-3-0.2-5.9,0.8-8.9,0.4c-1.6,0.7-3.3,0.5-5,0.4
				c-0.5,0-0.7,0.7-1.3,0.4c-0.1-0.5-0.6-0.3-1.1-0.4c-1.8-0.3-3.4,0.6-5.2,0.5c-3.1-0.1-6.2-0.2-9.4,0c-3.2,0.2-6.2-0.7-9.4-0.5
				c-2.3,0.2-4.5-0.8-6.8-0.5c-0.1,0-0.3,0-0.4-0.1c-2.1-0.9-4.5-0.7-6.7-1.3c-1-0.2-2-0.1-3.1-0.5c-1-0.3-2.1,0.2-3.1-0.5
				c-2.9,0.1-5.6-1.5-8.5-1.4c-2.9-1.4-6.2-1.9-9.3-3.1c-1.8-0.7-3.6-1.4-5.5-2.1c-3.4-1.2-6.7-2.6-9.9-4.3c-1.5-0.8-3-1.8-4.5-2.7
				c-2.6-1.5-5.1-3.3-7.4-5.2c-1.5-1.1-3-2.2-4.5-3.3c0,0-0.1,0-0.4,0c0,1.3,0,2.6,0,3.9c1,0.7,0.1,1.9,0.7,2.7
				c0.5,0.8,0.1,1.8,0.2,2.7c0.1,1,0.8,1.8,0.5,2.9c0,0.1,0.1,0.3,0.2,0.4C42.8,109.1,43.3,109.1,44,109.1z M199.1,103.5
				c-0.3,0.6-1.1,0.3-1.3,0.9c-1.4-0.1-2.5,0.7-3.7,1.3c-0.1,0.1-0.3,0.1-0.4,0.1c-1.6,0.5-2.8,1.5-4,3.1c1.3,0.2,2.2,0.8,3.4,0.7
				c1.1,0,2.2-0.2,3.3,0.3c0.9,0.4,2.1-0.5,3.3-0.4c1.1,0.1,2.1-0.7,3.1-0.4c1.8-1.2,3.8-1.8,5.4-2.9c0-0.8,0-1.5,0-2.1
				c-0.2-0.2-0.4-0.4-0.6-0.6C204.9,103.5,202.1,103.5,199.1,103.5z M17.4,75.6c0.5,0.9,1,1.7,1.6,2.6c2.8,0.9,5.9,1.6,9.1,1.9
				c0-0.5,0.1-0.7,0-0.9c-0.6-1.1-0.9-2.3-1.9-3.2c-0.7-0.5-1.5-1.1-1.8-1.8c-0.5-1.6-1.7-2.4-2.6-3.5c-1.6,0-3.2-0.3-4.4,1.1
				C17.4,73,17.4,74.3,17.4,75.6z"/>
		</g>
		<g>
			<path class="st28" d="M89.7,101.6c-1.7,0-3.5-0.1-5.2,0c-1,0.1-1.7-0.6-2.6-0.5c-0.9,0.1-1.8-0.2-2.6-0.5
				c-2.1-0.7-4.2-1.1-6.7-0.9c-0.3-0.4-0.7-1-1.2-1.4c-2.2-1.6-3.1-4.2-4.8-6.2c-0.1-1.5-1.6-2.7-1-4.3c-0.4-0.4-0.7-0.7-0.9-0.9
				c0.1-2.2-0.7-4.3-0.6-6.6c0.1-1.1,0.9-2.1,0.5-3.3c-0.3-1.1,0.4-2,0.6-3.1c0.1-0.9,0.8-1.9,1.9-2.3c1.2-0.5,2.3-1,3.6-0.9
				c1.1,0,2.2,0,3.3,0c1.8-0.1,3.6,0.2,5.2,0.9c0.2,0.1,0.5,0,0.7,0c0.9,0.6,1.3,1.7,2.5,2c0,0.2,0,0.5,0.1,0.6
				c1.2,1.3,1.5,3,2.3,4.4c1.3,2.4,2.1,4.9,3,7.4c0.9,2.5,2.2,4.9,2.9,7.5c0.1,0.4,0.2,0.8,0.3,1.3c0,1.2-0.1,2.5,0,3.7
				C90.9,99.7,90.6,100.6,89.7,101.6z"/>
			<path class="st28" d="M103.5,101c0-0.7,0-1.3,0-1.6c2-3.9,5-5.6,9.1-5.2c0.9-0.7,0.9-2,2.4-2.4c0.1,0,0.8,0,1.4,0
				c0.8-0.9,1.8-1,2.9-0.9c1.2,0,2.3,0,3.5,0c1.5,0,3,0.4,4.3,1c1,0.5,2,0.8,3,1.3c2.2,1.1,4.2,2.4,6.1,3.9c0.8,0.6,1.6,1.2,2.3,1.9
				c1.2,1.2,2.5,2.3,3.4,4.1c0,0.3,0,1,0,1.5c-0.6,2.2-2.2,3.4-3.6,4.8c-1.8,1.8-3.9,2.7-6.4,2.7c-0.9,0-1.9-0.1-2.8,0
				c-1.5,0.2-2.8-0.7-4.3-0.5c-1.3,0.2-2.5-0.7-3.8-1c-1-0.2-2-0.6-2.9-0.8c-2.6-0.4-4.9-1.4-7.1-2.7
				C108.1,105.4,105.9,103.1,103.5,101z"/>
			<path class="st28" d="M165.2,98.2c-1.7,3-3.2,5.7-5.4,8.1c-2.1,0.1-3.9-1.6-5.8-0.9c-3.4-1.7-6-4-8.3-6.6c-1.5-1.8-3-3.6-3.5-6
				c0-0.1-0.1-0.3-0.2-0.4c-1.6-1.9-0.4-3.6,0.5-5.2c0.5-1,1.1-2,2-2.5c0.4-1.8,1.5-2.9,2.7-4.1c0.4,0,0.9,0.1,1.3,0
				c2.8-0.4,4.8,1.1,6.9,2.6c2.5,1.8,4.4,4.1,6.6,6.1c0.5,0.5,0.9,1,1.2,1.6c0.5,1.1,1.1,2.1,1.6,3.1
				C165.5,95.4,165.1,96.9,165.2,98.2z"/>
		</g>
		<g>
			<path class="st29" d="M67.4,7.8c3.9-1.7,7.6-2.4,10.8-2.6c3.1,1,5.2,2.3,6.9,4.5c-0.1,1.1,1,2,1.1,3.3c0.1,0.8,0.7,1.6,0.8,2.5
				c0,0.9,0.4,1.8,0.6,2.6c0.7,3.1,1.3,6.3,2.1,9.4c0.9,3.4,1.8,6.9,2.9,10.3c0.5,1.7,1.4,3.2,1.4,5c1,1,1.2,2.3,1.6,3.6
				c1.3,4.4,3.3,8.5,5.1,12.6c0.8,1.8,1.5,3.8,2.2,5.6c0.2,0.5,0.3,1,0.6,1.4c0.9,1.3,1.2,2.8,1.8,4.2c0.6,1.4,1.3,2.7,1.9,4.1
				c0.7,1.9,2.1,3.6,3,5.5c0.9,1.8,1.5,3.8,1.5,6c-1.3-0.2-2.6,0.3-3.7-0.5c-0.1-0.1-0.3,0-0.5,0c-2.5,0.2-5-0.8-7.5-0.5
				c-1.5,0.2-2.6-0.5-3.1-1.9c-1-2.5-2.2-4.9-3-7.4c-0.7-2.2-1.7-4.3-2.4-6.5c-1.4-4.5-3-8.9-4.5-13.3c-0.7-2-1.4-3.9-2.3-5.8
				c-0.9-1.9-1.9-3.8-2.4-5.8c-0.2-0.8-1-1.2-1.5-2c-1.6-2.6-3.8-4.8-6.4-6.4c-0.8-0.5-1.1-1.5-2.2-1.5c-1.2-1.8-3.6-2.3-4.5-4.4
				c-1.1,0-1.1-1.3-2-1.7c-1.8-0.8-2.7-2.5-3.1-4c-0.5-2-1.5-3.8-1.4-6c-1.3-2,0-3.9,0.5-5.7c0.4-1.4,1.5-2.4,2.9-2.9
				C65.9,9.1,66.9,8.5,67.4,7.8z"/>
		</g>
		<g>
			<path class="st30" d="M62.8,19.3c2.3,3.8,6,5.9,9.5,9.2c0.9,0.1,1.9,1.3,3,2.2c1.9,1.6,3.9,3,5.5,4.9c0.7,0.9,1.2,1.9,1.6,2.9
				c1.7,4.6,4.2,8.9,6.2,13.3c0.1,0.2,0.4,0.4,0.4,0.5c0,1.3,0.9,2.3,1.4,3.4c1.2,2.5,2.2,5,3.3,7.5c0.8,2,1.5,4,2.3,6.1
				c1.5,3.8,3.4,7.4,4.5,11.2c0.3,1.1,0.9,2.2,0.6,3.5c-1.6,0.4-3.2,1-5,0.6c-0.2-0.2-0.4-0.5-0.7-0.7c-1.7-0.3-3.3-0.9-4.8-0.6
				c-1.5-1.5-1.8-3.5-2.6-5.2c-0.9-1.9-1.7-3.8-2.3-5.8c-1.3-4-3.4-7.8-4.9-11.8c-0.7-1.9-1.8-3.6-2.3-5.6c-1-0.8-1.3-2-1.8-3
				c-1-1.8-1.7-3.8-2.6-5.7c-1.5-2.9-3.4-5.2-6.1-7c-1.1-0.7-1.9-1.7-2.9-2.5c-1.4-1.2-3.2-1.7-4.3-3.2c-1.1-1.4-2.5-2.6-3.8-3.8
				c-1.4-1.4-2.3-3.2-3.6-4.6c-0.7-0.8-0.2-2.1-1-2.9c0-2-0.8-3.9-0.5-5.9c0.2-1.2,1.4-4.4,2.2-5.6c1.9-2.9,4.5-4.9,7.6-6.5
				c2.2-1.1,4.6-1.7,6.8-2.7c0.8-0.3,1.8-0.3,2.6-0.4c1-0.2,2.1-0.3,3-0.7c2.1-0.7,4.3-0.4,6.4-0.3c1.2,0,2.4,0.4,3.6,0.9
				c2.2,0.9,4.6,1.6,6.3,3.6c1.2,1.4,2.1,2.9,2.8,4.7c0.6,1.6,1.1,3.1,1.6,4.7c0.3,0.9-0.3,2.1,0.7,2.7c0,2.4,0.7,4.8,0.5,7.3
				c-0.1,0.6-0.5,1-0.6,1.7c-0.3,1.8,0.5,3.3,1.3,4.6c0.6,1.1,0.9,2.5,1.8,3.5c0.7,0.8,0.8,2.3,1.2,3.4c0.8,2.1,1.6,4.2,2.5,6.2
				c0.5,1.3,0.9,2.8,1.8,3.9c0.9,1.2,1.2,2.7,1.9,3.9c0.7,1.3,1.3,2.6,1.9,3.9c0.4,0.9,0.9,1.8,1.3,2.7c1.4,3,2.9,6,4,9.1
				c0.6,1.6,1.4,3,1.9,4.6c0.5,1.5,1.1,3,1.9,4.4c0.6,1.2,0.7,2.7,1.2,3.9c0.8,2,1.5,4.1,2.2,6.1c0.1,0.3,0,0.6,0,1.1
				c-0.9-0.3-1.8,0.3-2.5-0.4c-2.1,0.1-4.1-0.5-6.1-1c-0.7-0.2-1.6,0-2.5,0c-0.8-2.6-2.1-5-3-7.6c-0.5-1.3-1.2-2.5-1.7-3.8
				c-0.6-1.4-1.4-2.7-1.8-4.2c-0.4-1.5-1.2-2.8-1.8-4.2c-0.9-2-1.8-4.1-2.9-6c-0.7-1.2-0.9-2.6-1.7-3.7c-0.8-1.1-1.2-2.6-1.8-3.9
				c-0.6-1.2-1.2-2.5-1.6-3.8c-0.4-1.2-1.3-2.3-1.2-3.7c0-0.8-0.6-1.7-1-2.6c-1.4-3-2.9-6-4.3-9c-0.3-0.8-0.6-1.6-0.8-2.5
				c-0.8-4-0.3-8-0.4-12c-0.1-1.5-0.4-2.7-1.3-3.9c-1.2-1.8-2.5-3.4-4-4.9c-1.4-0.3-2.7-0.7-3.9-1.5c-1.1-0.1-2.3,0-3.5-0.4
				c-0.8-0.3-2,0.3-2.9,0.8c-0.8,0.4-1.5,1.2-2.4,1.5C65.1,13.1,62.2,15.5,62.8,19.3z"/>
			<path class="st30" d="M67.4,16.2c0.4-0.4,0.7-0.7,1.2-1.2c2.7-0.6,5.6-1.3,8.4-2c2.1,1.7,3.2,4.2,5.5,5.7
				c-0.2,1.9,1.1,3.5,0.9,5.4c-3.2,0.7-6.3,1.8-9.7,2c-1.3-2.4-3.5-3.9-5.3-5.9C68.4,19,67.9,17.7,67.4,16.2z"/>
		</g>
	</g>
</g>
</svg>
