<svg xmlns="http://www.w3.org/2000/svg" width="1341.383" height="5.083" viewBox="0 0 1341.383 5.083" class="decoration__item image--cover">
<g id="Group_6" data-name="Group 6" transform="translate(-181.808 1676.542)">
<path id="Intersection_1" data-name="Intersection 1" d="M1322.7,2H1342l-9.648,4Zm-19.287,0H1322.7l-9.642,4Zm-19.284,0h19.284l-9.643,4Zm-19.28,0h19.28l-9.639,4Zm-19.284,0h19.284l-9.642,4Zm-19.283,0h19.283l-9.642,4Zm-18.781.207L1198.351,6,1188.7,2h37.581l-9.639,4ZM1169.411,2H1188.7l-9.642,4Zm-19.283,0h19.283l-9.643,4Zm-19.28,0h19.28l-9.639,4Zm-19.284,0h19.284l-9.641,4Zm-19.282,0h19.282l-9.642,4Zm-18.782.207L1064.352,6,1054.7,2h37.583l-9.641,4ZM1035.412,2H1054.7l-9.642,4Zm-19.284,0h19.284l-9.643,4Zm-19.28,0h19.28l-9.639,4ZM977.564,2h19.284l-9.641,4ZM958.282,2h19.282l-9.642,4ZM939.5,2.207,930.351,6,920.7,2h37.582l-9.64,4ZM901.412,2H920.7l-9.642,4ZM882.128,2h19.284l-9.643,4Zm-19.28,0h19.28l-9.639,4ZM843.564,2h19.284l-9.641,4ZM824.282,2h19.282l-9.642,4ZM805.5,2.207,796.352,6,786.7,2h37.582l-9.641,4ZM767.412,2H786.7l-9.642,4ZM748.128,2h19.284l-9.643,4ZM728.849,2h19.279l-9.639,4ZM709.564,2h19.285l-9.642,4ZM690.282,2h19.282l-9.641,4ZM671.5,2.207,662.351,6,652.7,2h37.581l-9.64,4ZM633.412,2H652.7l-9.643,4ZM614.129,2h19.283l-9.643,4ZM594.848,2h19.281l-9.64,4ZM575.564,2h19.284l-9.641,4ZM556.282,2h19.282l-9.642,4ZM537.5,2.207,528.351,6,518.7,2h37.582l-9.64,4ZM499.412,2H518.7l-9.642,4ZM480.128,2h19.284l-9.643,4ZM460.849,2h19.279l-9.638,4ZM441.564,2h19.284l-9.642,4ZM422.282,2h19.283l-9.642,4ZM403.5,2.207,394.351,6,384.7,2h37.581l-9.64,4ZM365.412,2H384.7l-9.642,4ZM346.128,2h19.283l-9.643,4ZM326.848,2h19.281l-9.64,4ZM307.564,2h19.283l-9.64,4ZM288.283,2h19.282l-9.643,4ZM269.5,2.207,260.352,6,250.7,2h37.583l-9.641,4ZM231.413,2H250.7l-9.642,4ZM212.128,2h19.284l-9.643,4Zm-19.28,0h19.28l-9.639,4ZM173.564,2h19.284l-9.642,4ZM154.282,2h19.283l-9.642,4ZM135.5,2.207,126.351,6,116.7,2h37.581l-9.639,4ZM97.411,2H116.7l-9.642,4ZM78.128,2H97.411L87.769,6ZM58.848,2h19.28l-9.64,4ZM39.564,2H58.848L49.208,6ZM20.282,2H39.564L29.922,6ZM1,2H20.282L10.642,6Z" transform="translate(181 -1678)" fill="#f45611">
</path>
<g id="Group_5" data-name="Group 5" transform="translate(0 -86)">
<g id="Group_1" data-name="Group 1" transform="translate(-3646.495 -4706.495)">
<path id="decoration-link-underline" d="M4.7,4.7l9.642,4,9.64-4,9.64,4,9.642-4,9.643,4,9.641-4,9.641,4,9.639-4,9.641,4,9.643-4,9.646,4,9.642-4,9.651,4,9.649-4" transform="translate(3823.795 3111.795)" fill="none" stroke="#fff" stroke-width="1">
</path>
<path id="decoration-link-underline-2" data-name="decoration-link-underline" d="M4.7,4.7l9.642,4,9.64-4,9.64,4,9.642-4,9.643,4,9.641-4,9.641,4,9.639-4,9.641,4,9.643-4,9.646,4,9.642-4,9.651,4,9.649-4" transform="translate(3957.795 3111.795)" fill="none" stroke="#fff" stroke-width="1">
</path>
</g>
<g id="Group_1-2" data-name="Group 1" transform="translate(-3110.495 -4706.495)">
<path id="decoration-link-underline-3" data-name="decoration-link-underline" d="M4.7,4.7l9.642,4,9.64-4,9.64,4,9.642-4,9.643,4,9.641-4,9.641,4,9.639-4,9.641,4,9.643-4,9.646,4,9.642-4,9.651,4,9.649-4" transform="translate(3823.795 3111.795)" fill="none" stroke="#fff" stroke-width="1">
</path>
<path id="decoration-link-underline-4" data-name="decoration-link-underline" d="M4.7,4.7l9.642,4,9.64-4,9.64,4,9.642-4,9.643,4,9.641-4,9.641,4,9.639-4,9.641,4,9.643-4,9.646,4,9.642-4,9.651,4,9.649-4" transform="translate(3957.795 3111.795)" fill="none" stroke="#fff" stroke-width="1">
</path>
</g>
<g id="Group_1-3" data-name="Group 1" transform="translate(-3378.495 -4706.495)">
<path id="decoration-link-underline-5" data-name="decoration-link-underline" d="M4.7,4.7l9.642,4,9.64-4,9.64,4,9.642-4,9.643,4,9.641-4,9.641,4,9.639-4,9.641,4,9.643-4,9.646,4,9.642-4,9.651,4,9.649-4" transform="translate(3823.795 3111.795)" fill="none" stroke="#fff" stroke-width="1">
</path>
<path id="decoration-link-underline-6" data-name="decoration-link-underline" d="M4.7,4.7l9.642,4,9.64-4,9.64,4,9.642-4,9.643,4,9.641-4,9.641,4,9.639-4,9.641,4,9.643-4,9.646,4,9.642-4,9.651,4,9.649-4" transform="translate(3957.795 3111.795)" fill="none" stroke="#fff" stroke-width="1">
</path>
</g>
<g id="Group_1-4" data-name="Group 1" transform="translate(-2842.495 -4706.495)">
<path id="decoration-link-underline-7" data-name="decoration-link-underline" d="M4.7,4.7l9.642,4,9.64-4,9.64,4,9.642-4,9.643,4,9.641-4,9.641,4,9.639-4,9.641,4,9.643-4,9.646,4,9.642-4,9.651,4,9.649-4" transform="translate(3823.795 3111.795)" fill="none" stroke="#fff" stroke-width="1">
</path>
<path id="decoration-link-underline-8" data-name="decoration-link-underline" d="M4.7,4.7l9.642,4,9.64-4,9.64,4,9.642-4,9.643,4,9.641-4,9.641,4,9.639-4,9.641,4,9.643-4,9.646,4,9.642-4,9.651,4,9.649-4" transform="translate(3957.795 3111.795)" fill="none" stroke="#fff" stroke-width="1">
</path>
</g>
<g id="Group_1-5" data-name="Group 1" transform="translate(-2574.495 -4706.495)">
<path id="decoration-link-underline-9" data-name="decoration-link-underline" d="M4.7,4.7l9.642,4,9.64-4,9.64,4,9.642-4,9.643,4,9.641-4,9.641,4,9.639-4,9.641,4,9.643-4,9.646,4,9.642-4,9.651,4,9.649-4" transform="translate(3823.795 3111.795)" fill="none" stroke="#fff" stroke-width="1">
</path>
<path id="decoration-link-underline-10" data-name="decoration-link-underline" d="M4.7,4.7l9.642,4,9.64-4,9.64,4,9.642-4,9.643,4,9.641-4,9.641,4,9.639-4,9.641,4,9.643-4,9.646,4,9.642-4,9.651,4,9.649-4" transform="translate(3957.795 3111.795)" fill="none" stroke="#fff" stroke-width="1">
</path>
</g>
</g>
</g>
</svg>