<svg xmlns="http://www.w3.org/2000/svg" width="240" height="320" viewBox="0 0 240 320">
  <g id="Group_19" data-name="Group 19" transform="translate(17039 2989)">
    <rect id="Rectangle_8" data-name="Rectangle 8" width="240" height="320" transform="translate(-17039 -2989)" fill="#f6f7f7"/>
    <g id="Mobile-Recipe-Menu" transform="translate(-17009 -2871)">
      <g id="Desktop-HD">
        <g id="Navigation">
          <g id="Twisted_Logo_Final_Full-01" transform="translate(0 0)">
            <path id="Shape" d="M33.538,19.908s-.51,9.793-.561,29.749c-.051,19.939-.068,31.1.085,32.361.136,1.163.238,2.73,1.546,3.186a3.584,3.584,0,0,0,1.529.084,9.818,9.818,0,0,0,4.91-2.124,3.861,3.861,0,0,0,1.546-3.27c-.1-2.41-.612-11.95-.646-13.652-.034-1.685-.1-15.456-.034-20.984s.544-25.569.544-25.569,10.11-.506,21.97-.893,35.511-1.079,36.735-1.146,2.973-.034,2.905-2.174-.068-4.618-.391-8.7a1.884,1.884,0,0,0-2.294-1.567C99.26,5.4,76.95,6.913,74.623,7.065S43.121,9.205,43.1,9.205c.034,0,0-1.365,0-1.5-.2-2.73-3.245-3.523-5.488-4.315a3.527,3.527,0,0,0-2.447-.253c-1.053.421-1.291,1.551-1.41,2.562-.034.32-.238,4.163-.2,4.163,0,0-25.181,1.7-26.149,1.77-.952.067-2.277.034-2.736,1.6s-1.1,3.624-1.478,4.8S2.8,20.667,4.925,20.65,33.538,19.908,33.538,19.908Z" transform="translate(-0.992 -0.992)" fill="#727272"/>
            <path id="Shape-2" data-name="Shape" d="M30.538,16.908s-.51,9.793-.561,29.749c-.051,19.939-.068,31.1.085,32.361.136,1.163.238,2.73,1.546,3.186a3.584,3.584,0,0,0,1.529.084,9.818,9.818,0,0,0,4.91-2.124,3.861,3.861,0,0,0,1.546-3.27c-.1-2.41-.612-11.95-.646-13.652-.034-1.685-.1-15.456-.034-20.984s.544-25.569.544-25.569,10.11-.506,21.97-.893,35.511-1.079,36.735-1.146,2.973-.034,2.905-2.174-.068-4.618-.391-8.7a1.884,1.884,0,0,0-2.294-1.567C96.26,2.4,73.95,3.913,71.623,4.065S40.121,6.205,40.1,6.205c.034,0,0-1.365,0-1.5-.2-2.73-3.245-3.523-5.488-4.315A3.527,3.527,0,0,0,32.169.138c-1.053.421-1.291,1.551-1.41,2.562-.034.32-.238,4.163-.2,4.163,0,0-25.181,1.7-26.149,1.77-.952.067-2.277.034-2.736,1.6s-1.1,3.624-1.478,4.8S-.2,17.667,1.925,17.65,30.538,16.908,30.538,16.908Z" transform="translate(0 0)" fill="#d4d9d9"/>
            <path id="Shape-3" data-name="Shape" d="M144.488,7.771l.2,4.309s.128,1.346-.438,1.7c-.566.336-5.4.513-8.251.593,0,0,8.324-1.938,8.269-9.371Z" transform="translate(-44.97 -1.653)" fill="#acacac"/>
            <path id="Shape-4" data-name="Shape" d="M57.677,7.869V6A3.332,3.332,0,0,1,55,8.008Z" transform="translate(-18.186 -1.984)" fill="#acacac"/>
            <path id="Shape-5" data-name="Shape" d="M46.008,8.954c-.056.768.2-4.4.241-4.754a6.345,6.345,0,0,1,.463-2.091,2.091,2.091,0,0,1,.777-.911,2.057,2.057,0,0,1,1.462-.125,10.9,10.9,0,0,1,2.573.876c.167.071.333.161.5.25C52.024,2.2,47.007,2,46.008,8.954Z" transform="translate(-15.21 -0.331)" fill="#fff"/>
            <path id="Shape-6" data-name="Shape" d="M53,26.086,56.347,26,56.18,36.548l-.074,4.178a54.083,54.083,0,0,0-1.553-10.306A39.293,39.293,0,0,0,53,26.086Z" transform="translate(-17.525 -8.597)" fill="#acacac"/>
            <path id="Shape-7" data-name="Shape" d="M56.112,101.936s.2,4.386.2,4.954.214,1.608-.4,2.274a5.024,5.024,0,0,1-2,1.511l-.915.39a5.648,5.648,0,0,0,2.258-4.174c.046-2.631.595-11.89.595-11.89Z" transform="translate(-17.525 -31.413)" fill="#acacac"/>
            <path id="Shape-8" data-name="Shape" d="M46,68s.068,26.944.1,30.043-.051,4.093,1.034,4.093a1.839,1.839,0,0,0,1.542-1.16s-.627-.381-.729-2.27c-.119-1.873-.051-22.454-.186-24.045C47.627,73.087,47.661,69.442,46,68Z" transform="translate(-15.21 -22.485)" fill="#fff"/>
            <path id="Shape-9" data-name="Shape" d="M81.536,66.333a7.972,7.972,0,0,0-.745-2.961,2.148,2.148,0,0,0-2.714-.736c-2.135.9-4.915,5.4-6.007,8.013a42.6,42.6,0,0,1,1.191-11.995c1.589-6.24-6.255-1.1-6.454-.954a5.374,5.374,0,0,0-1.936,3.2,54.5,54.5,0,0,0,.794,23.2c3,12.379,11.236-4.8,11.236-4.8s3.64,7.712,8.522,9.285,2.747-3.63,3.806-12.2,2.234-19.673,7.877-32.822c0,0,1.936-3.647.5-3.563-1.44.067-6.966,1.924-8.174,3.4C88.221,44.886,84.2,54.1,82.115,70.281Z" transform="translate(-21.162 -13.226)" fill="#727272"/>
            <path id="Shape-10" data-name="Shape" d="M121.77,59.3s.188-1.114.256-1.463c.273-1.28.923-1.031,1.88-1.529a2.373,2.373,0,0,0,.923-.948,4.734,4.734,0,0,0,.564-2.626c-.12-2.843-2.991-2.809-5.247-2.693a20.749,20.749,0,0,0-4.033.615,6.964,6.964,0,0,0-3.521,1.563,4.021,4.021,0,0,0-.615,3.358,2.742,2.742,0,0,0,.837,1.829,3.25,3.25,0,0,0,1.812.432c.017,0-.376,2.976-.41,3.225-.137,1.031-.308,2.061-.444,3.092-.205,1.43-.427,2.876-.632,4.305-.205,1.363-.41,2.726-.6,4.089-.154,1.014-.291,2.011-.444,3.025-.051.382-.12.748-.171,1.13,0,.033-.889.216-.957.233a5.626,5.626,0,0,0-1.777.848,2.375,2.375,0,0,0-.8.981,10.49,10.49,0,0,0-.359,2.527,3.528,3.528,0,0,0,.051,1.2c.239,1.247,1.333,1.7,2.581,1.646a34.4,34.4,0,0,0,5.623-1.014c1.025-.216,2.034-.449,3.042-.731a10.038,10.038,0,0,0,2.837-1.064,4,4,0,0,0,1.555-2.444,3.736,3.736,0,0,0-.376-2.992,1.48,1.48,0,0,0-.41-.382,2.8,2.8,0,0,0-1.555-.366c-.6.017-1.162.266-1.743.266" transform="translate(-35.711 -16.533)" fill="#727272"/>
            <path id="Shape-11" data-name="Shape" d="M79.536,65.333a7.971,7.971,0,0,0-.745-2.961,2.148,2.148,0,0,0-2.714-.736c-2.135.9-4.915,5.4-6.007,8.013a42.6,42.6,0,0,1,1.191-11.995c1.589-6.24-6.255-1.1-6.454-.954a5.374,5.374,0,0,0-1.936,3.2,54.5,54.5,0,0,0,.794,23.2C66.646,95.478,74.9,78.3,74.9,78.3s3.64,7.712,8.522,9.285,2.747-3.63,3.806-12.2,2.234-19.673,7.877-32.822c0,0,1.936-3.647.5-3.563-1.44.067-6.966,1.924-8.174,3.4C86.221,43.886,82.2,53.1,80.115,69.281Z" transform="translate(-20.501 -12.896)" fill="#d4d9d9"/>
            <path id="Shape-12" data-name="Shape" d="M94.04,102.3s.017,2.584-.785,3.148a2.37,2.37,0,0,1-1.878.094,10.8,10.8,0,0,1-5.225-3.6A16.943,16.943,0,0,1,84,99s9.306,9.413,10.04,3.3" transform="translate(-27.776 -32.735)" fill="#acacac"/>
            <path id="Shape-13" data-name="Shape" d="M67.1,106.842a3.17,3.17,0,0,0,3.392.073A13.116,13.116,0,0,0,74.032,104s-4.658,3.6-8.032,1.553a3.815,3.815,0,0,0,1.1,1.289" transform="translate(-21.824 -34.389)" fill="#acacac"/>
            <path id="Shape-14" data-name="Shape" d="M70.024,63a20.989,20.989,0,0,0-3.36,1.89c-.6.582-1.721,1.363-2.118,4.581C64.165,72.543,64,74.379,64,74.379S64.794,66.635,70.024,63" transform="translate(-21.162 -20.832)" fill="#fff"/>
            <path id="Shape-15" data-name="Shape" d="M80,75.008a6.186,6.186,0,0,1,2.261-1.827c.76-.207,2.478-.621,3.093,1.4.018.017-1.9-1.862-5.355.431" transform="translate(-26.453 -24.138)" fill="#fff"/>
            <path id="Shape-16" data-name="Shape" d="M101.9,42s-.924.411-1.341.669A3.138,3.138,0,0,0,99,44.28a32.992,32.992,0,0,0-1.776,3.96C96.718,49.663,94,58.064,94,58.064a4.679,4.679,0,0,0,1.957-2.554c.852-2.212,1.45-4.492,2.247-6.721A25.063,25.063,0,0,1,99.6,45.5c.272-.531.562-1.046.888-1.56a3.238,3.238,0,0,1,1.015-.874c.344-.274.743-.634.4-1.063" transform="translate(-31.082 -13.888)" fill="#fff"/>
            <path id="Shape-17" data-name="Shape" d="M73.489,81.7a59.506,59.506,0,0,1,.181-8.7s-1.377,7.046-.181,8.7" transform="translate(-24.138 -24.138)" fill="#acacac"/>
            <path id="Shape-18" data-name="Shape" d="M90.574,76,90,82.693c0,.016.972-4.531.574-6.693" transform="translate(-29.76 -25.13)" fill="#acacac"/>
            <path id="Shape-19" data-name="Shape" d="M119.77,57.3s.188-1.114.256-1.463c.273-1.28.923-1.031,1.88-1.529a2.373,2.373,0,0,0,.923-.948,4.734,4.734,0,0,0,.564-2.626c-.12-2.843-2.991-2.809-5.247-2.693a20.749,20.749,0,0,0-4.033.615,6.964,6.964,0,0,0-3.521,1.563,4.021,4.021,0,0,0-.615,3.358,2.742,2.742,0,0,0,.837,1.829,3.25,3.25,0,0,0,1.812.432c.017,0-.376,2.976-.41,3.225-.137,1.031-.308,2.061-.444,3.092-.205,1.43-.427,2.876-.632,4.305-.205,1.363-.41,2.726-.6,4.089-.154,1.014-.291,2.011-.444,3.025-.051.382-.12.748-.171,1.13,0,.033-.889.216-.957.233a5.626,5.626,0,0,0-1.777.848,2.375,2.375,0,0,0-.8.981,10.49,10.49,0,0,0-.359,2.527,3.528,3.528,0,0,0,.051,1.2c.239,1.247,1.333,1.7,2.581,1.646a34.4,34.4,0,0,0,5.623-1.014c1.025-.216,2.034-.449,3.042-.731a10.038,10.038,0,0,0,2.837-1.064,4,4,0,0,0,1.555-2.444,3.736,3.736,0,0,0-.376-2.992,1.48,1.48,0,0,0-.41-.382,2.8,2.8,0,0,0-1.555-.366c-.6.017-1.162.266-1.743.266" transform="translate(-35.05 -15.872)" fill="#d4d9d9"/>
            <path id="Shape-20" data-name="Shape" d="M125.178,60.347s.189-1.193.265-1.478a1.18,1.18,0,0,1,.985-1.086,2.177,2.177,0,0,0,1.25-.783,3.528,3.528,0,0,1-1.325.409,1.26,1.26,0,0,0-1.174.694,3.837,3.837,0,0,0,0,2.243" transform="translate(-41.333 -18.848)" fill="#acacac"/>
            <path id="Shape-21" data-name="Shape" d="M116.016,49a16.714,16.714,0,0,0-2.54.685,2.221,2.221,0,0,0-1.469,1.832s-.015.685,0,.825A5.469,5.469,0,0,1,116.016,49" transform="translate(-37.034 -16.202)" fill="#fff"/>
            <path id="Shape-22" data-name="Shape" d="M122.434,75.813l-.722,5.925c.369-.033.722-.083,1.09-.117.754-.083,1.892-.183,2.213.749-.064-.166-.609-.283-.754-.316a5.114,5.114,0,0,0-2.405.1,4.3,4.3,0,0,0-.433.133c-.5.15-.449-.566-.385-.866.208-.9,1.074-8.006,1.748-8.422Z" transform="translate(-40.01 -24.138)" fill="#acacac"/>
            <path id="Shape-23" data-name="Shape" d="M107.083,92.062l.067-.783a2.075,2.075,0,0,1,1.365-1.737A9.748,9.748,0,0,1,110.347,89s-2.314.484-3.347,4.016Z" transform="translate(-35.381 -29.429)" fill="#fff"/>
            <path id="Shape-24" data-name="Shape" d="M126.024,91a3.645,3.645,0,0,1-2.622,3.138l-3.4.878s5.485-1.545,6.024-4.016" transform="translate(-39.679 -30.09)" fill="#acacac"/>
            <g id="Group" transform="translate(119.846 22.197)">
              <path id="Shape-25" data-name="Shape" d="M6.217,11.8s-1.162.171-1.128-.785.387-3.7.421-4.366.152-1.4,1.8-1.637C8.978,4.76,24.7,2.628,26.115,2.543s1.8.358,1.8,1.177-.135,2.763-.152,3.923-.522,1.62-2.054,1.723-13.5,1.62-13.5,1.62l-.808,6.43s7.727-.955,8.484-1.023a1.372,1.372,0,0,1,1.65,1.45,26.679,26.679,0,0,1-.657,3.1c-.185.9-.387,1.467-1.8,1.637-1.8.222-8.316,1.211-8.316,1.211l-.673,5.065s13.6-2.32,14.729-2.388c.976-.068,2.155-.358,3.114.153a1.681,1.681,0,0,1,.842,1.45c.05.887.084,1.791.118,2.678.034.648.2,1.552-.253,2.047a3.654,3.654,0,0,1-2.273.8c-1.128.085-2.256.1-3.367.153-2.407.1-4.814.085-7.2.307A81.429,81.429,0,0,0,4.652,36.21c-.909.222-2.205-.733-1.65-2.439Z" transform="translate(-0.983 -0.946)" fill="#727272"/>
              <path id="Shape-26" data-name="Shape" d="M3.4,9.434S2.239,9.6,2.273,8.65s.387-3.7.421-4.366.152-1.4,1.8-1.637C6.161,2.39,21.884.259,23.3.173s1.8.358,1.8,1.177-.135,2.763-.152,3.923S24.426,6.893,22.894,7s-13.5,1.62-13.5,1.62l-.808,6.43s7.727-.955,8.484-1.023a1.372,1.372,0,0,1,1.65,1.45,26.68,26.68,0,0,1-.657,3.1c-.185.9-.387,1.467-1.8,1.637-1.8.222-8.316,1.211-8.316,1.211L7.272,26.49S20.874,24.17,22,24.1c.976-.068,2.155-.358,3.114.153a1.681,1.681,0,0,1,.842,1.45c.051.887.084,1.791.118,2.678.034.648.2,1.552-.253,2.047a3.654,3.654,0,0,1-2.273.8c-1.128.085-2.256.1-3.367.153-2.407.1-4.814.085-7.2.307A81.429,81.429,0,0,0,1.835,33.84C.926,34.062-.37,33.107.185,31.4Z" transform="translate(-0.052 -0.163)" fill="#d4d9d9"/>
              <path id="Shape-27" data-name="Shape" d="M3.267,44.688l-.69.153s-.859-.068-1.061-.546a2.473,2.473,0,0,1-.1-1.706c.152-1.023,1.061-7.248,1.061-7.248s-1.162,9.994.791,9.346" transform="translate(-0.473 -11.795)" fill="#fff"/>
              <path id="Shape-28" data-name="Shape" d="M4.829,8.947l.3-3.019s.067-.75.337-.955c.269-.188.387-.375,1.582-.546S10.906,3.9,10.906,3.9,5.452,5.263,4.829,8.947" transform="translate(-1.631 -1.398)" fill="#fff"/>
              <path id="Shape-29" data-name="Shape" d="M30.742,6.447,30.692,7.5s-.051.921-1.246,1.04c-1.2.136-9.427,1.126-9.427,1.126s.2-.614,1.683-.733,8.821-.955,9.04-2.49" transform="translate(-6.654 -2.241)" fill="#acacac"/>
              <path id="Shape-30" data-name="Shape" d="M22.217,24.266,21.7,26.432s-.084.819-1.414,1.006c-1.313.188-6.9,1.006-6.9,1.006s.118-.853,2.508-1.092c2.374-.239,4.781-.87,5.437-2.354s.892-.733.892-.733" transform="translate(-4.459 -8.07)" fill="#acacac"/>
              <path id="Shape-31" data-name="Shape" d="M34.9,37.686s.589.153.64,1.279.1,2.217.1,2.217.067,1.3-.808,1.5a8.054,8.054,0,0,1-2.205.29c-1.263.051-2.222.085-2.222.085s-.051-.495,1.448-.614,3.2-.955,3.182-2.371-.572-2.217-.135-2.388" transform="translate(-10.089 -12.57)" fill="#acacac"/>
            </g>
            <path id="Shape-32" data-name="Shape" d="M14.379,13a2.634,2.634,0,0,1-1.717,1.153c-1.123.165-4.475-.183-6.242,2.178a6.891,6.891,0,0,0-1.007,5.344c-.859.018-2.081.238-2.362-.97a3.887,3.887,0,0,1,.3-1.976c.2-.714.38-1.409.578-2.123.1-.384.215-.769.314-1.135A2.841,2.841,0,0,1,4.8,14.1a2.441,2.441,0,0,1,1.6-.531c.958-.092,1.916-.128,2.873-.2Z" transform="translate(-0.992 -4.299)" fill="#fff"/>
            <g id="Group-2" data-name="Group" transform="translate(149.347 15.461)">
              <path id="Shape-33" data-name="Shape" d="M23.972,23.876c-1.021,3.784-5.615,8.1-10.324,9.734,0,0-1.1.567-.988-.917.132-1.483.757-22.6.757-22.6a22.149,22.149,0,0,1,4.561-.383,6.865,6.865,0,0,1,5.433,3.367c1.811,2.867,1.581,7.017.56,10.8m-3.9-21.052c-7.508-1.367-15,1.333-15.675,1.583a1.685,1.685,0,0,0-1,1.884c.115.9.527,3.234.576,3.617.049.4.329.8,1.218.7a5.049,5.049,0,0,1,1.383-.033L5.679,36.694s-1.251.133-1.959.283S2.6,37.627,2.7,38.76s.247,2.8.346,3.467c.1.683.51,1.8,4.61,1a47.278,47.278,0,0,0,7.706-1.884,32.044,32.044,0,0,0,9.484-5.551,18.6,18.6,0,0,0,5.071-6.917,26.286,26.286,0,0,0,1.6-12.251,16.376,16.376,0,0,0-3.458-9.018,13.3,13.3,0,0,0-7.986-4.784" transform="translate(-0.972 -0.872)" fill="#727272"/>
              <path id="Shape-34" data-name="Shape" d="M21.413,21.551c-1.021,3.784-5.615,8.1-10.324,9.734,0,0-1.1.567-.988-.917.132-1.483.757-22.6.757-22.6a22.149,22.149,0,0,1,4.561-.383,6.865,6.865,0,0,1,5.433,3.367c1.811,2.85,1.581,7,.56,10.8M17.511.483C10-.884,2.511,1.816,1.836,2.066a1.685,1.685,0,0,0-1,1.884c.115.9.527,3.234.576,3.617.049.4.329.8,1.218.7A5.049,5.049,0,0,1,4.01,8.233L3.121,34.353s-1.251.133-1.959.283S.042,35.286.14,36.42s.247,2.8.346,3.467c.1.683.51,1.8,4.61,1S13.625,39.637,20.244,35a19.853,19.853,0,0,0,7.162-8.451A24.091,24.091,0,0,0,29.02,18.7,20.258,20.258,0,0,0,26.929,7.4a13.758,13.758,0,0,0-7.2-6.317,15.132,15.132,0,0,0-2.223-.6" transform="translate(-0.126 -0.098)" fill="#d4d9d9"/>
              <path id="Shape-35" data-name="Shape" d="M3.183,6.037S3.1,5.5,2.986,4.771A1.505,1.505,0,0,1,4.155,2.954,50.786,50.786,0,0,1,10.461,1.52c1.828-.217,3.112-.333,3.836-.35s.1.617-3.524,1.133S3.381,3.687,3.183,6.037" transform="translate(-1.061 -0.453)" fill="#fff"/>
              <path id="Shape-36" data-name="Shape" d="M21.376,48.305s5.4-2.317,8.479-5.851a18.38,18.38,0,0,0,4.4-9.234A25.505,25.505,0,0,1,30.91,39.5a39.486,39.486,0,0,1-4.775,5.067,26.692,26.692,0,0,1-4.758,3.734" transform="translate(-7.153 -11.051)" fill="#acacac"/>
              <path id="Shape-37" data-name="Shape" d="M14.531,13.066c.033-.9.049-1.8.082-2.717a.341.341,0,0,1,.066-.25.391.391,0,0,1,.181-.1,10.482,10.482,0,0,1,4.38-.383,8.725,8.725,0,0,0-4.511-.533,1.329,1.329,0,0,0-.873.267,1.437,1.437,0,0,0-.28,1.15q.3,7.051.576,14.085c.132-3.834.263-7.684.379-11.518" transform="translate(-4.571 -3.047)" fill="#acacac"/>
              <path id="Shape-38" data-name="Shape" d="M2.6,52.321c-.576.033-1.334.117-1.564.717a3.282,3.282,0,0,0-.1,1.55c.115.967.214,1.95.214,1.95s.247-3.884,2.239-4.317Z" transform="translate(-0.38 -17.333)" fill="#fff"/>
            </g>
            <g id="Group-3" data-name="Group" transform="translate(86.431 26.924)">
              <path id="Shape-39" data-name="Shape" d="M15.274,2.561a7.389,7.389,0,0,1,3.055.572,6.906,6.906,0,0,1,3.985,5.245,3.039,3.039,0,0,1-.863,2.976,2.643,2.643,0,0,1-2.607.185C17.565,11,16.6,10.009,15.39,9.37a2.269,2.269,0,0,0-3.138.975c-.814,1.664.166,3.312,1.063,4.4,1.411,1.715,3.354,2.942,4.981,4.421a10.413,10.413,0,0,1,3.4,5.111c.863,3.547-1.146,8.053-4.583,10.507s-7.986,2.74-10.909.79a7.612,7.612,0,0,1-3.171-4.674A3.08,3.08,0,0,1,3.3,28.468a2.8,2.8,0,0,1,1.926-1.16,3.515,3.515,0,0,1,2.009.37,20.863,20.863,0,0,1,2.424,1.6,4.97,4.97,0,0,0,2.756,1.009,3.392,3.392,0,0,0,2.856-1.5,2.839,2.839,0,0,0,.183-2.522,5.152,5.152,0,0,0-1.478-1.849C11.8,22.5,9.18,20.987,7.57,18.549,4.78,14.464,5.179,6.915,11.09,3.688a9.29,9.29,0,0,1,4.184-1.126" transform="translate(-1.048 -0.997)" fill="#727272"/>
              <path id="Shape-40" data-name="Shape" d="M12.5.226A7.389,7.389,0,0,1,15.551.8a6.906,6.906,0,0,1,3.985,5.245,3.039,3.039,0,0,1-.863,2.976,2.643,2.643,0,0,1-2.607.185c-1.278-.538-2.242-1.53-3.454-2.169a2.269,2.269,0,0,0-3.138.975c-.814,1.664.166,3.312,1.063,4.4,1.411,1.715,3.354,2.942,4.981,4.421a10.413,10.413,0,0,1,3.4,5.111c.863,3.547-1.146,8.053-4.583,10.507s-7.986,2.74-10.909.79A7.612,7.612,0,0,1,.259,28.569a3.08,3.08,0,0,1,.266-2.438,2.8,2.8,0,0,1,1.926-1.16,3.515,3.515,0,0,1,2.009.37,20.862,20.862,0,0,1,2.424,1.6A4.97,4.97,0,0,0,9.64,27.947a3.392,3.392,0,0,0,2.856-1.5,2.79,2.79,0,0,0,.183-2.522c-.249-.588-1.378-1.362-1.976-1.9-2.175-1.916-4.3-3.379-5.928-5.817C2.019,12.077,2.417,4.529,8.328,1.3A9.315,9.315,0,0,1,12.5.226" transform="translate(-0.13 -0.224)" fill="#d4d9d9"/>
              <path id="Shape-41" data-name="Shape" d="M16.347,45.958a9.434,9.434,0,0,0,4.566-2.539,10.134,10.134,0,0,0,1.727-2.5,8.8,8.8,0,0,0,.7-2.135,16.139,16.139,0,0,1-2.955,3.984,19.277,19.277,0,0,1-4.035,3.194" transform="translate(-5.492 -12.973)" fill="#acacac"/>
              <path id="Shape-42" data-name="Shape" d="M22.246,11.476s1.461,1.093,2.69.588a1.783,1.783,0,0,0,1.013-1.025,3.2,3.2,0,0,0,.2-1.194s-1.162,2.757-4.765,1.009Z" transform="translate(-7.157 -3.406)" fill="#acacac"/>
              <path id="Shape-43" data-name="Shape" d="M16.58,9.27a2.86,2.86,0,0,0-3.072.5,3.307,3.307,0,0,0-.448,3.446s-.764-.067-.98-1.244a3.064,3.064,0,0,1,3.254-3.6,1.264,1.264,0,0,1,1.245.891" transform="translate(-4.064 -2.914)" fill="#acacac"/>
              <path id="Shape-44" data-name="Shape" d="M5.938,12.476a9.149,9.149,0,0,1,.5-4.875A7.927,7.927,0,0,1,8.911,4.356s.731-.5,1.1-.689c0,0,.432.79-.814,1.5S6.918,7.567,6.3,9.887a21.517,21.517,0,0,0-.365,2.589" transform="translate(-2.007 -1.363)" fill="#fff"/>
              <path id="Shape-45" data-name="Shape" d="M17.539,37.54a3.813,3.813,0,0,0,.847-1.849,3.382,3.382,0,0,0-1.162-2.807,9.352,9.352,0,0,0-2.092-1.412A3.248,3.248,0,0,1,18.2,32.648C19.416,34.01,20.13,36.01,17.539,37.54Z" transform="translate(-5.09 -10.54)" fill="#fff"/>
              <path id="Shape-46" data-name="Shape" d="M4.038,37.936a2.763,2.763,0,0,0-2.424.37,2.433,2.433,0,0,0-.814,2.3c.05.168.78-2.656,3.238-2.673" transform="translate(-0.339 -12.651)" fill="#fff"/>
            </g>
            <path id="Shape-47" data-name="Shape" d="M109,40.175a8.541,8.541,0,0,1,.89-.163.5.5,0,0,1,.219,0c.344.1.234.65.172.894-.2.91-1,2.389-1.608,4.079S107.593,47.862,107,50.04c0,0,1.608-7.769,1.671-8.338.047-.569-1.234-.975-1-1.121a3.612,3.612,0,0,1,1.062-.374.745.745,0,0,0,.265-.033" transform="translate(-35.381 -13.226)" fill="#acacac"/>
            <g id="Group-4" data-name="Group" transform="translate(103.117 6.747)">
              <path id="Shape-48" data-name="Shape" d="M12.133,10.357s.745-4.908.914-6.144.8-2.094,2.218-1.613,4.251,1.768,5,2.094.762,1.047.525,2.746c-.237,1.716-.339,2.626-.339,2.626s4.843-.12,6.385-.137c1.423-.017,2.456.618,2.117,1.957a20.831,20.831,0,0,1-1.677,4.239c-.457.755-.83,1.047-2.523,1.116-1.71.069-2.456.154-5.335.309,0,0-1.321,7.328-1.71,10.675S16.587,38.4,16.418,41.971s-.254,5.046-.322,6.865,0,3.038-1.2,3.587-5.2,1.459-6.08,1.733-1.592-.343-1.558-1.733,1.05-13.97,1.677-19.291c.61-5.32,2.337-15.6,2.337-15.6s-5.453.326-6.452.326-1.626-.154-1.9-1.184c-.288-1.013,1.66-5.166,1.66-5.166s.3-1.236,2.117-1.184c1.778.086,5.436.034,5.436.034" transform="translate(-0.995 -0.868)" fill="#727272"/>
              <path id="Shape-49" data-name="Shape" d="M9.3,7.973s.745-4.908.914-6.144.8-2.094,2.218-1.613,4.251,1.768,5,2.094.762,1.047.525,2.746c-.237,1.716-.339,2.626-.339,2.626s4.843-.12,6.385-.137c1.423-.017,2.456.618,2.117,1.957a20.831,20.831,0,0,1-1.677,4.239c-.457.755-.83,1.047-2.523,1.116-1.71.069-2.456.154-5.335.309,0,0-1.321,7.328-1.71,10.675s-1.118,10.177-1.287,13.747-.254,5.046-.322,6.865,0,3.038-1.2,3.587-5.2,1.459-6.08,1.733-1.592-.343-1.558-1.733S5.472,36.068,6.1,30.747c.61-5.32,2.337-15.6,2.337-15.6s-5.453.326-6.452.326-1.626-.154-1.9-1.184c-.288-1.013,1.66-5.166,1.66-5.166s.3-1.236,2.117-1.184c1.778.069,5.436.034,5.436.034" transform="translate(-0.058 -0.08)" fill="#d4d9d9"/>
              <path id="Shape-50" data-name="Shape" d="M33.431,14.59a22.078,22.078,0,0,1-1.169,2.918,1.939,1.939,0,0,1-1.88,1.287c-1.253.069-5.335.309-5.335.309s6.808-.738,8.383-4.514" transform="translate(-8.321 -4.877)" fill="#acacac"/>
              <path id="Shape-51" data-name="Shape" d="M20.48,3.273l-2.218-.91s-.931-.446-1.473,0a3.16,3.16,0,0,0-.711,2.042c-.119.772-.644,4.256-.644,4.256s1.981-6.2,5.047-5.389" transform="translate(-5.142 -0.769)" fill="#fff"/>
              <path id="Shape-52" data-name="Shape" d="M13.89,65.994l1.744-.532s1.372-.189,1.439-2.094c.085-1.905.44-9.405.576-10.812s.406-4.376.406-4.376a6.726,6.726,0,0,0-.813,2.952c-.22,2.111-1.118,10.4-1.27,11.362a4.964,4.964,0,0,1-2.083,3.5" transform="translate(-4.632 -15.984)" fill="#acacac"/>
              <path id="Shape-53" data-name="Shape" d="M6.315,12.687H4.943A1.768,1.768,0,0,0,3.1,13.819l-.491,1.133a5.4,5.4,0,0,1,3.709-2.265" transform="translate(-0.9 -4.244)" fill="#fff"/>
            </g>
          </g>
        </g>
      </g>
    </g>
  </g>
</svg>
