<svg version="1.1" id="Layer_1" xmlns="http://www.w3.org/2000/svg" x="0px" y="0px" viewBox="0 0 538.8 684.8" class="styles_backgrounds__element__wjqdw styles_image--contain__d8WSn"><g id="Layer_2_00000085965353941920028080000000583828795537316229_"><path id="swirl_low" fill="none" stroke="#FFE4D4" stroke-width="7" stroke-linecap="round" stroke-linejoin="round" stroke-miterlimit="10" d="M0,10.8c155.3-39.9,227.7,91.4,150.5,205.1c-32.6,47.9-117.4,77.8-122.2,55.4      c-6-27.5,79.3-47,161.8-42.7c173.1,9,243.4-22,229.5-57c-8.5-21.4-80.4-1.6-132,37.4c-32.6,24.7-58.3,62.2-50.6,85.5      c8.5,25.9,65.1,36.8,140.2,45.6c112.2,13.2,169.2,38.3,156.4,81c-9.6,32.2-71.9,88-191.6,88.9c-179.7,1.4-288.3-96.7-342-75.3      s-22.8,57.7,0,72C19.6,519,43.3,531,122.7,540.8c102.1,12.7,237.2,17,219.3,64.7C305.6,702.7,0,678.7,0,678.7"></path></g></svg>