<svg width="106" height="246" viewBox="0 0 106 246" xmlns="http://www.w3.org/2000/svg">
    <g fill-rule="nonzero" fill="none">
        <path d="M65.553 144.082c.077.05.16.1.217.14.065.03.113.072.146.065 1.6-.364 3.197-.736 4.78-1.101l.32.195 1.396-.322c.237.138.403.232.564.324l.127.552c.123.084.24.16.361.242l.443 1.915.295.18.268 1.163c-.123.33-.434.471-.668.675-.056.298.152.41.37.506l.193.831.36.237.381 1.652.248.151c.045.075.113.145.131.226.103.409.193.823.284 1.215l-.327.51-.855.198c-.042.077-.089.16-.124.22-.286.25-.645.206-.946.331l-.183.285c-.18.06-.397.135-.613.206l-.192.3-2.259.522-.208.326-1.14.263-.352-.178-1.94.448-.387-.21-2.237.517c-.129-.072-.25-.14-.38-.211l-3.377.78-.308-.188-1.157.267c-.31-.36-.733-.007-.946-.16-.344-.25-.644.012-.946-.068l-.432-.263-.383-1.66-.365-.222-.383-1.66-.365-.222-.319-1.38c-.143-.088-.223-.139-.317-.194l-.442-1.915c-.123-.081-.24-.161-.362-.242l-.444-1.926c.098-.45.63-.53.82-.915l6.496-1.5.357.203 4.8-1.108z" fill="#5F7EFC"/>
        <path d="M56.722 125.292c-.074-.05-.15-.099-.284-.186l-.257-1.113-.342-.232-.256-1.108-.342-.232-.256-1.108c-.133-.09-.21-.141-.342-.232l-.255-1.108-.297-.2-.189-.815c-.114-.083-.225-.162-.337-.246l-.192-.829c-.076-.049-.151-.101-.302-.2-.045-.15-.107-.366-.163-.565-.115-.097-.306-.184-.306-.27-.008-.504-.567-.717-.567-1.21-.314-.238-.466-.637-.82-.855-.74-.455-1.456-.96-2.174-1.441l-.129-.557c-.114-.083-.224-.165-.329-.24-.015-.1-.053-.197-.04-.283.06-.412.458-.504.682-.765.128-.15.376-.183.586-.274l.2-.304 1.963-.453c.04-.01.075-.036.113-.055l.172-.297 2.337-.54.184-.32 1.8-.416c.266.214.672.048.936.346l1.046-.241.468.333.281 1.218c-.065.087-.219.257-.335.45-.456.771-.59 1.386-.612 2.532-.001.126-.107.244-.172.385l.25 1.08-.193.363.64 2.77.288.194c.173.423.206.945.377 1.425l.264.178.371 1.609.345.298.647 2.803c-.064.111-.11.192-.167.288l1.723 7.46-.192.384.826 3.582c-.066.125-.129.244-.196.366l1.023 4.43-.172.298.255 1.108c-.057.099-.07.158-.105.174-.076.04-.162.059-.26.09-.135.218-.275.449-.422.683l-.498.115c-.082.124-.153.237-.22.338l-.71.164c-.057.069-.136.17-.257.321l-1.06.245c-.328-.43-.642-.845-1.03-1.358.163-.171.348-.37.501-.53l-1.125-4.876.177-.306-1.02-4.423c.066-.125.129-.244.196-.366l-1.726-7.476z" fill="#FEDC05"/>
        <path d="m61.587 156.466 3.704-.856.307.186 1.427-.33c.144.087.227.138.35.21l2.635-.608.197-.304.856-.198.21-.323.882-.204c.295.015.126.545.507.537.168.285.22.598.227.923l-.165.254.844 3.656.298.18 1.145 4.958.365.244 1.661 7.195c-.048.065-.105.142-.116.155-.06.11-.107.158-.099.191.462 2.027.933 4.055 1.396 6.06l-.206.362c-.045.34.314.342.374.459.135.287.004.437-.118.612l.194.842.323.23.185.798.364.242.253 1.092c.123.079.24.158.363.237l.316 1.369.317.191.447 1.937.372.224.575 2.49.371.223.639 2.766.32.193.507 2.196c.123.08.243.157.364.239l.766 3.316.232.136c.05.039.111.062.119.095.388 1.657.767 3.313 1.147 4.956.102.062.183.113.326.197l1.405 6.084.34.205 5.178 22.429-.24.41c-.491.175-.924.436-1.248.815-.223.262-.484.242-.795.255-.054-.11-.109-.23-.175-.373-.215-.17-.44.062-.664.025l-.267.371-.838.194c-.085.12-.166.236-.254.357l-3.125.722-.16.248c-.234.196-.54.17-.852.277-.095-.04-.22-.094-.41-.173l-.772.179a91.564 91.564 0 0 0-.432-.2l-.798.185-.409-.205-1.107.255-.388-.21-1.426.33-.3-.203c-.375.015-.78.196-1.008.222-.74-.12-1.271-.286-1.698-.676.003-.217-.144-.325-.361-.419l-.583-2.522.188-.383-.248-1.075c.091-.14.144-.223.204-.32l-.568-2.463.22-.385-.442-1.914.218-.368-6.129-26.546-.25-.15c-.034-.03-.09-.055-.097-.09-.343-1.473-.683-2.943-1.017-4.393l-.314-.19-.754-3.265c-.121-.095-.229-.18-.37-.286L63.334 178.9l.2-.308c-.25-1.077-.504-2.18-.756-3.283-.008-.036.03-.085.048-.129.118-.06.239-.122.363-.182.018-.088.069-.18.05-.258-1.282-5.579-2.57-11.156-3.857-16.733.363-.183.553-.58.989-.696.343-.09.512-.564.97-.496l.247-.348z" fill="#FFA295"/>
        <path d="M93.7 233.576c-.543.19-.787.362-1.298.89l-.267.06-.282.066-.243.345-.424.098c-.047.01-.09.026-.128.038-.087.118-.167.232-.254.353l-1.106.255-.187.29-6.27 1.448-.324-.196-1.412.326-.32-.194-.826.19c-.131-.07-.253-.138-.387-.208l-.828.192a35.59 35.59 0 0 0-.381-.21l-.542.125-.37-.198c-.156.036-.298.071-.438.101-.239.053-.391-.276-.651-.139l-1.207-.64c-.204-.292-.097-.715-.536-.812l-.385-1.668.195-.348-.566-2.451.22-.37-.696-3.015.157-.243c-.233-1.6-2.057-9.641-3.577-15.776-.083-.05-.162-.098-.324-.199L68.7 205.87l-1.322-5.726-.314-.19-5.786-25.061.207-.321-1.333-5.772.203-.315-.883-3.827.222-.383c-.44-1.907-.884-3.83-1.325-5.752-.008-.033.041-.082.067-.125.295-.15.611-.223.943-.217l.307.186 1.145-.264c.079.07.132.097.14.132.488 2.103.974 4.207 1.454 6.285l-.197.306.75 3.247-.228.467.88 3.817-.202.315c1.984 8.593 3.97 17.2 5.965 25.836l.328.23 2.786 12.067c.122.078.239.158.36.236l3.49 15.114-.137.198c-.038.075-.084.123-.076.158.227 1.007.462 2.011.691 3.004l-.205.318.698 3.023c-.09.14-.142.222-.213.33l.326 1.412c.274.276.663.176.912.346.346.236.724-.185 1.079.136.207.188.648-.312.871.133l1.166-.269.389.208 1.39-.321c.129.07.254.14.373.206l4.796-1.108.157-.243c.03-.034.056-.087.093-.096.56-.135 1.123-.262 1.675-.39.113-.429.638-.295.775-.528.208-.354.563-.305.789-.413.147-.262-.058-.536.25-.727l-.452-1.957.212-.33-2.612-11.318-.333-.202-1.08-4.673c-.142-.087-.222-.137-.316-.192l-.885-3.83c-.122-.08-.238-.16-.36-.24l-1.016-4.397c-.078-.043-.162-.087-.187-.102-.089-.065-.151-.087-.159-.12-.258-1.097-.509-2.194-.76-3.28l-.26-.157c-.031-.03-.084-.058-.092-.093-.225-.962-.446-1.922-.671-2.884-.01-.043-.037-.079-.058-.12l-.304-.184-1.27-5.497-.364-.22-.825-3.573a21.344 21.344 0 0 1-.318-.195l-1.645-7.125c-.122-.08-.238-.16-.361-.243l-2.787-12.073c-.123-.08-.239-.157-.36-.238l-1.14-4.935-.25-.15c-.045-.074-.11-.146-.13-.227-.564-2.422-1.121-4.847-1.676-7.25.24-.353.652-.177 1.055-.523-.036.054.044-.06.128-.18l.847-.196c.156.097.318.197.5.312l1.833 7.939.363.248 1.073 4.648c.122.08.241.16.36.235l3.361 14.56.245.15c.034.03.094.053.102.088.382 1.645.763 3.292 1.138 4.92l.327.198 1.015 4.396c.143.087.223.137.365.221l.761 3.298.324.196 1.008 4.369c.121.086.235.166.365.255l.494 2.142c.12.174.387.16.398.399.094.22-.155.322-.177.486l.253 1.096.317.193.825 3.572.365.221.761 3.298.327.198 1.199 5.192c.12.087.235.166.364.256l1.394 6.036c-.06.105-.134.225-.208.35l.188.815.34.221c.105.21.038.376-.14.568l1.147 4.966-.233.361c.03.126.084.302.108.48.061.429-.102.798-.48 1.228-.149.183-.257.401-.41.638z" fill="#F64152"/>
        <path d="M56.756 114.772c-.074-.044-.15-.092-.218-.134-.052-.083-.119-.153-.137-.233-.165-.68-.317-1.362-.474-2.041.28-.189.076-.524.226-.752.175-.267.344-.541.489-.825.127-.248.426-.254.562-.52.141-.284.014-.63.264-.88.168-.168.262-.416.391-.636-.123-.05-.167-.088-.203-.082-.608.135-1.215.277-1.8.412l-.178.3-2.305.532c-.09.116-.17.219-.303.395l-3.082.711c-.142.152-.106.188.009.257.313.186.61.403.922.592.065.04.171-.003.246.027.404.163.847.275.994.792.472.26.572.89 1.061 1.16l.183.794c.116.086.221.168.343.258l.246 1.068.338.238.315 1.36c.077.052.151.1.285.188l.316 1.366.342.224.442 1.914.315.207 2.347 10.163-.19.318 1.262 5.467-.182.306.999 4.324c-.04.353-.52.208-.521.588l-1.636.378c-.061-.047-.122-.07-.13-.103-.424-1.817-.843-3.64-1.26-5.451.052-.089.1-.168.144-.247.016-.04.049-.085.04-.123a3420.55 3420.55 0 0 0-1.125-4.886l.178-.3-2.213-9.586c-.04-.033-.141-.118-.311-.264l-.498-2.154c-.134-.088-.209-.14-.303-.2l-.247-1.067c-.115-.084-.222-.165-.341-.253l-.31-1.34c-.079-.06-.151-.111-.242-.177-.224-.236-.174-.588-.287-.881-.36-.184-.456-.65-.86-.815-.33-.133-.618-.388-.963-.614-.136.023-.306.054-.41.073l-3.227-2.116-.217-.94c.1-.202.163-.44.438-.586.21-.112.331-.404.553-.692.15-.117.613.085.605-.41l.564-.13c.076-.117.148-.232.223-.346l.779-.18.177-.297 1.307-.302.209-.352 3.399-.784.19-.322 4.232-.976.276.181.718-.165c.249.04.404.318.704.12.237.172.497.355.753.546.03.022.036.079.053.12.09.214-.084.336-.157.503l.12.516c-.171.475-.586.79-.584 1.36.002.236-.204.559-.406.692-.678.444-.848 1.249-1.298 1.85-.157.207.031.551-.223.74l.189.819.323.229 4.794 20.765-.142.239c-.016.04-.05.086-.043.12.396 1.728.796 3.456 1.19 5.163l-.183.306.163.88c-.081.061-.141.141-.216.158-.564.139-1.13.267-1.709.4-.144-.098-.294-.204-.468-.322l-.251-1.087.176-.342-1.067-4.622c.067-.124.131-.242.197-.36-1.558-6.74-3.114-13.477-4.671-20.224z" fill="#FE580B"/>
        <g fill="#1E273E">
            <path d="M68.024 73.663c-.25-.132-.527-.38-.818-.4-.243-.016-.4-.225-.63-.174-.135.028-.272.062-.421.097-.11-.063-.23-.128-.362-.201l-.522.12a31.952 31.952 0 0 0-.37-.213l-1.07.247c-.128-.074-.249-.14-.376-.212l-1.068.247-.31-.197-1.06.244c-.203-.1-.324-.157-.46-.224l-1.311.303-.271-.172c-.592.057-1.15.303-1.7.334l-.293-.186-1.894.438c-.125-.073-.246-.14-.37-.213l-2.973.686-.375-.212-6.51 1.503-.286-.182-2.505.579-.152.245c-.46.386-.97-.205-1.45.106-.065.095-.142.206-.224.329l-4.61 1.064c-.08.12-.156.233-.239.354l-2.156.497c-.085.124-.164.238-.225.324l-2.154.497c-.162-.072-.29-.183-.406-.172-.353.03-.682-.328-1.039-.061-.352-.194-.748-.233-1.127-.316-.673-.148-1.335-.352-2.02-.468-.26-.044-.424-.337-.727-.363a4.454 4.454 0 0 1-.887-.184c-.253-.074-.453-.255-.729-.335-.467-.134-.884-.457-1.249-.66l-.282-1.222c.318-.196.32-.609.685-.837.319-.202.489-.651.723-.99.451-.051.437-.589.735-.745.321-.17.51-.47.812-.651.257-.153.462-.39.69-.588.454.113.523-.489.915-.502l.36.21.53-.122c.127.071.245.14.372.212l.784-.181.36.189c.34-.015.634-.301.958-.07.368.262.699-.164 1.054-.035.086.03.16.096.298.184l1.088-.251.302.191.804-.185c.124.072.246.143.37.213l1.07-.248.375.212 1.068-.246.311.197 1.089-.251.357.226 1.088-.251.327.207c.426-.099.875-.205 1.328-.304.035-.008.08.03.121.047l.247.156c.444-.103.898-.21 1.351-.307.032-.007.08.04.12.063l.243.144 1.34-.31c.13.074.251.142.378.211l1.882-.434.31.197 2.42-.558c.206.099.327.156.463.22l2.67-.616c.115.072.195.123.3.192 1.924-.444 3.871-.894 5.82-1.346.08-.019.152-.083.226-.127.05-.08.097-.161.149-.242l2.713-.627c.08-.12.156-.233.239-.353l1.06-.245c.093-.125.18-.332.256-.328.51.02.696-.595 1.186-.58.249-.244.55-.455.733-.742.156-.247.176-.582.245-.83l-.188-.816-.33-.21-.255-1.102c-.533-.34-1.007-.641-1.486-.938-.028-.018-.094.035-.134.023-.54-.16-1.094-.275-1.638-.413-.358-.09-.748-.347-1.168-.117-.07.038-.238-.107-.374-.172-.2.033-.417.072-.572.097l-.309-.2-.539.124-.367-.213-.79.182-.386-.209-.767.177c-.157-.078-.276-.139-.41-.204l-1.043.241-.326-.207-1.088.251c-.14-.088-.22-.138-.256-.162-.456-.052-.82.272-1.253.154a14.377 14.377 0 0 0-.228-.156l-1.902.44c-.124-.073-.245-.141-.37-.213l-2.158.498-.287-.182-9.859 2.276-.185.302-2.72.628-.224.363-1.089.251-.189.308-1.348.31-.234.353-1.076.249-.239.353-.786.182c-.093.13-.173.24-.227.313-.305.092-.668.09-.806.269-.198.256-.475.253-.674.403-.25.191-.448.418-.789.467-.097.015-.166.204-.258.33-.378.092-.77.204-1.089.248-.174-.106-.256-.154-.339-.204l-.529.122c-.127-.075-.248-.14-.357-.205-.148.034-.29.11-.419.088-.298-.048-.629-.081-.87-.238-.315-.205-.614.176-.921-.073-.155-.124-.438-.075-.614-.186-.28-.175-.513.143-.792-.006-.306-.164-.665-.227-1.001-.248-.38-.027-.565-.53-.99-.369-.32-.187-.64-.369-.955-.56-.32-.192-.635-.394-.945-.586l-.065-.283-.326-.229-.23-.996c.18-.748.335-1.383.513-2.114.304-.254.288-.906.866-1.068.204-.53.758-.756 1.03-1.24.24-.423.818-.514 1.055-.979l1.328-.306c1.123.39 2.296.54 3.481.925l.46-.106c.124.072.243.144.367.213l.531-.122.358.205c.276-.045.546-.222.792.046.28-.062.506.11.751.181l.711-.164c.102.054.221.114.353.182l.603-.075c.123.078.2.13.237.15.364.05.647-.213.973-.089.083.05.165.098.247.149l.802-.185c.127.074.247.14.374.211l.797-.183.31.197 1.059-.245.462.224 1.854-.428.302.191c.97-.224 1.964-.453 2.958-.68.035-.008.08.03.124.046l.246.156c1.488-.343 2.984-.686 4.477-1.036.08-.018.145-.092.216-.137l.155-.239 6.512-1.503.244-.355 1.87-.431.266-.36 1.053-.244.2-.323.775-.179c.154-.179.238-.281.29-.34.314-.11.608-.077.827-.277.05-.08.098-.159.149-.245l.536-.124c.285-.636 1.028-.914 1.204-1.64-.156-.243.128-.402.146-.563l-.386-1.674a3.491 3.491 0 0 1-.819-.722c-.258-.31-.69-.472-.788-.532-.635-.259-1.021-.313-1.399-.4-.377-.085-.749-.226-1.135-.26-.389-.032-.73-.238-1.15-.213-.374.022-.767-.119-1.132-.061l-.266-.17-.81.187c-.123-.074-.244-.142-.368-.214l-.789.182-.387-.209-.766.177a26.364 26.364 0 0 0-.41-.204l-1.044.241-.326-.207-1.088.251-.314-.199c-.62.143-1.253.292-1.885.433-.035.008-.08-.038-.154-.071l-.199-.136-2.446.565a50.6 50.6 0 0 0-.346-.2l-9.527 2.2-.191.31-2.176.503-.222.36-1.36.314-.222.36-1.089.251-.221.36-1.101.255-.166.294-.814.188c-.08.12-.159.234-.233.344-.351.017-.554.242-.8.451-.187.158-.488.12-.672.403-.154.235-.645.09-.748.498-.283.118-.654.092-.765.49l-1.08.25c-.58-.244-1.016-.743-1.696-.853-.382-.06-.706-.441-1.076-.644-.404-.223-.555-.716-1.007-.897-.133-.054-.198-.276-.308-.41-.295-.356-.316-.428-.222-.84l.28-1.212c.256-.416.553-.897.85-1.384.288.026.328-.29.506-.384.166-.089.326-.15.402-.332.164-.395.532-.597.843-.823.202-.148.534-.121.636-.443.358.058.345-.407.664-.462l.37-.086c.077-.119.153-.232.233-.352l.535-.123c.098-.335.38-.368.65-.436.225-.054.222-.421.505-.401.328.02.406-.336.644-.431.248-.1.522-.131.722-.178l.233-.378.821-.19.174-.296 1.91-.44c.04.025.077.061.119.073.5.143.995.335 1.503.41.555.08 1.08.432 1.668.209.208.218.552.077.738.237.31.261.639-.15.91.088.264.235.564-.104.773.037.278.192.523.055.782.075.252.02.486.235.77.097.205-.1.337.085.506.166l.526-.122c.125.073.246.143.37.213l.801-.185c.128.075.248.14.373.213l.78-.18.396.206 1.053-.243.32.203 1.089-.25.357.226 1.088-.252.308.196c.534-.124 1.078-.252 1.621-.37.033-.007.08.04.12.064l.243.143 1.887-.435c.13.074.249.142.375.212l1.882-.435.311.197 4.323-.998c.204.1.325.157.376.183l1.892-.437.254-.301c.285-.13.405.06.575.136l.537-.124.233-.347 2.154-.497c.084-.123.163-.238.246-.355l1.004-.232c.557-.592 1.306-.922 1.502-1.668l-.446-1.932c-.11-.07-.21-.104-.266-.173-.544-.685-.686-.796-1.471-1.169-.168-.078-.32-.198-.476-.297-.357.2-.701.05-1.04-.059-.343-.11-.678-.197-1.035-.08-.29-.376-.706.064-1.021-.175-.306-.233-.735.223-1.016-.186l-.813.188-.365-.215-1.079.25c-.122-.074-.242-.142-.365-.215l-.8.185-.309-.195-1.632.377-.357-.227-1.36.314-.358-.226-2.176.502-.314-.199c-1.074.248-2.16.499-3.246.747-.035.008-.079-.035-.144-.068l-.208-.139-9.522 2.199-.237.353-2.708.625-.191.31-1.632.377-.224.364c-.166.022-.414.132-.596.062a6.855 6.855 0 0 0-1.638-.402c-.384-.047-.57-.508-.99-.384-.07.021-.172-.035-.245-.08-.321-.194-.634-.399-.951-.6l-3.086-1.957-.1-.432-.663-.255c.118-.523-.389-.646-.485-.994.059-.168.144-.331.163-.5.02-.176-.108-.426-.029-.524.172-.213.02-.463.146-.646.116-.169.16-.328.076-.514.176-.285.392-.546.509-.847.145-.372.594-.396.733-.774.175-.483.586-.788.99-1.054.169-.111.22-.318.363-.375.178-.073.288-.175.423-.308.31-.3.699-.502.985-.845.19-.228.628-.092.777-.486.039-.105.35-.078.497-.17.142-.09.235-.257.318-.354l.743-.171c.075-.11.15-.227.229-.343l.771-.178c.164-.132.168-.378.437-.384.25.041.51.149.606.428.092.269.383.338.485.631.09.262.594.238.682.629.017.073.112.133.184.183.154.109.315.202.472.304.555.352 1.143.658 1.653 1.068.517.416 1.159.508 1.72.801.276.145.641.303 1.007.202.577.347 1.349.15 1.812.709l.64-.095.302.192.54-.125c.274.291.706.109 1.004.368l1.054-.244.314.2.784-.181c.209.098.327.156.466.22l1.305-.302.299.19c1.02-.236 2.062-.474 3.102-.719.08-.018.148-.085.222-.129.05-.08.097-.16.15-.242.314-.072.632-.14.947-.224.08-.02.141-.094.21-.141.052-.08.105-.155.162-.238l.787-.181c.257-.4.655-.6 1.014-.866.273-.505.69-.953.74-1.583.005-.086.042-.17.065-.252-.09-.259-.06-.556-.257-.78l-.243-.154-.263-1.14c-.408-.037-.382-.56-.735-.713-.056-.024-.062-.164-.09-.25-.317-.202-.611-.475-.955-.585-.389-.123-.765-.241-1.098-.484-.418.112-.653-.281-.99-.363-.162-.04-.333-.04-.507-.101-.407-.144-.85-.135-1.258-.325-.265-.123-.617.198-.901-.11-.036-.04-.171.022-.26.026-.132.01-.305.068-.387.007-.267-.2-.644-.022-.879-.298l-.801.185-.375-.212-.796.184-.311-.197-1.058.244-.462-.224-1.583.365-.301-.19c-.79.181-1.603.37-2.417.554-.035.008-.08-.029-.124-.046l-.243-.154-2.446.565-.225.334-2.174.502c-.163-.103-.321-.206-.49-.31l-.574-2.487c.06-.104.13-.227.198-.35l-.202-.874c.499-.267.29-.893.602-1.309.337-.445.599-.95.896-1.43l.274-.084.449-.69.519-.12.225-.32.552-.128c.295.188.57.364.85.54.276.173.558.48.833.476.382-.006.573.272.866.357.287.082.61.05.888.157.25.096.54.083.747.208.293.175.53.04.785.008l.344.2 3.813-.88c.18-.385.696-.459.778-.904l-.446-1.932c-.224-.103-.392-.248-.424-.504-.475-.304-.952-.604-1.31-.833-.5-.13-.874-.246-1.254-.318-.423-.08-.837-.347-1.284-.119-.124-.07-.242-.139-.37-.21l-.795.183-.311-.197-3.969.916c-.426-.216-.717-.362-.935-.474-.085-.265-.087-.526-.204-.6-.43-.268-.377-.696-.447-1.048.07-.16.127-.282.166-.371l-.148-.645.388-1.664.279-.33-.45-1.946c-.196-.146-.345-.258-.475-.35l-.82.189-.54.84c.142.389-.155.615-.313.878-.144.24-.259.472-.224.76-.287.223.004.657-.31.879l.7 3.035c.107.074.223.15.339.233l.188.817c.408.386.614.663.765 1.025-.238.186-.455.409-.717.55-.31.167-.29.612-.6.716-.373.123-.397.488-.604.717-.597 0-.246.585-.486.834-.206.213-.411.484-.44.84-.024.301-.113.599-.188.893-.073.297-.163.59-.262.945l.226.982c-.076.17-.132.291-.154.336l.325 1.404.298.19c.143.619.292 1.261.437 1.902.008.035-.031.081-.048.123-.278.07-.407.32-.642.531l-.69.16-.268.325-.744.172-.233.334c-.413.124-.406.13-.685.36-.4.327-.78.71-1.232.935-.255.125-.422.305-.63.465-.238.183-.586.305-.706.546-.216.431-.703.589-.876 1.012-.2.486-.664.721-.96 1.125-.388.532-.385 1.227-.8 1.727.153.36-.273.673-.06 1.061.058.104-.097.323-.155.491.138.597.276 1.197.416 1.793.01.04.041.076.063.113l.305.194c-.055.636.534 1.038.745 1.631.045.128.214.257.309.416.107.178.34.255.413.515.04.135.315.189.448.312.16.144.27.346.43.492.136.126.312.205.47.307.594.377 1.186.755 1.782 1.129.154.097.326.258.479.249.464-.025.707.332 1.05.498-.11.19-.204.354-.295.508l-.816.188-.242.354-.784.181-.227.314c-.305.091-.568.17-.83.25-.095.422-.576.253-.757.492-.22.293-.56.42-.781.694-.384-.055-.528.309-.766.486-.274.204-.558.406-.796.674-.223.251-.567.392-.822.621-.225.207-.302.512-.622.695-.284.162-.416.603-.614.92-.195.314-.388.63-.434.705-.174.69-.281 1.114-.392 1.545l.606 2.625c.1.073.211.154.33.238.069.307.11.641.476.772-.06.4.547.375.487.775.874.555 1.748 1.107 2.617 1.668.059.04.066.163.101.256-.142.56-.841.685-.977 1.26-.386-.047-.372.538-.786.487-.26.433-.548.86-.784 1.319-.247.48-.732.848-.71 1.464-.319.399-.344.918-.553 1.38l.184.794-.159.257c-.03.327.069.63.185.903l.345.278.244 1.054.286.182.149.645c.1.046.263.147.439.192.276.07.209.394.417.51.285.164.548.367.835.52.312.164.695.116.992.38.146.13.404.144.618.172.363.047.678.19.99.381.215.132.53.03.744.228.358-.25.698.015 1.037.062.302.045.577.197.912.088.131-.044.322.133.49.15.207.022.43-.203.624.053-.076.503-.069.512-.405.776-.385.302-.765.6-.996 1.058-.126.25-.304.473-.435.724-.122.233-.315.414-.298.748.013.237-.235.486-.373.742l.568 2.458.35.241.13.564c.385.154.619.494.919.758.323.285.688.566 1.192.633.38.05.725.382.985.532 1.003.152 1.847.54 2.756.618.124.012.244.122.357.203.057.04.091.11.172.208-.24.077-.451.141-.662.209-.098.507-.693.312-.944.705-.214.337-.65.568-1.082.687-.064.313-.468.252-.572.54-.078.22-.41.148-.5.421-.082.256-.298.415-.541.568-.214.134-.308.457-.457.696-.123.2-.232.41-.373.595-.176.227.062.575-.237.761l.448 1.942c.094.067.207.144.329.228l.124.539c.118.08.232.16.35.239l.124.539c.484.306.95.62 1.434.905.463.274.9.564 1.448.726.807.237 2.161.705 3.267.87.054.01.097.103.144.159-.104.163-.206.314-.31.47l-.526.122c-1.127 1.713-1.127 1.713-1.462 2.925l.096.415c.112.077.228.157.344.24l.266 1.15c.425-.06.29.485.641.614.344.123.674.346.945.597.267.248.614.05.887.288.227.198.48.42.836.444.296.02.587.13.884.198.336.077.676.14 1.01.228.288.075.57.178.848.268l.033.282c-.453.35-.453.35-.81 1.33.13.567.265 1.162.408 1.757.019.081.085.151.131.226l.24.152.127.547c.229.218.544.284.74.599.182.288.565.453.867.66.272.185.542.376.833.521.274.137.592.117.872.305.283.188.662.18.996.269l.821.223c.258.284-.034.442-.08.634l.189.814c.127.096.238.177.355.264l.248 1.073c.508.276.596.94 1.103 1.157.528.224.743.806 1.25 1.038l.276-.064c.431.273.864.554 1.301.83.32.2 1.207.504 1.75.517l1.177-2.312c-.217-.02-.939.009-1.18-.146-.101-.065-.248-.073-.375-.079-.367-.016-.564-.517-.993-.36-.031.013-.084-.022-.121-.046-.12-.074-.237-.15-.357-.224-.751-.476-1.505-.952-2.256-1.434-.07-.045-.118-.128-.178-.191l-.104-.453c.09-.175.195-.373.277-.53.366-.055.635-.096.907-.135.269.343.647-.059.892.114.288.202.525.076.8.03l.356.207 1.076-.249c.122.073.242.141.364.214l.804-.185.305.193 1.088-.251.358.226 1.088-.25.357.226 1.632-.377.296.187c.677-.108 1.335-.321 1.941-.416l.32.203 2.444-.564c.122.073.243.141.347.202l4.89-1.128c.088-.127.168-.239.253-.357l.791-.183c.181-.39.707-.456.76-.908l-.392-1.702c-.494 0-.279-.5-.526-.777-.316-.033-.488-.462-.933-.431-.285.02-.607-.1-.87-.237-.337-.175-.743.244-1.023-.171l-.541.125-.365-.214-1.076.248-.37-.213-1.343.31-.308-.195-1.632.377-.32-.203-9.577 2.21-.205.333-1.904.44-.19.307-1.532.354c-.457-.11-.836-.196-1.214-.295-.378-.1-.747-.275-1.127-.305-.504-.04-.795-.562-1.213-.572-.484-.014-.728-.362-1.101-.5l-.192-.832c.177-.257.528-.33.644-.66.108-.316.515-.33.664-.644.049-.104.338-.094.505-.132.12-.15.154-.369.446-.383.11.047.273.113.435.18.227-.053.45-.123.68-.152.22-.03.372.255.634.146.204-.084.435-.108.594-.145l.37.234 1.088-.25.302.19c.312-.071.628-.15.947-.213.08-.016.17.022.252.033.082.047.161.093.249.142l1.335-.308c.132.073.253.141.38.21l1.607-.37c.096.06.176.11.314.199l1.872-.433c.207.1.328.157.466.22l1.308-.301.274.173c.68-.095 1.333-.331 1.95-.41l.312.197 2.444-.564c.122.073.242.141.364.214l2.97-.686c.136.073.254.142.344.19l8.154-1.882c.1-.135.184-.242.272-.361l.789-.182c.066-.394.577-.31.648-.686.063-.342.162-.676.247-1.016a25.2 25.2 0 0 0-.392-.298c-.021-.091-.05-.226-.083-.36-.214-.866-.296-.906-1.177-1.384-.484-.264-.995-.336-1.5-.464-.503-.129-1.006-.269-1.592-.426l-.659.152c-.176-.08-.297-.137-.435-.198l-.756.174-.277-.175c-.316.009-.607.206-.938.118-.078-.054-.156-.106-.23-.155l-1.63.376a34.807 34.807 0 0 0-.37-.213l-2.43.562-.287-.182-12.852 2.967-.187.304-2.449.566-.221.36-1.36.314-.19.307-1.348.311-.232.35-1.078.249c-.125-.073-.246-.14-.355-.204-.277.04-.512.172-.8-.03-.246-.173-.624.229-.892-.114-.283.094-.502-.127-.759-.166-.297-.046-.635-.043-.875-.192-.252-.158-.518-.038-.771-.198-.237-.15-.59-.098-.873-.195-.254-.086-.489-.362-.726-.352-.37.013-.593-.146-.83-.378-.033-.172-.066-.35-.092-.496l.926-1.503c.11-.026.241-.07.377-.085.229-.023.241-.322.375-.356.4-.1.554-.642 1.027-.564.081-.115.157-.228.24-.346l.797-.184c.137-.407.47-.401.765-.41.142.068.262.122.345.162.397-.044.75-.323 1.132.066l1.106-.255.302.191c.312-.072.628-.15.947-.213.08-.016.17.022.253.035l.25.142 1.333-.308c.136.073.254.141.383.21l1.335-.308.314.199 1.36-.314.358.226 1.904-.44.296.188c.588-.072 1.151-.298 1.684-.346l.308.195 2.171-.501c.122.073.243.141.365.214l1.882-.434.385.21 3.237-.748.287.181 10.934-2.524.201-.326 1.393-.322c.04-.347.362-.3.498-.472.027-.544.427-1.156-.29-1.518l-.167-.726c-.434-.443-1.007-.556-1.572-.692-.209-.05-.422-.097-.63-.145-.208-.047-.44-.173-.626-.127-.297.071-.518-.067-.775-.109-.248-.04-.53.176-.77-.083-.564.178-1.154-.314-1.685.083-.151-.085-.272-.15-.407-.223l-.793.183-.365-.214-1.076.248-.37-.213-.799.184-.308-.195-1.632.377-.357-.227-1.905.44-.33-.209-1.185.274-1.263.291-.335-.212c-.986.227-1.982.457-2.979.685-.035.008-.08-.038-.184-.094a7.494 7.494 0 0 0-.158-.113l-5.99 1.383-.241.355-2.16.498a28.37 28.37 0 0 0-.19.313l-2.176.502-.197.32-5.768 1.332-.287-.182-1.063.246-.374-.21c-.301.075-.616.18-.893-.094-.533.059-1.014-.206-1.522-.296-.34-.06-.638-.375-.953-.577-.49.145-.73-.324-1.112-.465l-.192-.832c.071-.192.297-.364.135-.623l.37-.6c.122-.198.283-.384.36-.602.105-.296.429-.315.574-.54.122-.188.237-.385.324-.522l.514-.119.243-.336.514-.119c.08-.12.16-.233.24-.353l.803-.186c.078-.119.157-.233.234-.352l1.066-.246.226-.321 2.915-.673c.428.122.763.218 1.097.311l.701-.162.367.198.516-.12c.125.073.244.144.368.214l.534-.123c.122.073.243.141.365.214l.801-.185c.05.031.093.05.127.083.302.295.722-.207 1.032.164.047.058.253-.016.387-.031.218-.024.437-.189.653.004.257.225.524-.108.78.025.084.042.16.099.238.15.676-.113 1.335-.322 1.943-.422l.316.207 1.63-.376.367.213 3.25-.75.307.195 2.993-.69c.139.087.219.138.355.226l5.988-1.382.292.186 1.153-.267.184-.298c1.345-.31 2.703-.624 4.06-.94.035-.008.056-.066.102-.127.032-.056.08-.136.127-.213l1.086-.251.233-.347c.53.086.704-.535 1.19-.586.22-.022.359-.344.598-.482.179-.103.26-.377.378-.58.043-.077.068-.165.086-.21l-.243-1.051c-.022-.107-.506-.883-.53-.922zm-37.306-4.798c.07-.098.145-.212.23-.335l.796-.184.22-.333c.294-.119.709-.153 1.097-.272l.183-.298c.506-.2 1.113-.236 1.671-.44.05-.08.098-.157.168-.275l1.58-.365.317-.4 2.419-.559.193-.314 5.99-1.383c.09.051.21.117.344.19l3.514-.811c.122.073.243.14.365.214l1.355-.313c.08.05.158.102.309.198.529-.053 1.092-.268 1.678-.348l.296.188 1.36-.314c.139.088.235.196.294.18.568-.169 1.156.327 1.687-.073.15.083.27.148.409.223l.79-.183c.125.073.244.144.366.214l.534-.123c.122.073.24.142.356.208.1-.023.189-.046.28-.064.087-.018.232-.075.26-.04.302.37.717-.05 1.026.171.227.161.55-.01.75.238.29-.144.5.201.757.142.284-.069.467.291.776.138.09-.045.19.163.216.352-.073.129-.163.288-.24.429-.231.242-.691.071-.793.553l-1.113.257-.195.317-10.346 2.388-.345-.184-2.685.62c-.125-.073-.246-.14-.37-.213l-2.179.503-.152-.111c-.113-.06-.159-.108-.194-.1-.725.162-1.448.332-2.162.497l-.295-.188c-.463.011-.932.234-1.432.27l-.27-.172-1.583.365c-.136-.065-.255-.125-.46-.224l-1.058.244-.31-.197-1.066.246-.375-.212-1.071.247-.344-.203c-.316.022-.703.176-1.108.235l-.295-.188-1.089.251-.332-.21-.879.202c-.118-.103-.284-.251-.453-.401.112-.234.39-.149.608-.25zm-7.513-11.918c.463.125.525-.48.912-.504.09-.005.183-.04.28-.062.072-.11.15-.223.228-.343l.812-.187.183-.298 1.088-.251c.086-.14.136-.22.22-.36l1.088-.251.22-.357 1.632-.377.22-.357 1.632-.377c.086-.14.136-.22.189-.31l4.066-.939.236-.353 2.721-.628c.075.05.152.1.205.137.065.033.112.075.147.067 1.087-.246 2.172-.499 3.245-.747l.314.2 1.905-.44.354.225 1.36-.315c.139.088.219.14.355.228l1.088-.252.308.196.799-.185.367.214.814-.188.23.155c.331.088.622-.11.917-.119.14.07.258.175.383.18.179.01.44-.14.524-.064.308.286.63-.007.912.09.617.212 1.25.348 1.887.486.423.092.838.214 1.26.325l.128.551c-.269.555-.752.842-1.39 1.147 0 0-.075.116-.156.233l-.81.187-.184.298-1.089.251-.208.339-1.847.426-.326.4-4.045.935-.197.32-2.184.504-.343-.185-1.35.312-.22.33-.807.186c-.121-.07-.24-.141-.362-.214l-4.885 1.127-.286-.181-1.845.426a43.905 43.905 0 0 0-.434-.198l-1.286.296-.412-.203-.764.177-.39-.209-.786.182a34.805 34.805 0 0 0-.37-.213l-.532.123c-.122-.074-.242-.142-.364-.215l-.787.182c-.142-.071-.319-.22-.378-.18-.41.26-.78-.112-1.188-.055-.32.044-.697-.071-1-.22-.314-.154-.596.173-.921-.064-.225-.164-.577-.141-.872-.212-.294-.068-.588-.146-.885-.222.23-.202.452-.402.674-.6zm7.168-14.444 1.914-.442c.087-.14.136-.22.195-.32l4.275-.987c.228-.143.225-.494.66-.376.012.005.13.076.253.15l5.439-1.256c.077.049.154.1.3.197.898-.14 1.822-.431 2.772-.6l.295.187 1.633-.376.326.207 1.316-.304c.134.068.255.127.41.204l.766-.177.387.209.789-.182c.124.072.243.143.367.213l.804-.185c.122.073.243.14.365.214l.541-.125c.282.412.71-.047 1.016.186.316.242.731-.203 1.02.172.36-.067.689.113 1.014.2.33.09.745.017 1.004.387l-.288.503-.827.19-.194.32-2.693.622c-.086.118-.163.23-.254.357l-2.713.626-.347-.202-4.894 1.13-.306-.199c-.71.106-1.456.345-2.222.479l-.28-.178-1.575.364-.47-.217-1.326.306-.317-.201-1.602.37-.388-.209-.789.182c-.124-.072-.243-.143-.367-.213l-.814.187c-.077-.048-.155-.102-.288-.189l-.846.196c-.307-.35-.701-.033-.918-.172-.29-.186-.62-.038-.897-.267-.182-.15-.48.153-.777-.026-.247-.15-.58-.154-.874-.222-.294-.068-.588-.136-.907-.208.104-.163.192-.317.312-.525zm-2.436-15.39 3.33-.769.286.182 2.427-.56c.126.07.244.138.377.211l1.338-.309.264.152c.31.107.602-.099.915-.123l.237.15c.283.09.535-.072.801-.105.044-.002.11-.027.13-.006.276.304.648-.008.89.12.288.152.522.053.784.07.25.016.472.167.771.117.279-.046.638.018.873.171.304.2.533.008.82.02.286.149.542.47.956.372.175.19.421.108.624.176.214.073.42.215.592.37.32.29.833.074 1.125.486l.184.796c-.04.057-.072.158-.14.195-.53.309-.922.786-1.524 1.22l-1.208.28c-.08.119-.156.232-.234.352l-2.174.501-.205-.136c-.068-.032-.112-.078-.147-.07-.633.14-1.266.29-1.885.433l-.296-.188-.759.175c-.134-.067-.269-.196-.368-.173-.405.09-.811-.175-1.158-.063-.365.119-.61-.304-.908-.105-.341.23-.585-.315-.907-.089-.23-.277-.587-.176-.874-.28-.29-.104-.598-.142-.856-.338-.217-.166-.553.008-.742-.241-.226-.297-.61-.1-.87-.308-.21-.168-.438-.35-.742-.242-.53-.424-1.231-.606-1.618-1.246-.153-.253-.612-.245-.655-.65.053-.306.535-.178.546-.548zM29.8 15.785a.15.15 0 0 1 .06-.128c.44-.363 1.048-.312 1.566-.482.29-.096.565-.24.87-.278.242-.03.48-.01.72.039.472.096.884.331 1.324.515.386.161.876.253 1.175.57.223.237.392.63.266.949-.161.415-.615.341-.971.336-.515-.01-1.023-.014-1.536-.083-.434-.057-.842-.184-1.265-.286-.707-.172-1.62-.25-2.138-.833a.172.172 0 0 1-.044-.147c-.004-.004-.003-.012-.007-.017a.217.217 0 0 1-.02-.155zm13.583 89.999a.12.12 0 0 1 .093-.086c.803-.188 1.59-.436 2.38-.67a27.274 27.274 0 0 1 1.542-.403c.577-.232 1.159-.467 1.756-.605.594-.137 1.205-.153 1.808-.229.307-.084.615-.126.927-.174.675-.105 1.327-.311 1.99-.459.61-.136 1.24-.244 1.865-.279.493-.028.967.067 1.448.124a6.125 6.125 0 0 1 1.268-.146c.821-.017 1.652.346 2.469.242.212-.027.42.04.55.193.356.131.478.649.217.922a.64.64 0 0 1-.37.312 6.145 6.145 0 0 1-1.661.317 2.872 2.872 0 0 1-.801.22c-.342.044-.687.041-1.029.099-.68.117-1.336.35-2.007.508h-.002a.1.1 0 0 1-.037.001c-.01 0-.021 0-.032-.003h-.003c-.722-.235-1.523.134-2.23.268-.4.076-.81.115-1.213.179-.424.066-.847.126-1.274.163a7.136 7.136 0 0 1-1.281.008c-.409-.039-.816-.104-1.227-.087-.42.017-.815.082-1.235.016a11.33 11.33 0 0 0-1.254-.115c-.858-.037-1.717-.014-2.574-.07-.134-.008-.158-.173-.083-.246zm.753-7.455c.448-.117.901-.216 1.353-.32.05-.08.1-.162.147-.242.073-.046.142-.113.222-.131 3.663-.851 7.327-1.694 11.001-2.543.072.048.147.102.179.124.09.046.134.092.169.084.905-.204 1.807-.415 2.704-.622.086.058.166.106.301.192.45-.027.923-.227 1.42-.277l.295.187 1.088-.251.311.197c.388-.06.79-.123 1.19-.187.269.346.645-.063.888.112.275.2.654-.001.874.3l.539-.125c.192.094.251.246.2.447-.028.038-.048.099-.083.107-2.26.527-4.524 1.047-6.788 1.57-.043-.028-.083-.053-.124-.081-.746.119-1.493.23-2.241.336l-.689.16-.077-.05-2.681.39c-.103.021-.208.046-.31.067l-.028-.018c-.728.104-1.456.198-2.186.281l-.195.045a1.253 1.253 0 0 1-.038-.018c-.036.003-.074.01-.11.012-.531.056-1.068.079-1.604.088l-.58.134-.194-.123-.626.009-1.435.331-.308-.195-1.338.309-.371-.208c-.3.045-.604.14-.96.206.047-.165.05-.286.085-.297zm-3.171-8.576 1.4-.323.218-.354 2.176-.502.19-.308 4.353-1.005.347.197 3.245-.749c.121.07.24.142.362.212l1.9-.438c.077.051.156.1.23.146.047.021.091.064.126.056.633-.14 1.264-.289 1.883-.432l.31.198 1.361-.314c.139.087.216.136.327.21l1.31-.303.46.221.785-.181.311.197 1.066-.246c.127.07.245.138.378.211l.521-.12c.125.072.244.143.368.213l.536-.124c.225.164.449.326.925-.024-.218.33-.253.442-.307.455-3.146.734-6.296 1.461-9.423 2.183a.15.15 0 0 1-.13.131c-.946.173-1.907.193-2.862.304-.013 0-.028.004-.04.004l-.802.185c-.056-.027-.112-.051-.17-.08-.494.05-.988.097-1.482.142l-1.223.282a12.04 12.04 0 0 1-.232-.149c-.236.026-.47.056-.705.091l-1.522.352c-.015-.008-.03-.015-.042-.023-.369.077-.739.126-1.123.078-.068-.008-.136-.021-.205-.035l-.347.08c-.124-.07-.245-.138-.373-.212l-1.612.372-.246-.143c-.082-.013-.171-.048-.252-.032-.32.063-.633.14-.945.212l-.243-.154c-.454-.124-.865.274-1.324.128.015-.366.54-.19.522-.609zm23.512-13.851-.226.34-2.446.565-.136.23c-.08.051-.146.12-.226.138-.405.102-.81.19-1.205.28-.096-.06-.173-.111-.308-.194l-7.076 1.633c-.133-.086-.213-.134-.327-.21l-2.94.68c-.136-.062-.257-.12-.463-.216l-2.144.495-.314-.2-1.602.37c-.13-.068-.247-.134-.385-.209l-1.877.433-.368-.213-.816.188-.222-.153c-.435-.121-.799.205-1.261.15l-.191-.121c-.283-.074-.534.078-.805.11-.557-.225-1.191-.055-1.736-.344.025-.04.043-.109.075-.116 4.823-1.167 9.667-2.245 14.435-3.365l.326.207 2.7-.623.373.212 2.157-.498.367.214 1.622-.375.305.194c.536-.05 1.097-.272 1.685-.344l.296.187 1.088-.25.354.224.816-.189c.139.088.216.137.306.196l.94-.164.132.39c-.24.315-.603.225-.903.348zM56.923 107.887l3.22-.744M75.97 152.44l-.151.229c-.086.334.11.63.122.95-.224.512-.837.693-1.01 1.248l-.805.185-.183.298-.849.242-.195.316-1.632.377-.188.304-8.763 2.024-.286-.182-2.968.685-.388-.214c-.155.036-.407.174-.5.1-.274-.217-.612-.088-.886-.273-.33-.222-.636-.543-1.098-.473-.033.004-.104-.051-.105-.078-.012-.521-.654-.432-.807-.876-.105-.306-.441-.535-.732-.862l-.295-1.275c-.117-.085-.23-.162-.352-.251l-1.863-8.07c.116-.166.292-.385.434-.623.143-.236.526-.204.569-.544l.808-.187.232-.35 5.714-1.318c.042-.077.09-.157.131-.228.082-.054.15-.123.23-.141 3.304-.768 6.612-1.529 9.916-2.292l.311.197c.152-.024.37-.061.585-.097.45.095.53.6.877.826.111.072.096.348.134.515l.356.25.25 1.083.286.182.306 1.325.395.324.311 1.346.314.199c.06.255.122.528.185.8l.353.256.313 1.355c.119.08.232.16.35.24.192.818.383 1.645.575 2.477zm-5.607-8.153-6.39 1.476c-.077.116-.153.232-.23.346l-5.423 1.252c-.083.12-.159.234-.231.341l-3.135.724c-.043.01-.093.021-.124.047-.032.029-.05.078-.07.107l1.225 5.306.287.181.25 1.085c.182.14.352.25.44.504.054.152.39.312.573.286.265-.04.394.258.644.168l.674-.156c.116.07.236.138.356.211l1.076-.248.367.213 1.073-.247.305.193 1.633-.377.326.207 3.02-.697c.11-.137.192-.241.283-.358l2.943-.68.202-.331 1.088-.252.187-.304.804-.186.234-.352.54-.124c.082-.211.304-.353.277-.779-.003-.068-.22-.1-.367-.224-.146-.63-.29-1.27-.444-1.911-.008-.036-.068-.056-.17-.132a4.248 4.248 0 0 0-.168-.091l-.319-1.381c-.119-.082-.232-.162-.35-.242l-.25-1.085-.306-.193c-.08-.352-.173-.751-.254-1.103l-.354-.224c-.059-.264-.13-.572-.222-.97z"/>
        </g>
    </g>
</svg>
