<svg
         viewBox="0 0 269 126"
         version="1.1"
         xmlns="http://www.w3.org/2000/svg"
      >
         <defs></defs>
         <g id="Mobile-Recipe-Menu" stroke="none" stroke-width="1" fill="none" fillRule="evenodd">
            <g id="Desktop-HD" transform="translate(-586.000000, -25.000000)" fillRule="nonzero">
               <g id="Navigation" transform="translate(-35.000000, -121.000000)">
                  <g id="Twisted_Logo_Final_Full-01" transform="translate(621.000000, 146.000000)">
                     <path
                        d="M48.6242318,28.2608601 C48.6242318,28.2608601 47.8626836,42.8911026 47.7865287,72.7055726 C47.7103739,102.494861 47.684989,119.164776 47.9134534,121.053362 C48.116533,122.79086 48.2688426,125.132706 50.2234832,125.812597 C50.9342616,126.064409 51.7465798,126.014046 52.5081281,125.938503 C55.1481622,125.686692 57.7881962,124.377272 59.8443766,122.765679 C61.3928581,121.556985 62.2305612,119.844667 62.1544064,117.880538 C62.0020967,114.279635 61.2405485,100.02711 61.1897786,97.4838145 C61.1390087,94.9657005 61.0374689,74.3927089 61.1390087,66.133295 C61.2405485,57.873881 61.9513269,27.9335053 61.9513269,27.9335053 C61.9513269,27.9335053 77.0553679,27.1780711 94.774058,26.5989049 C112.492748,26.0197386 147.828589,24.9873119 149.656305,24.8865873 C151.48402,24.7858628 154.09867,24.836225 153.99713,21.6382202 C153.89559,18.4402154 153.89559,14.7385878 153.413276,8.64475189 C153.413276,8.64475189 153.159427,6.02591331 149.986309,6.30290586 C146.813191,6.5798984 113.482761,8.84620102 110.005024,9.07283128 C106.527287,9.29946154 62.9413396,12.2708361 62.9159547,12.2708361 C62.9667246,12.2708361 62.9159547,10.2311637 62.9159547,10.0297146 C62.6113354,5.95036989 58.0674306,4.7668563 54.7166181,3.58334271 C53.5742957,3.18044447 52.2542787,2.72718395 51.0611864,3.20562561 C49.4873199,3.83515412 49.1319307,5.52229051 48.9542361,7.03315892 C48.9034662,7.51160058 48.5988469,13.2529005 48.6496168,13.2529005 C48.6496168,13.2529005 11.0291314,15.7961957 9.58218967,15.8969203 C8.16063287,15.9976448 6.18060733,15.9472826 5.49521387,18.2891286 C4.80982041,20.6309746 3.84519258,23.7030737 3.28672384,25.4657535 C2.72825509,27.2284334 2.70287015,29.3940114 5.87598801,29.3688303 C9.04910587,29.3436491 48.6242318,28.2608601 48.6242318,28.2608601 Z"
                        id="Shape"
                        fill="#525252"
                     ></path>
                     <path
                        d="M45.6242318,25.2608601 C45.6242318,25.2608601 44.8626836,39.8911026 44.7865287,69.7055726 C44.7103739,99.4948614 44.684989,116.164776 44.9134534,118.053362 C45.116533,119.79086 45.2688426,122.132706 47.2234832,122.812597 C47.9342616,123.064409 48.7465798,123.014046 49.5081281,122.938503 C52.1481622,122.686692 54.7881962,121.377272 56.8443766,119.765679 C58.3928581,118.556985 59.2305612,116.844667 59.1544064,114.880538 C59.0020967,111.279635 58.2405485,97.0271097 58.1897786,94.4838145 C58.1390087,91.9657005 58.0374689,71.3927089 58.1390087,63.133295 C58.2405485,54.873881 58.9513269,24.9335053 58.9513269,24.9335053 C58.9513269,24.9335053 74.0553679,24.1780711 91.774058,23.5989049 C109.492748,23.0197386 144.828589,21.9873119 146.656305,21.8865873 C148.48402,21.7858628 151.09867,21.836225 150.99713,18.6382202 C150.89559,15.4402154 150.89559,11.7385878 150.413276,5.64475189 C150.413276,5.64475189 150.159427,3.02591331 146.986309,3.30290586 C143.813191,3.5798984 110.482761,5.84620102 107.005024,6.07283128 C103.527287,6.29946154 59.9413396,9.27083608 59.9159547,9.27083608 C59.9667246,9.27083608 59.9159547,7.23116373 59.9159547,7.0297146 C59.6113354,2.95036989 55.0674306,1.7668563 51.7166181,0.583342714 C50.5742957,0.180444471 49.2542787,-0.272816052 48.0611864,0.205625611 C46.4873199,0.835154116 46.1319307,2.52229051 45.9542361,4.03315892 C45.9034662,4.51160058 45.5988469,10.2529005 45.6496168,10.2529005 C45.6496168,10.2529005 8.02913142,12.7961957 6.58218967,12.8969203 C5.16063287,12.9976448 3.18060733,12.9472826 2.49521387,15.2891286 C1.80982041,17.6309746 0.845192581,20.7030737 0.286723837,22.4657535 C-0.271744907,24.2284334 -0.29712985,26.3940114 2.87598801,26.3688303 C6.04910587,26.3436491 45.6242318,25.2608601 45.6242318,25.2608601 Z"
                        id="Shape"
                        fill="#fff"
                     ></path>
                     <path
                        d="M148.681529,9.14017094 L148.981522,15.5777778 C148.981522,15.5777778 149.172427,17.5880342 148.326992,18.1145299 C147.481556,18.617094 140.254448,18.8803419 136,19 C136,19 148.43608,16.1042735 148.354264,5 L148.681529,9.14017094 Z"
                        id="Shape"
                        fill="#e7e7e7"
                     ></path>
                     <path
                        d="M59,8.79230769 L59,6 C59,6 57.9350649,8.74615385 55,9 L59,8.79230769 Z"
                        id="Shape"
                        fill="#e7e7e7"
                     ></path>
                     <path
                        d="M46.0116059,12.8836807 C45.9286361,14.0317924 46.3158284,6.31541365 46.3711416,5.7814082 C46.481768,4.74009757 46.5923944,3.64538639 47.0625566,2.65747631 C47.3114659,2.12347086 47.6986583,1.61616568 48.2241337,1.29576241 C48.8602354,0.895258318 49.6899333,0.975359135 50.4090048,1.1088605 C51.7365215,1.34916295 53.0363816,1.85646813 54.2532719,2.41717386 C54.5021812,2.52397495 54.7510906,2.65747631 55,2.79097767 C55,2.79097767 47.5050621,2.49727467 46.0116059,12.8836807 Z"
                        id="Shape"
                        fill="#FFFFFF"
                     ></path>
                     <path
                        d="M53,26.1289566 C53,26.1289566 58,26 58,26 L57.7513812,41.7584994 C57.7513812,41.7584994 57.640884,48 57.640884,48 C57.198895,42.8675264 56.7569061,37.6060961 55.320442,32.6025791 C54.7127072,30.4361079 53.8839779,28.2696366 53,26.1289566 Z"
                        id="Shape"
                        fill="#e7e7e7"
                     ></path>
                     <path
                        d="M57.6496002,105.361982 C57.6496002,105.361982 57.9458982,111.914055 57.9458982,112.763397 C57.9458982,113.61274 58.2649884,115.165824 57.3533021,116.160768 C56.4416158,117.155713 55.7806432,117.835187 54.3675295,118.417594 L53,119 C53,119 56.3048629,116.694641 56.3732393,112.763397 C56.4416158,108.832154 57.2621335,95 57.2621335,95 L57.6496002,105.361982 Z"
                        id="Shape"
                        fill="#e7e7e7"
                     ></path>
                     <path
                        d="M46,68 C46,68 46.1012658,108.25534 46.1518987,112.884951 C46.2025316,117.514563 46.0759494,119 47.6962025,119 C49.3164557,119 50,117.26699 50,117.26699 C50,117.26699 49.0632911,116.697573 48.9113924,113.875243 C48.7341772,111.07767 48.835443,80.3291262 48.6329114,77.9524272 C48.4303797,75.6004854 48.4810127,70.1538835 46,68 Z"
                        id="Shape"
                        fill="#FFFFFF"
                     ></path>
                     <path
                        d="M90.1994443,79.3415904 C89.9769455,77.8169984 89.9275013,76.4923529 89.0869502,74.9177742 C88.3700095,73.543142 86.4416863,73.218229 85.032527,73.8180685 C81.8433771,75.1677073 77.6900656,81.8909083 76.0584075,85.7898649 C76.0584075,85.7898649 75.4650773,77.1921656 77.8383981,67.8696602 C80.211719,58.5471548 68.4934472,66.2201016 68.1967821,66.4450414 C67.900117,66.6449879 65.7987392,68.3695264 65.3042973,71.218764 C64.8098555,74.0680016 62.0409811,87.3894369 66.4909577,105.884488 C70.9656565,124.379539 83.2772585,98.7114073 83.2772585,98.7114073 C83.2772585,98.7114073 88.7161188,110.233324 96.009136,112.582695 C103.302153,114.932067 100.113003,107.159147 101.695217,94.362571 C103.277431,81.5659952 105.0327,64.970436 113.462933,45.3256927 C113.462933,45.3256927 116.355418,39.8771507 114.204596,40.0021172 C112.053774,40.1020905 103.796595,42.8763481 101.991882,45.0757596 C100.18717,47.3001644 94.1797012,61.0714793 91.0647175,85.2400121 L90.1994443,79.3415904 Z"
                        id="Shape"
                        fill="#525252"
                     ></path>
                     <path
                        d="M128.572654,63.8907028 C128.572654,63.8907028 128.853532,62.2267455 128.955669,61.7052066 C129.364217,59.7928975 130.33452,60.1654253 131.76444,59.4203698 C132.377263,59.0975124 132.811346,58.5759735 133.143292,58.0047643 C133.832717,56.8375107 134.062526,55.3722349 133.985923,54.0808053 C133.807183,49.833989 129.517423,49.8836593 126.146897,50.0575056 C124.129689,50.1568463 122.086946,50.4797037 120.120806,50.9764074 C118.333406,51.4234407 116.162992,51.8953092 114.860743,53.3109146 C113.635098,54.6520145 113.686166,56.6636644 113.941509,58.3276217 C114.06918,59.2713587 114.375592,60.4386123 115.192689,61.0594919 C115.958718,61.6307011 116.980089,61.6555363 117.899323,61.7052066 C117.924858,61.7052066 117.337569,66.1507044 117.2865,66.5232322 C117.082226,68.0630136 116.826883,69.6027949 116.622609,71.1425763 C116.316198,73.2784021 115.984252,75.439063 115.67784,77.5748888 C115.371429,79.6113738 115.065018,81.6478589 114.78414,83.6843439 C114.554332,85.1992901 114.350058,86.6894011 114.120249,88.2043473 C114.043646,88.7755565 113.941509,89.3219305 113.864906,89.8931398 C113.864906,89.9428101 112.537123,90.2159972 112.434986,90.2408323 C111.490218,90.5388545 110.545449,90.9113823 109.779421,91.5074267 C109.268735,91.9047896 108.809118,92.3766581 108.579309,92.9727025 C108.119692,94.1399561 108.196295,95.5307264 108.043089,96.7476504 C107.966486,97.3436948 107.992021,97.9397392 108.119692,98.5357836 C108.477172,100.398422 110.111366,101.068972 111.975369,100.994467 C114.78414,100.895126 117.618446,100.05073 120.376149,99.4795206 C121.908206,99.1566632 123.414729,98.8089706 124.921252,98.3867725 C126.300103,97.9894096 127.959832,97.6168818 129.159943,96.7973207 C130.411123,95.9529245 131.151617,94.5621542 131.483563,93.1465488 C131.815509,91.6564378 131.841043,89.9676453 130.921809,88.6762158 C130.768603,88.4526991 130.538794,88.2540177 130.308986,88.1050066 C129.61956,87.6828084 128.802463,87.5337973 127.985366,87.5586325 C127.091666,87.5834677 126.249035,87.9559955 125.380869,87.9559955"
                        id="Shape"
                        fill="#525252"
                     ></path>
                     <path
                        d="M88.1994443,78.3415904 C87.9769455,76.8169984 87.9275013,75.4923529 87.0869502,73.9177742 C86.3700095,72.543142 84.4416863,72.218229 83.032527,72.8180685 C79.8433771,74.1677073 75.6900656,80.8909083 74.0584075,84.7898649 C74.0584075,84.7898649 73.4650773,76.1921656 75.8383981,66.8696602 C78.211719,57.5471548 66.4934472,65.2201016 66.1967821,65.4450414 C65.900117,65.6449879 63.7987392,67.3695264 63.3042973,70.218764 C62.8098555,73.0680016 60.0409811,86.3894369 64.4909577,104.884488 C68.9409344,123.379539 81.2772585,97.7114073 81.2772585,97.7114073 C81.2772585,97.7114073 86.7161188,109.233324 94.009136,111.582695 C101.302153,113.932067 98.1130033,106.159147 99.6952173,93.362571 C101.277431,80.5659952 103.0327,63.970436 111.462933,44.3256927 C111.462933,44.3256927 114.355418,38.8771507 112.204596,39.0021172 C110.053774,39.1020905 101.796595,41.8763481 99.9918824,44.0757596 C98.1871696,46.3001644 92.1797012,60.0714793 89.0647175,84.2400121 L88.1994443,78.3415904 Z"
                        id="Shape"
                        fill="#fff"
                     ></path>
                     <path
                        d="M98.9999575,103.937083 C98.9999575,103.937083 99.0254676,107.797836 97.8264914,108.640182 C97.0356774,109.178347 95.8877214,109.014558 95.0203769,108.780573 C91.7550801,107.938227 89.3061074,105.738768 87.2142766,103.398918 C85.9897903,102.041805 84.8928546,100.567699 84,99 C84,99 97.9030218,113.062498 98.9999575,103.937083"
                        id="Shape"
                        fill="#e7e7e7"
                     ></path>
                     <path
                        d="M67.6444951,108.246527 C67.6444951,108.246527 69.5895767,109.866336 72.7126655,108.355973 C72.7126655,108.355973 75.6713812,106.801832 78,104 C78,104 71.041539,109.384771 66.0007641,106.320267 C65.9733686,106.320267 66.685652,107.611737 67.6444951,108.246527"
                        id="Shape"
                        fill="#e7e7e7"
                     ></path>
                     <path
                        d="M73,63 C73,63 68.8708791,64.928115 67.9807692,65.8242812 C67.0906593,66.6932907 65.4093407,67.8610224 64.8159341,72.6677316 C64.2472527,77.2571885 64,80 64,80 C64,80 65.1868132,68.4313099 73,63"
                        id="Shape"
                        fill="#FFFFFF"
                     ></path>
                     <path
                        d="M80,76 C80,76 81.8107679,73.7081262 83.3782984,73.2703526 C84.5134066,72.9613359 87.0809133,72.3433026 87.9998105,75.3562152 C88.0268369,75.3819666 85.1620399,72.5750651 80,76"
                        id="Shape"
                        fill="#FFFFFF"
                     ></path>
                     <path
                        d="M105.802672,42 C105.802672,42 104.422084,42.6147279 103.799466,42.9989328 C103.176848,43.3831377 102.391808,43.6136606 101.471416,45.4066169 C100.551024,47.1995731 99.5764916,49.1974386 98.8185219,51.3233725 C98.0605521,53.4493063 94,66 94,66 C94,66 95.7595726,65.1547492 96.9235975,62.1835646 C98.1959039,58.8794023 99.0892253,55.4727855 100.280321,52.1430096 C100.875868,50.4781217 101.525557,48.8132337 102.364737,47.2251868 C102.770793,46.4311633 103.203918,45.6627535 103.691184,44.8943436 C104.09724,44.2796158 104.611576,43.9978655 105.207124,43.588047 C105.72146,43.1782284 106.317008,42.6403415 105.802672,42"
                        id="Shape"
                        fill="#FFFFFF"
                     ></path>
                     <path
                        d="M73.7298441,86 C73.7298441,86 73.3142196,78.0263158 74,73 C74,73 71.9426589,83.5263158 73.7298441,86"
                        id="Shape"
                        fill="#e7e7e7"
                     ></path>
                     <path
                        d="M90.8568162,76 L90,85.9999379 C90,86.0236907 91.4518275,79.2303837 90.8568162,76"
                        id="Shape"
                        fill="#e7e7e7"
                     ></path>
                     <path
                        d="M126.572654,61.8907028 C126.572654,61.8907028 126.853532,60.2267455 126.955669,59.7052066 C127.364217,57.7928975 128.33452,58.1654253 129.76444,57.4203698 C130.377263,57.0975124 130.811346,56.5759735 131.143292,56.0047643 C131.832717,54.8375107 132.062526,53.3722349 131.985923,52.0808053 C131.807183,47.833989 127.517423,47.8836593 124.146897,48.0575056 C122.129689,48.1568463 120.086946,48.4797037 118.120806,48.9764074 C116.333406,49.4234407 114.162992,49.8953092 112.860743,51.3109146 C111.635098,52.6520145 111.686166,54.6636644 111.941509,56.3276217 C112.06918,57.2713587 112.375592,58.4386123 113.192689,59.0594919 C113.958718,59.6307011 114.980089,59.6555363 115.899323,59.7052066 C115.924858,59.7052066 115.337569,64.1507044 115.2865,64.5232322 C115.082226,66.0630136 114.826883,67.6027949 114.622609,69.1425763 C114.316198,71.2784021 113.984252,73.439063 113.67784,75.5748888 C113.371429,77.6113738 113.065018,79.6478589 112.78414,81.6843439 C112.554332,83.1992901 112.350058,84.6894011 112.120249,86.2043473 C112.043646,86.7755565 111.941509,87.3219305 111.864906,87.8931398 C111.864906,87.9428101 110.537123,88.2159972 110.434986,88.2408323 C109.490218,88.5388545 108.545449,88.9113823 107.779421,89.5074267 C107.268735,89.9047896 106.809118,90.3766581 106.579309,90.9727025 C106.119692,92.1399561 106.196295,93.5307264 106.043089,94.7476504 C105.966486,95.3436948 105.992021,95.9397392 106.119692,96.5357836 C106.477172,98.3984223 108.111366,99.0689723 109.975369,98.9944667 C112.78414,98.895126 115.618446,98.0507298 118.376149,97.4795206 C119.908206,97.1566632 121.414729,96.8089706 122.921252,96.3867725 C124.300103,95.9894096 125.959832,95.6168818 127.159943,94.7973207 C128.411123,93.9529245 129.151617,92.5621542 129.483563,91.1465488 C129.815509,89.6564378 129.841043,87.9676453 128.921809,86.6762158 C128.768603,86.4526991 128.538794,86.2540177 128.308986,86.1050066 C127.61956,85.6828084 126.802463,85.5337973 125.985366,85.5586325 C125.091666,85.5834677 124.249035,85.9559955 123.380869,85.9559955"
                        id="Shape"
                        fill="#fff"
                     ></path>
                     <path
                        d="M125.26606,62 C125.26606,62 125.548934,60.2180851 125.662084,59.7925532 C125.775233,59.3670213 125.803521,58.5159574 127.13303,58.1702128 C128.462539,57.8244681 129,57 129,57 C129,57 128.00994,57.5585106 127.01988,57.6117021 C126.02982,57.6648936 125.379209,58.2234043 125.26606,58.6489362 C125.15291,59.0744681 124.728599,60.856383 125.26606,62"
                        id="Shape"
                        fill="#e7e7e7"
                     ></path>
                     <path
                        d="M118,49 C118,49 114.982218,49.606029 114.204911,50.02398 C113.427604,50.4210334 112.215919,50.9852673 112.010161,52.7615591 C112.010161,52.7615591 111.987299,53.7855391 112.010161,53.9945146 C112.033023,54.161695 112.81033,50.4628285 118,49"
                        id="Shape"
                        fill="#FFFFFF"
                     ></path>
                     <path
                        d="M123.142965,77.2024867 L122.064912,86.0550622 C122.615917,86.0053286 123.142965,85.9307282 123.69397,85.8809947 C124.819937,85.7566607 126.520865,85.60746 127,87 C126.904173,86.7513321 126.089644,86.5772647 125.874033,86.5275311 C124.700153,86.2539964 123.430446,86.3783304 122.280523,86.6767318 C122.064912,86.7264654 121.849302,86.8010657 121.633691,86.8756661 C120.891032,87.0994671 120.962903,86.0301954 121.058729,85.5825933 C121.370167,84.2397869 122.663831,73.6216696 123.670014,73 L123.142965,77.2024867 Z"
                        id="Shape"
                        fill="#e7e7e7"
                     ></path>
                     <path
                        d="M107.124378,93.5744681 L107.223881,92.4042553 C107.223881,92.4042553 107.273632,90.6382979 109.263682,89.8085106 C109.263682,89.8085106 110.383085,89.3191489 112,89 C112,89 108.542289,89.7234043 107,95 L107.124378,93.5744681 Z"
                        id="Shape"
                        fill="#FFFFFF"
                     ></path>
                     <path
                        d="M129,91 C129,91 128.722222,94.7165992 125.083333,95.6882591 L120,97 C120,97 128.194444,94.6923077 129,91"
                        id="Shape"
                        fill="#e7e7e7"
                     ></path>
                     <g id="Group" transform="translate(179.000000, 33.000000)">
                        <path
                           d="M7.87185629,16.3841346 C7.87185629,16.3841346 6.13652695,16.6389423 6.18682635,15.2120192 C6.23712575,13.7850962 6.76526946,9.68269231 6.81556886,8.68894231 C6.86586826,7.69519231 7.04191617,6.59951923 9.50658683,6.24278846 C11.9964072,5.86057692 35.4862275,2.67548077 37.5988024,2.54807692 C39.7113772,2.42067308 40.2898204,3.08317308 40.2898204,4.30625 C40.2898204,5.52932692 40.0886228,8.43413462 40.0634731,10.1668269 C40.0383234,11.8995192 39.2838323,12.5875 36.9952096,12.7403846 C34.7065868,12.8932692 16.8251497,15.1610577 16.8251497,15.1610577 L15.6179641,24.7673077 C15.6179641,24.7673077 27.1616766,23.3403846 28.2934132,23.2384615 C29.4251497,23.1365385 30.8083832,23.6461538 30.7580838,25.4043269 C30.7329341,26.5509615 29.9784431,28.9716346 29.7772455,30.0418269 C29.5005988,31.3923077 29.1988024,32.2331731 27.0862275,32.4879808 C24.3952096,32.8192308 14.6622754,34.2971154 14.6622754,34.2971154 L13.6562874,41.8649038 C13.6562874,41.8649038 33.9772455,38.3995192 35.6622754,38.2975962 C37.1209581,38.1956731 38.8814371,37.7625 40.3149701,38.5269231 C41.1449102,38.9855769 41.5221557,39.8009615 41.5724551,40.6927885 C41.6479042,42.0177885 41.6982036,43.3682692 41.748503,44.6932692 C41.7988024,45.6615385 42.0502994,47.0120192 41.3712575,47.7509615 C40.6167665,48.5663462 39.0826347,48.8721154 37.9760479,48.9485577 C36.291018,49.0759615 34.605988,49.1014423 32.9461078,49.1778846 C29.3497006,49.3307692 25.7532934,49.3052885 22.1820359,49.6365385 C16.4730539,50.1971154 11.0407186,51.5221154 5.53293413,52.8471154 C4.1748503,53.1783654 2.23832335,51.7514423 3.06826347,49.2033654 L7.87185629,16.3841346 Z"
                           id="Shape"
                           fill="#525252"
                        ></path>
                        <path
                           d="M5.05508982,14.0144231 C5.05508982,14.0144231 3.31976048,14.2692308 3.37005988,12.8423077 C3.42035928,11.4153846 3.94850299,7.31298077 3.9988024,6.31923077 C4.0491018,5.32548077 4.2251497,4.22980769 6.68982036,3.87307692 C9.17964072,3.49086538 32.6694611,0.305769231 34.7820359,0.178365385 C36.8946108,0.0509615385 37.4730539,0.713461538 37.4730539,1.93653846 C37.4730539,3.15961538 37.2718563,6.06442308 37.2467066,7.79711538 C37.2215569,9.52980769 36.4670659,10.2177885 34.1784431,10.3706731 C31.8898204,10.5235577 14.0083832,12.7913462 14.0083832,12.7913462 L12.8011976,22.3975962 C12.8011976,22.3975962 24.3449102,20.9706731 25.4766467,20.86875 C26.6083832,20.7668269 27.9916168,21.2764423 27.9413174,23.0346154 C27.9161677,24.18125 27.1616766,26.6019231 26.960479,27.6721154 C26.6838323,29.0225962 26.3820359,29.8634615 24.2694611,30.1182692 C21.5784431,30.4495192 11.845509,31.9274038 11.845509,31.9274038 L10.839521,39.4951923 C10.839521,39.4951923 31.160479,36.0298077 32.845509,35.9278846 C34.3041916,35.8259615 36.0646707,35.3927885 37.4982036,36.1572115 C38.3281437,36.6158654 38.7053892,37.43125 38.7556886,38.3230769 C38.8311377,39.6480769 38.8814371,40.9985577 38.9317365,42.3235577 C38.9820359,43.2918269 39.2335329,44.6423077 38.554491,45.38125 C37.8,46.1966346 36.2658683,46.5024038 35.1592814,46.5788462 C33.4742515,46.70625 31.7892216,46.7317308 30.1293413,46.8081731 C26.5329341,46.9610577 22.9365269,46.9355769 19.3652695,47.2668269 C13.6562874,47.8274038 8.2239521,49.1524038 2.71616766,50.4774038 C1.35808383,50.8086538 -0.578443114,49.3817308 0.251497006,46.8336538 L5.05508982,14.0144231 Z"
                           id="Shape"
                           fill="#fff"
                        ></path>
                        <path
                           d="M4.2251497,49.3052885 L3.19401198,49.5346154 C3.19401198,49.5346154 1.91137725,49.4326923 1.60958084,48.7192308 C1.30778443,48.0057692 1.23233533,47.7 1.45868263,46.1711538 C1.68502994,44.6423077 3.04311377,35.3418269 3.04311377,35.3418269 C3.04311377,35.3418269 1.30778443,50.2735577 4.2251497,49.3052885"
                           id="Shape"
                           fill="#FFFFFF"
                        ></path>
                        <path
                           d="M4.82874251,11.4408654 L5.28143713,6.93076923 C5.28143713,6.93076923 5.38203593,5.80961538 5.78443114,5.50384615 C6.18682635,5.22355769 6.36287425,4.94326923 8.14850299,4.68846154 C9.93413174,4.43365385 13.9077844,3.89855769 13.9077844,3.89855769 C13.9077844,3.89855769 5.75928144,5.93701923 4.82874251,11.4408654"
                           id="Shape"
                           fill="#FFFFFF"
                        ></path>
                        <path
                           d="M36.039521,6.44663462 L35.9640719,8.02644231 C35.9640719,8.02644231 35.8886228,9.40240385 34.102994,9.58076923 C32.3173653,9.78461538 20.0191617,11.2625 20.0191617,11.2625 C20.0191617,11.2625 20.3209581,10.3451923 22.5341317,10.1668269 C24.7473054,9.98846154 35.7125749,8.73990385 36.039521,6.44663462"
                           id="Shape"
                           fill="#e7e7e7"
                        ></path>
                        <path
                           d="M26.5832335,24.3596154 L25.8035928,27.5956731 C25.8035928,27.5956731 25.6778443,28.81875 23.691018,29.0990385 C21.7293413,29.3793269 13.3796407,30.6024038 13.3796407,30.6024038 C13.3796407,30.6024038 13.5556886,29.3283654 17.1269461,28.9716346 C20.6730539,28.6149038 24.2694611,27.6721154 25.2502994,25.4552885 C26.2311377,23.2384615 26.5832335,24.3596154 26.5832335,24.3596154"
                           id="Shape"
                           fill="#e7e7e7"
                        ></path>
                        <path
                           d="M37.1209581,37.6860577 C37.1209581,37.6860577 38.0011976,37.9153846 38.0766467,39.5971154 C38.1520958,41.2788462 38.2275449,42.9096154 38.2275449,42.9096154 C38.2275449,42.9096154 38.3281437,44.8461538 37.0203593,45.1519231 C35.7125749,45.4576923 35.611976,45.5086538 33.7257485,45.5850962 C31.839521,45.6615385 30.405988,45.7125 30.405988,45.7125 C30.405988,45.7125 30.3305389,44.9735577 32.5688623,44.7951923 C34.8071856,44.6168269 37.3473054,43.3682692 37.3221557,41.2533654 C37.297006,39.1384615 36.4670659,37.9408654 37.1209581,37.6860577"
                           id="Shape"
                           fill="#e7e7e7"
                        ></path>
                     </g>
                     <path
                        d="M20,13 C20,13 19.1118,14.4764176 17.4340889,14.7224872 C15.7563778,14.9685568 10.7479168,14.4490765 8.10798905,17.976074 C5.46806131,21.5030716 6.60298351,25.9596654 6.60298351,25.9596654 C5.32002797,25.9870064 3.49428355,26.3150992 3.07485578,24.5105889 C2.82813356,23.4989694 3.24756134,22.514691 3.51895578,21.5577537 C3.81502244,20.4914521 4.08641688,19.4524916 4.38248354,18.38619 C4.53051687,17.8120276 4.70322243,17.2378653 4.85125576,16.6910439 C4.97461687,16.0075173 5.22133909,15.1326032 5.6901113,14.640464 C6.35626129,13.9842784 7.24446128,13.9295962 8.08331683,13.8475731 C9.5143057,13.7108677 10.9452946,13.6561856 12.3762834,13.5468213 L20,13 Z"
                        id="Shape"
                        fill="#FFFFFF"
                     ></path>
                     <g id="Group" transform="translate(223.000000, 23.000000)">
                        <path
                           d="M34.4877005,34.4653696 C32.9625668,40.1182879 26.0994652,46.5680934 19.0641711,49.0085603 C19.0641711,49.0085603 17.4160428,49.8552529 17.5882353,47.6389105 C17.7850267,45.4225681 18.7197861,13.8708171 18.7197861,13.8708171 C18.7197861,13.8708171 21.7454545,13.2233463 25.5336898,13.2980545 C27.7475936,13.3478599 31.3144385,14.5929961 33.6513369,18.3284047 C36.3572193,22.6116732 36.0128342,28.8124514 34.4877005,34.4653696 M28.657754,3.01322957 C17.4406417,0.971206226 6.24812834,5.00544747 5.23957219,5.37898833 C4.23101604,5.75252918 3.56684492,6.8233463 3.73903743,8.19299611 C3.91122995,9.53774319 4.52620321,13.0241245 4.6,13.5968872 C4.67379679,14.1945525 5.09197861,14.7922179 6.42032086,14.6428016 C7.82245989,14.4684825 8.48663102,14.5929961 8.48663102,14.5929961 L7.15828877,53.6155642 C7.15828877,53.6155642 5.28877005,53.814786 4.23101604,54.0389105 C3.17326203,54.263035 2.55828877,55.0101167 2.70588235,56.7035019 C2.85347594,58.3968872 3.07486631,60.8871595 3.22245989,61.8832685 C3.37005348,62.9042802 3.98502674,64.5727626 10.1101604,63.3774319 C13.9967914,62.6303502 17.8834225,61.9579767 21.6224599,60.5634241 C26.6898396,58.6957198 31.6588235,55.7821012 35.7914439,52.2708171 C39.0631016,49.4817121 41.6951872,45.9206226 43.3679144,41.9361868 C45.8032086,36.1836576 46.2213904,29.8085603 45.7540107,23.6326848 C45.3850267,18.751751 43.6631016,13.9953307 40.5882353,10.1603113 C37.5871658,6.42490272 33.3561497,3.85992218 28.657754,3.01322957"
                           id="Shape"
                           fill="#525252"
                        ></path>
                        <path
                           d="M31.9294118,32.1494163 C30.4042781,37.8023346 23.5411765,44.2521401 16.5058824,46.692607 C16.5058824,46.692607 14.857754,47.5392996 15.0299465,45.3229572 C15.226738,43.1066148 16.1614973,11.5548638 16.1614973,11.5548638 C16.1614973,11.5548638 19.1871658,10.907393 22.9754011,10.9821012 C25.1893048,11.0319066 28.7561497,12.2770428 31.0930481,16.0124514 C33.7989305,20.2708171 33.4545455,26.4715953 31.9294118,32.1494163 M26.0994652,0.672373541 C14.8823529,-1.36964981 3.68983957,2.66459144 2.68128342,3.0381323 C1.67272727,3.41167315 1.00855615,4.48249027 1.18074866,5.85214008 C1.35294118,7.19688716 1.96791444,10.6832685 2.04171123,11.2560311 C2.11550802,11.8536965 2.53368984,12.4513619 3.86203209,12.3019455 C5.26417112,12.1276265 5.92834225,12.2521401 5.92834225,12.2521401 L4.6,51.2747082 C4.6,51.2747082 2.73048128,51.47393 1.67272727,51.6980545 C0.614973262,51.922179 -1.83741911e-14,52.6692607 0.147593583,54.3626459 C0.295187166,56.0560311 0.51657754,58.5463035 0.664171123,59.5424125 C0.811764706,60.5634241 1.42673797,62.2319066 7.55187166,61.0365759 C13.6770053,59.8412451 20.2941176,59.1688716 30.1828877,52.2459144 C34.7582888,49.033463 38.6941176,44.8747082 40.8834225,39.6202335 C42.4331551,35.9097276 43.0481283,31.9003891 43.2941176,27.8910506 C43.6631016,22.0389105 43.0481283,16.1867704 40.1700535,11.0070039 C37.7839572,6.69883268 34.0203209,3.26225681 29.4203209,1.5688716 C28.313369,1.17042802 27.231016,0.896498054 26.0994652,0.672373541"
                           id="Shape"
                           fill="#fff"
                        ></path>
                        <path
                           d="M3.29625668,8.44202335 C3.29625668,8.44202335 3.17326203,7.64513619 3.00106952,6.54941634 C2.80427807,5.4536965 3.19786096,4.30817121 4.74759358,3.83501946 C6.2973262,3.3618677 11.4385027,2.01712062 14.168984,1.69338521 C16.8994652,1.36964981 18.8181818,1.19533074 19.9005348,1.17042802 C20.9828877,1.14552529 20.0481283,2.09182879 14.6363636,2.86381323 C9.22459893,3.63579767 3.59144385,4.9307393 3.29625668,8.44202335"
                           id="Shape"
                           fill="#FFFFFF"
                        ></path>
                        <path
                           d="M21.3764706,55.7571984 C21.3764706,55.7571984 29.4449198,52.2957198 34.0449198,47.0163424 C38.6695187,41.7120623 40.2192513,36.1089494 40.6128342,33.2202335 C39.3582888,36.5322957 37.7347594,39.7945525 35.6192513,42.6085603 C33.5037433,45.3727626 31.0438503,47.8381323 28.4855615,50.1789883 C26.2962567,52.2210117 24.0085561,54.2381323 21.3764706,55.7571984"
                           id="Shape"
                           fill="#e7e7e7"
                        ></path>
                        <path
                           d="M15.0053476,15.0661479 C15.0545455,13.7214008 15.0791444,12.3766537 15.1283422,11.0070039 C15.1283422,10.8824903 15.1283422,10.7330739 15.226738,10.633463 C15.3005348,10.5587549 15.3989305,10.5089494 15.4973262,10.4840467 C17.5882353,9.81167315 19.826738,9.66225681 22.0406417,9.91128405 C19.9005348,8.89027237 17.5390374,8.94007782 15.3005348,9.11439689 C14.8331551,9.13929961 14.3411765,9.18910506 13.9967914,9.51284047 C13.5540107,9.91128405 13.5540107,10.6085603 13.5786096,11.2311284 C13.8737968,18.2536965 14.168984,25.2762646 14.4395722,32.27393 C14.6363636,26.5463035 14.8331551,20.7937743 15.0053476,15.0661479"
                           id="Shape"
                           fill="#e7e7e7"
                        ></path>
                        <path
                           d="M3.44385027,52.370428 C2.5828877,52.4202335 1.4513369,52.5447471 1.10695187,53.4412451 C0.811764706,54.1634241 0.885561497,54.985214 0.959358289,55.7571984 C1.1315508,57.2015564 1.27914439,58.6708171 1.27914439,58.6708171 C1.27914439,58.6708171 1.64812834,52.8684825 4.62459893,52.2210117 L3.44385027,52.370428 Z"
                           id="Shape"
                           fill="#FFFFFF"
                        ></path>
                     </g>
                     <g id="Group" transform="translate(129.000000, 40.000000)">
                        <path
                           d="M21.3829457,2.56186047 C22.9953488,2.53674419 24.5581395,2.81302326 25.9472868,3.41581395 C29.1224806,4.7972093 31.3054264,7.76093023 31.9007752,11.252093 C32.1488372,12.7339535 32,14.6427907 30.6108527,15.6976744 C29.420155,16.6018605 27.8821705,16.4511628 26.7162791,15.9739535 C24.8062016,15.1702326 23.3674419,13.6883721 21.5565891,12.7339535 C20.0434109,11.9553488 17.8356589,12.2065116 16.8682171,14.1906977 C15.6527132,16.6772093 17.1162791,19.1386047 18.455814,20.7711628 C20.5643411,23.3330233 23.4666667,25.1665116 25.8976744,27.3767442 C28.179845,29.4362791 30.2139535,31.8976744 30.9829457,35.012093 C32.2728682,40.3116279 29.2713178,47.0427907 24.1364341,50.7097674 C19.0015504,54.3767442 12.2046512,54.8037209 7.83875969,51.8902326 C5.45736434,50.307907 3.77054264,47.8213953 3.10077519,44.907907 C2.82790698,43.7525581 2.75348837,42.3962791 3.49767442,41.2660465 C4.14263566,40.2865116 5.28372093,39.6837209 6.3751938,39.5330233 C7.46666667,39.3823256 8.48372093,39.6586047 9.37674419,40.0855814 C10.6914729,40.7134884 11.7829457,41.667907 12.9984496,42.4716279 C14.1891473,43.2753488 15.5534884,43.9786047 17.1162791,43.9786047 C18.6790698,44.0037209 20.4899225,43.2 21.3829457,41.7432558 C22.1271318,40.5376744 22.1023256,39.1060465 21.655814,37.975814 C21.1844961,36.8455814 20.3410853,35.9916279 19.448062,35.2130233 C16.1984496,32.3497674 12.2790698,30.0893023 9.87286822,26.4474419 C5.70542636,20.344186 6.30077519,9.06697674 15.1317829,4.24465116 C17.1162791,3.16465116 19.2992248,2.61209302 21.3829457,2.56186047"
                           id="Shape"
                           fill="#525252"
                        ></path>
                        <path
                           d="M18.6046512,0.226046512 C20.2170543,0.200930233 21.779845,0.477209302 23.1689922,1.08 C26.344186,2.46139535 28.5271318,5.42511628 29.1224806,8.91627907 C29.3705426,10.3981395 29.2217054,12.3069767 27.8325581,13.3618605 C26.6418605,14.2660465 25.103876,14.1153488 23.9379845,13.6381395 C22.027907,12.8344186 20.5891473,11.3525581 18.7782946,10.3981395 C17.2651163,9.61953488 15.0573643,9.87069767 14.0899225,11.8548837 C12.8744186,14.3413953 14.3379845,16.8027907 15.6775194,18.4353488 C17.7860465,20.9972093 20.6883721,22.8306977 23.1193798,25.0409302 C25.4015504,27.1004651 27.4356589,29.5618605 28.2046512,32.6762791 C29.4945736,37.975814 26.4930233,44.7069767 21.3581395,48.3739535 C16.2232558,52.0409302 9.42635659,52.467907 5.06046512,49.5544186 C2.67906977,47.972093 0.992248062,45.4855814 0.32248062,42.572093 C0.0496124031,41.4167442 -0.0248062016,40.0604651 0.719379845,38.9302326 C1.36434109,37.9506977 2.50542636,37.347907 3.59689922,37.1972093 C4.68837209,37.0465116 5.70542636,37.3227907 6.59844961,37.7497674 C7.91317829,38.3776744 9.00465116,39.332093 10.220155,40.135814 C11.4108527,40.9395349 12.7751938,41.6427907 14.3379845,41.6427907 C15.9007752,41.667907 17.7116279,40.864186 18.6046512,39.4074419 C19.3488372,38.2018605 19.3488372,36.7451163 18.8775194,35.64 C18.5054264,34.7609302 16.8186047,33.6055814 15.9255814,32.8018605 C12.675969,29.9386047 9.50077519,27.7534884 7.06976744,24.1116279 C2.95193798,17.9330233 3.54728682,6.65581395 12.3782946,1.83348837 C14.3379845,0.80372093 16.5209302,0.251162791 18.6046512,0.226046512"
                           id="Shape"
                           fill="#fff"
                        ></path>
                        <path
                           d="M16.3472868,49.504186 C16.3472868,49.504186 20.4651163,48.6753488 23.1689922,45.7116279 C23.1689922,45.7116279 25.0790698,43.6772093 25.7488372,41.9693023 C26.4186047,40.2613953 26.6418605,39.784186 26.7906977,38.7795349 C26.7906977,38.7795349 25.0294574,42.2706977 22.3751938,44.732093 C19.7209302,47.2186047 18.703876,48.1227907 16.3472868,49.504186"
                           id="Shape"
                           fill="#e7e7e7"
                        ></path>
                        <path
                           d="M22.6728682,12.2818605 C22.6728682,12.2818605 24.855814,13.9144186 26.6914729,13.1609302 C26.6914729,13.1609302 27.7581395,12.8093023 28.2046512,11.6288372 C28.2046512,11.6288372 28.5767442,10.6493023 28.5023256,9.8455814 C28.5023256,9.8455814 26.7658915,13.9646512 21.3829457,11.3525581 L22.6728682,12.2818605 Z"
                           id="Shape"
                           fill="#e7e7e7"
                        ></path>
                        <path
                           d="M18.827907,9.72 C18.827907,9.72 16,8.5144186 14.2387597,10.4734884 C12.4775194,12.4325581 13.2713178,14.9944186 13.5689922,15.6223256 C13.5689922,15.6223256 12.427907,15.5218605 12.1054264,13.7637209 C11.5596899,10.8753488 14.0403101,8.0372093 16.9674419,8.38883721 C17.8852713,8.48930233 18.6542636,8.89116279 18.827907,9.72"
                           id="Shape"
                           fill="#e7e7e7"
                        ></path>
                        <path
                           d="M6.00310078,16.827907 C6.00310078,16.827907 5.23410853,13.2613953 6.74728682,9.54418605 C6.74728682,9.54418605 7.76434109,6.73116279 10.4434109,4.69674419 C10.4434109,4.69674419 11.5348837,3.94325581 12.0806202,3.66697674 C12.0806202,3.66697674 12.7255814,4.84744186 10.8651163,5.90232558 C9.00465116,6.9572093 7.46666667,9.49395349 6.54883721,12.96 C6.54883721,12.96 6.22635659,14.3665116 6.00310078,16.827907"
                           id="Shape"
                           fill="#FFFFFF"
                        ></path>
                        <path
                           d="M18.7286822,40.5627907 C18.7286822,40.5627907 19.7457364,39.4576744 19.9937984,37.8 C20.2170543,36.1423256 19.2744186,34.5097674 18.2573643,33.6055814 C16.7193798,32.224186 15.1317829,31.495814 15.1317829,31.495814 C15.1317829,31.495814 17.5875969,30.867907 19.7209302,33.2539535 C21.5317829,35.2883721 22.5984496,38.2772093 18.7286822,40.5627907 Z"
                           id="Shape"
                           fill="#FFFFFF"
                        ></path>
                        <path
                           d="M5.65581395,38.0009302 C5.65581395,38.0009302 3.59689922,37.2976744 2.03410853,38.5534884 C0.471317829,39.8093023 0.768992248,41.6930233 0.818604651,41.9944186 C0.893023256,42.2455814 1.98449612,38.0260465 5.65581395,38.0009302"
                           id="Shape"
                           fill="#FFFFFF"
                        ></path>
                     </g>
                     <path
                        d="M109.986333,40.2610279 C110.429617,40.1639013 110.872901,40.0667746 111.316184,40.0182113 C111.432838,39.9939296 111.526161,39.9939296 111.642815,40.0182113 C112.156091,40.1639013 111.992775,40.9894779 111.899453,41.353703 C111.596153,42.7134763 110.406286,44.9231081 109.496388,47.4484015 C108.586489,49.9736949 107.886568,51.7462566 107,55 C107,55 109.403065,43.393363 109.496388,42.5435047 C109.56638,41.6936463 107.65326,41.0866046 108.003221,40.8680696 C108.493167,40.5766896 109.053104,40.4309996 109.589711,40.3095913 C109.729695,40.3338729 109.846349,40.2853096 109.986333,40.2610279"
                        id="Shape"
                        fill="#e7e7e7"
                     ></path>
                     <g id="Group" transform="translate(154.000000, 10.000000)">
                        <path
                           d="M16.6987952,14.2564103 C16.6987952,14.2564103 17.8120482,6.92307692 18.0650602,5.07692308 C18.3180723,3.23076923 19.2542169,1.94871795 21.3795181,2.66666667 C23.5048193,3.38461538 27.7301205,5.30769231 28.8433735,5.79487179 C29.9566265,6.28205128 29.9819277,7.35897436 29.6277108,9.8974359 C29.273494,12.4615385 29.1216867,13.8205128 29.1216867,13.8205128 C29.1216867,13.8205128 36.3578313,13.6410256 38.660241,13.6153846 C40.7855422,13.5897436 42.3289157,14.5384615 41.8228916,16.5384615 C41.3168675,18.5384615 40.0012048,21.7692308 39.3180723,22.8717949 C38.6349398,24 38.0783133,24.4358974 35.5481928,24.5384615 C32.9927711,24.6410256 31.8795181,24.7692308 27.5783133,25 C27.5783133,25 25.6048193,35.9487179 25.0228916,40.9487179 C24.4409639,45.9487179 23.353012,56.1538462 23.1,61.4871795 C22.846988,66.8205128 22.7204819,69.025641 22.6192771,71.7435897 C22.5180723,74.4615385 22.6192771,76.2820513 20.8228916,77.1025641 C19.026506,77.9230769 13.0554217,79.2820513 11.739759,79.6923077 C10.4240964,80.1025641 9.36144578,79.1794872 9.41204819,77.1025641 C9.4626506,75.025641 10.9807229,56.2307692 11.9168675,48.2820513 C12.8277108,40.3333333 15.4084337,24.974359 15.4084337,24.974359 C15.4084337,24.974359 7.26144578,25.4615385 5.7686747,25.4615385 C4.27590361,25.4615385 3.33975904,25.2307692 2.93493976,23.6923077 C2.50481928,22.1794872 5.41445783,15.974359 5.41445783,15.974359 C5.41445783,15.974359 5.86987952,14.1282051 8.57710843,14.2051282 C11.2337349,14.3333333 16.6987952,14.2564103 16.6987952,14.2564103"
                           id="Shape"
                           fill="#525252"
                        ></path>
                        <path
                           d="M13.8650602,11.8717949 C13.8650602,11.8717949 14.9783133,4.53846154 15.2313253,2.69230769 C15.4843373,0.846153846 16.4204819,-0.435897436 18.5457831,0.282051282 C20.6710843,1 24.8963855,2.92307692 26.0096386,3.41025641 C27.1228916,3.8974359 27.1481928,4.97435897 26.7939759,7.51282051 C26.439759,10.0769231 26.2879518,11.4358974 26.2879518,11.4358974 C26.2879518,11.4358974 33.5240964,11.2564103 35.826506,11.2307692 C37.9518072,11.2051282 39.4951807,12.1538462 38.9891566,14.1538462 C38.4831325,16.1538462 37.1674699,19.3846154 36.4843373,20.4871795 C35.8012048,21.6153846 35.2445783,22.0512821 32.7144578,22.1538462 C30.1590361,22.2564103 29.0457831,22.3846154 24.7445783,22.6153846 C24.7445783,22.6153846 22.7710843,33.5641026 22.1891566,38.5641026 C21.6072289,43.5641026 20.5192771,53.7692308 20.2662651,59.1025641 C20.013253,64.4358974 19.886747,66.6410256 19.7855422,69.3589744 C19.6843373,72.0769231 19.7855422,73.8974359 17.9891566,74.7179487 C16.1927711,75.5384615 10.2216867,76.8974359 8.9060241,77.3076923 C7.59036145,77.7179487 6.52771084,76.7948718 6.57831325,74.7179487 C6.62891566,72.6410256 8.14698795,53.8461538 9.08313253,45.8974359 C9.9939759,37.9487179 12.5746988,22.5897436 12.5746988,22.5897436 C12.5746988,22.5897436 4.42771084,23.0769231 2.93493976,23.0769231 C1.44216867,23.0769231 0.506024096,22.8461538 0.101204819,21.3076923 C-0.328915663,19.7948718 2.58072289,13.5897436 2.58072289,13.5897436 C2.58072289,13.5897436 3.03614458,11.7435897 5.74337349,11.8205128 C8.4,11.9230769 13.8650602,11.8717949 13.8650602,11.8717949"
                           id="Shape"
                           fill="#fff"
                        ></path>
                        <path
                           d="M37.5722892,14.5897436 C37.5722892,14.5897436 36.4590361,17.9487179 35.826506,18.9487179 C35.2192771,19.9487179 34.8903614,20.7692308 33.0180723,20.8717949 C31.1457831,20.974359 25.0481928,21.3333333 25.0481928,21.3333333 C25.0481928,21.3333333 35.2192771,20.2307692 37.5722892,14.5897436"
                           id="Shape"
                           fill="#e7e7e7"
                        ></path>
                        <path
                           d="M22.973494,3.82051282 L19.6590361,2.46153846 C19.6590361,2.46153846 18.2674699,1.79487179 17.4578313,2.46153846 C16.6481928,3.12820513 16.5722892,4.35897436 16.3951807,5.51282051 C16.2180723,6.66666667 15.4337349,11.8717949 15.4337349,11.8717949 C15.4337349,11.8717949 18.3939759,2.61538462 22.973494,3.82051282"
                           id="Shape"
                           fill="#FFFFFF"
                        ></path>
                        <path
                           d="M13.8903614,74.7948718 L16.4963855,74 C16.4963855,74 18.5457831,73.7179487 18.646988,70.8717949 C18.773494,68.025641 19.3048193,56.8205128 19.5072289,54.7179487 C19.7096386,52.6153846 20.1144578,48.1794872 20.1144578,48.1794872 C20.1144578,48.1794872 19.2289157,49.4358974 18.9,52.5897436 C18.5710843,55.7435897 17.2301205,68.1282051 17.0024096,69.5641026 C16.7746988,71.025641 15.9903614,73.5641026 13.8903614,74.7948718"
                           id="Shape"
                           fill="#e7e7e7"
                        ></path>
                        <path
                           d="M8.14698795,12.6923077 L6.09759036,12.6923077 C6.09759036,12.6923077 4.2253012,12.3846154 3.33975904,14.3846154 L2.6060241,16.0769231 C2.6060241,16.0769231 4.57951807,13.025641 8.14698795,12.6923077"
                           id="Shape"
                           fill="#FFFFFF"
                        ></path>
                     </g>
                  </g>
               </g>
            </g>
         </g>
      </svg>